####
#
# OBJ File Generated by Meshlab
#
####
# Object endstop_holder.obj
#
# Vertices: 140
# Faces: 284
#
####
vn -0.673549 0.505120 0.539616
v 0.005645 -0.012808 0.028537
vn -0.685807 -0.716250 0.129058
v -0.012621 -0.027626 -0.000512
vn 0.522384 0.732716 -0.436168
v 0.013443 -0.016059 -0.001047
vn 0.492737 0.728355 0.476139
v -0.011108 0.024955 0.028447
vn -0.541275 0.244236 0.804593
v -0.013683 -0.010620 -0.016893
vn -0.044023 0.529070 -0.847435
v 0.001347 -0.013586 0.036578
vn 0.548102 -0.835764 0.032918
v 0.013092 0.009472 0.013216
vn -0.043983 0.529132 -0.847399
v 0.000543 0.014107 0.038832
vn -0.005691 0.794324 0.607468
v 0.000983 -0.012741 0.026051
vn -0.973091 0.103951 -0.205639
v -0.013619 0.012405 0.007861
vn 0.718775 0.619083 0.316385
v 0.010814 0.022434 -0.045087
vn 0.512962 -0.603425 0.610531
v -0.001364 -0.022094 0.026090
vn -0.005762 0.794308 0.607488
v 0.000179 0.014953 0.028303
vn 0.718501 0.615689 -0.323548
v -0.003315 -0.013520 0.034092
vn -0.664003 0.477168 0.575684
v -0.015580 0.021600 -0.044241
vn -0.157904 -0.980162 0.119784
v -0.012149 0.005963 0.047346
vn -0.790673 -0.310796 0.527486
v 0.005622 0.015774 -0.048613
vn -0.385237 -0.908058 -0.164385
v -0.014418 0.027804 -0.001845
vn -0.359495 -0.773491 0.521992
v 0.003047 0.007949 0.028352
vn 0.355874 0.515514 0.779486
v -0.002437 0.014812 0.029093
vn -0.293863 -0.673829 -0.677937
v 0.004230 -0.022659 0.035039
vn -0.428306 0.788857 0.440747
v 0.010799 0.025648 0.027745
vn 0.405257 -0.597210 -0.692176
v 0.012079 0.026094 -0.001992
vn 0.921925 -0.181918 0.341993
v 0.011062 0.014096 -0.045536
vn -0.544298 0.838463 0.026823
v -0.012643 -0.012160 0.014045
vn 0.806053 0.584572 0.092488
v -0.004113 -0.013331 0.031484
vn -0.044979 0.712731 -0.699994
v 0.000500 0.023782 0.047014
vn 0.806079 0.584514 0.092625
v -0.004917 0.014363 0.033737
vn 0.043777 -0.529020 0.847480
v 0.001250 -0.021953 0.025301
vn 0.534942 0.842459 0.064032
v 0.013290 -0.017870 -0.007618
vn -0.447173 -0.455747 -0.769630
v 0.006698 0.028472 -0.002521
vn 0.575966 -0.665310 -0.475001
v -0.003048 -0.022732 0.033343
vn 0.698949 0.666448 0.259457
v 0.013159 -0.017176 -0.010996
vn -0.875436 0.482728 0.024192
v -0.013104 -0.018704 -0.006771
vn 0.775107 -0.568538 0.275635
v -0.003230 -0.022309 0.028079
vn 0.770296 0.512526 0.379422
v 0.012384 0.027248 0.008647
vn 0.421186 0.882327 0.210002
v -0.010810 0.014689 0.027611
vn 0.979490 0.164181 0.116806
v 0.011536 0.002386 -0.042321
vn 0.513086 -0.603325 0.610526
v -0.002232 0.007782 0.028521
vn -0.833787 0.532662 0.145157
v 0.005640 0.014697 0.033398
vn -0.429257 0.859483 0.277537
v -0.014010 0.026412 0.009493
vn 0.684410 0.604788 -0.407204
v 0.013446 -0.014900 0.000224
vn 0.337155 -0.493614 -0.801668
v -0.001049 -0.022825 0.035209
vn -0.498588 0.766695 0.404462
v -0.011550 -0.014700 0.045665
vn 0.718452 0.377963 0.583928
v 0.012855 -0.012927 -0.016317
vn -0.385198 -0.908032 -0.164621
v 0.006800 0.025926 -0.001822
vn -0.337172 0.493594 0.801673
v 0.003646 -0.012714 0.026672
vn -0.790581 -0.310787 0.527630
v 0.005784 0.013929 -0.045367
vn -0.552584 0.474560 0.685160
v -0.013539 -0.013761 -0.015472
vn 0.359589 0.773541 -0.521852
v -0.001317 -0.013614 0.035958
vn -0.293916 -0.673775 -0.677968
v 0.003362 0.007216 0.037469
vn -0.337157 0.493563 0.801699
v 0.002843 0.014980 0.028924
vn 0.527113 0.827167 -0.194796
v 0.013387 -0.017485 -0.004190
vn -0.790610 -0.310829 0.527562
v -0.015492 0.015106 -0.047936
vn 0.359578 0.773494 -0.521931
v -0.002121 0.014079 0.038211
vn 0.833729 -0.532739 -0.145207
v -0.003847 -0.022544 0.030734
vn -0.775074 0.568533 -0.275739
v 0.005828 -0.013231 0.033800
vn 0.000652 0.700707 0.713449
v -0.000373 0.025808 0.021790
vn -0.799370 0.374149 0.470128
v 0.006301 -0.001028 -0.043999
vn -0.738283 0.644518 -0.198834
v -0.013006 -0.018320 -0.003344
vn -0.661576 0.718827 -0.213553
v 0.005024 0.014463 0.036053
vn -0.373574 -0.189475 0.908043
v 0.005741 0.017176 -0.043519
vn 0.848111 0.270543 -0.455537
v 0.012612 0.015083 0.003769
vn -0.673470 0.505160 0.539678
v 0.004842 0.014885 0.030789
vn 0.548101 -0.835762 0.032958
v 0.014255 -0.021090 0.019335
vn -0.320284 0.928318 0.188795
v 0.011096 0.015383 0.026910
vn -0.595048 0.649378 -0.473526
v -0.012950 -0.016894 -0.000201
vn -0.214459 -0.976302 -0.029004
v -0.012138 -0.021925 0.020180
vn -0.815759 0.560728 0.141852
v 0.006258 0.002218 -0.042152
vn 0.726567 0.645508 -0.235413
v -0.010671 0.023942 0.041060
vn -0.806090 -0.584492 -0.092674
v 0.006711 -0.022209 0.030396
vn -0.214572 -0.976277 -0.029018
v -0.013301 0.008637 0.014061
vn 0.575581 -0.665496 -0.475207
v -0.003916 0.007143 0.035774
vn 0.385028 -0.884006 0.265118
v 0.015110 -0.023078 0.044071
vn -0.037307 0.979414 -0.198382
v 0.000797 0.013516 0.046180
vn -0.802614 -0.424721 -0.418836
v 0.006860 0.026627 0.000724
vn 0.775115 -0.568515 0.275659
v -0.004097 0.007565 0.030510
vn 0.875484 -0.372446 -0.307917
v 0.013149 -0.025344 -0.019369
vn 0.385195 0.908076 0.164386
v 0.012008 0.036537 0.006097
vn -0.332168 -0.935626 0.119451
v -0.011283 -0.023912 0.044916
vn 0.541320 0.421285 -0.727661
v 0.010577 0.019629 -0.055273
vn 0.734260 -0.009350 0.678804
v 0.012589 -0.006358 -0.018121
vn 0.870865 -0.298677 -0.390368
v 0.011667 -0.007356 -0.047863
vn 0.355813 0.515511 0.779516
v -0.001632 -0.012881 0.026841
vn -0.897259 -0.427499 -0.110323
v -0.013244 -0.026179 -0.018523
vn -0.799400 0.374116 0.470103
v -0.014386 0.035702 0.006942
vn 0.337196 -0.493593 -0.801664
v -0.001916 0.007049 0.037639
vn 0.591594 -0.232515 0.771980
v 0.012504 -0.002978 -0.017424
vn -0.612261 0.384746 -0.690729
v -0.015817 0.018793 -0.054427
vn -0.577351 -0.055103 0.814635
v -0.013805 -0.007192 -0.017275
vn -0.901872 -0.429083 -0.050152
v -0.014726 -0.008191 -0.047017
vn -0.786166 -0.611346 -0.090546
v 0.006816 0.029875 0.002571
vn -0.523553 -0.349590 0.776968
v -0.013889 -0.003813 -0.016579
vn -0.673409 -0.547759 -0.496468
v 0.006094 -0.022443 0.033050
vn -0.599906 -0.758654 0.254080
v 0.005913 -0.022020 0.027787
vn -0.779442 0.597875 -0.187128
v 0.011235 0.024635 0.040357
vn -0.922109 0.181955 -0.341477
v 0.007333 0.014918 0.003938
vn -0.512986 0.603354 -0.610581
v 0.003962 -0.013447 0.035789
vn 0.833606 -0.533007 -0.144927
v -0.004714 0.007331 0.033165
vn 0.910381 -0.413557 -0.013305
v 0.013772 -0.026791 -0.001357
vn -0.003447 -0.660797 -0.750557
v 0.001614 -0.022799 0.035829
vn -0.512977 0.603464 -0.610480
v 0.003158 0.014247 0.038042
vn 0.578699 0.195419 0.791782
v 0.012709 -0.009786 -0.017740
vn -0.684458 0.709844 0.166250
v -0.014813 -0.001696 -0.043323
vn 0.600042 -0.670401 0.436477
v 0.012471 0.002140 -0.013396
vn 0.025070 0.199423 0.979593
v -0.000075 0.015543 0.020955
vn -0.541333 -0.421349 0.727615
v -0.015374 0.016508 -0.042842
vn -0.806137 -0.584410 -0.092784
v 0.005844 0.007666 0.032826
vn 0.418272 0.865935 0.274237
v 0.013741 0.024093 0.047908
vn -0.685665 -0.658689 0.309828
v -0.013922 0.001305 -0.012550
vn 0.384970 -0.884026 0.265136
v 0.014243 0.006797 0.046501
vn -0.724664 0.647554 0.235661
v -0.013233 -0.018011 -0.010151
vn -0.807221 0.485785 0.335273
v -0.012652 0.023259 0.048753
vn 0.317006 0.916306 -0.244727
v -0.010374 0.013676 0.040224
vn 0.815736 -0.560728 -0.141986
v 0.012139 0.026794 0.000554
vn 0.561878 0.701303 0.438712
v -0.003498 -0.013098 0.028829
vn 0.718498 0.615757 -0.323424
v -0.004120 0.014174 0.036346
vn 0.373964 -0.454891 0.808224
v 0.011123 0.014798 -0.042989
vn -0.362848 0.851516 -0.378500
v -0.012947 -0.015735 0.001069
vn 0.561963 0.701310 0.438591
v -0.004301 0.014596 0.031082
vn -0.673446 -0.547719 -0.496462
v 0.005227 0.007432 0.035481
vn 0.556417 0.637343 0.533098
v 0.013009 -0.015473 -0.013994
vn -0.599980 -0.758613 0.254027
v 0.005045 0.007855 0.030216
vn 0.368170 0.929300 -0.029184
v 0.013749 -0.011325 0.013199
vn -0.802572 -0.424791 -0.418844
v -0.014298 0.029207 0.003248
vn -0.564211 0.656528 0.500637
v -0.013384 -0.016308 -0.013148
vn -0.003357 -0.660822 -0.750535
v 0.000747 0.007077 0.038259
vn -0.756639 0.315643 -0.572597
v 0.007495 0.013073 0.007185
vn 0.043813 -0.529058 0.847454
v 0.000384 0.007921 0.027731
vn -0.737740 0.378855 -0.558756
v 0.011532 0.014369 0.039523
vn 0.633755 -0.768208 -0.090619
v 0.011916 -0.004410 -0.037169
vn -0.541196 -0.421311 0.727739
v 0.005844 0.014631 -0.042820
vn -0.711352 0.688302 0.142193
v 0.006443 -0.012997 0.031145
vn -0.912614 -0.374813 -0.163254
v -0.014477 -0.005244 -0.036323
vn 0.139439 0.961865 0.235315
v 0.014843 -0.013865 0.044820
vn -0.359500 -0.773378 0.522156
v 0.003914 -0.021927 0.025922
vn 0.595204 -0.464446 0.655761
v 0.012465 0.000021 -0.015718
vn 0.778509 0.140854 -0.611624
v 0.011771 0.033730 -0.004089
vn -0.612230 0.384778 -0.690739
v -0.014623 0.032896 -0.003243
vn -0.521079 -0.568160 0.636923
v -0.013929 -0.000814 -0.014872
# 140 vertices, 0 vertices normals

f 81//81 89//89 11//11
f 89//89 15//15 11//11
f 83//83 81//81 11//11
f 83//83 38//38 131//131
f 78//78 33//33 100//100
f 100//100 42//42 65//65
f 65//65 124//124 74//74
f 65//65 42//42 124//124
f 100//100 3//3 42//42
f 100//100 33//33 30//30
f 100//100 53//53 3//3
f 100//100 30//30 53//53
f 78//78 122//122 33//33
f 78//78 45//45 122//122
f 103//103 38//38 82//82
f 111//111 63//63 109//109
f 45//45 38//38 103//103
f 36//36 138//138 79//79
f 36//36 115//115 138//138
f 78//78 38//38 45//45
f 109//109 63//63 36//36
f 36//36 63//63 115//115
f 131//131 38//38 78//78
f 83//83 24//24 38//38
f 11//11 118//118 24//24
f 83//83 11//11 24//24
f 74//74 124//124 135//135
f 115//115 23//23 138//138
f 82//82 38//38 88//88
f 88//88 38//38 137//137
f 137//137 38//38 105//105
f 105//105 38//38 7//7
f 111//111 7//7 63//63
f 7//7 38//38 63//63
f 89//89 81//81 83//83
f 89//89 83//83 91//91
f 89//89 54//54 15//15
f 104//104 54//54 91//91
f 89//89 91//91 54//54
f 91//91 10//10 104//104
f 91//91 113//113 10//10
f 10//10 86//86 125//125
f 125//125 86//86 139//139
f 10//10 41//41 86//86
f 10//10 113//113 41//41
f 110//110 72//72 113//113
f 72//72 16//16 113//113
f 134//134 110//110 113//113
f 91//91 134//134 113//113
f 112//112 85//85 2//2
f 112//112 2//2 34//34
f 25//25 119//119 67//67
f 34//34 44//44 60//60
f 60//60 25//25 67//67
f 60//60 44//44 25//25
f 34//34 80//80 44//44
f 34//34 68//68 80//80
f 34//34 2//2 68//68
f 134//134 140//140 110//110
f 139//139 18//18 125//125
f 54//54 107//107 15//15
f 126//126 85//85 112//112
f 49//49 85//85 126//126
f 5//5 85//85 49//49
f 90//90 85//85 5//5
f 134//134 93//93 140//140
f 134//134 90//90 93//93
f 134//134 85//85 90//90
f 132//132 118//118 62//62
f 118//118 11//11 62//62
f 15//15 107//107 62//62
f 11//11 15//15 62//62
f 118//118 132//132 48//48
f 118//118 48//48 24//24
f 69//69 38//38 48//48
f 38//38 24//24 48//48
f 97//97 63//63 69//69
f 63//63 38//38 69//69
f 63//63 97//97 76//76
f 63//63 76//76 115//115
f 115//115 76//76 46//46
f 115//115 46//46 23//23
f 31//31 18//18 139//139
f 31//31 23//23 46//46
f 31//31 138//138 23//23
f 31//31 139//139 138//138
f 138//138 139//139 79//79
f 139//139 86//86 79//79
f 79//79 86//86 36//36
f 86//86 41//41 36//36
f 36//36 22//22 109//109
f 22//22 96//96 109//109
f 36//36 41//41 22//22
f 22//22 41//41 58//58
f 41//41 113//113 4//4
f 4//4 113//113 70//70
f 27//27 113//113 109//109
f 70//70 113//113 27//27
f 4//4 58//58 41//41
f 96//96 27//27 109//109
f 109//109 113//113 111//111
f 113//113 16//16 111//111
f 111//111 123//123 7//7
f 111//111 51//51 121//121
f 19//19 72//72 7//7
f 111//111 108//108 123//123
f 123//123 19//19 7//7
f 111//111 16//16 51//51
f 51//51 16//16 127//127
f 127//127 16//16 87//87
f 87//87 16//16 73//73
f 73//73 16//16 72//72
f 99//99 73//73 72//72
f 72//72 39//39 77//77
f 72//72 77//77 99//99
f 72//72 129//129 39//39
f 129//129 72//72 19//19
f 111//111 121//121 108//108
f 110//110 105//105 7//7
f 110//110 7//7 72//72
f 110//110 140//140 105//105
f 140//140 137//137 105//105
f 140//140 93//93 137//137
f 93//93 88//88 137//137
f 93//93 90//90 88//88
f 90//90 82//82 88//88
f 5//5 103//103 90//90
f 103//103 82//82 90//90
f 49//49 45//45 5//5
f 45//45 103//103 5//5
f 126//126 122//122 49//49
f 122//122 45//45 49//49
f 112//112 33//33 126//126
f 33//33 122//122 126//126
f 34//34 30//30 112//112
f 30//30 33//33 112//112
f 60//60 53//53 34//34
f 53//53 30//30 34//34
f 67//67 3//3 60//60
f 3//3 53//53 60//60
f 67//67 119//119 42//42
f 67//67 42//42 3//3
f 25//25 124//124 119//119
f 124//124 42//42 119//119
f 44//44 116//116 25//25
f 14//14 26//26 44//44
f 9//9 124//124 25//25
f 116//116 84//84 25//25
f 44//44 26//26 116//116
f 6//6 50//50 135//135
f 44//44 50//50 14//14
f 57//57 98//98 135//135
f 44//44 135//135 50//50
f 133//133 57//57 135//135
f 6//6 135//135 98//98
f 135//135 124//124 133//133
f 133//133 124//124 1//1
f 47//47 124//124 9//9
f 1//1 124//124 47//47
f 84//84 9//9 25//25
f 135//135 44//44 74//74
f 44//44 80//80 74//74
f 74//74 95//95 65//65
f 74//74 21//21 94//94
f 136//136 68//68 65//65
f 74//74 71//71 95//95
f 95//95 136//136 65//65
f 74//74 80//80 21//21
f 21//21 80//80 101//101
f 101//101 80//80 43//43
f 43//43 80//80 32//32
f 32//32 80//80 68//68
f 68//68 35//35 56//56
f 68//68 56//56 32//32
f 68//68 12//12 35//35
f 12//12 68//68 29//29
f 29//29 68//68 136//136
f 74//74 94//94 71//71
f 65//65 68//68 2//2
f 65//65 2//2 100//100
f 85//85 78//78 100//100
f 85//85 100//100 2//2
f 78//78 85//85 134//134
f 78//78 134//134 131//131
f 91//91 83//83 131//131
f 91//91 131//131 134//134
f 92//92 125//125 18//18
f 92//92 18//18 31//31
f 128//128 10//10 125//125
f 128//128 125//125 92//92
f 10//10 128//128 104//104
f 128//128 59//59 104//104
f 104//104 59//59 54//54
f 59//59 17//17 54//54
f 62//62 107//107 54//54
f 62//62 54//54 17//17
f 59//59 69//69 48//48
f 132//132 62//62 48//48
f 62//62 17//17 48//48
f 76//76 97//97 92//92
f 31//31 76//76 92//92
f 128//128 97//97 69//69
f 92//92 97//97 128//128
f 59//59 128//128 69//69
f 17//17 59//59 48//48
f 31//31 46//46 76//76
f 130//130 96//96 66//66
f 96//96 22//22 66//66
f 66//66 22//22 106//106
f 22//22 58//58 106//106
f 130//130 75//75 27//27
f 130//130 27//27 96//96
f 27//27 75//75 114//114
f 27//27 114//114 70//70
f 70//70 114//114 37//37
f 70//70 37//37 4//4
f 37//37 106//106 4//4
f 106//106 58//58 4//4
f 19//19 52//52 129//129
f 52//52 13//13 129//129
f 123//123 64//64 19//19
f 64//64 52//52 19//19
f 39//39 129//129 20//20
f 129//129 13//13 20//20
f 77//77 39//39 120//120
f 39//39 20//20 120//120
f 28//28 99//99 77//77
f 28//28 77//77 120//120
f 117//117 73//73 99//99
f 117//117 99//99 28//28
f 55//55 87//87 73//73
f 55//55 73//73 117//117
f 8//8 127//127 87//87
f 8//8 87//87 55//55
f 51//51 127//127 8//8
f 51//51 8//8 102//102
f 121//121 51//51 102//102
f 121//121 102//102 61//61
f 121//121 61//61 108//108
f 61//61 40//40 108//108
f 108//108 40//40 123//123
f 40//40 64//64 123//123
f 12//12 29//29 84//84
f 29//29 9//9 84//84
f 136//136 47//47 29//29
f 47//47 9//9 29//29
f 95//95 1//1 136//136
f 1//1 47//47 136//136
f 71//71 133//133 95//95
f 133//133 1//1 95//95
f 94//94 57//57 71//71
f 57//57 133//133 71//71
f 94//94 21//21 98//98
f 94//94 98//98 57//57
f 21//21 101//101 6//6
f 21//21 6//6 98//98
f 6//6 101//101 43//43
f 6//6 43//43 50//50
f 50//50 43//43 32//32
f 50//50 32//32 14//14
f 14//14 32//32 56//56
f 14//14 56//56 26//26
f 26//26 56//56 35//35
f 26//26 35//35 116//116
f 35//35 12//12 116//116
f 12//12 84//84 116//116
f 130//130 66//66 75//75
f 64//64 40//40 66//66
f 66//66 61//61 75//75
f 66//66 106//106 37//37
f 120//120 37//37 114//114
f 20//20 37//37 120//120
f 117//117 28//28 114//114
f 13//13 52//52 66//66
f 55//55 114//114 75//75
f 8//8 55//55 75//75
f 102//102 8//8 75//75
f 61//61 102//102 75//75
f 52//52 64//64 66//66
f 40//40 61//61 66//66
f 13//13 37//37 20//20
f 66//66 37//37 13//13
f 28//28 120//120 114//114
f 55//55 117//117 114//114
# 284 faces, 0 coords texture

# End of File
