# Blender v2.79 (sub 0) OBJ File: 'scales.blend'
# www.blender.org
mtllib needle.mtl
o x_reg_hanson_scales_display-arrow_Untitled.001
v 0.003403 -0.006627 0.001262
v 0.003403 -0.006627 -0.001238
v 0.004606 -0.005374 -0.001238
v 0.004606 -0.005374 0.001262
v 0.005656 -0.004047 -0.001238
v 0.005656 -0.004047 0.001262
v 0.006399 -0.002571 -0.001238
v 0.006399 -0.002571 0.001262
v 0.006680 -0.000872 -0.001238
v 0.006680 -0.000872 0.001262
v 0.006297 0.001363 -0.001238
v 0.006297 0.001363 0.001262
v 0.005236 0.003279 -0.001238
v 0.005236 0.003279 0.001262
v 0.003629 0.004742 -0.001238
v 0.003629 0.004742 0.001262
v 0.002815 0.005622 -0.001238
v 0.002815 0.005622 0.001262
v 0.002296 0.005779 -0.001238
v 0.002296 0.005779 0.001262
v 0.002025 0.006037 -0.001238
v 0.002025 0.006037 0.001262
v 0.001919 0.006361 -0.001238
v 0.001919 0.006361 0.001262
v 0.001895 0.006719 -0.001238
v 0.001895 0.006719 0.001262
v 0.000170 0.075262 -0.000927
v 0.000170 0.075262 0.000388
v -0.000191 0.075262 0.000388
v -0.000191 0.075262 -0.000927
v -0.001915 0.006719 -0.001238
v -0.001915 0.006719 0.001262
v -0.001939 0.006361 -0.001238
v -0.001939 0.006361 0.001262
v -0.002045 0.006037 -0.001238
v -0.002045 0.006037 0.001262
v -0.002317 0.005779 -0.001238
v -0.002317 0.005779 0.001262
v -0.002836 0.005622 -0.001238
v -0.002836 0.005622 0.001262
v -0.003650 0.004742 -0.001238
v -0.003650 0.004742 0.001262
v -0.005257 0.003279 -0.001238
v -0.005257 0.003279 0.001262
v -0.006318 0.001363 -0.001238
v -0.006318 0.001363 0.001262
v -0.006701 -0.000872 -0.001238
v -0.006701 -0.000872 0.001262
v -0.006419 -0.002571 -0.001238
v -0.006419 -0.002571 0.001262
v -0.005677 -0.004047 -0.001238
v -0.005677 -0.004047 0.001262
v -0.004627 -0.005374 -0.001238
v -0.004627 -0.005374 0.001262
v -0.003424 -0.006627 -0.001238
v -0.003424 -0.006627 0.001262
v -0.000010 -0.007354 -0.001238
v -0.000010 -0.007354 0.001262
v -0.001717 -0.007156 -0.001169
v -0.001717 -0.007156 0.001332
v 0.001696 -0.007156 0.001332
v 0.001696 -0.007156 -0.001169
v 0.008335 -0.022551 -0.001238
v 0.008335 -0.022551 0.001262
v 0.005138 -0.023467 0.001332
v -0.000010 -0.024025 0.001262
v -0.005159 -0.023467 0.001332
v -0.008355 -0.022551 0.001262
v -0.008355 -0.022551 -0.001238
v -0.005157 -0.023468 -0.001169
v -0.000010 -0.024025 -0.001238
v 0.005136 -0.023468 -0.001169
vt 0.000000 0.000000
vt 0.010199 1.000000
vt 0.010199 0.000000
vt 0.020134 1.000000
vt 0.020134 0.000000
vt 0.029831 1.000000
vt 0.029831 0.000000
vt 0.039936 1.000000
vt 0.039936 0.000000
vt 0.053246 0.000000
vt 0.053246 1.000000
vt 0.066100 0.000000
vt 0.066100 1.000000
vt 0.078860 0.000000
vt 0.078860 1.000000
vt 0.091797 0.000000
vt 0.091797 1.000000
vt 0.093771 0.000000
vt 0.093771 1.000000
vt 0.095536 0.000000
vt 0.095536 1.000000
vt 0.097473 0.000000
vt 0.099575 1.000000
vt 0.099575 0.000000
vt 0.458117 0.000000
vt 0.501807 0.000000
vt 0.860350 1.000000
vt 0.860350 0.000000
vt 0.862452 0.000000
vt 0.862452 1.000000
vt 0.864389 0.000000
vt 0.864389 1.000000
vt 0.866154 0.000000
vt 0.866154 1.000000
vt 0.868127 0.000000
vt 0.868127 1.000000
vt 0.881065 0.000000
vt 0.881065 1.000000
vt 0.893825 0.000000
vt 0.893825 1.000000
vt 0.906678 0.000000
vt 0.906678 1.000000
vt 0.919988 0.000000
vt 0.919988 1.000000
vt 0.930093 0.000000
vt 0.939791 1.000000
vt 0.939791 0.000000
vt 0.949725 0.000000
vt 0.959925 1.000000
vt 0.959925 0.000000
vt 0.959925 0.000000
vt 0.969943 1.000000
vt 0.969943 0.000000
vt 0.582595 0.166206
vt 0.581578 0.170785
vt 0.418422 0.170785
vt 0.418422 0.170785
vt 0.581578 0.170785
vt 0.582595 0.166206
vt 0.979962 0.000000
vt 0.989981 1.000000
vt 0.989981 0.000000
vt 0.458117 1.000000
vt 1.000000 0.000000
vt 1.000000 1.000000
vt 0.000000 1.000000
vt 0.627539 0.000000
vt 0.755077 0.000000
vt 0.500000 0.000000
vt 0.372461 0.000000
vt 0.372461 0.000000
vt 0.959925 1.000000
vt 0.244923 0.000000
vt 0.500000 0.000000
vt 0.979962 1.000000
vt 0.627539 0.000000
vt 0.097473 1.000000
vt 0.501807 1.000000
vt 0.930093 1.000000
vt 0.949725 1.000000
vt 0.076538 0.033026
vt 0.154990 0.016038
vt 0.228022 0.145493
vt 0.244923 0.000000
vt 0.845010 0.016039
vt 0.923462 0.033026
vt 0.978952 0.051913
vt 1.000000 0.073648
vt 0.971371 0.102249
vt 0.771978 0.145494
vt 0.620975 0.156753
vt 0.598760 0.158761
vt 0.892070 0.126762
vt 0.021048 0.051913
vt 0.000000 0.073647
vt 0.028629 0.102249
vt 0.107930 0.126762
vt 0.401240 0.158761
vt 0.379025 0.156752
vt 0.412856 0.162055
vt 0.587144 0.162055
vt 0.417405 0.166206
vt 0.504685 0.952380
vt 0.495315 0.952380
vt 0.154990 0.016038
vt 0.076538 0.033026
vt 0.021048 0.051913
vt 0.000000 0.073647
vt 0.028629 0.102249
vt 0.228022 0.145493
vt 0.379025 0.156752
vt 0.401240 0.158761
vt 0.107930 0.126762
vt 0.845010 0.016039
vt 0.755077 0.000000
vt 0.923462 0.033026
vt 0.771978 0.145494
vt 1.000000 0.073648
vt 0.978952 0.051913
vt 0.892070 0.126762
vt 0.971371 0.102249
vt 0.598760 0.158761
vt 0.620975 0.156753
vt 0.412856 0.162055
vt 0.587144 0.162055
vt 0.417405 0.166206
vt 0.495315 0.952380
vt 0.504685 0.952380
vn 0.7213 -0.6926 -0.0000
vn 0.7537 -0.6572 -0.0000
vn 0.8432 -0.5376 -0.0000
vn 0.9507 -0.3100 -0.0000
vn 1.0000 0.0027 -0.0000
vn 0.9435 0.3314 -0.0000
vn 0.7845 0.6201 -0.0000
vn 0.7845 0.6202 -0.0000
vn 0.7043 0.7099 -0.0000
vn 0.5303 0.8478 -0.0000
vn 0.5025 0.8646 -0.0000
vn 0.8451 0.5346 -0.0000
vn 0.9817 0.1902 -0.0000
vn 0.9978 0.0662 -0.0000
vn 0.9978 0.0663 0.0000
vn 0.9997 0.0252 -0.0000
vn -0.9997 0.0252 0.0000
vn -0.9978 0.0662 0.0000
vn -0.9817 0.1902 0.0000
vn -0.8451 0.5346 0.0000
vn -0.5025 0.8646 0.0000
vn -0.5303 0.8478 0.0000
vn -0.7043 0.7099 0.0000
vn -0.7845 0.6202 0.0000
vn -0.7845 0.6201 0.0000
vn -0.9435 0.3314 0.0000
vn -1.0000 0.0027 0.0000
vn -0.9507 -0.3100 0.0000
vn -0.8432 -0.5376 0.0000
vn -0.7537 -0.6572 0.0000
vn -0.7213 -0.6926 0.0000
vn -0.2754 -0.9613 -0.0000
vn -0.1924 -0.9813 0.0000
vn -0.1921 -0.9814 0.0000
vn -0.0000 -0.0000 1.0000
vn -0.0000 0.0062 1.0000
vn 0.0000 0.0022 -1.0000
vn 0.0000 -0.0000 -1.0000
vn 0.0000 -1.0000 0.0000
vn 0.1924 -0.9813 0.0000
vn 0.1921 -0.9814 0.0000
vn 0.0000 1.0000 0.0000
vn 0.2754 -0.9613 -0.0000
vn 0.9552 0.2959 0.0000
vn 0.0351 0.0106 0.9993
vn 0.0217 0.0048 0.9998
vn 0.0371 0.0115 0.9992
vn -0.0349 -0.0068 0.9994
vn -0.0153 -0.0006 0.9999
vn -0.0397 -0.0084 0.9992
vn 0.0349 -0.0068 0.9994
vn 0.0153 -0.0006 0.9999
vn 0.0135 -0.0000 0.9999
vn -0.0351 0.0106 0.9993
vn -0.0216 0.0048 0.9998
vn -0.0205 0.0043 0.9998
vn -0.9552 0.2959 0.0000
vn 0.0351 -0.0106 -0.9993
vn 0.0216 -0.0048 -0.9998
vn 0.0371 -0.0115 -0.9992
vn -0.0349 0.0068 -0.9994
vn -0.0153 0.0006 -0.9999
vn -0.0397 0.0084 -0.9992
vn 0.0349 0.0068 -0.9994
vn 0.0153 0.0006 -0.9999
vn 0.0135 0.0000 -0.9999
vn -0.0351 -0.0106 -0.9993
vn -0.0216 -0.0048 -0.9998
vn -0.0205 -0.0043 -0.9998
vn -0.0022 0.0015 1.0000
vn -0.0578 -0.0555 0.9968
vn 0.0458 0.1135 0.9925
vn -0.0000 0.0259 0.9997
vn -0.0458 0.1135 0.9925
vn 0.0022 0.0015 1.0000
vn 0.0578 -0.0555 0.9968
vn 0.0000 0.0128 0.9999
vn 0.0578 0.0555 -0.9968
vn 0.0022 -0.0015 -1.0000
vn -0.0458 -0.1135 -0.9925
vn -0.0022 -0.0015 -1.0000
vn 0.0000 -0.0259 -0.9997
vn -0.0578 0.0555 -0.9968
vn 0.0458 -0.1135 -0.9925
vn 0.0000 0.0045 -1.0000
vn 0.0205 0.0043 0.9998
vn -0.0135 -0.0000 0.9999
vn 0.0397 -0.0084 0.9992
vn -0.0371 0.0115 0.9992
vn 0.0205 -0.0043 -0.9998
vn -0.0135 0.0000 -0.9999
vn 0.0397 0.0084 -0.9992
vn -0.0371 -0.0115 -0.9992
usemtl arrow1
s 1
f 1/1/1 3/2/2 4/3/2
f 4/3/2 5/4/3 6/5/3
f 6/5/3 7/6/4 8/7/4
f 8/7/4 9/8/5 10/9/5
f 9/8/5 12/10/6 10/9/5
f 11/11/6 14/12/7 12/10/6
f 13/13/8 16/14/9 14/12/7
f 15/15/9 18/16/10 16/14/9
f 17/17/10 20/18/11 18/16/10
f 19/19/11 22/20/12 20/18/11
f 21/21/12 24/22/13 22/20/12
f 24/22/13 25/23/14 26/24/15
f 25/23/16 28/25/16 26/24/16
f 29/26/17 31/27/17 32/28/17
f 31/27/18 34/29/19 32/28/18
f 33/30/19 36/31/20 34/29/19
f 35/32/20 38/33/21 36/31/20
f 37/34/21 40/35/22 38/33/21
f 39/36/22 42/37/23 40/35/22
f 41/38/23 44/39/24 42/37/23
f 43/40/25 46/41/26 44/39/24
f 45/42/26 48/43/27 46/41/26
f 47/44/27 50/45/28 48/43/27
f 50/45/28 51/46/29 52/47/29
f 51/46/29 54/48/30 52/47/29
f 54/48/30 55/49/31 56/50/31
f 68/51/32 70/52/33 67/53/34
f 24/54/35 26/55/36 32/56/36
f 31/57/37 25/58/37 23/59/38
f 66/60/39 72/61/40 65/62/41
f 27/63/42 29/26/42 28/25/42
f 70/52/33 66/60/39 67/53/34
f 72/61/40 64/64/43 65/62/41
f 1/1/44 63/65/44 2/66/44
f 61/67/45 64/64/46 1/68/47
f 58/69/48 65/62/49 61/67/50
f 58/69/51 67/53/52 66/60/53
f 60/70/54 68/51/55 67/53/56
f 55/49/57 68/51/57 56/50/57
f 59/71/58 69/72/59 55/73/60
f 57/74/61 70/52/62 59/71/63
f 57/74/64 72/61/65 71/75/66
f 62/76/67 63/65/68 72/61/69
f 1/1/1 2/66/1 3/2/2
f 4/3/2 3/2/2 5/4/3
f 6/5/3 5/4/3 7/6/4
f 8/7/4 7/6/4 9/8/5
f 9/8/5 11/11/6 12/10/6
f 11/11/6 13/13/8 14/12/7
f 13/13/8 15/15/9 16/14/9
f 15/15/9 17/17/10 18/16/10
f 17/17/10 19/19/11 20/18/11
f 19/19/11 21/21/12 22/20/12
f 21/21/12 23/77/13 24/22/13
f 24/22/13 23/77/13 25/23/14
f 25/23/16 27/63/16 28/25/16
f 29/26/17 30/78/17 31/27/17
f 31/27/18 33/30/19 34/29/19
f 33/30/19 35/32/20 36/31/20
f 35/32/20 37/34/21 38/33/21
f 37/34/21 39/36/22 40/35/22
f 39/36/22 41/38/23 42/37/23
f 41/38/23 43/40/25 44/39/24
f 43/40/25 45/42/26 46/41/26
f 45/42/26 47/44/27 48/43/27
f 47/44/27 49/79/28 50/45/28
f 50/45/28 49/79/28 51/46/29
f 51/46/29 53/80/30 54/48/30
f 54/48/30 53/80/30 55/49/31
f 68/51/32 69/72/32 70/52/33
f 52/81/35 54/82/70 42/83/35
f 56/84/71 60/70/72 54/82/70
f 58/69/73 61/67/74 4/85/75
f 1/68/76 4/85/75 61/67/74
f 6/86/35 8/87/35 10/88/35
f 10/88/35 12/89/35 6/86/35
f 16/90/35 18/91/35 20/92/35
f 12/89/35 14/93/35 6/86/35
f 4/85/75 54/82/70 58/69/73
f 60/70/72 58/69/73 54/82/70
f 50/94/35 52/81/35 48/95/35
f 46/96/35 48/95/35 52/81/35
f 42/83/35 44/97/35 52/81/35
f 38/98/35 40/99/35 42/83/35
f 38/98/35 42/83/35 16/90/35
f 46/96/35 52/81/35 44/97/35
f 4/85/75 16/90/35 54/82/70
f 14/93/35 16/90/35 6/86/35
f 16/90/35 20/92/35 38/98/35
f 4/85/75 6/86/35 16/90/35
f 36/100/35 38/98/35 20/92/35
f 42/83/35 54/82/70 16/90/35
f 36/100/35 20/92/35 22/101/35
f 34/102/35 36/100/35 22/101/35
f 34/102/35 22/101/35 24/54/35
f 28/103/77 29/104/77 26/55/36
f 32/56/36 34/102/35 24/54/35
f 26/55/36 29/104/77 32/56/36
f 55/73/78 53/105/79 59/71/80
f 51/106/38 49/107/38 47/108/38
f 47/108/38 45/109/38 51/106/38
f 41/110/38 39/111/38 37/112/38
f 45/109/38 43/113/38 51/106/38
f 53/105/79 3/114/81 57/74/82
f 57/74/82 59/71/80 53/105/79
f 2/115/83 62/76/84 3/114/81
f 5/116/38 3/114/81 15/117/38
f 9/118/38 7/119/38 5/116/38
f 13/120/38 11/121/38 5/116/38
f 19/122/38 17/123/38 15/117/38
f 15/117/38 13/120/38 5/116/38
f 9/118/38 5/116/38 11/121/38
f 62/76/84 57/74/82 3/114/81
f 51/106/38 43/113/38 41/110/38
f 41/110/38 3/114/81 53/105/79
f 53/105/79 51/106/38 41/110/38
f 19/122/38 37/112/38 35/124/38
f 21/125/38 19/122/38 35/124/38
f 3/114/81 41/110/38 15/117/38
f 41/110/38 37/112/38 15/117/38
f 15/117/38 37/112/38 19/122/38
f 21/125/38 35/124/38 33/126/38
f 23/59/38 21/125/38 33/126/38
f 31/57/37 30/127/85 25/58/37
f 23/59/38 33/126/38 31/57/37
f 30/127/85 27/128/85 25/58/37
f 66/60/39 71/75/39 72/61/40
f 27/63/42 30/78/42 29/26/42
f 70/52/33 71/75/39 66/60/39
f 72/61/40 63/65/43 64/64/43
f 1/1/44 64/64/44 63/65/44
f 61/67/45 65/62/86 64/64/46
f 58/69/48 66/60/87 65/62/49
f 58/69/51 60/70/88 67/53/52
f 60/70/54 56/84/89 68/51/55
f 55/49/57 69/72/57 68/51/57
f 59/71/58 70/52/90 69/72/59
f 57/74/61 71/75/91 70/52/62
f 57/74/64 62/76/92 72/61/65
f 62/76/67 2/115/93 63/65/68
