####
#
# OBJ File Generated by Meshlab
#
####
# Object link_7.obj
#
# Vertices: 64
# Faces: 124
#
####
vn 4.485919 1.450390 -3.764117
v 0.025010 0.006730 -0.009319 0.407843 0.666667 0.337255
vn -5.141270 -1.515312 -1.211279
v -0.031679 -0.002960 -0.000369 0.407843 0.666667 0.337255
vn -5.197851 -0.771800 -3.404145
v -0.029445 -0.003332 -0.003725 0.407843 0.666667 0.337255
vn 1.194557 -4.230081 2.198762
v 0.003000 -0.031687 0.007090 0.407843 0.666667 0.337255
vn 0.835445 3.253629 2.887093
v 0.002627 0.030975 0.007464 0.407843 0.666667 0.337255
vn 3.658187 -0.337282 2.920719
v 0.031348 -0.002215 0.007461 0.407843 0.666667 0.337255
vn 1.225120 -2.639596 -4.292365
v 0.008971 -0.023102 -0.011187 0.407843 0.666667 0.337255
vn -1.777202 2.502759 -3.713816
v -0.012661 0.021273 -0.011187 0.407843 0.666667 0.337255
vn -1.059034 -0.511063 6.031545
v -0.004827 -0.018999 0.012687 0.407843 0.666667 0.337255
vn -3.930565 1.190072 2.213312
v -0.031679 0.002999 0.007090 0.407843 0.666667 0.337255
vn -2.106216 -2.269290 -3.583632
v -0.016764 -0.018254 -0.011187 0.407843 0.666667 0.337255
vn 2.002548 2.356599 -3.623445
v 0.015308 0.019411 -0.011187 0.407843 0.666667 0.337255
vn -3.118225 -3.208236 2.759876
v -0.018626 -0.019371 0.007461 0.407843 0.666667 0.337255
vn 2.413813 -1.927749 -3.688468
v 0.019784 -0.014896 -0.011184 0.407843 0.666667 0.337255
vn 3.370023 3.076598 2.569926
v 0.020156 0.017921 0.007090 0.407843 0.666667 0.337255
vn -1.237272 5.147691 -1.204625
v -0.002587 0.031726 -0.000365 0.407843 0.666667 0.337255
vn -1.510266 -5.129876 -1.272552
v -0.002959 -0.031687 -0.000365 0.407843 0.666667 0.337255
vn -2.662982 1.175522 -4.278525
v -0.023107 0.008964 -0.011184 0.407843 0.666667 0.337255
vn -2.923881 3.204561 2.730194
v -0.017509 0.020528 0.007087 0.407843 0.666667 0.337255
vn 1.030506 -0.463493 6.051865
v 0.004868 -0.018993 0.012687 0.407843 0.666667 0.337255
vn 3.061430 -3.467118 2.467335
v 0.014936 -0.023847 0.007090 0.407843 0.666667 0.337255
vn 5.160137 1.319327 -1.165266
v 0.031720 0.002627 -0.000369 0.407843 0.666667 0.337255
vn 5.148498 -1.639673 -1.321204
v 0.031348 -0.003332 -0.000741 0.407843 0.666667 0.337255
vn -4.643714 4.064900 -0.541967
v -0.020494 0.017543 -0.000367 0.407843 0.666667 0.337255
vn 0.275213 2.726464 -4.647930
v 0.001882 0.024638 -0.011187 0.407843 0.666667 0.337255
vn 1.667405 5.177417 -1.173308
v 0.003372 0.031348 -0.000365 0.407843 0.666667 0.337255
vn 3.933020 -4.581419 -0.859107
v 0.015308 -0.023474 -0.000739 0.407843 0.666667 0.337255
vn 2.716443 -0.131399 -4.670150
v 0.024638 -0.001842 -0.011184 0.407843 0.666667 0.337255
vn -0.598857 -2.696604 -4.605486
v -0.004827 -0.024225 -0.011187 0.407843 0.666667 0.337255
vn -3.364839 -1.278273 2.706958
v -0.030934 -0.003704 0.007464 0.407843 0.666667 0.337255
vn -1.447230 -4.068202 2.324737
v -0.003331 -0.031308 0.007464 0.407843 0.666667 0.337255
vn -2.684892 -0.860361 -4.491907
v -0.023852 -0.006690 -0.011184 0.407843 0.666667 0.337255
vn 1.387357 -5.233667 -1.370225
v 0.003000 -0.031687 -0.000365 0.407843 0.666667 0.337255
vn -5.141319 1.522658 -1.304077
v -0.031679 0.002999 -0.000369 0.407843 0.666667 0.337255
vn -0.514250 2.350678 5.420322
v -0.003331 0.030603 0.007464 0.407843 0.666667 0.337255
vn 4.307983 4.369651 -0.643333
v 0.019039 0.019039 -0.000739 0.407843 0.666667 0.337255
vn -0.361958 0.389602 6.228285
v -0.002959 -0.014524 0.012687 0.407843 0.666667 0.337255
vn 3.237553 1.236145 2.794679
v 0.030975 0.002999 0.007461 0.407843 0.666667 0.337255
vn -4.595121 -4.131099 -0.674088
v -0.019749 -0.018254 -0.000741 0.407843 0.666667 0.337255
vn 0.362199 0.389859 6.228232
v 0.003000 -0.014524 0.012687 0.407843 0.666667 0.337255
vn 0.828957 -1.688148 5.598670
v 0.002627 -0.022357 0.012687 0.407843 0.666667 0.337255
vn -2.458577 2.088403 4.539862
v -0.019371 0.017921 0.007461 0.407843 0.666667 0.337255
vn -2.346066 2.008280 -3.621388
v -0.019749 0.014936 -0.011187 0.407843 0.666667 0.337255
vn 2.465252 1.836314 -3.684210
v 0.020535 0.013818 -0.011184 0.407843 0.666667 0.337255
vn 1.741293 1.994366 5.332581
v 0.018666 0.018666 0.007461 0.407843 0.666667 0.337255
vn 3.482424 -2.810949 2.868578
v 0.020907 -0.016764 0.007461 0.407843 0.666667 0.337255
vn -0.727781 -1.765569 5.543414
v -0.002214 -0.022730 0.012687 0.407843 0.666667 0.337255
vn -1.991444 0.856644 5.673170
v -0.030934 0.002999 0.007464 0.407843 0.666667 0.337255
vn -3.487385 0.156684 -4.589091
v -0.024969 0.000758 -0.010810 0.407843 0.666667 0.337255
vn -4.058016 4.638800 -0.697064
v -0.017509 0.020528 -0.000367 0.407843 0.666667 0.337255
vn 1.924505 -2.366217 -3.835203
v 0.014936 -0.019744 -0.011187 0.407843 0.666667 0.337255
vn -2.496498 -1.802668 -3.703121
v -0.020867 -0.013400 -0.011187 0.407843 0.666667 0.337255
vn 2.554492 3.532343 2.756412
v 0.007475 0.028362 0.007090 0.407843 0.666667 0.337255
vn -0.662510 2.702984 -4.561748
v -0.004827 0.024259 -0.011187 0.407843 0.666667 0.337255
vn -4.021547 -4.696182 -0.557580
v -0.017136 -0.020861 -0.000367 0.407843 0.666667 0.337255
vn 0.303738 -2.719007 -4.654838
v 0.003000 -0.024598 -0.011187 0.407843 0.666667 0.337255
vn 1.291486 2.649437 -4.181206
v 0.009716 0.022763 -0.011187 0.407843 0.666667 0.337255
vn 4.806166 -3.922675 -0.566893
v 0.020535 -0.017503 -0.000369 0.407843 0.666667 0.337255
vn 3.439350 -1.600349 2.715874
v 0.030975 -0.003704 0.007461 0.407843 0.666667 0.337255
vn -1.649301 3.921026 2.288394
v -0.004083 0.030975 0.007090 0.407843 0.666667 0.337255
vn 2.655422 -1.191471 -4.284908
v 0.023142 -0.008925 -0.011184 0.407843 0.666667 0.337255
vn 4.995340 3.615891 -0.590982
v 0.028368 0.007475 -0.000369 0.407843 0.666667 0.337255
vn -1.505601 -2.584584 -4.068964
v -0.011165 -0.021985 -0.011187 0.407843 0.666667 0.337255
vn -4.086901 -3.420763 2.074858
v -0.020867 -0.017137 0.007087 0.407843 0.666667 0.337255
# 64 vertices, 0 vertices normals

f 39//39 55//55 64//64
f 8//8 7//7 11//11
f 7//7 8//8 12//12
f 22//22 6//6 23//23
f 10//10 19//19 24//24
f 12//12 8//8 25//25
f 25//25 16//16 26//26
f 16//16 5//5 26//26
f 1//1 22//22 28//28
f 22//22 23//23 28//28
f 11//11 7//7 29//29
f 10//10 2//2 30//30
f 17//17 4//4 31//31
f 2//2 3//3 32//32
f 4//4 17//17 33//33
f 21//21 4//4 33//33
f 27//27 21//21 33//33
f 2//2 10//10 34//34
f 10//10 24//24 34//34
f 12//12 26//26 36//36
f 9//9 20//20 37//37
f 5//5 35//35 37//37
f 20//20 6//6 38//38
f 6//6 22//22 38//38
f 37//37 20//20 40//40
f 5//5 37//37 40//40
f 20//20 38//38 40//40
f 20//20 9//9 41//41
f 4//4 21//21 41//41
f 19//19 10//10 42//42
f 35//35 19//19 42//42
f 37//37 35//35 42//42
f 8//8 11//11 43//43
f 32//32 18//18 43//43
f 18//18 34//34 43//43
f 34//34 24//24 43//43
f 22//22 1//1 44//44
f 1//1 28//28 44//44
f 28//28 12//12 44//44
f 12//12 36//36 44//44
f 38//38 15//15 45//45
f 5//5 40//40 45//45
f 40//40 38//38 45//45
f 41//41 21//21 46//46
f 9//9 30//30 47//47
f 30//30 13//13 47//47
f 13//13 31//31 47//47
f 31//31 4//4 47//47
f 41//41 9//9 47//47
f 4//4 41//41 47//47
f 10//10 30//30 48//48
f 30//30 9//9 48//48
f 9//9 37//37 48//48
f 42//42 10//10 48//48
f 37//37 42//42 48//48
f 3//3 2//2 49//49
f 32//32 3//3 49//49
f 18//18 32//32 49//49
f 2//2 34//34 49//49
f 34//34 18//18 49//49
f 16//16 8//8 50//50
f 24//24 19//19 50//50
f 8//8 43//43 50//50
f 43//43 24//24 50//50
f 7//7 12//12 51//51
f 14//14 27//27 51//51
f 12//12 28//28 51//51
f 33//33 7//7 51//51
f 27//27 33//33 51//51
f 2//2 32//32 52//52
f 39//39 2//2 52//52
f 11//11 39//39 52//52
f 43//43 11//11 52//52
f 32//32 43//43 52//52
f 26//26 5//5 53//53
f 15//15 36//36 53//53
f 36//36 26//26 53//53
f 5//5 45//45 53//53
f 45//45 15//15 53//53
f 8//8 16//16 54//54
f 25//25 8//8 54//54
f 16//16 25//25 54//54
f 11//11 17//17 55//55
f 31//31 13//13 55//55
f 17//17 31//31 55//55
f 39//39 11//11 55//55
f 29//29 7//7 56//56
f 17//17 29//29 56//56
f 33//33 17//17 56//56
f 7//7 33//33 56//56
f 12//12 25//25 57//57
f 25//25 26//26 57//57
f 26//26 12//12 57//57
f 14//14 23//23 58//58
f 27//27 14//14 58//58
f 21//21 27//27 58//58
f 46//46 21//21 58//58
f 46//46 58//58 59//59
f 6//6 20//20 59//59
f 23//23 6//6 59//59
f 20//20 41//41 59//59
f 41//41 46//46 59//59
f 58//58 23//23 59//59
f 5//5 16//16 60//60
f 35//35 5//5 60//60
f 19//19 35//35 60//60
f 16//16 50//50 60//60
f 50//50 19//19 60//60
f 23//23 14//14 61//61
f 28//28 23//23 61//61
f 14//14 51//51 61//61
f 51//51 28//28 61//61
f 36//36 15//15 62//62
f 15//15 38//38 62//62
f 38//38 22//22 62//62
f 22//22 44//44 62//62
f 44//44 36//36 62//62
f 17//17 11//11 63//63
f 11//11 29//29 63//63
f 29//29 17//17 63//63
f 30//30 2//2 64//64
f 13//13 30//30 64//64
f 2//2 39//39 64//64
f 55//55 13//13 64//64
# 124 faces, 0 coords texture

# End of File
