####
#
# OBJ File Generated by Meshlab
#
####
# Object link_5.obj
#
# Vertices: 128
# Faces: 248
#
####
vn 2.793622 0.027447 -4.531144
v 0.039892 0.002348 -0.000817 0.407843 0.666667 0.337255
vn -4.816618 -0.662191 -2.372274
v -0.041800 -0.010723 0.002452 0.407843 0.666667 0.337255
vn -6.232729 -0.387171 0.274974
v -0.041800 -0.010723 0.010623 0.407843 0.666667 0.337255
vn 0.734678 -2.869010 2.166964
v 0.007215 -0.063009 0.041665 0.407843 0.666667 0.337255
vn 0.369922 3.968385 4.175234
v 0.005576 0.038287 0.017160 0.407843 0.666667 0.337255
vn 0.486145 -2.570066 -4.849589
v 0.010478 -0.038484 -0.000817 0.407843 0.666667 0.337255
vn -2.653634 -1.149805 2.091732
v -0.036889 -0.045035 0.041665 0.407843 0.666667 0.337255
vn 2.797545 0.545400 3.804369
v 0.034989 -0.028688 0.041665 0.407843 0.666667 0.337255
vn -1.952590 2.286529 -3.939962
v -0.027085 0.030119 -0.000817 0.407843 0.666667 0.337255
vn -3.072464 2.953789 3.829142
v -0.030356 0.023588 0.020424 0.407843 0.666667 0.337255
vn -1.425181 -2.107350 -4.928758
v -0.022190 -0.033580 -0.000817 0.407843 0.666667 0.337255
vn 3.904004 3.932237 -0.885165
v 0.031727 0.030119 0.004086 0.407843 0.666667 0.337255
vn 4.220832 -3.942216 -1.751705
v 0.030087 -0.045024 0.025323 0.407843 0.666667 0.337255
vn -0.292139 1.239136 6.009862
v -0.020551 -0.023785 0.041665 0.407843 0.666667 0.337255
vn 3.914810 2.286702 3.460263
v 0.036629 0.013782 0.022050 0.407843 0.666667 0.337255
vn -1.141886 -5.456561 -2.504629
v -0.009115 -0.059734 0.030226 0.407843 0.666667 0.337255
vn 4.272449 -0.975314 -2.486118
v 0.041531 -0.012341 0.002452 0.407843 0.666667 0.337255
vn 0.551800 2.897846 -4.133713
v 0.012117 0.038287 -0.000817 0.407843 0.666667 0.337255
vn -5.753776 1.244808 -0.042674
v -0.041800 0.010517 0.008989 0.407843 0.666667 0.337255
vn -2.278858 -2.877010 1.261283
v -0.030356 -0.054820 0.040031 0.407843 0.666667 0.337255
vn -1.441962 5.759476 0.730658
v -0.012378 0.041563 0.005720 0.407843 0.666667 0.337255
vn -3.065204 0.224522 3.649335
v -0.036889 -0.031953 0.041665 0.407843 0.666667 0.337255
vn 2.228732 -1.937917 2.247084
v 0.028456 -0.051565 0.041665 0.407843 0.666667 0.337255
vn 5.904014 1.143679 0.882629
v 0.041531 0.008869 0.012257 0.407843 0.666667 0.337255
vn 1.856530 -1.969775 -4.681623
v 0.026824 -0.030325 -0.000817 0.407843 0.666667 0.337255
vn 2.301172 -5.214825 -2.301799
v 0.015380 -0.056468 0.028587 0.407843 0.666667 0.337255
vn 2.587813 3.308107 3.340652
v 0.028456 0.028481 0.018798 0.407843 0.666667 0.337255
vn 0.312636 1.901231 5.928996
v 0.017012 -0.018881 0.040031 0.407843 0.666667 0.337255
vn -3.944702 -2.644770 -3.221206
v -0.035258 -0.025422 0.002452 0.407843 0.666667 0.337255
vn -2.939408 0.427064 -4.106392
v -0.038529 0.010517 -0.000817 0.407843 0.666667 0.337255
vn -1.291685 3.960444 3.603389
v -0.015649 0.036660 0.017160 0.407843 0.666667 0.337255
vn 1.285804 5.446350 0.103503
v 0.012117 0.041563 0.007354 0.407843 0.666667 0.337255
vn -0.165970 -4.933703 -3.739667
v -0.004213 -0.045035 0.005720 0.407843 0.666667 0.337255
vn -4.329777 1.929742 3.042909
v -0.038529 0.010517 0.022050 0.407843 0.666667 0.337255
vn -4.612641 3.651534 0.473266
v -0.035258 0.025216 0.007354 0.407843 0.666667 0.337255
vn -2.701124 -4.307318 -3.403126
v -0.022190 -0.038484 0.004086 0.407843 0.666667 0.337255
vn 0.850744 -5.313138 -2.990144
v 0.007215 -0.056468 0.023689 0.407843 0.666667 0.337255
vn 2.251354 -4.154748 -3.681887
v 0.020282 -0.038484 0.002452 0.407843 0.666667 0.337255
vn 5.690660 -2.342558 0.163753
v 0.033358 -0.041759 0.035128 0.407843 0.666667 0.337255
vn -0.686170 -2.808547 1.971023
v -0.010746 -0.063009 0.041665 0.407843 0.666667 0.337255
vn 4.350533 2.533732 -1.922185
v 0.036629 0.023578 0.002452 0.407843 0.666667 0.337255
vn 4.282325 -2.834225 -2.820343
v 0.034989 -0.027050 0.004086 0.407843 0.666667 0.337255
vn 6.152845 -0.329690 0.705072
v 0.041531 -0.007468 0.015526 0.407843 0.666667 0.337255
vn -3.379511 4.647210 0.050838
v -0.025453 0.035022 0.007354 0.407843 0.666667 0.337255
vn -0.983547 4.061270 -2.454659
v -0.012378 0.041563 0.002452 0.407843 0.666667 0.337255
vn -2.310414 -0.940958 -5.014658
v -0.036889 -0.015606 -0.000817 0.407843 0.666667 0.337255
vn 1.952313 1.668817 -4.905160
v 0.031727 0.025205 -0.000817 0.407843 0.666667 0.337255
vn 5.444865 1.026586 2.379071
v 0.039892 0.003976 0.022050 0.407843 0.666667 0.337255
vn -1.748664 1.270718 5.349474
v -0.035258 -0.028677 0.041665 0.407843 0.666667 0.337255
vn 4.626898 1.186284 -2.013098
v 0.041531 0.012144 0.002452 0.407843 0.666667 0.337255
vn -6.098445 0.412945 0.951107
v -0.041800 0.003976 0.013891 0.407843 0.666667 0.337255
vn 2.427380 3.996330 -1.725573
v 0.023553 0.036660 0.002452 0.407843 0.666667 0.337255
vn -4.201584 2.116714 -1.985597
v -0.038529 0.020313 0.002452 0.407843 0.666667 0.337255
vn 1.454054 3.943830 3.583277
v 0.015380 0.036660 0.017160 0.407843 0.666667 0.337255
vn -0.920876 -4.046992 -4.311447
v -0.010746 -0.041749 0.002452 0.407843 0.666667 0.337255
vn -2.232472 -5.037063 -2.895094
v -0.017288 -0.053203 0.023689 0.407843 0.666667 0.337255
vn -0.295483 2.239169 5.846158
v -0.017288 -0.018881 0.040031 0.407843 0.666667 0.337255
vn -2.377122 3.402490 3.655020
v -0.025453 0.030119 0.018798 0.407843 0.666667 0.337255
vn 3.066668 -0.598851 3.198776
v 0.034989 -0.033591 0.041665 0.407843 0.666667 0.337255
vn -0.133024 5.581738 1.922069
v -0.000950 0.041563 0.012257 0.407843 0.666667 0.337255
vn 2.963769 -4.996765 -0.104163
v 0.021914 -0.056468 0.038397 0.407843 0.666667 0.337255
vn 0.417659 -5.828703 -1.457345
v 0.002305 -0.063009 0.036763 0.407843 0.666667 0.337255
vn 5.177305 3.019751 1.306169
v 0.036629 0.021950 0.010623 0.407843 0.666667 0.337255
vn 5.652176 -2.327208 -0.535019
v 0.034989 -0.036856 0.025323 0.407843 0.666667 0.337255
vn 5.065184 -1.736083 2.970214
v 0.007206 -0.053200 0.108643 0.000000 0.686275 0.239216
vn -2.880858 -0.623888 -4.071255
v -0.038522 -0.041772 0.041674 0.000000 0.686275 0.239216
vn -2.926013 0.278127 -4.228004
v -0.038522 -0.036869 0.041674 0.000000 0.686275 0.239216
vn 1.945243 1.412624 -1.789842
v 0.033352 -0.028701 0.041674 0.000000 0.686275 0.239216
vn -0.679828 5.218159 2.200530
v -0.036890 -0.025437 0.124989 0.000000 0.686275 0.239216
vn -3.064489 -4.192340 -0.959093
v -0.049954 -0.069540 0.090676 0.000000 0.686275 0.239216
vn 0.744097 -3.020881 -3.344611
v 0.008838 -0.063002 0.041674 0.000000 0.686275 0.239216
vn 0.548328 -4.049997 3.088401
v -0.022195 -0.069540 0.124989 0.000000 0.686275 0.239216
vn -2.453307 5.021023 -0.361780
v -0.053227 -0.025437 0.092315 0.000000 0.686275 0.239216
vn 3.004290 1.983087 4.018220
v -0.005867 -0.031970 0.126628 0.000000 0.686275 0.239216
vn -4.813385 -1.325226 3.248812
v -0.054859 -0.051566 0.118450 0.000000 0.686275 0.239216
vn 4.594706 -3.706088 0.603723
v 0.025184 -0.054834 0.058011 0.000000 0.686275 0.239216
vn -0.068497 3.138355 -3.117393
v -0.012394 -0.025437 0.041674 0.000000 0.686275 0.239216
vn 1.726473 -5.680028 0.447132
v -0.004226 -0.071179 0.102113 0.000000 0.686275 0.239216
vn -5.516618 1.434653 -0.839675
v -0.059764 -0.033604 0.092315 0.000000 0.686275 0.239216
vn -0.858698 -2.870618 -4.032712
v -0.018922 -0.061368 0.041674 0.000000 0.686275 0.239216
vn 1.843167 5.193343 1.479941
v -0.004226 -0.025437 0.115190 0.000000 0.686275 0.239216
vn 5.087299 1.740425 2.205139
v 0.020288 -0.033600 0.087416 0.000000 0.686275 0.239216
vn -1.577822 2.053743 4.659500
v -0.040154 -0.031970 0.131527 0.000000 0.686275 0.239216
vn -0.506549 -6.038679 -1.042268
v -0.025449 -0.071179 0.074348 0.000000 0.686275 0.239216
vn -1.979084 -3.944004 2.444927
v -0.043427 -0.069540 0.120080 0.000000 0.686275 0.239216
vn -4.461652 2.145438 1.948093
v -0.058123 -0.031970 0.113542 0.000000 0.686275 0.239216
vn -1.836318 2.115421 -3.100729
v -0.036890 -0.028701 0.041674 0.000000 0.686275 0.239216
vn -5.592203 -1.568863 -1.407659
v -0.058123 -0.053200 0.090676 0.000000 0.686275 0.239216
vn 1.614848 -1.432159 5.509879
v -0.017290 -0.053200 0.131527 0.000000 0.686275 0.239216
vn -1.773235 -1.015420 5.730208
v -0.038522 -0.049931 0.131527 0.000000 0.686275 0.239216
vn 1.949236 -2.381945 -2.756244
v 0.023552 -0.056469 0.041674 0.000000 0.686275 0.239216
vn 3.151881 -4.273616 1.914560
v -0.004226 -0.069540 0.111921 0.000000 0.686275 0.239216
vn 5.481844 -2.148006 1.606410
v 0.025184 -0.049936 0.069449 0.000000 0.686275 0.239216
vn -4.003016 -3.247411 -3.124763
v -0.035259 -0.054834 0.046574 0.000000 0.686275 0.239216
vn 0.449826 6.221938 -0.201842
v 0.013752 -0.025437 0.049843 0.000000 0.686275 0.239216
vn 0.776866 2.021332 4.827741
v -0.020554 -0.031970 0.133166 0.000000 0.686275 0.239216
vn -3.145285 -3.876062 0.733860
v -0.051595 -0.069540 0.107022 0.000000 0.686275 0.239216
vn 3.330078 -1.413371 4.757088
v -0.007499 -0.053200 0.126628 0.000000 0.686275 0.239216
vn 4.186503 2.438036 2.374889
v 0.012111 -0.031970 0.103744 0.000000 0.686275 0.239216
vn 5.870773 -0.672206 0.510259
v 0.033352 -0.036869 0.048213 0.000000 0.686275 0.239216
vn -5.952229 -1.178241 0.223947
v -0.059764 -0.049931 0.102113 0.000000 0.686275 0.239216
vn 0.905903 -6.086047 -0.429675
v -0.007499 -0.071179 0.079247 0.000000 0.686275 0.239216
vn -0.332646 -6.249488 0.140862
v -0.036890 -0.071179 0.102113 0.000000 0.686275 0.239216
vn 5.148919 -2.363333 2.057678
v 0.017016 -0.053204 0.089046 0.000000 0.686275 0.239216
vn -0.137675 -4.806337 -3.050358
v -0.005867 -0.064637 0.043304 0.000000 0.686275 0.239216
vn -3.267304 2.056491 3.765258
v -0.048323 -0.031970 0.126628 0.000000 0.686275 0.239216
vn -1.931644 5.138879 1.357503
v -0.048323 -0.025437 0.116820 0.000000 0.686275 0.239216
vn -2.283650 -5.109559 -1.704482
v -0.043427 -0.069540 0.080895 0.000000 0.686275 0.239216
vn 0.896948 5.052691 2.262317
v -0.015658 -0.025437 0.124989 0.000000 0.686275 0.239216
vn 4.751777 0.409432 3.852697
v 0.002301 -0.036869 0.118450 0.000000 0.686275 0.239216
vn -1.085118 -2.806641 5.202656
v -0.033618 -0.063002 0.128249 0.000000 0.686275 0.239216
vn -3.282725 -1.317637 4.824043
v -0.045059 -0.051566 0.128249 0.000000 0.686275 0.239216
vn 2.337399 -5.700706 -0.530024
v 0.012111 -0.063002 0.048204 0.000000 0.686275 0.239216
vn 2.758307 -1.294587 -2.539857
v 0.030089 -0.048306 0.041674 0.000000 0.686275 0.239216
vn -2.016756 5.426306 -1.244572
v -0.036890 -0.027067 0.046574 0.000000 0.686275 0.239216
vn 3.726808 2.922152 0.476880
v 0.033352 -0.028701 0.044944 0.000000 0.686275 0.239216
vn -5.025145 2.034017 -1.616578
v -0.058123 -0.031970 0.087416 0.000000 0.686275 0.239216
vn 5.743518 0.257011 2.053898
v 0.025184 -0.036869 0.075978 0.000000 0.686275 0.239216
vn -0.206551 -0.986063 5.989883
v -0.028722 -0.049931 0.133166 0.000000 0.686275 0.239216
vn 3.752154 -4.751444 0.768262
v 0.005574 -0.066271 0.090676 0.000000 0.686275 0.239216
vn 2.111277 -4.082891 2.583050
v -0.009131 -0.069540 0.118450 0.000000 0.686275 0.239216
vn -5.107544 -2.498521 -2.595055
v -0.046691 -0.056469 0.069449 0.000000 0.686275 0.239216
vn 4.582517 -1.505012 3.725488
v 0.000670 -0.053200 0.118450 0.000000 0.686275 0.239216
vn 0.542515 3.078490 -2.885238
v 0.026816 -0.027067 0.041674 0.000000 0.686275 0.239216
vn -1.658028 -2.342869 -4.316846
v -0.028722 -0.056469 0.041674 0.000000 0.686275 0.239216
vn 5.483493 -0.507091 2.944255
v 0.013752 -0.040138 0.100474 0.000000 0.686275 0.239216
vn -4.838971 2.289312 0.656078
v -0.059764 -0.031970 0.107022 0.000000 0.686275 0.239216
vn -5.695506 -1.151596 1.755459
v -0.058123 -0.049931 0.111921 0.000000 0.686275 0.239216
# 128 vertices, 0 vertices normals

f 59//59 39//39 64//64
f 3//3 2//2 7//7
f 7//7 4//4 8//8
f 1//1 6//6 9//9
f 9//9 6//6 11//11
f 7//7 8//8 14//14
f 1//1 9//9 18//18
f 2//2 3//3 19//19
f 7//7 14//14 22//22
f 8//8 4//4 23//23
f 6//6 1//1 25//25
f 1//1 17//17 25//25
f 8//8 15//15 27//27
f 14//14 8//8 28//28
f 8//8 27//27 28//28
f 7//7 2//2 29//29
f 20//20 7//7 29//29
f 9//9 11//11 30//30
f 2//2 19//19 30//30
f 34//34 10//10 35//35
f 19//19 34//34 35//35
f 29//29 11//11 36//36
f 20//20 29//29 36//36
f 33//33 6//6 37//37
f 16//16 33//33 37//37
f 6//6 25//25 38//38
f 13//13 26//26 38//38
f 26//26 37//37 38//38
f 37//37 6//6 38//38
f 4//4 7//7 40//40
f 7//7 20//20 40//40
f 20//20 16//16 40//40
f 25//25 17//17 42//42
f 38//38 25//25 42//42
f 13//13 38//38 42//42
f 17//17 24//24 43//43
f 31//31 21//21 44//44
f 18//18 9//9 45//45
f 32//32 18//18 45//45
f 21//21 32//32 45//45
f 9//9 44//44 45//45
f 44//44 21//21 45//45
f 29//29 2//2 46//46
f 11//11 29//29 46//46
f 2//2 30//30 46//46
f 30//30 11//11 46//46
f 1//1 18//18 47//47
f 15//15 8//8 48//48
f 24//24 15//15 48//48
f 8//8 43//43 48//48
f 43//43 24//24 48//48
f 22//22 14//14 49//49
f 10//10 34//34 49//49
f 34//34 22//22 49//49
f 17//17 1//1 50//50
f 24//24 17//17 50//50
f 1//1 47//47 50//50
f 47//47 41//41 50//50
f 3//3 7//7 51//51
f 19//19 3//3 51//51
f 7//7 22//22 51//51
f 34//34 19//19 51//51
f 22//22 34//34 51//51
f 27//27 12//12 52//52
f 18//18 32//32 52//52
f 12//12 41//41 52//52
f 47//47 18//18 52//52
f 41//41 47//47 52//52
f 9//9 30//30 53//53
f 30//30 19//19 53//53
f 19//19 35//35 53//53
f 44//44 9//9 53//53
f 35//35 44//44 53//53
f 5//5 28//28 54//54
f 28//28 27//27 54//54
f 27//27 52//52 54//54
f 52//52 32//32 54//54
f 11//11 6//6 55//55
f 6//6 33//33 55//55
f 33//33 16//16 55//55
f 36//36 11//11 55//55
f 36//36 55//55 56//56
f 16//16 20//20 56//56
f 20//20 36//36 56//56
f 55//55 16//16 56//56
f 28//28 5//5 57//57
f 14//14 28//28 57//57
f 5//5 31//31 57//57
f 57//57 31//31 58//58
f 35//35 10//10 58//58
f 31//31 44//44 58//58
f 44//44 35//35 58//58
f 49//49 14//14 58//58
f 10//10 49//49 58//58
f 14//14 57//57 58//58
f 8//8 23//23 59//59
f 23//23 39//39 59//59
f 43//43 8//8 59//59
f 17//17 43//43 59//59
f 31//31 5//5 60//60
f 21//21 31//31 60//60
f 32//32 21//21 60//60
f 5//5 54//54 60//60
f 54//54 32//32 60//60
f 23//23 4//4 61//61
f 13//13 23//23 61//61
f 4//4 26//26 61//61
f 26//26 13//13 61//61
f 26//26 4//4 62//62
f 16//16 37//37 62//62
f 37//37 26//26 62//62
f 4//4 40//40 62//62
f 40//40 16//16 62//62
f 15//15 24//24 63//63
f 12//12 27//27 63//63
f 27//27 15//15 63//63
f 41//41 12//12 63//63
f 24//24 50//50 63//63
f 50//50 41//41 63//63
f 23//23 13//13 64//64
f 39//39 23//23 64//64
f 42//42 17//17 64//64
f 13//13 42//42 64//64
f 17//17 59//59 64//64
f 86//86 127//127 128//128
f 66//66 67//67 68//68
f 66//66 68//68 71//71
f 68//68 67//67 77//77
f 73//73 69//69 77//77
f 66//66 71//71 80//80
f 77//77 69//69 81//81
f 77//77 67//67 87//87
f 71//71 68//68 91//91
f 77//77 81//81 95//95
f 69//69 83//83 96//96
f 89//89 74//74 96//96
f 85//85 75//75 97//97
f 88//88 70//70 97//97
f 89//89 72//72 98//98
f 74//74 89//89 98//98
f 81//81 74//74 99//99
f 93//93 76//76 100//100
f 79//79 88//88 101//101
f 88//88 97//97 101//101
f 78//78 84//84 102//102
f 78//78 72//72 103//103
f 70//70 84//84 103//103
f 84//84 78//78 103//103
f 72//72 85//85 103//103
f 97//97 70//70 103//103
f 85//85 97//97 103//103
f 65//65 92//92 104//104
f 76//76 93//93 104//104
f 80//80 71//71 105//105
f 84//84 80//80 105//105
f 71//71 102//102 105//105
f 102//102 84//84 105//105
f 83//83 69//69 106//106
f 86//86 75//75 106//106
f 69//69 73//73 107//107
f 106//106 69//69 107//107
f 86//86 106//106 107//107
f 84//84 70//70 108//108
f 80//80 84//84 108//108
f 70//70 94//94 108//108
f 74//74 81//81 109//109
f 81//81 69//69 109//109
f 96//96 74//74 109//109
f 69//69 96//96 109//109
f 74//74 98//98 110//110
f 99//99 74//74 110//110
f 85//85 72//72 111//111
f 72//72 89//89 111//111
f 111//111 90//90 112//112
f 75//75 85//85 112//112
f 90//90 83//83 112//112
f 83//83 106//106 112//112
f 106//106 75//75 112//112
f 85//85 111//111 112//112
f 71//71 91//91 113//113
f 102//102 71//71 113//113
f 78//78 102//102 113//113
f 91//91 68//68 114//114
f 76//76 91//91 114//114
f 68//68 100//100 114//114
f 100//100 76//76 114//114
f 73//73 77//77 115//115
f 77//77 87//87 115//115
f 87//87 73//73 115//115
f 81//81 99//99 116//116
f 99//99 82//82 116//116
f 100//100 68//68 116//116
f 67//67 66//66 117//117
f 87//87 67//67 117//117
f 73//73 87//87 117//117
f 66//66 88//88 117//117
f 88//88 79//79 117//117
f 93//93 100//100 118//118
f 104//104 93//93 118//118
f 116//116 82//82 118//118
f 100//100 116//116 118//118
f 83//83 90//90 119//119
f 96//96 83//83 119//119
f 89//89 96//96 119//119
f 111//111 89//89 119//119
f 90//90 111//111 119//119
f 91//91 76//76 120//120
f 92//92 78//78 120//120
f 104//104 92//92 120//120
f 76//76 104//104 120//120
f 113//113 91//91 120//120
f 78//78 113//113 120//120
f 72//72 78//78 121//121
f 78//78 92//92 121//121
f 98//98 72//72 121//121
f 88//88 66//66 122//122
f 70//70 88//88 122//122
f 66//66 94//94 122//122
f 94//94 70//70 122//122
f 92//92 65//65 123//123
f 65//65 110//110 123//123
f 110//110 98//98 123//123
f 121//121 92//92 123//123
f 98//98 121//121 123//123
f 68//68 77//77 124//124
f 77//77 95//95 124//124
f 95//95 81//81 124//124
f 116//116 68//68 124//124
f 81//81 116//116 124//124
f 66//66 80//80 125//125
f 94//94 66//66 125//125
f 80//80 108//108 125//125
f 108//108 94//94 125//125
f 82//82 99//99 126//126
f 65//65 104//104 126//126
f 110//110 65//65 126//126
f 99//99 110//110 126//126
f 118//118 82//82 126//126
f 104//104 118//118 126//126
f 79//79 101//101 127//127
f 107//107 73//73 127//127
f 86//86 107//107 127//127
f 73//73 117//117 127//127
f 117//117 79//79 127//127
f 75//75 86//86 128//128
f 97//97 75//75 128//128
f 101//101 97//97 128//128
f 127//127 101//101 128//128
# 248 faces, 0 coords texture

# End of File
