####
#
# OBJ File Generated by Meshlab
#
####
# Object link_6.obj
#
# Vertices: 64
# Faces: 124
#
####
vn -4.731863 -3.489405 0.014721
v -0.024636 -0.054220 -0.001570 0.407843 0.666667 0.337255
vn 0.040873 6.048490 -0.818022
v 0.009160 0.034289 -0.027307 0.407843 0.666667 0.337255
vn 1.414919 5.919414 0.630831
v 0.060641 0.027848 0.011303 0.407843 0.666667 0.337255
vn 2.858455 -2.786001 -4.683379
v 0.025242 -0.023632 -0.054670 0.407843 0.666667 0.337255
vn 3.365680 -4.174338 1.427435
v 0.047766 -0.057446 0.008087 0.407843 0.666667 0.337255
vn -2.474013 1.429738 4.036167
v -0.024636 0.013358 0.027402 0.407843 0.666667 0.337255
vn -2.662903 0.816986 -3.932741
v -0.018203 0.005319 -0.067553 0.407843 0.666667 0.337255
vn 2.933883 2.837497 -1.573787
v 0.062254 0.027848 -0.019276 0.407843 0.666667 0.337255
vn 0.785972 -0.910199 6.074067
v 0.026845 -0.030083 0.025784 0.407843 0.666667 0.337255
vn -0.932969 -5.129706 -2.848302
v -0.002112 -0.062269 -0.019276 0.407843 0.666667 0.337255
vn -1.836165 -3.587276 2.829003
v -0.013374 -0.060661 0.014519 0.407843 0.666667 0.337255
vn -5.664917 1.982713 -0.722628
v -0.032692 0.011750 -0.020875 0.407843 0.666667 0.337255
vn 4.494093 -3.314450 -1.651968
v 0.054208 -0.047789 -0.014443 0.407843 0.666667 0.337255
vn 1.811184 1.735892 -4.775012
v 0.013990 0.013358 -0.067553 0.407843 0.666667 0.337255
vn -1.480801 5.354910 1.455499
v -0.011771 0.032672 0.012911 0.407843 0.666667 0.337255
vn 0.733442 2.693043 3.814617
v 0.034891 0.026240 0.027402 0.407843 0.666667 0.337255
vn 4.959252 -1.034528 2.607557
v 0.062254 -0.028465 0.012911 0.407843 0.666667 0.337255
vn -1.807387 -1.926964 -4.491329
v -0.011771 -0.015603 -0.067553 0.407843 0.666667 0.337255
vn -2.269806 5.127409 -1.876549
v -0.013374 0.027848 -0.040189 0.407843 0.666667 0.337255
vn 1.006809 -5.008539 -2.884625
v 0.028458 -0.062269 -0.019276 0.407843 0.666667 0.337255
vn -5.471767 -1.774431 -1.591266
v -0.031078 -0.031691 -0.024091 0.407843 0.666667 0.337255
vn -5.396951 -0.846198 2.048073
v -0.032692 -0.025250 0.014519 0.407843 0.666667 0.337255
vn 1.163760 -4.099507 3.057936
v 0.030071 -0.063877 0.014519 0.407843 0.666667 0.337255
vn -1.390265 -1.056547 5.711968
v -0.018203 -0.020426 0.027402 0.407843 0.666667 0.337255
vn 5.267695 -1.128428 -2.771707
v 0.059038 -0.030073 -0.019276 0.407843 0.666667 0.337255
vn 2.192311 -0.870659 -4.972359
v 0.017196 -0.009172 -0.067553 0.407843 0.666667 0.337255
vn 4.967613 1.479980 0.971766
v 0.068697 0.021407 0.008078 0.407843 0.666667 0.337255
vn -3.398801 -3.844641 -2.420988
v -0.019816 -0.054220 -0.020875 0.407843 0.666667 0.337255
vn 0.006615 2.883307 -4.050504
v 0.004321 0.018191 -0.067553 0.407843 0.666667 0.337255
vn -4.992307 2.680344 1.296227
v -0.031078 0.016583 0.012911 0.407843 0.666667 0.337255
vn 0.228564 -2.433699 -4.974296
v 0.002718 -0.018818 -0.067553 0.407843 0.666667 0.337255
vn 2.961406 -1.043820 5.107147
v 0.055811 -0.033299 0.017745 0.407843 0.666667 0.337255
vn 2.466326 2.312043 2.358225
v 0.063867 0.026230 0.016127 0.407843 0.666667 0.337255
vn -0.664107 -5.921777 -0.416349
v 0.002718 -0.067103 -0.004795 0.407843 0.666667 0.337255
vn 2.824440 -3.522650 -3.796489
v 0.042936 -0.047789 -0.028924 0.407843 0.666667 0.337255
vn 5.833959 0.051557 -1.149712
v 0.068697 0.011750 -0.006394 0.407843 0.666667 0.337255
vn -4.228141 4.180462 -0.784005
v -0.024636 0.024632 -0.022483 0.407843 0.666667 0.337255
vn -6.080798 0.146855 -0.867255
v -0.034305 -0.001122 -0.022483 0.407843 0.666667 0.337255
vn -0.210152 -2.599579 5.561898
v 0.009160 -0.055828 0.019353 0.407843 0.666667 0.337255
vn 5.777705 -1.565635 -0.447447
v 0.063867 -0.030073 -0.003178 0.407843 0.666667 0.337255
vn 2.191877 -5.177128 -1.176260
v 0.036504 -0.063877 -0.009619 0.407843 0.666667 0.337255
vn -0.601825 2.806669 4.279005
v -0.003725 0.026240 0.027402 0.407843 0.666667 0.337255
vn 5.026784 -0.091817 -3.589015
v 0.060641 0.011750 -0.022483 0.407843 0.666667 0.337255
vn -5.648588 -0.388021 -2.342661
v -0.026249 -0.004338 -0.051454 0.407843 0.666667 0.337255
vn -5.668121 0.656846 1.421362
v -0.034305 0.005319 0.012911 0.407843 0.666667 0.337255
vn -3.988075 -2.120886 2.653098
v -0.027862 -0.044563 0.014519 0.407843 0.666667 0.337255
vn -3.058335 3.822188 -3.000616
v -0.016590 0.016583 -0.059504 0.407843 0.666667 0.337255
vn 0.343902 5.767398 -2.152538
v 0.012377 0.031064 -0.038572 0.407843 0.666667 0.337255
vn 1.690682 -2.329810 5.170598
v 0.039720 -0.051005 0.019353 0.407843 0.666667 0.337255
vn -1.846835 5.703479 -0.570014
v -0.011771 0.032672 -0.020875 0.407843 0.666667 0.337255
vn 0.069421 5.929652 1.487886
v 0.001105 0.032672 0.014519 0.407843 0.666667 0.337255
vn -2.699355 -5.178013 -0.602549
v -0.014987 -0.062269 -0.006403 0.407843 0.666667 0.337255
vn 4.458305 -1.828973 -3.633303
v 0.052595 -0.038132 -0.025708 0.407843 0.666667 0.337255
vn -5.188984 2.201963 -1.902801
v -0.026249 0.011750 -0.046630 0.407843 0.666667 0.337255
vn -4.695214 -2.006063 -3.303504
v -0.019816 -0.013995 -0.059504 0.407843 0.666667 0.337255
vn -2.764836 -0.151229 4.567913
v -0.026249 -0.004338 0.027402 0.407843 0.666667 0.337255
vn 4.075172 1.081460 -4.463020
v 0.028458 0.011750 -0.056278 0.407843 0.666667 0.337255
vn 3.952896 -2.577209 2.452272
v 0.055811 -0.046171 0.012911 0.407843 0.666667 0.337255
vn 2.266014 4.178782 -2.815745
v 0.050982 0.027848 -0.028924 0.407843 0.666667 0.337255
vn -3.317927 4.412338 1.554108
v -0.021419 0.027848 0.012911 0.407843 0.666667 0.337255
vn -0.040836 -0.933318 6.125314
v 0.004321 -0.026867 0.027402 0.407843 0.666667 0.337255
vn 1.778988 -0.123939 5.951206
v 0.041333 0.013358 0.025784 0.407843 0.666667 0.337255
vn 0.358252 -5.708833 1.201232
v 0.022025 -0.067103 0.008087 0.407843 0.666667 0.337255
vn -6.053947 -1.262116 -0.072444
v -0.032692 -0.031691 -0.003178 0.407843 0.666667 0.337255
# 64 vertices, 0 vertices normals

f 46//46 22//22 64//64
f 2//2 3//3 8//8
f 7//7 14//14 18//18
f 16//16 6//6 24//24
f 18//18 14//14 26//26
f 18//18 10//10 28//28
f 1//1 21//21 28//28
f 14//14 7//7 29//29
f 10//10 18//18 31//31
f 20//20 10//10 31//31
f 26//26 4//4 31//31
f 18//18 26//26 31//31
f 8//8 3//3 33//33
f 3//3 16//16 33//33
f 27//27 8//8 33//33
f 17//17 27//27 33//33
f 32//32 17//17 33//33
f 10//10 20//20 34//34
f 20//20 31//31 35//35
f 31//31 4//4 35//35
f 8//8 27//27 36//36
f 12//12 30//30 37//37
f 11//11 23//23 39//39
f 24//24 11//11 39//39
f 13//13 25//25 40//40
f 27//27 17//17 40//40
f 25//25 36//36 40//40
f 36//36 27//27 40//40
f 13//13 5//5 41//41
f 5//5 23//23 41//41
f 34//34 20//20 41//41
f 35//35 13//13 41//41
f 20//20 35//35 41//41
f 6//6 16//16 42//42
f 8//8 36//36 43//43
f 36//36 25//25 43//43
f 21//21 38//38 44//44
f 6//6 30//30 45//45
f 30//30 12//12 45//45
f 12//12 38//38 45//45
f 1//1 11//11 46//46
f 11//11 24//24 46//46
f 29//29 7//7 47//47
f 19//19 29//29 47//47
f 37//37 19//19 47//47
f 19//19 2//2 48//48
f 29//29 19//19 48//48
f 32//32 9//9 49//49
f 9//9 39//39 49//49
f 39//39 23//23 49//49
f 15//15 2//2 50//50
f 2//2 19//19 50//50
f 19//19 37//37 50//50
f 3//3 2//2 51//51
f 2//2 15//15 51//51
f 16//16 3//3 51//51
f 15//15 42//42 51//51
f 42//42 16//16 51//51
f 11//11 1//1 52//52
f 1//1 28//28 52//52
f 28//28 10//10 52//52
f 34//34 11//11 52//52
f 10//10 34//34 52//52
f 25//25 13//13 53//53
f 4//4 26//26 53//53
f 13//13 35//35 53//53
f 35//35 4//4 53//53
f 26//26 43//43 53//53
f 43//43 25//25 53//53
f 12//12 37//37 54//54
f 38//38 12//12 54//54
f 7//7 44//44 54//54
f 44//44 38//38 54//54
f 47//47 7//7 54//54
f 37//37 47//47 54//54
f 7//7 18//18 55//55
f 18//18 28//28 55//55
f 28//28 21//21 55//55
f 44//44 7//7 55//55
f 21//21 44//44 55//55
f 24//24 6//6 56//56
f 6//6 45//45 56//56
f 45//45 22//22 56//56
f 22//22 46//46 56//56
f 46//46 24//24 56//56
f 26//26 14//14 57//57
f 8//8 43//43 57//57
f 43//43 26//26 57//57
f 5//5 13//13 58//58
f 23//23 5//5 58//58
f 17//17 32//32 58//58
f 13//13 40//40 58//58
f 40//40 17//17 58//58
f 49//49 23//23 58//58
f 32//32 49//49 58//58
f 2//2 8//8 59//59
f 14//14 29//29 59//59
f 48//48 2//2 59//59
f 29//29 48//48 59//59
f 8//8 57//57 59//59
f 57//57 14//14 59//59
f 30//30 6//6 60//60
f 37//37 30//30 60//60
f 6//6 42//42 60//60
f 42//42 15//15 60//60
f 15//15 50//50 60//60
f 50//50 37//37 60//60
f 9//9 16//16 61//61
f 16//16 24//24 61//61
f 39//39 9//9 61//61
f 24//24 39//39 61//61
f 16//16 9//9 62//62
f 9//9 32//32 62//62
f 33//33 16//16 62//62
f 32//32 33//33 62//62
f 23//23 11//11 63//63
f 11//11 34//34 63//63
f 41//41 23//23 63//63
f 34//34 41//41 63//63
f 21//21 1//1 64//64
f 38//38 21//21 64//64
f 22//22 45//45 64//64
f 45//45 38//38 64//64
f 1//1 46//46 64//64
# 124 faces, 0 coords texture

# End of File
