####
#
# OBJ File Generated by Meshlab
#
####
# Object link_1.obj
#
# Vertices: 128
# Faces: 248
#
####
vn 2.164469 -2.160754 -3.859793
v 0.050870 -0.038990 -0.001182 0.407843 0.666667 0.337255
vn -3.050351 -0.447464 -2.648732
v -0.062567 -0.012998 -0.001182 0.407843 0.666667 0.337255
vn -2.894272 -0.983693 -2.469224
v -0.060200 -0.022453 -0.001182 0.407843 0.666667 0.337255
vn -0.829225 -2.994837 2.732252
v -0.003488 -0.069717 0.050817 0.407843 0.666667 0.337255
vn 0.672963 4.190508 4.173166
v 0.001233 0.048430 0.031908 0.407843 0.666667 0.337255
vn 2.788275 0.836638 3.157917
v 0.057957 -0.008264 0.050817 0.407843 0.666667 0.337255
vn 1.744592 2.496263 -2.453843
v 0.036683 0.053177 -0.001182 0.407843 0.666667 0.337255
vn -2.554534 0.681993 4.471830
v -0.046025 0.001166 0.050817 0.407843 0.666667 0.337255
vn -1.682635 2.500629 -2.311461
v -0.036571 0.053177 -0.001182 0.407843 0.666667 0.337255
vn -0.478897 -3.088095 -3.288765
v -0.012942 -0.062636 -0.001182 0.407843 0.666667 0.337255
vn 1.870280 -2.417067 2.724028
v 0.041404 -0.064996 0.050817 0.407843 0.666667 0.337255
vn 3.017097 0.577650 -2.586710
v 0.062678 0.012982 -0.001182 0.407843 0.666667 0.337255
vn -2.348907 2.677517 3.958615
v -0.038938 0.029519 0.043721 0.407843 0.666667 0.337255
vn -2.353559 -2.035464 3.510691
v -0.029471 -0.050806 0.050817 0.407843 0.666667 0.337255
vn -4.190679 1.265210 -1.559584
v -0.060200 0.022437 0.001185 0.407843 0.666667 0.337255
vn 2.987244 -0.749107 2.736553
v 0.057957 -0.038990 0.050817 0.407843 0.666667 0.337255
vn 1.048652 -2.901145 -3.676356
v 0.022508 -0.060262 -0.001182 0.407843 0.666667 0.337255
vn -1.843720 -2.485703 -2.739826
v -0.036571 -0.053180 -0.001182 0.407843 0.666667 0.337255
vn -0.120598 5.681876 1.724336
v -0.003488 0.062633 0.008280 0.407843 0.666667 0.337255
vn 2.850365 4.315978 3.270089
v 0.031949 0.048430 0.017727 0.407843 0.666667 0.337255
vn 0.752773 -4.883942 1.562225
v 0.022508 -0.072091 0.048450 0.407843 0.666667 0.337255
vn 4.767164 3.433064 1.948483
v 0.050870 0.036627 0.008280 0.407843 0.666667 0.337255
vn -2.928272 -0.756254 3.956036
v -0.046025 -0.017719 0.050817 0.407843 0.666667 0.337255
vn 3.095644 -0.295897 -2.782783
v 0.062678 -0.012985 -0.001182 0.407843 0.666667 0.337255
vn -1.188117 4.080419 3.817230
v -0.024750 0.043708 0.036631 0.407843 0.666667 0.337255
vn -4.012808 -2.863390 -1.582419
v -0.053112 -0.036630 0.001185 0.407843 0.666667 0.337255
vn 0.590421 2.883465 -2.077313
v 0.013041 0.062633 -0.001182 0.407843 0.666667 0.337255
vn -5.960568 0.451278 0.622218
v -0.062567 0.003526 0.005919 0.407843 0.666667 0.337255
vn -4.387472 4.053838 1.267191
v -0.046025 0.043708 0.005919 0.407843 0.666667 0.337255
vn -4.765388 1.623364 3.083570
v -0.048392 0.012982 0.043721 0.407843 0.666667 0.337255
vn -1.560663 -2.668599 2.831594
v -0.015296 -0.064996 0.050817 0.407843 0.666667 0.337255
vn 4.443997 -2.793060 1.460711
v 0.053224 -0.050806 0.048450 0.407843 0.666667 0.337255
vn 1.820018 -2.492075 -3.585840
v 0.036683 -0.053180 -0.001182 0.407843 0.666667 0.337255
vn 0.327353 3.315695 5.141277
v -0.010575 0.043708 0.036631 0.407843 0.666667 0.337255
vn 1.892150 3.840074 4.438249
v 0.020141 0.043708 0.029536 0.407843 0.666667 0.337255
vn 1.624053 5.178634 2.798886
v 0.020141 0.055538 0.015371 0.407843 0.666667 0.337255
vn -2.004484 5.288291 -0.367993
v -0.022384 0.060259 0.001185 0.407843 0.666667 0.337255
vn 5.490104 2.416650 0.544978
v 0.057957 0.027158 0.003547 0.407843 0.666667 0.337255
vn 2.966544 -1.001590 -3.131823
v 0.060324 -0.022453 -0.001182 0.407843 0.666667 0.337255
vn 0.340428 -3.082550 -3.548059
v 0.013041 -0.062636 -0.001182 0.407843 0.666667 0.337255
vn -5.132640 2.831006 2.077852
v -0.050746 0.027158 0.022461 0.407843 0.666667 0.337255
vn -2.495748 1.606676 -2.169717
v -0.053112 0.036614 -0.001182 0.407843 0.666667 0.337255
vn -1.147233 -2.912588 -3.072582
v -0.022384 -0.060262 -0.001182 0.407843 0.666667 0.337255
vn -2.808578 -1.173604 3.900820
v -0.043658 -0.024814 0.050817 0.407843 0.666667 0.337255
vn -5.234915 -0.321478 2.939432
v -0.048392 -0.010637 0.048450 0.407843 0.666667 0.337255
vn -3.269000 4.915583 1.839822
v -0.036571 0.050803 0.008280 0.407843 0.666667 0.337255
vn -0.238766 1.664172 6.017853
v -0.036571 0.022437 0.046088 0.407843 0.666667 0.337255
vn -0.242900 -3.059873 2.528077
v 0.008320 -0.072091 0.050817 0.407843 0.666667 0.337255
vn 3.668896 -4.729645 -0.675599
v 0.041404 -0.064996 0.048450 0.407843 0.666667 0.337255
vn 2.489474 1.728844 -2.377970
v 0.053224 0.036627 -0.001182 0.407843 0.666667 0.337255
vn -4.353031 -4.453284 0.532987
v -0.041304 -0.048446 0.005919 0.407843 0.666667 0.337255
vn -5.575157 -2.408091 1.046481
v -0.057833 -0.027174 0.003547 0.407843 0.666667 0.337255
vn -5.996723 -0.739417 1.014646
v -0.062567 -0.010637 0.003547 0.407843 0.666667 0.337255
vn 6.089545 0.803393 0.658835
v 0.062678 0.010621 0.003547 0.407843 0.666667 0.337255
vn 0.157419 2.303465 5.814497
v -0.031838 0.029519 0.043721 0.407843 0.666667 0.337255
vn 4.029191 3.737369 2.946290
v 0.046137 0.038987 0.013009 0.407843 0.666667 0.337255
vn -2.627687 -1.582335 3.805246
v -0.034204 -0.043725 0.050817 0.407843 0.666667 0.337255
vn 2.602413 5.294184 1.070695
v 0.031949 0.055538 0.003547 0.407843 0.666667 0.337255
vn -0.493709 3.021336 -2.488212
v -0.012942 0.062633 -0.001182 0.407843 0.666667 0.337255
vn 1.653849 -4.970349 1.229929
v 0.031949 -0.069717 0.048450 0.407843 0.666667 0.337255
vn -1.832541 5.479223 2.274380
v -0.020029 0.057885 0.010637 0.407843 0.666667 0.337255
vn -3.484409 4.264017 2.732807
v -0.036571 0.036614 0.036631 0.407843 0.666667 0.337255
vn 2.582871 -1.736028 -3.352034
v 0.053224 -0.036630 -0.001182 0.407843 0.666667 0.337255
vn 4.024970 4.293674 1.479728
v 0.043770 0.046069 0.005919 0.407843 0.666667 0.337255
vn 0.277607 -0.361554 6.189060
v 0.034312 -0.046089 0.150087 0.000000 0.686275 0.239216
vn -3.016478 -0.417013 -2.452458
v -0.046022 -0.015371 0.050817 0.000000 0.686275 0.239216
vn -1.550383 1.423727 -1.320179
v -0.046022 -0.005911 0.050817 0.000000 0.686275 0.239216
vn 1.466446 2.099800 -2.455544
v 0.060305 -0.008278 0.050817 0.000000 0.686275 0.239216
vn 0.671633 -4.784404 -2.537948
v 0.036678 -0.079182 0.057910 0.000000 0.686275 0.239216
vn 2.748663 2.818661 1.639673
v 0.074490 -0.008278 0.126445 0.000000 0.686275 0.239216
vn -2.528000 -4.618999 1.032304
v -0.010563 -0.079182 0.112258 0.000000 0.686275 0.239216
vn 2.820796 -4.048127 0.894562
v 0.069758 -0.079182 0.114629 0.000000 0.686275 0.239216
vn -1.612843 2.744153 2.803222
v 0.003610 -0.008278 0.145355 0.000000 0.686275 0.239216
vn -1.882792 -2.360479 -3.846010
v -0.017650 -0.064995 0.050817 0.000000 0.686275 0.239216
vn 5.559900 -1.587518 -1.749814
v 0.076857 -0.062628 0.083923 0.000000 0.686275 0.239216
vn -0.836223 -4.027487 2.824302
v 0.017772 -0.079182 0.140632 0.000000 0.686275 0.239216
vn -5.032012 -1.331407 3.190852
v -0.017650 -0.057909 0.121723 0.000000 0.686275 0.239216
vn -3.223134 3.027263 1.851871
v -0.027103 -0.008278 0.109887 0.000000 0.686275 0.239216
vn 3.174003 -1.547455 4.842314
v 0.057950 -0.064995 0.140632 0.000000 0.686275 0.239216
vn 1.261948 2.960738 2.981456
v 0.048497 -0.008278 0.147716 0.000000 0.686275 0.239216
vn 3.092628 2.697230 -0.709158
v 0.079235 -0.008278 0.086275 0.000000 0.686275 0.239216
vn 2.092727 -1.097653 -5.175575
v 0.053218 -0.055535 0.050817 0.000000 0.686275 0.239216
vn -5.514317 -2.424151 0.699342
v -0.029469 -0.060269 0.088645 0.000000 0.686275 0.239216
vn 5.592028 -1.241977 1.966331
v 0.076857 -0.060269 0.116981 0.000000 0.686275 0.239216
vn -2.829376 -1.343792 5.135905
v 0.003610 -0.060269 0.142993 0.000000 0.686275 0.239216
vn -1.628673 -5.727953 -0.570450
v -0.008197 -0.079182 0.076829 0.000000 0.686275 0.239216
vn 2.479928 -4.132696 -1.535243
v 0.065037 -0.079182 0.076829 0.000000 0.686275 0.239216
vn 0.116505 6.278184 0.086952
v 0.020138 -0.005911 0.095739 0.000000 0.686275 0.239216
vn -5.688737 0.440699 2.103264
v -0.036556 -0.015371 0.091016 0.000000 0.686275 0.239216
vn -4.815440 -3.346479 -1.103800
v -0.029469 -0.060269 0.065004 0.000000 0.686275 0.239216
vn 0.597167 -4.031839 2.926872
v 0.041398 -0.079182 0.140632 0.000000 0.686275 0.239216
vn -4.254319 1.499661 3.694993
v -0.015296 -0.013004 0.128806 0.000000 0.686275 0.239216
vn -0.745538 -2.827447 -4.237648
v -0.001110 -0.072089 0.050817 0.000000 0.686275 0.239216
vn -0.715995 2.127040 5.022234
v 0.017772 -0.010645 0.150087 0.000000 0.686275 0.239216
vn 4.768700 -1.293798 -3.727291
v 0.067404 -0.055535 0.065004 0.000000 0.686275 0.239216
vn -0.879734 -1.597964 5.694669
v 0.020138 -0.064995 0.147716 0.000000 0.686275 0.239216
vn 0.060636 3.140381 -3.110342
v 0.013063 -0.005911 0.050817 0.000000 0.686275 0.239216
vn 6.009249 -0.091001 1.278183
v 0.079235 -0.022464 0.114629 0.000000 0.686275 0.239216
vn -0.473856 6.215364 0.414531
v -0.017650 -0.005911 0.102813 0.000000 0.686275 0.239216
vn 4.555614 -0.148362 4.234172
v 0.067404 -0.022457 0.135900 0.000000 0.686275 0.239216
vn 5.985647 -1.013935 -0.618422
v 0.079223 -0.060269 0.093368 0.000000 0.686275 0.239216
vn -2.920173 -3.821806 2.748501
v -0.003476 -0.076815 0.128806 0.000000 0.686275 0.239216
vn 1.352033 -1.268664 5.757711
v 0.043765 -0.060269 0.147716 0.000000 0.686275 0.239216
vn 4.758555 -0.917495 3.643538
v 0.069758 -0.057909 0.131168 0.000000 0.686275 0.239216
vn -5.313761 -2.023597 2.032190
v -0.024749 -0.062628 0.105165 0.000000 0.686275 0.239216
vn 5.631240 -0.028862 -2.692724
v 0.074490 -0.029558 0.074459 0.000000 0.686275 0.239216
vn 0.978624 -2.074844 -5.212888
v 0.039044 -0.069722 0.050817 0.000000 0.686275 0.239216
vn -3.842705 -4.666124 -0.737554
v -0.020016 -0.072089 0.074459 0.000000 0.686275 0.239216
vn -4.086947 -1.312563 4.274895
v -0.005843 -0.060269 0.135900 0.000000 0.686275 0.239216
vn -2.896631 -1.167026 -2.974888
v -0.038922 -0.036644 0.050817 0.000000 0.686275 0.239216
vn -5.980134 -0.311401 1.340201
v -0.043655 -0.015371 0.067365 0.000000 0.686275 0.239216
vn 3.269801 -3.125667 -3.873570
v 0.057950 -0.072089 0.062643 0.000000 0.686275 0.239216
vn 4.767675 -3.393025 -0.295172
v 0.074490 -0.074448 0.098091 0.000000 0.686275 0.239216
vn 2.715665 -0.241116 -4.676647
v 0.060305 -0.034277 0.050817 0.000000 0.686275 0.239216
vn 4.116671 -2.982308 3.136896
v 0.065037 -0.074448 0.128806 0.000000 0.686275 0.239216
vn 0.525593 2.773673 3.169173
v 0.041398 -0.008278 0.150087 0.000000 0.686275 0.239216
vn 2.979162 2.203881 3.810647
v 0.062671 -0.010645 0.140632 0.000000 0.686275 0.239216
vn -0.454323 -5.693686 -1.734271
v 0.010709 -0.079182 0.060272 0.000000 0.686275 0.239216
vn -2.261427 -0.226598 5.692671
v 0.008343 -0.027184 0.147716 0.000000 0.686275 0.239216
vn 2.740421 -0.288528 5.550063
v 0.053218 -0.043723 0.145355 0.000000 0.686275 0.239216
vn 3.132092 2.757909 0.606700
v 0.079235 -0.008278 0.114629 0.000000 0.686275 0.239216
vn -5.408166 -0.231125 3.110269
v -0.024749 -0.022457 0.114629 0.000000 0.686275 0.239216
vn -4.680492 -3.856590 0.732189
v -0.022383 -0.069722 0.098091 0.000000 0.686275 0.239216
vn -2.408544 -5.304604 -1.956134
v -0.010563 -0.074448 0.062643 0.000000 0.686275 0.239216
vn 1.543591 -4.157130 2.496165
v 0.053218 -0.079182 0.135900 0.000000 0.686275 0.239216
vn 5.237768 -1.282404 -2.764436
v 0.074490 -0.060269 0.076829 0.000000 0.686275 0.239216
vn 5.962732 -1.146699 0.589237
v 0.079223 -0.060269 0.105165 0.000000 0.686275 0.239216
vn -3.035532 3.403039 0.744463
v -0.043655 -0.005911 0.062643 0.000000 0.686275 0.239216
# 128 vertices, 0 vertices normals

f 58//58 20//20 64//64
f 3//3 2//2 1//1
f 1//1 2//2 7//7
f 4//4 6//6 8//8
f 7//7 2//2 9//9
f 3//3 1//1 10//10
f 6//6 4//4 11//11
f 1//1 7//7 12//12
f 4//4 8//8 14//14
f 6//6 11//11 16//16
f 10//10 1//1 17//17
f 3//3 10//10 18//18
f 14//14 8//8 23//23
f 1//1 12//12 24//24
f 5//5 19//19 25//25
f 3//3 18//18 26//26
f 7//7 9//9 27//27
f 15//15 2//2 28//28
f 8//8 13//13 30//30
f 15//15 28//28 30//30
f 4//4 14//14 31//31
f 16//16 11//11 32//32
f 17//17 1//1 33//33
f 6//6 5//5 34//34
f 5//5 25//25 34//34
f 25//25 13//13 34//34
f 5//5 6//6 35//35
f 6//6 20//20 35//35
f 35//35 20//20 36//36
f 19//19 5//5 36//36
f 27//27 19//19 36//36
f 5//5 35//35 36//36
f 22//22 6//6 38//38
f 1//1 24//24 39//39
f 24//24 16//16 39//39
f 16//16 32//32 39//39
f 10//10 17//17 40//40
f 21//21 10//10 40//40
f 17//17 21//21 40//40
f 13//13 29//29 41//41
f 30//30 13//13 41//41
f 15//15 30//30 41//41
f 9//9 2//2 42//42
f 2//2 15//15 42//42
f 29//29 9//9 42//42
f 15//15 41//41 42//42
f 41//41 29//29 42//42
f 10//10 4//4 43//43
f 18//18 10//10 43//43
f 4//4 31//31 43//43
f 31//31 18//18 43//43
f 14//14 23//23 44//44
f 23//23 8//8 45//45
f 8//8 30//30 45//45
f 30//30 28//28 45//45
f 9//9 29//29 46//46
f 37//37 9//9 46//46
f 8//8 6//6 47//47
f 13//13 8//8 47//47
f 4//4 10//10 48//48
f 11//11 4//4 48//48
f 10//10 21//21 48//48
f 21//21 11//11 48//48
f 32//32 11//11 49//49
f 33//33 1//1 49//49
f 17//17 33//33 49//49
f 12//12 7//7 50//50
f 38//38 12//12 50//50
f 22//22 38//38 50//50
f 26//26 18//18 51//51
f 14//14 26//26 51//51
f 31//31 14//14 51//51
f 18//18 31//31 51//51
f 3//3 26//26 52//52
f 44//44 23//23 52//52
f 2//2 3//3 53//53
f 28//28 2//2 53//53
f 23//23 45//45 53//53
f 45//45 28//28 53//53
f 3//3 52//52 53//53
f 52//52 23//23 53//53
f 6//6 16//16 54//54
f 24//24 12//12 54//54
f 16//16 24//24 54//54
f 38//38 6//6 54//54
f 12//12 38//38 54//54
f 6//6 34//34 55//55
f 34//34 13//13 55//55
f 47//47 6//6 55//55
f 13//13 47//47 55//55
f 20//20 6//6 56//56
f 6//6 22//22 56//56
f 26//26 14//14 57//57
f 14//14 44//44 57//57
f 52//52 26//26 57//57
f 44//44 52//52 57//57
f 7//7 27//27 58//58
f 36//36 20//20 58//58
f 27//27 36//36 58//58
f 27//27 9//9 59//59
f 19//19 27//27 59//59
f 9//9 37//37 59//59
f 37//37 19//19 59//59
f 11//11 21//21 60//60
f 21//21 17//17 60//60
f 49//49 11//11 60//60
f 17//17 49//49 60//60
f 25//25 19//19 61//61
f 19//19 37//37 61//61
f 46//46 25//25 61//61
f 37//37 46//46 61//61
f 13//13 25//25 62//62
f 29//29 13//13 62//62
f 25//25 46//46 62//62
f 46//46 29//29 62//62
f 1//1 39//39 63//63
f 39//39 32//32 63//63
f 49//49 1//1 63//63
f 32//32 49//49 63//63
f 50//50 7//7 64//64
f 22//22 50//50 64//64
f 20//20 56//56 64//64
f 56//56 22//22 64//64
f 7//7 58//58 64//64
f 111//111 89//89 128//128
f 66//66 67//67 68//68
f 71//71 69//69 72//72
f 66//66 68//68 74//74
f 71//71 72//72 76//76
f 74//74 68//68 82//82
f 69//69 71//71 86//86
f 72//72 69//69 87//87
f 80//80 70//70 88//88
f 76//76 72//72 91//91
f 73//73 78//78 92//92
f 74//74 82//82 93//93
f 85//85 76//76 96//96
f 76//76 91//91 96//96
f 65//65 94//94 96//96
f 68//68 67//67 97//97
f 81//81 68//68 97//97
f 67//67 88//88 97//97
f 88//88 81//81 97//97
f 70//70 84//84 98//98
f 78//78 73//73 99//99
f 88//88 67//67 99//99
f 75//75 81//81 101//101
f 81//81 98//98 101//101
f 71//71 76//76 102//102
f 76//76 85//85 102//102
f 91//91 79//79 103//103
f 96//96 91//91 103//103
f 65//65 96//96 103//103
f 84//84 70//70 104//104
f 70//70 100//100 104//104
f 100//100 79//79 104//104
f 77//77 89//89 105//105
f 71//71 102//102 105//105
f 102//102 77//77 105//105
f 68//68 81//81 106//106
f 93//93 82//82 107//107
f 69//69 93//93 107//107
f 86//86 71//71 108//108
f 90//90 74//74 108//108
f 85//85 73//73 109//109
f 73//73 92//92 109//109
f 92//92 77//77 109//109
f 77//77 102//102 109//109
f 102//102 85//85 109//109
f 66//66 74//74 110//110
f 83//83 66//66 110//110
f 74//74 90//90 110//110
f 90//90 83//83 110//110
f 67//67 66//66 111//111
f 66//66 83//83 111//111
f 83//83 105//105 111//111
f 105//105 89//89 111//111
f 87//87 69//69 112//112
f 82//82 95//95 112//112
f 69//69 107//107 112//112
f 107//107 82//82 112//112
f 72//72 87//87 113//113
f 87//87 75//75 113//113
f 75//75 101//101 113//113
f 82//82 68//68 114//114
f 95//95 82//82 114//114
f 68//68 106//106 114//114
f 72//72 84//84 115//115
f 104//104 79//79 115//115
f 84//84 104//104 115//115
f 80//80 88//88 116//116
f 73//73 94//94 116//116
f 94//94 65//65 116//116
f 99//99 73//73 116//116
f 88//88 99//99 116//116
f 65//65 103//103 116//116
f 70//70 80//80 117//117
f 100//100 70//70 117//117
f 79//79 100//100 117//117
f 69//69 86//86 118//118
f 93//93 69//69 118//118
f 73//73 85//85 119//119
f 94//94 73//73 119//119
f 85//85 96//96 119//119
f 96//96 94//94 119//119
f 103//103 79//79 120//120
f 80//80 116//116 120//120
f 116//116 103//103 120//120
f 117//117 80//80 120//120
f 79//79 117//117 120//120
f 88//88 70//70 121//121
f 81//81 88//88 121//121
f 70//70 98//98 121//121
f 98//98 81//81 121//121
f 78//78 89//89 122//122
f 89//89 77//77 122//122
f 92//92 78//78 122//122
f 77//77 92//92 122//122
f 83//83 90//90 123//123
f 71//71 105//105 123//123
f 105//105 83//83 123//123
f 108//108 71//71 123//123
f 90//90 108//108 123//123
f 74//74 93//93 124//124
f 86//86 108//108 124//124
f 108//108 74//74 124//124
f 118//118 86//86 124//124
f 93//93 118//118 124//124
f 91//91 72//72 125//125
f 79//79 91//91 125//125
f 72//72 115//115 125//125
f 115//115 79//79 125//125
f 81//81 75//75 126//126
f 75//75 87//87 126//126
f 106//106 81//81 126//126
f 87//87 112//112 126//126
f 112//112 95//95 126//126
f 95//95 114//114 126//126
f 114//114 106//106 126//126
f 84//84 72//72 127//127
f 98//98 84//84 127//127
f 101//101 98//98 127//127
f 72//72 113//113 127//127
f 113//113 101//101 127//127
f 89//89 78//78 128//128
f 99//99 67//67 128//128
f 78//78 99//99 128//128
f 67//67 111//111 128//128
# 248 faces, 0 coords texture

# End of File
