####
#
# OBJ File Generated by Meshlab
#
####
# Object link_2.obj
#
# Vertices: 128
# Faces: 248
#
####
vn -0.468424 -2.956425 -3.891263
v -0.008152 -0.041785 -0.079301 0.407843 0.666667 0.337255
vn 1.899347 5.368553 0.785781
v 0.012643 0.057065 -0.006476 0.407843 0.666667 0.337255
vn 2.077584 5.461112 -0.286691
v 0.012643 0.057065 -0.037663 0.407843 0.666667 0.337255
vn -2.933087 2.484745 0.486669
v -0.065384 0.057065 -0.003864 0.407843 0.666667 0.337255
vn 1.611238 -2.690619 2.885136
v 0.028251 -0.041785 0.011748 0.407843 0.666667 0.337255
vn 2.683898 1.170735 -4.021486
v 0.038671 0.018028 -0.079301 0.407843 0.666667 0.337255
vn -2.753633 2.998123 -4.118185
v -0.047166 0.049245 -0.066292 0.407843 0.666667 0.337255
vn -3.546589 -2.591725 2.846825
v -0.041967 -0.028776 0.009145 0.407843 0.666667 0.337255
vn 2.741977 1.768828 3.030322
v 0.041271 0.028437 0.011748 0.407843 0.666667 0.337255
vn -5.206481 -2.387556 -1.567282
v -0.052376 -0.013168 -0.061076 0.407843 0.666667 0.337255
vn 5.088218 -2.747684 -1.307001
v 0.043870 -0.023577 -0.063680 0.407843 0.666667 0.337255
vn -0.772815 2.583489 2.921771
v -0.044566 0.057065 0.014352 0.407843 0.666667 0.337255
vn -1.510363 -2.788213 3.016875
v -0.023760 -0.044385 0.011748 0.407843 0.666667 0.337255
vn -2.219084 0.381851 -5.277013
v -0.041967 0.015429 -0.079301 0.407843 0.666667 0.337255
vn 3.168250 -0.432970 2.917810
v 0.049080 -0.007969 0.011748 0.407843 0.666667 0.337255
vn 0.429594 5.061776 -2.369857
v -0.008152 0.057065 -0.066292 0.407843 0.666667 0.337255
vn 0.818019 -5.829700 -1.152245
v 0.007445 -0.049595 -0.058482 0.407843 0.666667 0.337255
vn -3.215677 -5.051443 -0.822083
v -0.028959 -0.041785 -0.058482 0.407843 0.666667 0.337255
vn 5.684135 2.480494 -0.313416
v 0.046470 0.020628 -0.050671 0.407843 0.666667 0.337255
vn -5.137555 0.466330 -2.586385
v -0.060174 0.028437 -0.061076 0.407843 0.666667 0.337255
vn -5.977983 -1.397320 0.688437
v -0.060174 0.007619 -0.011665 0.407843 0.666667 0.337255
vn 1.115495 2.547756 -4.474417
v 0.012643 0.041436 -0.079301 0.407843 0.666667 0.337255
vn 3.298131 -3.955549 -2.861785
v 0.028251 -0.036586 -0.074094 0.407843 0.666667 0.337255
vn -0.174115 -3.151332 2.901265
v -0.005564 -0.049595 0.011748 0.407843 0.666667 0.337255
vn 4.422332 4.289995 -0.548149
v 0.036072 0.036247 -0.053284 0.407843 0.666667 0.337255
vn -3.077359 -0.995425 3.798763
v -0.049765 -0.007969 0.011748 0.407843 0.666667 0.337255
vn -2.185307 -1.912104 -4.217356
v -0.034157 -0.026177 -0.079301 0.407843 0.666667 0.337255
vn -2.713518 4.043982 -1.137138
v -0.054975 0.057065 -0.048068 0.407843 0.666667 0.337255
vn 5.844018 -0.801598 -1.122675
v 0.049080 -0.007969 -0.061076 0.407843 0.666667 0.337255
vn 0.184399 3.034768 3.108849
v -0.021149 0.057065 0.014352 0.407843 0.666667 0.337255
vn 2.618303 -1.353698 -4.145537
v 0.038671 -0.018367 -0.079301 0.407843 0.666667 0.337255
vn 4.887918 -3.716750 0.107784
v 0.041271 -0.031376 -0.009061 0.407843 0.666667 0.337255
vn 3.217978 -4.876406 -1.087399
v 0.028251 -0.041785 -0.061076 0.407843 0.666667 0.337255
vn 5.917382 1.449754 0.167820
v 0.049080 0.015429 -0.009061 0.407843 0.666667 0.337255
vn -0.731274 1.756831 -5.566308
v -0.023760 0.038836 -0.079301 0.407843 0.666667 0.337255
vn -0.966150 -5.929952 -0.846805
v -0.008152 -0.049595 -0.055888 0.407843 0.666667 0.337255
vn -5.298940 -0.475411 -2.226401
v -0.060174 0.015429 -0.061076 0.407843 0.666667 0.337255
vn 1.288222 -5.954942 0.388246
v 0.012643 -0.049595 -0.006476 0.407843 0.666667 0.337255
vn 2.059929 2.739047 3.262998
v 0.025663 0.044046 0.011748 0.407843 0.666667 0.337255
vn 3.309089 4.324574 -2.455133
v 0.025663 0.041436 -0.068878 0.407843 0.666667 0.337255
vn -4.852680 -3.802023 0.298617
v -0.041967 -0.031376 -0.006476 0.407843 0.666667 0.337255
vn -3.475990 1.699610 2.804949
v -0.062773 0.054455 0.003929 0.407843 0.666667 0.337255
vn -5.685314 -2.192829 0.797601
v -0.054975 -0.007969 -0.006476 0.407843 0.666667 0.337255
vn -0.712606 4.571556 -2.656943
v -0.031558 0.057065 -0.066292 0.407843 0.666667 0.337255
vn -4.493902 -3.632277 -1.527608
v -0.041967 -0.028776 -0.063680 0.407843 0.666667 0.337255
vn 5.770900 -2.148252 0.396195
v 0.046470 -0.020977 0.001343 0.407843 0.666667 0.337255
vn 4.986989 3.619141 0.256846
v 0.041271 0.031037 -0.006476 0.407843 0.666667 0.337255
vn -2.639833 -0.866978 -4.547409
v -0.041967 -0.010568 -0.079301 0.407843 0.666667 0.337255
vn 5.719938 0.920080 -1.329330
v 0.049080 0.010219 -0.061076 0.407843 0.666667 0.337255
vn -2.197995 -5.751364 0.144162
v -0.021149 -0.046985 -0.006476 0.407843 0.666667 0.337255
vn 0.993496 -2.812133 -3.939284
v 0.017842 -0.039186 -0.079301 0.407843 0.666667 0.337255
vn 4.745774 3.188118 -1.617584
v 0.041271 0.028437 -0.063680 0.407843 0.666667 0.337255
vn -6.006972 -0.828745 0.930855
v -0.062773 0.023228 -0.009061 0.407843 0.666667 0.337255
vn -4.598628 1.697521 -2.960559
v -0.057575 0.041436 -0.061076 0.407843 0.666667 0.337255
vn 4.155295 4.660200 0.315050
v 0.025663 0.046656 -0.006476 0.407843 0.666667 0.337255
vn 2.264521 5.372634 -1.642852
v 0.010044 0.054455 -0.058482 0.407843 0.666667 0.337255
vn 2.618285 -1.797340 3.068891
v 0.041271 -0.028776 0.011748 0.407843 0.666667 0.337255
vn -3.870942 -4.839597 0.209249
v -0.034157 -0.039186 -0.009061 0.407843 0.666667 0.337255
vn -2.499737 -4.898680 -2.303723
v -0.023760 -0.041785 -0.068878 0.407843 0.666667 0.337255
vn -5.607509 -1.575410 -1.450042
v -0.057575 -0.000159 -0.058482 0.407843 0.666667 0.337255
vn 3.187834 0.441527 2.942181
v 0.049080 0.007619 0.011748 0.407843 0.666667 0.337255
vn 2.398075 -5.725293 -0.105700
v 0.020453 -0.046985 -0.032474 0.407843 0.666667 0.337255
vn 2.946174 -0.425632 -4.048459
v 0.041271 -0.010568 -0.079301 0.407843 0.666667 0.337255
vn 4.046748 -4.662283 -0.156584
v 0.033450 -0.039186 -0.032474 0.407843 0.666667 0.337255
vn 0.606845 0.638272 6.006173
v -0.026367 0.153298 0.055975 0.000000 0.686275 0.239216
vn -0.358483 -2.674917 -3.071945
v -0.028973 0.057065 -0.063692 0.000000 0.686275 0.239216
vn 0.581415 -2.517192 -2.986378
v -0.015965 0.057065 -0.063692 0.000000 0.686275 0.239216
vn -0.642697 3.867904 -2.933039
v -0.044565 0.174131 -0.048078 0.000000 0.686275 0.239216
vn 5.607238 1.525753 -0.856816
v 0.025665 0.161113 -0.011648 0.000000 0.686275 0.239216
vn -2.255540 -3.433924 3.233873
v -0.054968 0.062279 0.032559 0.000000 0.686275 0.239216
vn -5.501062 1.556451 -0.864081
v -0.086196 0.158512 -0.011660 0.000000 0.686275 0.239216
vn 2.772485 -3.911666 1.029282
v 0.007445 0.057065 -0.001270 0.000000 0.686275 0.239216
vn -1.512649 3.892375 2.543901
v -0.057563 0.174131 0.042950 0.000000 0.686275 0.239216
vn 2.029233 4.051460 2.129133
v 0.007445 0.174131 0.035160 0.000000 0.686275 0.239216
vn -3.043591 -3.670761 -0.452433
v -0.065381 0.057065 -0.011660 0.000000 0.686275 0.239216
vn 2.673016 -1.894409 4.866308
v -0.010764 0.080487 0.042950 0.000000 0.686275 0.239216
vn 1.541863 3.972846 -2.535248
v -0.002957 0.174131 -0.042877 0.000000 0.686275 0.239216
vn 5.109177 -0.446520 3.181863
v 0.020453 0.140292 0.029947 0.000000 0.686275 0.239216
vn -4.900082 -0.551742 3.471247
v -0.078378 0.137691 0.032559 0.000000 0.686275 0.239216
vn -4.549922 -0.489430 -4.161297
v -0.070582 0.129899 -0.040276 0.000000 0.686275 0.239216
vn 2.402752 -2.833702 -1.937099
v 0.002244 0.057065 -0.053279 0.000000 0.686275 0.239216
vn -2.187599 -0.556446 5.749063
v -0.052362 0.132489 0.050763 0.000000 0.686275 0.239216
vn -2.881856 4.012475 0.593583
v -0.078378 0.174131 0.014333 0.000000 0.686275 0.239216
vn 6.143535 -1.043169 -0.378715
v 0.023059 0.116893 -0.011648 0.000000 0.686275 0.239216
vn 1.252602 2.028064 -5.225402
v -0.013359 0.163714 -0.053279 0.000000 0.686275 0.239216
vn -2.466734 -3.269621 -1.903996
v -0.052362 0.057065 -0.048078 0.000000 0.686275 0.239216
vn -6.018131 -0.812123 -0.670607
v -0.086196 0.135090 -0.011660 0.000000 0.686275 0.239216
vn 5.087922 0.676980 -3.144732
v 0.020453 0.150697 -0.029863 0.000000 0.686275 0.239216
vn 0.476158 -3.463160 4.287635
v -0.028973 0.067481 0.042950 0.000000 0.686275 0.239216
vn -2.158260 1.180514 -5.575029
v -0.054968 0.158512 -0.050678 0.000000 0.686275 0.239216
vn 2.919347 0.051129 5.234226
v 0.002244 0.145506 0.048162 0.000000 0.686275 0.239216
vn -2.966050 -3.659194 0.579615
v -0.065381 0.057065 0.006532 0.000000 0.686275 0.239216
vn -2.609099 3.918984 -1.421653
v -0.073177 0.174131 -0.027262 0.000000 0.686275 0.239216
vn -5.744380 -0.370124 1.367397
v -0.086196 0.140304 0.016933 0.000000 0.686275 0.239216
vn 3.610692 1.137046 -4.720521
v 0.004839 0.155911 -0.045465 0.000000 0.686275 0.239216
vn 2.796411 4.224523 0.774728
v 0.017858 0.174131 0.016945 0.000000 0.686275 0.239216
vn 5.820135 -0.632761 1.357908
v 0.025665 0.137702 0.016945 0.000000 0.686275 0.239216
vn 0.720704 3.348762 3.644707
v -0.018571 0.171518 0.050763 0.000000 0.686275 0.239216
vn -0.612019 1.042973 -6.002859
v -0.036758 0.153298 -0.055879 0.000000 0.686275 0.239216
vn 5.687031 -2.204048 -0.014537
v 0.012657 0.064880 -0.014248 0.000000 0.686275 0.239216
vn -1.365859 -2.614785 -2.708484
v -0.039364 0.057065 -0.061080 0.000000 0.686275 0.239216
vn -0.414214 -1.294950 5.850517
v -0.034163 0.083089 0.048162 0.000000 0.686275 0.239216
vn 4.545829 -2.302005 3.290520
v 0.002244 0.080487 0.029947 0.000000 0.686275 0.239216
vn 0.510811 -5.773355 1.573199
v -0.026367 0.057065 0.022134 0.000000 0.686275 0.239216
vn -3.695062 1.105093 4.459272
v -0.067976 0.158512 0.042950 0.000000 0.686275 0.239216
vn -4.984080 0.762967 -3.268235
v -0.078378 0.153298 -0.032463 0.000000 0.686275 0.239216
vn 3.807937 3.259682 -2.624616
v 0.015252 0.171518 -0.027262 0.000000 0.686275 0.239216
vn 2.946254 -3.154375 -0.993071
v 0.007445 0.057065 -0.042877 0.000000 0.686275 0.239216
vn -5.598436 -0.665012 -2.318157
v -0.083579 0.135090 -0.022062 0.000000 0.686275 0.239216
vn -1.476019 1.482562 5.430562
v -0.047160 0.161113 0.053351 0.000000 0.686275 0.239216
vn -3.662668 -0.958086 4.806337
v -0.065381 0.124696 0.042950 0.000000 0.686275 0.239216
vn -4.873514 1.929756 2.273123
v -0.080984 0.163714 0.024735 0.000000 0.686275 0.239216
vn 5.944046 -0.313833 -1.248511
v 0.025665 0.137702 -0.016861 0.000000 0.686275 0.239216
vn -2.788583 -3.553007 2.002440
v -0.060169 0.059678 0.024735 0.000000 0.686275 0.239216
vn 5.049879 1.498721 2.773136
v 0.020453 0.161113 0.027347 0.000000 0.686275 0.239216
vn 1.354831 -0.593698 6.019104
v -0.015965 0.135090 0.053351 0.000000 0.686275 0.239216
vn 4.150432 -0.972719 4.371878
v 0.010051 0.129887 0.040361 0.000000 0.686275 0.239216
vn -1.799937 -2.772897 4.585927
v -0.047160 0.067481 0.040349 0.000000 0.686275 0.239216
vn 2.313919 -3.970470 3.600211
v -0.015965 0.067481 0.037749 0.000000 0.686275 0.239216
vn 2.932812 -1.257656 -4.704552
v -0.002957 0.059678 -0.058479 0.000000 0.686275 0.239216
vn 5.775911 -1.628161 1.240903
v 0.015252 0.077886 -0.001258 0.000000 0.686275 0.239216
vn -3.670991 0.421739 -4.927449
v -0.065381 0.153298 -0.045465 0.000000 0.686275 0.239216
vn 3.441464 1.430192 4.569496
v 0.007445 0.161113 0.042950 0.000000 0.686275 0.239216
vn -3.251035 2.481642 -4.097104
v -0.065381 0.166304 -0.042877 0.000000 0.686275 0.239216
vn 5.656516 1.514758 0.746348
v 0.025665 0.161113 0.011733 0.000000 0.686275 0.239216
vn -0.483926 -0.290532 6.134461
v -0.034163 0.145506 0.055975 0.000000 0.686275 0.239216
vn -2.851316 -3.683351 -1.185490
v -0.057563 0.057065 -0.037676 0.000000 0.686275 0.239216
vn 2.813046 4.231976 -0.721615
v 0.017858 0.174131 -0.016861 0.000000 0.686275 0.239216
# 128 vertices, 0 vertices normals

f 62//62 33//33 64//64
f 2//2 3//3 4//4
f 2//2 4//4 12//12
f 6//6 1//1 14//14
f 4//4 3//3 16//16
f 6//6 14//14 22//22
f 12//12 13//13 24//24
f 8//8 13//13 26//26
f 13//13 12//12 26//26
f 14//14 1//1 27//27
f 4//4 16//16 28//28
f 2//2 12//12 30//30
f 24//24 5//5 30//30
f 12//12 24//24 30//30
f 1//1 6//6 31//31
f 11//11 23//23 31//31
f 23//23 11//11 33//33
f 15//15 29//29 34//34
f 14//14 7//7 35//35
f 22//22 14//14 35//35
f 1//1 17//17 36//36
f 17//17 24//24 36//36
f 4//4 20//20 37//37
f 20//20 14//14 37//37
f 5//5 24//24 38//38
f 24//24 17//17 38//38
f 2//2 30//30 39//39
f 30//30 9//9 39//39
f 6//6 22//22 40//40
f 3//3 25//25 40//40
f 12//12 4//4 42//42
f 26//26 12//12 42//42
f 8//8 26//26 43//43
f 26//26 21//21 43//43
f 41//41 8//8 43//43
f 10//10 41//41 43//43
f 16//16 22//22 44//44
f 28//28 16//16 44//44
f 7//7 28//28 44//44
f 35//35 7//7 44//44
f 22//22 35//35 44//44
f 10//10 27//27 45//45
f 41//41 10//10 45//45
f 11//11 29//29 46//46
f 29//29 15//15 46//46
f 32//32 11//11 46//46
f 9//9 34//34 47//47
f 34//34 19//19 47//47
f 14//14 27//27 48//48
f 27//27 10//10 48//48
f 37//37 14//14 48//48
f 19//19 34//34 49//49
f 34//34 29//29 49//49
f 24//24 13//13 50//50
f 18//18 36//36 50//50
f 36//36 24//24 50//50
f 17//17 1//1 51//51
f 1//1 31//31 51//51
f 31//31 23//23 51//51
f 33//33 17//17 51//51
f 23//23 33//33 51//51
f 6//6 40//40 52//52
f 40//40 25//25 52//52
f 25//25 47//47 52//52
f 47//47 19//19 52//52
f 49//49 6//6 52//52
f 19//19 49//49 52//52
f 21//21 26//26 53//53
f 4//4 37//37 53//53
f 37//37 21//21 53//53
f 42//42 4//4 53//53
f 26//26 42//42 53//53
f 7//7 14//14 54//54
f 20//20 4//4 54//54
f 14//14 20//20 54//54
f 4//4 28//28 54//54
f 28//28 7//7 54//54
f 3//3 2//2 55//55
f 25//25 3//3 55//55
f 2//2 39//39 55//55
f 39//39 9//9 55//55
f 47//47 25//25 55//55
f 9//9 47//47 55//55
f 16//16 3//3 56//56
f 22//22 16//16 56//56
f 3//3 40//40 56//56
f 40//40 22//22 56//56
f 15//15 30//30 57//57
f 30//30 5//5 57//57
f 5//5 32//32 57//57
f 46//46 15//15 57//57
f 32//32 46//46 57//57
f 13//13 8//8 58//58
f 8//8 41//41 58//58
f 45//45 18//18 58//58
f 41//41 45//45 58//58
f 50//50 13//13 58//58
f 18//18 50//50 58//58
f 27//27 1//1 59//59
f 1//1 36//36 59//59
f 36//36 18//18 59//59
f 45//45 27//27 59//59
f 18//18 45//45 59//59
f 21//21 37//37 60//60
f 10//10 43//43 60//60
f 43//43 21//21 60//60
f 48//48 10//10 60//60
f 37//37 48//48 60//60
f 9//9 30//30 61//61
f 30//30 15//15 61//61
f 34//34 9//9 61//61
f 15//15 34//34 61//61
f 17//17 33//33 62//62
f 5//5 38//38 62//62
f 38//38 17//17 62//62
f 29//29 11//11 63//63
f 31//31 6//6 63//63
f 11//11 31//31 63//63
f 6//6 49//49 63//63
f 49//49 29//29 63//63
f 32//32 5//5 64//64
f 11//11 32//32 64//64
f 33//33 11//11 64//64
f 5//5 62//62 64//64
f 107//107 77//77 128//128
f 66//66 67//67 72//72
f 68//68 73//73 74//74
f 66//66 72//72 75//75
f 68//68 74//74 77//77
f 72//72 67//67 81//81
f 73//73 68//68 83//83
f 68//68 77//77 85//85
f 66//66 75//75 86//86
f 75//75 72//72 92//92
f 87//87 75//75 92//92
f 83//83 68//68 93//93
f 71//71 83//83 93//93
f 71//71 87//87 94//94
f 87//87 92//92 94//94
f 85//85 77//77 95//95
f 77//77 74//74 96//96
f 74//74 73//73 98//98
f 65//65 91//91 98//98
f 67//67 66//66 99//99
f 85//85 67//67 99//99
f 68//68 85//85 99//99
f 90//90 68//68 99//99
f 66//66 86//86 101//101
f 86//86 80//80 101//101
f 99//99 66//66 101//101
f 90//90 99//99 101//101
f 89//89 76//76 102//102
f 97//97 78//78 103//103
f 89//89 70//70 104//104
f 92//92 72//72 104//104
f 71//71 93//93 106//106
f 69//69 88//88 107//107
f 95//95 77//77 107//107
f 88//88 95//95 107//107
f 72//72 81//81 108//108
f 81//81 88//88 108//108
f 100//100 72//72 108//108
f 84//84 100//100 108//108
f 80//80 86//86 109//109
f 87//87 71//71 109//109
f 75//75 87//87 109//109
f 106//106 80//80 109//109
f 71//71 106//106 109//109
f 65//65 98//98 110//110
f 98//98 73//73 110//110
f 73//73 105//105 110//110
f 105//105 82//82 110//110
f 79//79 70//70 111//111
f 82//82 105//105 111//111
f 105//105 79//79 111//111
f 83//83 71//71 112//112
f 73//73 83//83 112//112
f 71//71 94//94 112//112
f 94//94 79//79 112//112
f 105//105 73//73 112//112
f 79//79 105//105 112//112
f 88//88 69//69 113//113
f 69//69 97//97 113//113
f 97//97 84//84 113//113
f 84//84 108//108 113//113
f 108//108 88//88 113//113
f 70//70 79//79 114//114
f 79//79 94//94 114//114
f 94//94 92//92 114//114
f 104//104 70//70 114//114
f 92//92 104//104 114//114
f 96//96 74//74 115//115
f 78//78 97//97 115//115
f 91//91 65//65 116//116
f 76//76 91//91 116//116
f 102//102 76//76 116//116
f 91//91 76//76 117//117
f 76//76 103//103 117//117
f 103//103 78//78 117//117
f 70//70 89//89 118//118
f 102//102 82//82 118//118
f 89//89 102//102 118//118
f 111//111 70//70 118//118
f 82//82 111//111 118//118
f 76//76 89//89 119//119
f 72//72 103//103 119//119
f 103//103 76//76 119//119
f 89//89 104//104 119//119
f 104//104 72//72 119//119
f 81//81 67//67 120//120
f 67//67 85//85 120//120
f 88//88 81//81 120//120
f 85//85 95//95 120//120
f 95//95 88//88 120//120
f 84//84 97//97 121//121
f 72//72 100//100 121//121
f 100//100 84//84 121//121
f 103//103 72//72 121//121
f 97//97 103//103 121//121
f 101//101 80//80 122//122
f 90//90 101//101 122//122
f 80//80 106//106 122//122
f 74//74 98//98 123//123
f 98//98 91//91 123//123
f 115//115 74//74 123//123
f 78//78 115//115 123//123
f 91//91 117//117 123//123
f 117//117 78//78 123//123
f 68//68 90//90 124//124
f 93//93 68//68 124//124
f 106//106 93//93 124//124
f 90//90 122//122 124//124
f 122//122 106//106 124//124
f 69//69 96//96 125//125
f 97//97 69//69 125//125
f 96//96 115//115 125//125
f 115//115 97//97 125//125
f 82//82 102//102 126//126
f 65//65 110//110 126//126
f 110//110 82//82 126//126
f 116//116 65//65 126//126
f 102//102 116//116 126//126
f 86//86 75//75 127//127
f 75//75 109//109 127//127
f 109//109 86//86 127//127
f 96//96 69//69 128//128
f 77//77 96//96 128//128
f 69//69 107//107 128//128
# 248 faces, 0 coords texture

# End of File
