####
#
# OBJ File Generated by Meshlab
#
####
# Object base.obj
#
# Vertices: 64
# Faces: 124
#
####
vn -5.701273 -1.613241 -0.797372
v -0.040817 -0.010108 0.022924 0.407843 0.666667 0.337255
vn 6.124866 -0.214147 0.445454
v 0.041941 0.001697 0.052457 0.407843 0.666667 0.337255
vn 6.065599 1.013859 0.899044
v 0.040457 0.010564 0.058373 0.407843 0.666667 0.337255
vn 1.210924 2.829143 -3.462335
v 0.016815 0.031258 -0.000730 0.407843 0.666667 0.337255
vn -2.236778 2.238479 3.721846
v -0.027516 0.013522 0.090877 0.407843 0.666667 0.337255
vn 0.737898 -5.659793 -1.216074
v 0.007951 -0.035246 0.002233 0.407843 0.666667 0.337255
vn -0.132666 -4.120223 4.232439
v -0.009787 -0.016025 0.092358 0.407843 0.666667 0.337255
vn -2.599152 1.516018 -3.736156
v -0.028992 0.020911 -0.000730 0.407843 0.666667 0.337255
vn 3.322756 -2.050327 2.926183
v 0.031593 -0.011587 0.087924 0.407843 0.666667 0.337255
vn 0.951172 5.599343 1.966825
v 0.013855 0.031258 0.064279 0.407843 0.666667 0.337255
vn -3.739289 3.851878 0.523435
v -0.036380 0.028300 0.043606 0.407843 0.666667 0.337255
vn 2.771184 -1.254917 -3.464780
v 0.031593 -0.016025 -0.000730 0.407843 0.666667 0.337255
vn -2.494962 -5.338184 1.240981
v -0.021603 -0.027844 0.061326 0.407843 0.666667 0.337255
vn -1.889704 -2.456562 -3.075838
v -0.023079 -0.027844 -0.000730 0.407843 0.666667 0.337255
vn 2.167089 2.289927 3.744061
v 0.027156 0.013522 0.090877 0.407843 0.666667 0.337255
vn 2.310494 -5.380851 1.269741
v 0.019768 -0.029323 0.058373 0.407843 0.666667 0.337255
vn 4.411155 3.318071 -0.750030
v 0.037497 0.025348 0.027349 0.407843 0.666667 0.337255
vn -5.122237 -1.005142 2.449043
v -0.034904 -0.008636 0.083489 0.407843 0.666667 0.337255
vn -0.410146 4.583045 -2.441134
v -0.005350 0.035695 0.002233 0.407843 0.666667 0.337255
vn 5.111921 -3.182136 -0.526188
v 0.038981 -0.014546 0.024396 0.407843 0.666667 0.337255
vn -1.264196 5.531363 1.884679
v -0.017175 0.031258 0.062798 0.407843 0.666667 0.337255
vn 3.034516 4.865254 0.530768
v 0.033069 0.029779 0.043606 0.407843 0.666667 0.337255
vn 2.938328 0.701389 -3.786949
v 0.033069 0.012043 -0.000730 0.407843 0.666667 0.337255
vn -0.627910 -6.103586 0.387950
v -0.003874 -0.035246 0.033265 0.407843 0.666667 0.337255
vn -6.072844 0.738791 -0.329279
v -0.042301 0.009085 0.028831 0.407843 0.666667 0.337255
vn 5.831258 0.496614 -1.257394
v 0.041941 0.004655 0.019962 0.407843 0.666667 0.337255
vn 0.416979 -5.718887 2.123323
v 0.003514 -0.029323 0.068714 0.407843 0.666667 0.337255
vn -3.927735 -0.262989 -3.602046
v -0.034904 -0.005678 0.000752 0.407843 0.666667 0.337255
vn -6.007186 0.327002 1.271242
v -0.039341 0.004655 0.068714 0.407843 0.666667 0.337255
vn -4.968378 -3.211078 0.676007
v -0.037865 -0.016025 0.052457 0.407843 0.666667 0.337255
vn 2.765388 -3.769651 -2.334358
v 0.022720 -0.029323 0.002233 0.407843 0.666667 0.337255
vn 4.872368 -3.188169 0.728762
v 0.037497 -0.016025 0.055410 0.407843 0.666667 0.337255
vn 0.546230 2.459504 4.658950
v 0.013855 0.013522 0.093849 0.407843 0.666667 0.337255
vn 1.303937 -2.614855 4.011532
v 0.021244 -0.014546 0.092358 0.407843 0.666667 0.337255
vn 0.339044 6.206656 0.150804
v 0.004991 0.035695 0.025877 0.407843 0.666667 0.337255
vn -1.664050 -2.662207 4.037213
v -0.021603 -0.014546 0.092358 0.407843 0.666667 0.337255
vn -1.364701 -4.624521 -2.117912
v -0.014215 -0.033760 0.002233 0.407843 0.666667 0.337255
vn 4.687384 1.689318 2.601794
v 0.034545 0.010564 0.083489 0.407843 0.666667 0.337255
vn -4.703788 3.382551 -0.992956
v -0.036380 0.026820 0.027349 0.407843 0.666667 0.337255
vn -0.394239 5.235280 3.312385
v -0.011263 0.019432 0.086443 0.407843 0.666667 0.337255
vn -3.149060 -5.169966 0.334986
v -0.026031 -0.027844 0.043606 0.407843 0.666667 0.337255
vn 3.109982 -5.208206 0.177961
v 0.024204 -0.029323 0.036219 0.407843 0.666667 0.337255
vn -6.043441 -0.771102 0.390692
v -0.042301 -0.004199 0.045088 0.407843 0.666667 0.337255
vn -4.280265 2.047775 2.627249
v -0.033428 0.012043 0.084971 0.407843 0.666667 0.337255
vn -1.459638 2.708263 -3.389560
v -0.020127 0.029779 -0.000730 0.407843 0.666667 0.337255
vn -5.701746 1.209686 -1.474184
v -0.040817 0.012043 0.019962 0.407843 0.666667 0.337255
vn 5.831131 -0.741449 1.439615
v 0.038981 -0.002720 0.071667 0.407843 0.666667 0.337255
vn -1.104086 6.040571 0.708262
v -0.018651 0.032737 0.052457 0.407843 0.666667 0.337255
vn -3.328312 -2.474887 2.889168
v -0.031952 -0.013067 0.086443 0.407843 0.666667 0.337255
vn 5.117717 2.678646 0.906848
v 0.038981 0.020911 0.052457 0.407843 0.666667 0.337255
vn -0.564439 -1.499181 5.684002
v -0.015699 -0.013067 0.093849 0.407843 0.666667 0.337255
vn 1.558551 5.799083 -0.924158
v 0.013855 0.034216 0.006667 0.407843 0.666667 0.337255
vn -4.855865 -3.664954 -0.634097
v -0.036380 -0.017504 0.019962 0.407843 0.666667 0.337255
vn 0.796284 -6.080941 0.690414
v 0.007951 -0.033760 0.045088 0.407843 0.666667 0.337255
vn -0.866327 -5.746704 1.890475
v -0.009787 -0.029323 0.067233 0.407843 0.666667 0.337255
vn 0.734629 -2.915564 -3.819424
v 0.009427 -0.033760 -0.000730 0.407843 0.666667 0.337255
vn -0.553057 2.368603 4.893104
v -0.014215 0.013522 0.093849 0.407843 0.666667 0.337255
vn -5.629700 1.978271 0.998861
v -0.039341 0.017960 0.055410 0.407843 0.666667 0.337255
vn 0.591851 6.138924 0.621992
v 0.010903 0.034216 0.048022 0.407843 0.666667 0.337255
vn 5.844396 -1.214219 -0.725171
v 0.041941 -0.007157 0.024396 0.407843 0.666667 0.337255
vn -2.730450 5.337881 -0.444651
v -0.033428 0.029779 0.030312 0.407843 0.666667 0.337255
vn 3.248917 4.673879 2.154045
v 0.030116 0.020911 0.073148 0.407843 0.666667 0.337255
vn 2.259724 2.054568 -3.595294
v 0.027156 0.023869 -0.000730 0.407843 0.666667 0.337255
vn -2.666824 -1.539120 -3.446825
v -0.030468 -0.018976 -0.000730 0.407843 0.666667 0.337255
# 64 vertices, 0 vertices normals

f 14//14 53//53 64//64
f 8//8 4//4 12//12
f 8//8 12//12 14//14
f 11//11 5//5 21//21
f 12//12 4//4 23//23
f 12//12 23//23 26//26
f 23//23 17//17 26//26
f 12//12 20//20 31//31
f 9//9 16//16 32//32
f 15//15 10//10 33//33
f 9//9 15//15 34//34
f 16//16 9//9 34//34
f 7//7 27//27 34//34
f 27//27 16//16 34//34
f 15//15 33//33 34//34
f 6//6 24//24 37//37
f 15//15 9//9 38//38
f 25//25 11//11 39//39
f 21//21 5//5 40//40
f 10//10 21//21 40//40
f 33//33 10//10 40//40
f 24//24 13//13 41//41
f 13//13 30//30 41//41
f 14//14 37//37 41//41
f 37//37 24//24 41//41
f 6//6 31//31 42//42
f 31//31 20//20 42//42
f 20//20 32//32 42//42
f 32//32 16//16 42//42
f 25//25 1//1 43//43
f 18//18 29//29 43//43
f 1//1 30//30 43//43
f 30//30 18//18 43//43
f 5//5 11//11 44//44
f 29//29 18//18 44//44
f 4//4 8//8 45//45
f 19//19 4//4 45//45
f 8//8 39//39 45//45
f 1//1 25//25 46//46
f 28//28 1//1 46//46
f 8//8 28//28 46//46
f 39//39 8//8 46//46
f 25//25 39//39 46//46
f 2//2 3//3 47//47
f 32//32 2//2 47//47
f 9//9 32//32 47//47
f 3//3 38//38 47//47
f 38//38 9//9 47//47
f 11//11 21//21 48//48
f 35//35 19//19 48//48
f 30//30 13//13 49//49
f 18//18 30//30 49//49
f 36//36 5//5 49//49
f 13//13 36//36 49//49
f 5//5 44//44 49//49
f 44//44 18//18 49//49
f 3//3 2//2 50//50
f 17//17 22//22 50//50
f 2//2 26//26 50//50
f 26//26 17//17 50//50
f 38//38 3//3 50//50
f 7//7 34//34 51//51
f 34//34 33//33 51//51
f 5//5 36//36 51//51
f 36//36 7//7 51//51
f 17//17 4//4 52//52
f 4//4 19//19 52//52
f 22//22 17//17 52//52
f 19//19 35//35 52//52
f 30//30 1//1 53//53
f 14//14 41//41 53//53
f 41//41 30//30 53//53
f 24//24 6//6 54//54
f 16//16 27//27 54//54
f 6//6 42//42 54//54
f 42//42 16//16 54//54
f 13//13 24//24 55//55
f 27//27 7//7 55//55
f 36//36 13//13 55//55
f 7//7 36//36 55//55
f 24//24 54//54 55//55
f 54//54 27//27 55//55
f 14//14 12//12 56//56
f 31//31 6//6 56//56
f 12//12 31//31 56//56
f 6//6 37//37 56//56
f 37//37 14//14 56//56
f 40//40 5//5 57//57
f 33//33 40//40 57//57
f 5//5 51//51 57//57
f 51//51 33//33 57//57
f 11//11 25//25 58//58
f 25//25 43//43 58//58
f 43//43 29//29 58//58
f 44//44 11//11 58//58
f 29//29 44//44 58//58
f 21//21 10//10 59//59
f 10//10 22//22 59//59
f 48//48 21//21 59//59
f 35//35 48//48 59//59
f 22//22 52//52 59//59
f 52//52 35//35 59//59
f 20//20 12//12 60//60
f 26//26 2//2 60//60
f 12//12 26//26 60//60
f 32//32 20//20 60//60
f 2//2 32//32 60//60
f 39//39 11//11 61//61
f 19//19 45//45 61//61
f 45//45 39//39 61//61
f 11//11 48//48 61//61
f 48//48 19//19 61//61
f 10//10 15//15 62//62
f 22//22 10//10 62//62
f 15//15 38//38 62//62
f 50//50 22//22 62//62
f 38//38 50//50 62//62
f 4//4 17//17 63//63
f 23//23 4//4 63//63
f 17//17 23//23 63//63
f 8//8 14//14 64//64
f 1//1 28//28 64//64
f 28//28 8//8 64//64
f 53//53 1//1 64//64
# 124 faces, 0 coords texture

# End of File
