####
#
# OBJ File Generated by Meshlab
#
####
# Object base_100.obj
#
# Vertices: 52
# Faces: 100
#
####
vn -0.312453 0.898438 0.308516
v -0.023356 0.024977 0.073326
vn -0.697613 -0.122670 0.705895
v -0.032837 -0.002896 0.092522
vn -0.993450 0.093371 0.065865
v -0.043384 0.003484 0.045118
vn -0.812260 0.582234 0.035175
v -0.039798 0.022372 0.041929
vn -0.931521 -0.360644 -0.046948
v -0.041874 -0.010373 0.033015
vn -0.706349 -0.707259 0.029240
v -0.033049 -0.021650 0.039693
vn -0.912577 -0.362993 0.188252
v -0.039287 -0.008310 0.068383
vn -0.176987 -0.637826 0.749569
v -0.017295 -0.015932 0.093204
vn -0.555550 -0.785017 0.274066
v -0.027248 -0.021617 0.073358
vn -0.924798 0.193871 0.327357
v -0.037283 0.007233 0.081561
vn -0.690708 0.515763 0.506863
v -0.033223 0.017480 0.078193
vn -0.284976 0.957264 0.049349
v -0.020290 0.033514 0.031848
vn -0.101124 0.974371 0.200937
v -0.009501 0.033788 0.052661
vn -0.336514 -0.938423 0.078236
v -0.014453 -0.032995 0.040113
vn -0.641934 0.159072 -0.750078
v -0.032122 0.007911 0.000201
vn -0.970748 0.008007 -0.239969
v -0.041155 -0.000299 0.017593
vn -0.876046 0.364185 -0.316088
v -0.038615 0.014532 0.016333
vn -0.592811 0.772495 -0.227657
v -0.029912 0.029178 0.021372
vn -0.855903 -0.379182 -0.351639
v -0.033881 -0.015757 0.007029
vn -0.296389 -0.456965 -0.838651
v -0.022134 -0.030323 0.000015
vn -0.466608 0.611547 -0.638973
v -0.021016 0.028884 0.001305
vn -0.105926 -0.958959 0.263015
v -0.006253 -0.032093 0.061328
vn -0.194537 0.526059 0.827900
v -0.013474 0.013978 0.097890
vn 0.108305 -0.898020 0.426414
v 0.006972 -0.022839 0.082867
vn 0.077015 -0.996771 0.022718
v 0.005041 -0.035957 0.025525
vn 0.067427 0.904952 0.420137
v 0.008897 0.025068 0.080341
vn 0.053512 0.997844 0.038007
v 0.008213 0.035619 0.035468
vn 0.273391 -0.940497 0.201799
v 0.012425 -0.031012 0.060482
vn 0.299899 0.936499 0.181742
v 0.016355 0.032087 0.060018
vn 0.341478 0.576676 0.742184
v 0.023337 0.013843 0.095056
vn 0.335922 -0.110800 0.935350
v 0.020963 0.000335 0.096938
vn 0.461028 -0.523753 0.716336
v 0.023353 -0.013326 0.095613
vn 0.918694 -0.258647 0.298503
v 0.039499 -0.004967 0.071007
vn 0.859025 0.487847 0.155182
v 0.039251 0.018849 0.057600
vn 0.901403 -0.432946 -0.005571
v 0.039724 -0.014652 0.039855
vn 0.567880 -0.765068 0.303617
v 0.030212 -0.018538 0.076881
vn 0.498803 0.798366 0.337354
v 0.031497 0.021955 0.071478
vn 0.360755 0.931998 -0.035158
v 0.022720 0.032801 0.026580
vn 0.581822 -0.386987 -0.715349
v 0.029098 -0.019744 0.000878
vn 0.784700 -0.600387 -0.154215
v 0.033544 -0.019179 0.012612
vn 0.610484 0.230657 -0.757699
v 0.034740 0.013346 0.006487
vn 0.954732 -0.110858 -0.276039
v 0.039558 -0.003908 0.014419
vn 0.462203 -0.882001 -0.091882
v 0.019503 -0.031821 0.016759
vn 0.153597 -0.884238 -0.441056
v 0.003970 -0.033660 0.001316
vn 0.661536 -0.745385 0.082287
v 0.031185 -0.023037 0.049452
vn 0.999952 -0.000846 -0.009763
v 0.043464 0.002806 0.037778
vn 0.824743 0.556460 -0.100757
v 0.039739 0.021841 0.031313
vn 0.813525 0.203733 0.544674
v 0.034971 0.008308 0.088238
vn 0.471495 0.593875 -0.651924
v 0.024835 0.028609 0.008384
vn 0.015026 0.812561 -0.582683
v -0.000331 0.035376 0.001728
vn -0.251989 -0.008256 0.967695
v -0.012699 -0.001504 0.098634
vn -0.136386 -0.985841 -0.097550
v -0.009851 -0.035332 0.009622
# 52 vertices, 0 vertices normals

f 11//11 51//51 23//23
f 2//2 8//8 51//51
f 10//10 2//2 11//11
f 8//8 2//2 9//9
f 5//5 6//6 7//7
f 6//6 9//9 7//7
f 14//14 22//22 9//9
f 14//14 6//6 20//20
f 19//19 20//20 6//6
f 19//19 15//15 20//20
f 4//4 16//16 3//3
f 18//18 17//17 4//4
f 21//21 15//15 18//18
f 16//16 4//4 17//17
f 19//19 5//5 16//16
f 15//15 19//19 16//16
f 15//15 16//16 17//17
f 15//15 17//17 18//18
f 9//9 22//22 8//8
f 1//1 23//23 26//26
f 8//8 22//22 24//24
f 29//29 13//13 26//26
f 21//21 50//50 15//15
f 50//50 18//18 12//12
f 50//50 12//12 27//27
f 12//12 13//13 27//27
f 44//44 25//25 52//52
f 14//14 25//25 22//22
f 22//22 25//25 28//28
f 51//51 8//8 31//31
f 23//23 51//51 31//31
f 23//23 31//31 30//30
f 13//13 29//29 27//27
f 31//31 8//8 32//32
f 43//43 28//28 25//25
f 26//26 30//30 37//37
f 33//33 32//32 36//36
f 48//48 31//31 33//33
f 41//41 49//49 47//47
f 34//34 46//46 47//47
f 35//35 33//33 45//45
f 40//40 35//35 45//45
f 28//28 45//45 36//36
f 43//43 45//45 28//28
f 39//39 43//43 44//44
f 49//49 38//38 47//47
f 29//29 37//37 34//34
f 37//37 30//30 48//48
f 39//39 40//40 43//43
f 20//20 41//41 39//39
f 41//41 42//42 39//39
f 39//39 42//42 40//40
f 20//20 49//49 41//41
f 38//38 29//29 47//47
f 47//47 29//29 34//34
f 50//50 49//49 20//20
f 44//44 20//20 39//39
f 38//38 27//27 29//29
f 43//43 40//40 45//45
f 42//42 35//35 40//40
f 45//45 33//33 36//36
f 46//46 33//33 35//35
f 42//42 46//46 35//35
f 47//47 42//42 41//41
f 42//42 47//47 46//46
f 37//37 48//48 34//34
f 34//34 33//33 46//46
f 34//34 48//48 33//33
f 31//31 32//32 33//33
f 30//30 31//31 48//48
f 32//32 24//24 36//36
f 29//29 26//26 37//37
f 24//24 28//28 36//36
f 44//44 43//43 25//25
f 50//50 38//38 49//49
f 50//50 27//27 38//38
f 24//24 32//32 8//8
f 26//26 23//23 30//30
f 50//50 20//20 15//15
f 52//52 25//25 14//14
f 24//24 22//22 28//28
f 13//13 1//1 26//26
f 20//20 44//44 52//52
f 20//20 52//52 14//14
f 21//21 18//18 50//50
f 6//6 14//14 9//9
f 1//1 13//13 12//12
f 4//4 1//1 12//12
f 18//18 4//4 12//12
f 1//1 4//4 11//11
f 11//11 3//3 10//10
f 11//11 4//4 3//3
f 6//6 5//5 19//19
f 16//16 5//5 3//3
f 3//3 5//5 7//7
f 3//3 7//7 10//10
f 10//10 7//7 2//2
f 7//7 9//9 2//2
f 11//11 2//2 51//51
f 11//11 23//23 1//1
# 100 faces, 0 coords texture

# End of File
