####
#
# OBJ File Generated by Meshlab
#
####
# Object finger_low.obj
#
# Vertices: 17
# Faces: 30
#
####
vn -0.173979 -0.778074 -0.603599
v -0.001001 -0.004510 -0.000210 0.403922 0.666667 0.337255
vn 0.872313 0.134893 -0.469973
v 0.000261 0.004537 -0.000210 0.403922 0.666667 0.337255
vn 0.665595 -0.746047 -0.019944
v 0.000261 -0.004721 0.008631 0.403922 0.666667 0.337255
vn -0.725892 -0.197086 -0.658968
v -0.005840 -0.001983 0.000843 0.403922 0.666667 0.337255
vn 0.028077 0.996108 0.083551
v -0.000581 0.015268 0.029460 0.403922 0.666667 0.337255
vn -0.255315 -0.965458 0.052016
v -0.001001 -0.004721 0.007369 0.403922 0.666667 0.337255
vn 0.055786 0.021409 0.998213
v -0.000265 0.006326 0.052078 0.403922 0.666667 0.337255
vn -0.584595 -0.781318 0.218611
v -0.005787 0.000172 0.037608 0.403922 0.666667 0.337255
vn -0.773228 -0.633781 -0.020999
v -0.010153 0.000120 0.012631 0.403922 0.666667 0.337255
vn 0.353652 -0.813077 0.462425
v 0.000256 0.000040 0.049781 0.403922 0.666667 0.337255
vn 0.312170 0.861705 -0.400017
v 0.000051 0.016109 0.007578 0.403922 0.666667 0.337255
vn -0.829054 0.534525 -0.164173
v -0.011191 0.013704 0.013444 0.403922 0.666667 0.337255
vn -0.892028 0.118539 -0.436158
v -0.010890 0.009061 0.009681 0.403922 0.666667 0.337255
vn -0.905600 -0.389562 0.167720
v -0.009416 0.001383 0.030927 0.403922 0.666667 0.337255
vn 0.812439 0.488707 0.317975
v 0.000259 0.012792 0.049711 0.403922 0.666667 0.337255
vn -0.805453 0.218851 0.550772
v -0.007263 0.011509 0.048173 0.403922 0.666667 0.337255
vn -0.445383 0.398964 -0.801537
v -0.004736 0.009534 0.003631 0.403922 0.666667 0.337255
# 17 vertices, 0 vertices normals

f 10//10 2//2 15//15
f 2//2 1//1 17//17
f 2//2 10//10 3//3
f 17//17 1//1 4//4
f 1//1 9//9 4//4
f 15//15 11//11 5//5
f 1//1 3//3 6//6
f 3//3 10//10 6//6
f 9//9 1//1 6//6
f 2//2 3//3 1//1
f 16//16 8//8 10//10
f 10//10 15//15 7//7
f 7//7 15//15 16//16
f 8//8 14//14 9//9
f 13//13 9//9 12//12
f 15//15 2//2 11//11
f 2//2 17//17 11//11
f 9//9 14//14 12//12
f 12//12 14//14 16//16
f 8//8 16//16 14//14
f 13//13 17//17 4//4
f 13//13 4//4 9//9
f 16//16 10//10 7//7
f 11//11 17//17 12//12
f 5//5 11//11 12//12
f 16//16 5//5 12//12
f 6//6 10//10 8//8
f 9//9 6//6 8//8
f 16//16 15//15 5//5
f 13//13 12//12 17//17
# 30 faces, 0 coords texture

# End of File
