solid Exported from Blender-2.79 (sub 0)
facet normal -0.612509 -0.220598 0.759058
outer loop
vertex -0.953349 0.983307 1.318289
vertex -1.013053 1.296640 1.361173
vertex -1.221741 1.296640 1.192776
endloop
endfacet
facet normal -0.690634 -0.334791 0.641046
outer loop
vertex -1.221741 1.296640 1.192776
vertex -1.107831 0.844683 1.079460
vertex -0.953349 0.983307 1.318289
endloop
endfacet
facet normal -0.638345 -0.334684 0.693182
outer loop
vertex -1.349161 0.984310 0.924635
vertex -1.107831 0.844683 1.079460
vertex -1.221741 1.296640 1.192776
endloop
endfacet
facet normal -0.751524 -0.225620 0.619926
outer loop
vertex -1.221741 1.296640 1.192776
vertex -1.393887 1.296640 0.984087
vertex -1.349161 0.984310 0.924635
endloop
endfacet
facet normal -0.615825 -0.755068 0.225014
outer loop
vertex -0.875312 0.252850 0.429796
vertex -1.068813 0.465726 0.614555
vertex -1.107294 0.379452 0.219734
endloop
endfacet
facet normal -0.548592 -0.829343 0.106000
outer loop
vertex -1.107294 0.379452 0.219734
vertex -0.898606 0.241410 0.219734
vertex -0.875312 0.252850 0.429796
endloop
endfacet
facet normal -0.617036 -0.768832 0.167822
outer loop
vertex -1.332515 0.625981 0.521063
vertex -1.367321 0.588141 0.219734
vertex -1.107294 0.379452 0.219734
endloop
endfacet
facet normal -0.563465 -0.793939 0.228404
outer loop
vertex -1.107294 0.379452 0.219734
vertex -1.068813 0.465726 0.614555
vertex -1.332515 0.625981 0.521063
endloop
endfacet
facet normal -0.902039 -0.328121 0.280468
outer loop
vertex -1.421106 0.858816 0.650957
vertex -1.584671 1.296640 0.637110
vertex -1.691796 1.265016 0.255578
endloop
endfacet
facet normal -0.901315 -0.342466 0.265234
outer loop
vertex -1.691796 1.265016 0.255578
vertex -1.555773 0.879264 0.219734
vertex -1.421106 0.858816 0.650957
endloop
endfacet
facet normal -0.126906 -0.825313 0.550231
outer loop
vertex -0.464553 0.251314 0.849773
vertex -0.248505 0.237315 0.878605
vertex -0.248505 0.376446 1.087294
endloop
endfacet
facet normal -0.239393 -0.752131 0.613995
outer loop
vertex -0.248505 0.376446 1.087294
vertex -0.646243 0.466089 1.042029
vertex -0.464553 0.251314 0.849773
endloop
endfacet
facet normal -0.241616 -0.781726 0.574914
outer loop
vertex -0.549681 0.626707 1.301006
vertex -0.646243 0.466089 1.042029
vertex -0.248505 0.376446 1.087294
endloop
endfacet
facet normal -0.182244 -0.756098 0.628573
outer loop
vertex -0.248505 0.376446 1.087294
vertex -0.248505 0.585135 1.338321
vertex -0.549681 0.626707 1.301006
endloop
endfacet
facet normal -0.268192 -0.318700 0.909122
outer loop
vertex -0.679636 0.858214 1.385207
vertex -0.248505 0.879264 1.519771
vertex -0.262892 1.271413 1.652997
endloop
endfacet
facet normal -0.272093 -0.314878 0.909295
outer loop
vertex -0.262892 1.271413 1.652997
vertex -0.665881 1.296640 1.541145
vertex -0.679636 0.858214 1.385207
endloop
endfacet
facet normal -0.226745 -0.955777 0.187289
outer loop
vertex -0.628560 0.222920 0.596197
vertex -0.665881 0.158005 0.219734
vertex -0.248505 0.058988 0.219734
endloop
endfacet
facet normal -0.201505 -0.956070 0.212898
outer loop
vertex -0.248505 0.058988 0.219734
vertex -0.248505 0.151929 0.637110
vertex -0.628560 0.222920 0.596197
endloop
endfacet
facet normal -0.354861 -0.303398 0.884321
outer loop
vertex -0.953349 0.983307 1.318289
vertex -0.679636 0.858214 1.385207
vertex -0.665881 1.296640 1.541145
endloop
endfacet
facet normal -0.450478 -0.204769 0.868988
outer loop
vertex -0.665881 1.296640 1.541145
vertex -1.013053 1.296640 1.361173
vertex -0.953349 0.983307 1.318289
endloop
endfacet
facet normal -0.594782 -0.465874 0.655131
outer loop
vertex -0.953349 0.983307 1.318289
vertex -1.107831 0.844683 1.079460
vertex -0.827932 0.705056 1.234284
endloop
endfacet
facet normal -0.393110 -0.423576 0.816117
outer loop
vertex -0.827932 0.705056 1.234284
vertex -0.679636 0.858214 1.385207
vertex -0.953349 0.983307 1.318289
endloop
endfacet
facet normal -0.325685 -0.888546 0.323133
outer loop
vertex -0.875312 0.252850 0.429796
vertex -0.628560 0.222920 0.596197
vertex -0.742804 0.305471 0.708047
endloop
endfacet
facet normal -0.493636 -0.780910 0.382758
outer loop
vertex -0.742804 0.305471 0.708047
vertex -1.068813 0.465726 0.614555
vertex -0.875312 0.252850 0.429796
endloop
endfacet
facet normal -0.336056 -0.937691 0.088333
outer loop
vertex -0.875312 0.252850 0.429796
vertex -0.898606 0.241410 0.219734
vertex -0.665881 0.158005 0.219734
endloop
endfacet
facet normal -0.242323 -0.951778 0.188144
outer loop
vertex -0.665881 0.158005 0.219734
vertex -0.628560 0.222920 0.596197
vertex -0.875312 0.252850 0.429796
endloop
endfacet
facet normal -0.399796 -0.775544 0.488563
outer loop
vertex -0.464553 0.251314 0.849773
vertex -0.646243 0.466089 1.042029
vertex -0.742804 0.305471 0.708047
endloop
endfacet
facet normal -0.333466 -0.888521 0.315167
outer loop
vertex -0.742804 0.305471 0.708047
vertex -0.628560 0.222920 0.596197
vertex -0.464553 0.251314 0.849773
endloop
endfacet
facet normal -0.203018 -0.949893 0.237669
outer loop
vertex -0.464553 0.251314 0.849773
vertex -0.628560 0.222920 0.596197
vertex -0.248505 0.151929 0.637110
endloop
endfacet
facet normal -0.104992 -0.937593 0.331507
outer loop
vertex -0.248505 0.151929 0.637110
vertex -0.248505 0.237315 0.878605
vertex -0.464553 0.251314 0.849773
endloop
endfacet
facet normal -0.856308 -0.212246 0.470838
outer loop
vertex -1.349161 0.984310 0.924635
vertex -1.393887 1.296640 0.984087
vertex -1.584671 1.296640 0.637110
endloop
endfacet
facet normal -0.872771 -0.314243 0.373527
outer loop
vertex -1.584671 1.296640 0.637110
vertex -1.421106 0.858816 0.650957
vertex -1.349161 0.984310 0.924635
endloop
endfacet
facet normal -0.801618 -0.434939 0.410167
outer loop
vertex -1.349161 0.984310 0.924635
vertex -1.421106 0.858816 0.650957
vertex -1.262313 0.706059 0.799314
endloop
endfacet
facet normal -0.652997 -0.470954 0.593125
outer loop
vertex -1.262313 0.706059 0.799314
vertex -1.107831 0.844683 1.079460
vertex -1.349161 0.984310 0.924635
endloop
endfacet
facet normal -0.853043 -0.460996 0.244539
outer loop
vertex -1.332515 0.625981 0.521063
vertex -1.421106 0.858816 0.650957
vertex -1.555773 0.879264 0.219734
endloop
endfacet
facet normal -0.828240 -0.536143 0.162998
outer loop
vertex -1.555773 0.879264 0.219734
vertex -1.367321 0.588141 0.219734
vertex -1.332515 0.625981 0.521063
endloop
endfacet
facet normal -0.574279 -0.736758 0.356919
outer loop
vertex -1.332515 0.625981 0.521063
vertex -1.068813 0.465726 0.614555
vertex -1.262313 0.706059 0.799314
endloop
endfacet
facet normal -0.797754 -0.495350 0.343827
outer loop
vertex -1.262313 0.706059 0.799314
vertex -1.421106 0.858816 0.650957
vertex -1.332515 0.625981 0.521063
endloop
endfacet
facet normal -0.330160 -0.480777 0.812310
outer loop
vertex -0.549681 0.626707 1.301006
vertex -0.679636 0.858214 1.385207
vertex -0.827932 0.705056 1.234284
endloop
endfacet
facet normal -0.346716 -0.733722 0.584329
outer loop
vertex -0.827932 0.705056 1.234284
vertex -0.646243 0.466089 1.042029
vertex -0.549681 0.626707 1.301006
endloop
endfacet
facet normal -0.175167 -0.516918 0.837921
outer loop
vertex -0.549681 0.626707 1.301006
vertex -0.248505 0.585135 1.338321
vertex -0.248505 0.879264 1.519771
endloop
endfacet
facet normal -0.245929 -0.450247 0.858369
outer loop
vertex -0.248505 0.879264 1.519771
vertex -0.679636 0.858214 1.385207
vertex -0.549681 0.626707 1.301006
endloop
endfacet
facet normal -0.579834 -0.556466 0.595095
outer loop
vertex -0.984062 0.583722 0.956033
vertex -1.107831 0.844683 1.079460
vertex -1.262313 0.706059 0.799314
endloop
endfacet
facet normal -0.546107 -0.740627 0.391456
outer loop
vertex -1.262313 0.706059 0.799314
vertex -1.068813 0.465726 0.614555
vertex -0.984062 0.583722 0.956033
endloop
endfacet
facet normal -0.396062 -0.739282 0.544606
outer loop
vertex -0.984062 0.583722 0.956033
vertex -0.646243 0.466089 1.042029
vertex -0.827932 0.705056 1.234284
endloop
endfacet
facet normal -0.597152 -0.556462 0.577720
outer loop
vertex -0.827932 0.705056 1.234284
vertex -1.107831 0.844683 1.079460
vertex -0.984062 0.583722 0.956033
endloop
endfacet
facet normal -0.493902 -0.776670 0.390954
outer loop
vertex -0.984062 0.583722 0.956033
vertex -1.068813 0.465726 0.614555
vertex -0.742804 0.305471 0.708047
endloop
endfacet
facet normal -0.395231 -0.777975 0.488413
outer loop
vertex -0.742804 0.305471 0.708047
vertex -0.646243 0.466089 1.042029
vertex -0.984062 0.583722 0.956033
endloop
endfacet
facet normal -0.788160 0.252165 0.561441
outer loop
vertex -1.004936 1.714017 1.356035
vertex -0.942525 2.008379 1.311439
vertex -1.079793 2.144282 1.057702
endloop
endfacet
facet normal -0.584924 0.390971 0.710637
outer loop
vertex -1.079793 2.144282 1.057702
vertex -1.213624 1.714017 1.184264
vertex -1.004936 1.714017 1.356035
endloop
endfacet
facet normal -0.705893 0.392919 0.589346
outer loop
vertex -1.387857 1.714017 0.975576
vertex -1.213624 1.714017 1.184264
vertex -1.079793 2.144282 1.057702
endloop
endfacet
facet normal -0.571948 0.261078 0.777634
outer loop
vertex -1.079793 2.144282 1.057702
vertex -1.341122 2.001933 0.913286
vertex -1.387857 1.714017 0.975576
endloop
endfacet
facet normal -0.877911 0.402194 0.259833
outer loop
vertex -1.572980 1.714017 0.637110
vertex -1.389902 2.137192 0.600657
vertex -1.505299 2.131393 0.219734
endloop
endfacet
facet normal -0.868816 0.413397 0.272511
outer loop
vertex -1.505299 2.131393 0.219734
vertex -1.683988 1.732223 0.255578
vertex -1.572980 1.714017 0.637110
endloop
endfacet
facet normal -0.405521 0.894484 0.188285
outer loop
vertex -1.080064 2.398766 0.600657
vertex -1.083257 2.477501 0.219734
vertex -1.326607 2.367177 0.219734
endloop
endfacet
facet normal -0.355947 0.921740 0.153941
outer loop
vertex -1.326607 2.367177 0.219734
vertex -1.296096 2.342635 0.437229
vertex -1.080064 2.398766 0.600657
endloop
endfacet
facet normal -0.271166 0.363083 0.891425
outer loop
vertex -0.665881 1.714017 1.533260
vertex -0.262892 1.730590 1.649096
vertex -0.248505 2.131393 1.490223
endloop
endfacet
facet normal -0.257309 0.350177 0.900649
outer loop
vertex -0.248505 2.131393 1.490223
vertex -0.656893 2.141060 1.369791
vertex -0.665881 1.714017 1.533260
endloop
endfacet
facet normal -0.181560 0.882831 0.433181
outer loop
vertex -0.248505 2.381260 1.313650
vertex -0.248505 2.508425 1.054487
vertex -0.656893 2.421933 1.059590
endloop
endfacet
facet normal -0.111317 0.937725 0.329058
outer loop
vertex -0.656893 2.421933 1.059590
vertex -0.511775 2.359772 1.285825
vertex -0.248505 2.381260 1.313650
endloop
endfacet
facet normal -0.053668 0.998482 0.012369
outer loop
vertex -0.248505 2.572801 0.637110
vertex -0.192307 2.581742 0.159195
vertex -0.665881 2.555538 0.219734
endloop
endfacet
facet normal -0.099892 0.993259 0.058809
outer loop
vertex -0.665881 2.555538 0.219734
vertex -0.665881 2.530826 0.637110
vertex -0.248505 2.572801 0.637110
endloop
endfacet
facet normal -0.437368 0.329504 0.836742
outer loop
vertex -1.004936 1.714017 1.356035
vertex -0.665881 1.714017 1.533260
vertex -0.656893 2.141060 1.369791
endloop
endfacet
facet normal -0.285410 0.202436 0.936782
outer loop
vertex -0.656893 2.141060 1.369791
vertex -0.942525 2.008379 1.311439
vertex -1.004936 1.714017 1.356035
endloop
endfacet
facet normal -0.551966 0.360997 0.751675
outer loop
vertex -0.656893 2.141060 1.369791
vertex -0.790026 2.286631 1.202117
vertex -1.079793 2.144282 1.057702
endloop
endfacet
facet normal -0.435125 0.674355 0.596583
outer loop
vertex -1.079793 2.144282 1.057702
vertex -0.942525 2.008379 1.311439
vertex -0.656893 2.141060 1.369791
endloop
endfacet
facet normal -0.183475 0.981306 0.058103
outer loop
vertex -0.665881 2.530826 0.637110
vertex -0.665881 2.555538 0.219734
vertex -1.083257 2.477501 0.219734
endloop
endfacet
facet normal -0.313477 0.929415 0.194733
outer loop
vertex -1.083257 2.477501 0.219734
vertex -1.080064 2.398766 0.600657
vertex -0.665881 2.530826 0.637110
endloop
endfacet
facet normal -0.949539 0.205411 0.237028
outer loop
vertex -1.387857 1.714017 0.975576
vertex -1.341122 2.001933 0.913286
vertex -1.389902 2.137192 0.600657
endloop
endfacet
facet normal -0.808635 0.387939 0.442282
outer loop
vertex -1.389902 2.137192 0.600657
vertex -1.572980 1.714017 0.637110
vertex -1.387857 1.714017 0.975576
endloop
endfacet
facet normal -0.725803 0.487942 0.484894
outer loop
vertex -1.079793 2.144282 1.057702
vertex -1.217061 2.280184 0.715480
vertex -1.389902 2.137192 0.600657
endloop
endfacet
facet normal -0.598116 0.697297 0.395011
outer loop
vertex -1.389902 2.137192 0.600657
vertex -1.341122 2.001933 0.913286
vertex -1.079793 2.144282 1.057702
endloop
endfacet
facet normal -0.098907 0.983467 0.151690
outer loop
vertex -0.248505 2.508425 1.054487
vertex -0.248505 2.572801 0.637110
vertex -0.665881 2.530826 0.637110
endloop
endfacet
facet normal -0.197713 0.948212 0.248604
outer loop
vertex -0.665881 2.530826 0.637110
vertex -0.656893 2.421933 1.059590
vertex -0.248505 2.508425 1.054487
endloop
endfacet
facet normal -0.835056 0.521267 0.175963
outer loop
vertex -1.389902 2.137192 0.600657
vertex -1.296096 2.342635 0.437229
vertex -1.326607 2.367177 0.219734
endloop
endfacet
facet normal -0.776320 0.588345 0.226222
outer loop
vertex -1.326607 2.367177 0.219734
vertex -1.505299 2.131393 0.219734
vertex -1.389902 2.137192 0.600657
endloop
endfacet
facet normal -0.644962 0.763967 0.019468
outer loop
vertex -1.389902 2.137192 0.600657
vertex -1.217061 2.280184 0.715480
vertex -1.080064 2.398766 0.600657
endloop
endfacet
facet normal -0.555522 0.658024 0.508330
outer loop
vertex -1.080064 2.398766 0.600657
vertex -1.296096 2.342635 0.437229
vertex -1.389902 2.137192 0.600657
endloop
endfacet
facet normal -0.589005 0.599050 0.542413
outer loop
vertex -0.656893 2.141060 1.369791
vertex -0.511775 2.359772 1.285825
vertex -0.656893 2.421933 1.059590
endloop
endfacet
facet normal -0.034780 0.740831 0.670791
outer loop
vertex -0.656893 2.421933 1.059590
vertex -0.790026 2.286631 1.202117
vertex -0.656893 2.141060 1.369791
endloop
endfacet
facet normal -0.221527 0.562772 0.796375
outer loop
vertex -0.656893 2.141060 1.369791
vertex -0.248505 2.131393 1.490223
vertex -0.248505 2.381260 1.313650
endloop
endfacet
facet normal -0.129503 0.429114 0.893919
outer loop
vertex -0.248505 2.381260 1.313650
vertex -0.511775 2.359772 1.285825
vertex -0.656893 2.141060 1.369791
endloop
endfacet
facet normal -0.695259 0.627801 0.349974
outer loop
vertex -1.079793 2.144282 1.057702
vertex -0.938810 2.375021 0.923867
vertex -1.080064 2.398766 0.600657
endloop
endfacet
facet normal -0.328928 0.824994 0.459555
outer loop
vertex -1.080064 2.398766 0.600657
vertex -1.217061 2.280184 0.715480
vertex -1.079793 2.144282 1.057702
endloop
endfacet
facet normal -0.529402 0.804519 0.269228
outer loop
vertex -1.079793 2.144282 1.057702
vertex -0.790026 2.286631 1.202117
vertex -0.656893 2.421933 1.059590
endloop
endfacet
facet normal -0.418714 0.633331 0.650822
outer loop
vertex -0.656893 2.421933 1.059590
vertex -0.938810 2.375021 0.923867
vertex -1.079793 2.144282 1.057702
endloop
endfacet
facet normal -0.314020 0.917733 0.243222
outer loop
vertex -0.656893 2.421933 1.059590
vertex -0.665881 2.530826 0.637110
vertex -1.080064 2.398766 0.600657
endloop
endfacet
facet normal -0.243691 0.953646 0.176562
outer loop
vertex -1.080064 2.398766 0.600657
vertex -0.938810 2.375021 0.923867
vertex -0.656893 2.421933 1.059590
endloop
endfacet
facet normal -0.525485 -0.832693 -0.174607
outer loop
vertex -1.364402 0.591465 -0.197643
vertex -1.328623 0.630414 -0.491067
vertex -1.103422 0.516197 -0.624123
endloop
endfacet
facet normal -0.607965 -0.757334 -0.238379
outer loop
vertex -1.103422 0.516197 -0.624123
vertex -1.060303 0.358418 -0.232828
vertex -1.364402 0.591465 -0.197643
endloop
endfacet
facet normal -0.895099 -0.339820 -0.288652
outer loop
vertex -1.550149 0.879264 -0.197643
vertex -1.687704 1.265016 -0.225222
vertex -1.574008 1.296640 -0.615019
endloop
endfacet
facet normal -0.903198 -0.328223 -0.276592
outer loop
vertex -1.574008 1.296640 -0.615019
vertex -1.413825 0.863521 -0.624123
vertex -1.550149 0.879264 -0.197643
endloop
endfacet
facet normal -0.608605 -0.329968 -0.721610
outer loop
vertex -1.100704 0.852698 -1.049086
vertex -1.210528 1.296640 -1.159461
vertex -1.001840 1.296640 -1.335468
endloop
endfacet
facet normal -0.758111 -0.225822 -0.611777
outer loop
vertex -1.001840 1.296640 -1.335468
vertex -0.945417 0.991495 -1.292750
vertex -1.100704 0.852698 -1.049086
endloop
endfacet
facet normal -0.718541 -0.329969 -0.612225
outer loop
vertex -1.388339 1.296640 -0.950772
vertex -1.210528 1.296640 -1.159461
vertex -1.100704 0.852698 -1.049086
endloop
endfacet
facet normal -0.613175 -0.229918 -0.755747
outer loop
vertex -1.100704 0.852698 -1.049086
vertex -1.344525 0.992151 -0.893687
vertex -1.388339 1.296640 -0.950772
endloop
endfacet
facet normal -0.192733 -0.948231 -0.252412
outer loop
vertex -0.704328 0.179028 -0.232828
vertex -0.869085 0.255794 -0.395411
vertex -0.704328 0.291131 -0.653965
endloop
endfacet
facet normal -0.411856 -0.880584 -0.234405
outer loop
vertex -0.704328 0.291131 -0.653965
vertex -0.590834 0.207927 -0.540805
vertex -0.704328 0.179028 -0.232828
endloop
endfacet
facet normal -0.252608 -0.949546 -0.185880
outer loop
vertex -0.704328 0.291131 -0.653965
vertex -0.448174 0.255304 -0.819056
vertex -0.284831 0.179533 -0.653965
endloop
endfacet
facet normal -0.234206 -0.880372 -0.412423
outer loop
vertex -0.284831 0.179533 -0.653965
vertex -0.590834 0.207927 -0.540805
vertex -0.704328 0.291131 -0.653965
endloop
endfacet
facet normal -0.144480 -0.978813 -0.145090
outer loop
vertex -0.704328 0.179028 -0.232828
vertex -0.590834 0.207927 -0.540805
vertex -0.284831 0.179533 -0.653965
endloop
endfacet
facet normal -0.222898 -0.948954 -0.223166
outer loop
vertex -0.284831 0.179533 -0.653965
vertex -0.248505 0.063686 -0.197643
vertex -0.704328 0.179028 -0.232828
endloop
endfacet
facet normal -0.173122 -0.832199 -0.526757
outer loop
vertex -0.674778 0.515845 -1.052174
vertex -0.541583 0.630316 -1.276797
vertex -0.248505 0.591428 -1.311681
endloop
endfacet
facet normal -0.238314 -0.754691 -0.611267
outer loop
vertex -0.248505 0.591428 -1.311681
vertex -0.284831 0.358094 -1.009438
vertex -0.674778 0.515845 -1.052174
endloop
endfacet
facet normal -0.276715 -0.329873 -0.902559
outer loop
vertex -0.665881 1.296640 -1.516304
vertex -0.268293 1.275742 -1.630562
vertex -0.248505 0.879264 -1.491722
endloop
endfacet
facet normal -0.268928 -0.322382 -0.907605
outer loop
vertex -0.248505 0.879264 -1.491722
vertex -0.674778 0.863127 -1.359684
vertex -0.665881 1.296640 -1.516304
endloop
endfacet
facet normal -0.449761 -0.892487 0.034374
outer loop
vertex -1.060303 0.358418 -0.232828
vertex -0.869085 0.255794 -0.395411
vertex -0.704328 0.179028 -0.232828
endloop
endfacet
facet normal -0.427336 -0.847989 -0.313526
outer loop
vertex -0.704328 0.179028 -0.232828
vertex -0.905874 0.237829 -0.117160
vertex -1.060303 0.358418 -0.232828
endloop
endfacet
facet normal -0.487383 -0.827141 -0.279815
outer loop
vertex -1.060303 0.358418 -0.232828
vertex -1.103422 0.516197 -0.624123
vertex -0.704328 0.291131 -0.653965
endloop
endfacet
facet normal -0.701859 -0.492564 -0.514562
outer loop
vertex -0.704328 0.291131 -0.653965
vertex -0.869085 0.255794 -0.395411
vertex -1.060303 0.358418 -0.232828
endloop
endfacet
facet normal -0.452918 -0.294701 -0.841437
outer loop
vertex -1.001840 1.296640 -1.335468
vertex -0.665881 1.296640 -1.516304
vertex -0.674778 0.863127 -1.359684
endloop
endfacet
facet normal -0.319320 -0.189039 -0.928601
outer loop
vertex -0.674778 0.863127 -1.359684
vertex -0.945417 0.991495 -1.292750
vertex -1.001840 1.296640 -1.335468
endloop
endfacet
facet normal -0.452505 -0.619622 -0.641333
outer loop
vertex -1.100704 0.852698 -1.049086
vertex -0.945417 0.991495 -1.292750
vertex -0.674778 0.863127 -1.359684
endloop
endfacet
facet normal -0.564034 -0.264217 -0.782340
outer loop
vertex -0.674778 0.863127 -1.359684
vertex -0.819834 0.713244 -1.204484
vertex -1.100704 0.852698 -1.049086
endloop
endfacet
facet normal 0.039124 -0.892911 -0.448530
outer loop
vertex -0.284831 0.179533 -0.653965
vertex -0.448174 0.255304 -0.819056
vertex -0.284831 0.358094 -1.009438
endloop
endfacet
facet normal -0.313913 -0.848426 -0.426184
outer loop
vertex -0.284831 0.358094 -1.009438
vertex -0.169923 0.238005 -0.855007
vertex -0.284831 0.179533 -0.653965
endloop
endfacet
facet normal -0.281032 -0.826726 -0.487386
outer loop
vertex -0.704328 0.291131 -0.653965
vertex -0.674778 0.515845 -1.052174
vertex -0.284831 0.358094 -1.009438
endloop
endfacet
facet normal -0.522024 -0.478361 -0.706160
outer loop
vertex -0.284831 0.358094 -1.009438
vertex -0.448174 0.255304 -0.819056
vertex -0.704328 0.291131 -0.653965
endloop
endfacet
facet normal -0.835040 -0.299123 -0.461772
outer loop
vertex -1.413825 0.863521 -0.624123
vertex -1.574008 1.296640 -0.615019
vertex -1.388339 1.296640 -0.950772
endloop
endfacet
facet normal -0.923519 -0.194828 -0.330386
outer loop
vertex -1.388339 1.296640 -0.950772
vertex -1.344525 0.992151 -0.893687
vertex -1.413825 0.863521 -0.624123
endloop
endfacet
facet normal -0.643011 -0.613705 -0.458151
outer loop
vertex -1.413825 0.863521 -0.624123
vertex -1.344525 0.992151 -0.893687
vertex -1.100704 0.852698 -1.049086
endloop
endfacet
facet normal -0.778183 -0.271183 -0.566472
outer loop
vertex -1.100704 0.852698 -1.049086
vertex -1.255991 0.713900 -0.769318
vertex -1.413825 0.863521 -0.624123
endloop
endfacet
facet normal -0.815393 -0.526260 -0.241215
outer loop
vertex -1.364402 0.591465 -0.197643
vertex -1.550149 0.879264 -0.197643
vertex -1.413825 0.863521 -0.624123
endloop
endfacet
facet normal -0.892417 -0.420124 -0.164585
outer loop
vertex -1.413825 0.863521 -0.624123
vertex -1.328623 0.630414 -0.491067
vertex -1.364402 0.591465 -0.197643
endloop
endfacet
facet normal -0.739973 -0.661311 -0.122914
outer loop
vertex -1.413825 0.863521 -0.624123
vertex -1.255991 0.713900 -0.769318
vertex -1.103422 0.516197 -0.624123
endloop
endfacet
facet normal -0.613716 -0.548477 -0.567914
outer loop
vertex -1.103422 0.516197 -0.624123
vertex -1.328623 0.630414 -0.491067
vertex -1.413825 0.863521 -0.624123
endloop
endfacet
facet normal -0.115258 -0.658516 -0.743688
outer loop
vertex -0.674778 0.515845 -1.052174
vertex -0.819834 0.713244 -1.204484
vertex -0.674778 0.863127 -1.359684
endloop
endfacet
facet normal -0.569510 -0.544922 -0.615401
outer loop
vertex -0.674778 0.863127 -1.359684
vertex -0.541583 0.630316 -1.276797
vertex -0.674778 0.515845 -1.052174
endloop
endfacet
facet normal -0.235701 -0.515360 -0.823923
outer loop
vertex -0.674778 0.863127 -1.359684
vertex -0.248505 0.879264 -1.491722
vertex -0.248505 0.591428 -1.311681
endloop
endfacet
facet normal -0.161383 -0.411660 -0.896934
outer loop
vertex -0.248505 0.591428 -1.311681
vertex -0.541583 0.630316 -1.276797
vertex -0.674778 0.863127 -1.359684
endloop
endfacet
facet normal -0.388677 -0.721129 -0.573501
outer loop
vertex -1.103422 0.516197 -0.624123
vertex -1.255991 0.713900 -0.769318
vertex -1.100704 0.852698 -1.049086
endloop
endfacet
facet normal -0.722091 -0.540102 -0.432289
outer loop
vertex -1.100704 0.852698 -1.049086
vertex -0.977740 0.589971 -0.926234
vertex -1.103422 0.516197 -0.624123
endloop
endfacet
facet normal -0.573238 -0.721254 -0.388833
outer loop
vertex -1.100704 0.852698 -1.049086
vertex -0.819834 0.713244 -1.204484
vertex -0.674778 0.515845 -1.052174
endloop
endfacet
facet normal -0.432316 -0.540014 -0.722141
outer loop
vertex -0.674778 0.515845 -1.052174
vertex -0.977740 0.589971 -0.926234
vertex -1.100704 0.852698 -1.049086
endloop
endfacet
facet normal -0.360219 -0.860602 -0.360010
outer loop
vertex -1.103422 0.516197 -0.624123
vertex -0.977740 0.589971 -0.926234
vertex -0.674778 0.515845 -1.052174
endloop
endfacet
facet normal -0.461671 -0.757432 -0.461688
outer loop
vertex -0.674778 0.515845 -1.052174
vertex -0.704328 0.291131 -0.653965
vertex -1.103422 0.516197 -0.624123
endloop
endfacet
facet normal -0.893937 0.375881 -0.244110
outer loop
vertex -1.682226 1.732223 -0.225222
vertex -1.521915 2.131393 -0.197643
vertex -1.403210 2.144258 -0.612531
endloop
endfacet
facet normal -0.896222 0.346385 -0.277136
outer loop
vertex -1.403210 2.144258 -0.612531
vertex -1.568727 1.714017 -0.615019
vertex -1.682226 1.732223 -0.225222
endloop
endfacet
facet normal -0.404515 0.902950 -0.145081
outer loop
vertex -1.083257 2.511717 -0.197643
vertex -1.098223 2.438350 -0.612531
vertex -1.317974 2.362524 -0.471746
endloop
endfacet
facet normal -0.444084 0.889917 -0.104104
outer loop
vertex -1.317974 2.362524 -0.471746
vertex -1.343016 2.382093 -0.197643
vertex -1.083257 2.511717 -0.197643
endloop
endfacet
facet normal -0.700197 0.343435 -0.625920
outer loop
vertex -1.207775 1.714017 -1.156513
vertex -1.094536 2.152523 -1.042586
vertex -0.941747 2.013086 -1.290015
endloop
endfacet
facet normal -0.629522 0.228470 -0.742633
outer loop
vertex -0.941747 2.013086 -1.290015
vertex -0.999087 1.714017 -1.333416
vertex -1.207775 1.714017 -1.156513
endloop
endfacet
facet normal -0.626787 0.343558 -0.699361
outer loop
vertex -1.341148 2.013709 -0.889758
vertex -1.094536 2.152523 -1.042586
vertex -1.207775 1.714017 -1.156513
endloop
endfacet
facet normal -0.739916 0.232560 -0.631221
outer loop
vertex -1.207775 1.714017 -1.156513
vertex -1.385806 1.714017 -0.947825
vertex -1.341148 2.013709 -0.889758
endloop
endfacet
facet normal 0.042632 0.997287 -0.060017
outer loop
vertex -0.192307 2.580355 -0.143776
vertex -0.248505 2.554398 -0.615019
vertex -0.665881 2.572240 -0.615019
endloop
endfacet
facet normal 0.007941 0.999651 -0.025195
outer loop
vertex -0.665881 2.572240 -0.615019
vertex -0.665881 2.582759 -0.197643
vertex -0.192307 2.580355 -0.143776
endloop
endfacet
facet normal -0.228998 0.402635 -0.886253
outer loop
vertex -0.657178 2.143884 -1.346673
vertex -0.248505 2.131393 -1.457945
vertex -0.268293 1.737365 -1.631844
endloop
endfacet
facet normal -0.284177 0.353373 -0.891275
outer loop
vertex -0.268293 1.737365 -1.631844
vertex -0.665881 1.714017 -1.514332
vertex -0.657178 2.143884 -1.346673
endloop
endfacet
facet normal -0.067563 0.908323 -0.412778
outer loop
vertex -0.248505 2.474617 -1.032395
vertex -0.248505 2.363775 -1.276303
vertex -0.512250 2.352592 -1.257740
endloop
endfacet
facet normal -0.088487 0.915601 -0.392229
outer loop
vertex -0.512250 2.352592 -1.257740
vertex -0.657178 2.428979 -1.046732
vertex -0.248505 2.474617 -1.032395
endloop
endfacet
facet normal -0.295864 0.954927 -0.024068
outer loop
vertex -0.665881 2.582759 -0.197643
vertex -0.665881 2.572240 -0.615019
vertex -1.098223 2.438350 -0.612531
endloop
endfacet
facet normal -0.165472 0.972154 -0.165941
outer loop
vertex -1.098223 2.438350 -0.612531
vertex -1.083257 2.511717 -0.197643
vertex -0.665881 2.582759 -0.197643
endloop
endfacet
facet normal -0.334448 0.348310 -0.875685
outer loop
vertex -0.941747 2.013086 -1.290015
vertex -0.657178 2.143884 -1.346673
vertex -0.665881 1.714017 -1.514332
endloop
endfacet
facet normal -0.466111 0.213949 -0.858468
outer loop
vertex -0.665881 1.714017 -1.514332
vertex -0.999087 1.714017 -1.333416
vertex -0.941747 2.013086 -1.290015
endloop
endfacet
facet normal -0.376710 0.475116 -0.795207
outer loop
vertex -0.790501 2.291337 -1.195415
vertex -0.657178 2.143884 -1.346673
vertex -0.941747 2.013086 -1.290015
endloop
endfacet
facet normal -0.561239 0.523119 -0.641372
outer loop
vertex -0.941747 2.013086 -1.290015
vertex -1.094536 2.152523 -1.042586
vertex -0.790501 2.291337 -1.195415
endloop
endfacet
facet normal -0.872122 0.337559 -0.354200
outer loop
vertex -1.568727 1.714017 -0.615019
vertex -1.403210 2.144258 -0.612531
vertex -1.341148 2.013709 -0.889758
endloop
endfacet
facet normal -0.855176 0.218504 -0.470031
outer loop
vertex -1.341148 2.013709 -0.889758
vertex -1.385806 1.714017 -0.947825
vertex -1.568727 1.714017 -0.615019
endloop
endfacet
facet normal -0.641872 0.505880 -0.576269
outer loop
vertex -1.247326 2.291960 -0.749997
vertex -1.094536 2.152523 -1.042586
vertex -1.341148 2.013709 -0.889758
endloop
endfacet
facet normal -0.791055 0.465874 -0.396476
outer loop
vertex -1.341148 2.013709 -0.889758
vertex -1.403210 2.144258 -0.612531
vertex -1.247326 2.291960 -0.749997
endloop
endfacet
facet normal -0.102556 0.977037 -0.186762
outer loop
vertex -0.248505 2.554398 -0.615019
vertex -0.248505 2.474617 -1.032395
vertex -0.657178 2.428979 -1.046732
endloop
endfacet
facet normal 0.040549 0.948570 -0.313959
outer loop
vertex -0.657178 2.428979 -1.046732
vertex -0.665881 2.572240 -0.615019
vertex -0.248505 2.554398 -0.615019
endloop
endfacet
facet normal -0.808592 0.577009 -0.115065
outer loop
vertex -1.521915 2.131393 -0.197643
vertex -1.343016 2.382093 -0.197643
vertex -1.317974 2.362524 -0.471746
endloop
endfacet
facet normal -0.848184 0.478194 -0.227847
outer loop
vertex -1.317974 2.362524 -0.471746
vertex -1.403210 2.144258 -0.612531
vertex -1.521915 2.131393 -0.197643
endloop
endfacet
facet normal -0.489468 0.807549 -0.329068
outer loop
vertex -1.317974 2.362524 -0.471746
vertex -1.098223 2.438350 -0.612531
vertex -1.247326 2.291960 -0.749997
endloop
endfacet
facet normal -0.786356 0.521104 -0.331806
outer loop
vertex -1.247326 2.291960 -0.749997
vertex -1.403210 2.144258 -0.612531
vertex -1.317974 2.362524 -0.471746
endloop
endfacet
facet normal -0.291195 0.817971 -0.496114
outer loop
vertex -0.790501 2.291337 -1.195415
vertex -0.657178 2.428979 -1.046732
vertex -0.512250 2.352592 -1.257740
endloop
endfacet
facet normal -0.295455 0.540762 -0.787580
outer loop
vertex -0.512250 2.352592 -1.257740
vertex -0.657178 2.143884 -1.346673
vertex -0.790501 2.291337 -1.195415
endloop
endfacet
facet normal -0.081292 0.613801 -0.785264
outer loop
vertex -0.512250 2.352592 -1.257740
vertex -0.248505 2.363775 -1.276303
vertex -0.248505 2.131393 -1.457945
endloop
endfacet
facet normal -0.212490 0.504220 -0.837025
outer loop
vertex -0.248505 2.131393 -1.457945
vertex -0.657178 2.143884 -1.346673
vertex -0.512250 2.352592 -1.257740
endloop
endfacet
facet normal -0.494184 0.806985 -0.323352
outer loop
vertex -1.247326 2.291960 -0.749997
vertex -1.098223 2.438350 -0.612531
vertex -0.969075 2.395374 -0.917165
endloop
endfacet
facet normal -0.565523 0.589853 -0.576418
outer loop
vertex -0.969075 2.395374 -0.917165
vertex -1.094536 2.152523 -1.042586
vertex -1.247326 2.291960 -0.749997
endloop
endfacet
facet normal -0.293501 0.818245 -0.494300
outer loop
vertex -0.969075 2.395374 -0.917165
vertex -0.657178 2.428979 -1.046732
vertex -0.790501 2.291337 -1.195415
endloop
endfacet
facet normal -0.561183 0.589814 -0.580683
outer loop
vertex -0.790501 2.291337 -1.195415
vertex -1.094536 2.152523 -1.042586
vertex -0.969075 2.395374 -0.917165
endloop
endfacet
facet normal -0.228504 0.922610 -0.310768
outer loop
vertex -0.665881 2.572240 -0.615019
vertex -0.657178 2.428979 -1.046732
vertex -0.969075 2.395374 -0.917165
endloop
endfacet
facet normal -0.287581 0.923937 -0.252264
outer loop
vertex -0.969075 2.395374 -0.917165
vertex -1.098223 2.438350 -0.612531
vertex -0.665881 2.572240 -0.615019
endloop
endfacet
facet normal 0.116435 -0.725515 0.678285
outer loop
vertex 0.168872 0.234004 0.885327
vertex 0.404132 0.246899 0.858735
vertex 0.584415 0.456384 1.051860
endloop
endfacet
facet normal 0.222656 -0.815785 0.533779
outer loop
vertex 0.584415 0.456384 1.051860
vertex 0.168872 0.370551 1.094015
vertex 0.168872 0.234004 0.885327
endloop
endfacet
facet normal 0.218122 -0.748319 0.626452
outer loop
vertex 0.168872 0.579239 1.343300
vertex 0.168872 0.370551 1.094015
vertex 0.584415 0.456384 1.051860
endloop
endfacet
facet normal 0.164465 -0.802912 0.572960
outer loop
vertex 0.584415 0.456384 1.051860
vertex 0.486447 0.618846 1.307645
vertex 0.168872 0.579239 1.343300
endloop
endfacet
facet normal 0.253759 -0.317809 0.913567
outer loop
vertex 0.168872 0.879264 1.528216
vertex 0.609843 0.850077 1.395575
vertex 0.586248 1.296640 1.557477
endloop
endfacet
facet normal 0.258707 -0.322542 0.910515
outer loop
vertex 0.586248 1.296640 1.557477
vertex 0.198816 1.271413 1.658623
vertex 0.168872 0.879264 1.528216
endloop
endfacet
facet normal 0.201764 -0.956715 0.209731
outer loop
vertex 0.168872 0.146232 0.637110
vertex 0.168872 0.054735 0.219734
vertex 0.586248 0.142757 0.219734
endloop
endfacet
facet normal 0.174146 -0.967716 0.182205
outer loop
vertex 0.586248 0.142757 0.219734
vertex 0.560454 0.212950 0.617193
vertex 0.168872 0.146232 0.637110
endloop
endfacet
facet normal 0.568828 -0.332974 0.752040
outer loop
vertex 1.042831 0.826350 1.091661
vertex 1.158199 1.296640 1.212626
vertex 0.949511 1.296640 1.370473
endloop
endfacet
facet normal 0.729613 -0.235788 0.641926
outer loop
vertex 0.949511 1.296640 1.370473
vertex 0.884485 0.969744 1.324308
vertex 1.042831 0.826350 1.091661
endloop
endfacet
facet normal 0.615016 -0.238553 0.751564
outer loop
vertex 1.042831 0.826350 1.091661
vertex 1.282505 0.961206 0.938338
vertex 1.332448 1.296640 1.003938
endloop
endfacet
facet normal 0.723792 -0.333000 0.604348
outer loop
vertex 1.332448 1.296640 1.003938
vertex 1.158199 1.296640 1.212626
vertex 1.042831 0.826350 1.091661
endloop
endfacet
facet normal 0.511136 -0.827592 0.232017
outer loop
vertex 0.843757 0.230414 0.219734
vertex 1.052444 0.359304 0.219734
vertex 1.008126 0.451702 0.646948
endloop
endfacet
facet normal 0.673515 -0.729570 0.118768
outer loop
vertex 1.008126 0.451702 0.646948
vertex 0.815073 0.243828 0.464790
vertex 0.843757 0.230414 0.219734
endloop
endfacet
facet normal 0.622967 -0.748721 0.226560
outer loop
vertex 1.008126 0.451702 0.646948
vertex 1.052444 0.359304 0.219734
vertex 1.303259 0.567992 0.219734
endloop
endfacet
facet normal 0.559242 -0.812375 0.165210
outer loop
vertex 1.303259 0.567992 0.219734
vertex 1.265709 0.609481 0.550855
vertex 1.008126 0.451702 0.646948
endloop
endfacet
facet normal 0.879876 -0.374293 0.292785
outer loop
vertex 1.497130 0.879264 0.219734
vertex 1.614872 1.156047 0.219734
vertex 1.549397 1.301081 0.601909
endloop
endfacet
facet normal 0.906971 -0.338934 0.250053
outer loop
vertex 1.549397 1.301081 0.601909
vertex 1.360492 0.844954 0.668833
vertex 1.497130 0.879264 0.219734
endloop
endfacet
facet normal 0.325209 -0.195355 0.925244
outer loop
vertex 0.609843 0.850077 1.395575
vertex 0.884485 0.969744 1.324308
vertex 0.949511 1.296640 1.370473
endloop
endfacet
facet normal 0.438621 -0.285734 0.852037
outer loop
vertex 0.949511 1.296640 1.370473
vertex 0.586248 1.296640 1.557477
vertex 0.609843 0.850077 1.395575
endloop
endfacet
facet normal 0.551608 -0.224256 0.803391
outer loop
vertex 0.609843 0.850077 1.395575
vertex 0.764698 0.691494 1.244985
vertex 1.042831 0.826350 1.091661
endloop
endfacet
facet normal 0.436031 -0.602731 0.668275
outer loop
vertex 1.042831 0.826350 1.091661
vertex 0.884485 0.969744 1.324308
vertex 0.609843 0.850077 1.395575
endloop
endfacet
facet normal 0.385933 -0.784198 0.485890
outer loop
vertex 0.560454 0.212950 0.617193
vertex 0.815073 0.243828 0.464790
vertex 1.008126 0.451702 0.646948
endloop
endfacet
facet normal 0.461056 -0.879344 0.119087
outer loop
vertex 1.008126 0.451702 0.646948
vertex 0.682383 0.293922 0.743041
vertex 0.560454 0.212950 0.617193
endloop
endfacet
facet normal 0.316694 -0.930340 0.184855
outer loop
vertex 0.560454 0.212950 0.617193
vertex 0.586248 0.142757 0.219734
vertex 0.843757 0.230414 0.219734
endloop
endfacet
facet normal 0.162980 -0.983930 0.072935
outer loop
vertex 0.843757 0.230414 0.219734
vertex 0.815073 0.243828 0.464790
vertex 0.560454 0.212950 0.617193
endloop
endfacet
facet normal 0.079523 -0.871587 0.483748
outer loop
vertex 0.560454 0.212950 0.617193
vertex 0.682383 0.293922 0.743041
vertex 0.584415 0.456384 1.051860
endloop
endfacet
facet normal 0.467186 -0.782148 0.412288
outer loop
vertex 0.584415 0.456384 1.051860
vertex 0.404132 0.246899 0.858735
vertex 0.560454 0.212950 0.617193
endloop
endfacet
facet normal 0.174853 -0.928269 0.328243
outer loop
vertex 0.168872 0.234004 0.885327
vertex 0.168872 0.146232 0.637110
vertex 0.560454 0.212950 0.617193
endloop
endfacet
facet normal 0.074730 -0.979692 0.186061
outer loop
vertex 0.560454 0.212950 0.617193
vertex 0.404132 0.246899 0.858735
vertex 0.168872 0.234004 0.885327
endloop
endfacet
facet normal 0.845217 -0.283585 0.452977
outer loop
vertex 1.360492 0.844954 0.668833
vertex 1.549397 1.301081 0.601909
vertex 1.332448 1.296640 1.003938
endloop
endfacet
facet normal 0.913064 -0.204906 0.352602
outer loop
vertex 1.332448 1.296640 1.003938
vertex 1.282505 0.961206 0.938338
vertex 1.360492 0.844954 0.668833
endloop
endfacet
facet normal 0.787871 -0.197817 0.583204
outer loop
vertex 1.042831 0.826350 1.091661
vertex 1.201179 0.682955 0.829106
vertex 1.360492 0.844954 0.668833
endloop
endfacet
facet normal 0.639372 -0.621280 0.453007
outer loop
vertex 1.360492 0.844954 0.668833
vertex 1.282505 0.961206 0.938338
vertex 1.042831 0.826350 1.091661
endloop
endfacet
facet normal 0.055168 -0.658692 0.750387
outer loop
vertex 0.584415 0.456384 1.051860
vertex 0.764698 0.691494 1.244985
vertex 0.609843 0.850077 1.395575
endloop
endfacet
facet normal 0.607666 -0.544230 0.578408
outer loop
vertex 0.609843 0.850077 1.395575
vertex 0.486447 0.618846 1.307645
vertex 0.584415 0.456384 1.051860
endloop
endfacet
facet normal 0.152923 -0.421505 0.893839
outer loop
vertex 0.168872 0.579239 1.343300
vertex 0.486447 0.618846 1.307645
vertex 0.609843 0.850077 1.395575
endloop
endfacet
facet normal 0.216106 -0.512285 0.831181
outer loop
vertex 0.609843 0.850077 1.395575
vertex 0.168872 0.879264 1.528216
vertex 0.168872 0.579239 1.343300
endloop
endfacet
facet normal 0.829368 -0.516559 0.212872
outer loop
vertex 1.303259 0.567992 0.219734
vertex 1.497130 0.879264 0.219734
vertex 1.360492 0.844954 0.668833
endloop
endfacet
facet normal 0.887089 -0.434770 0.155075
outer loop
vertex 1.360492 0.844954 0.668833
vertex 1.265709 0.609481 0.550855
vertex 1.303259 0.567992 0.219734
endloop
endfacet
facet normal 0.563881 -0.540027 0.624827
outer loop
vertex 1.008126 0.451702 0.646948
vertex 1.265709 0.609481 0.550855
vertex 1.360492 0.844954 0.668833
endloop
endfacet
facet normal 0.741611 -0.667957 0.062018
outer loop
vertex 1.360492 0.844954 0.668833
vertex 1.201179 0.682955 0.829106
vertex 1.008126 0.451702 0.646948
endloop
endfacet
facet normal 0.320433 -0.736630 0.595566
outer loop
vertex 1.008126 0.451702 0.646948
vertex 1.201179 0.682955 0.829106
vertex 1.042831 0.826350 1.091661
endloop
endfacet
facet normal 0.736382 -0.544649 0.401371
outer loop
vertex 1.042831 0.826350 1.091661
vertex 0.922928 0.572174 0.966734
vertex 1.008126 0.451702 0.646948
endloop
endfacet
facet normal 0.375047 -0.545358 0.749616
outer loop
vertex 0.584415 0.456384 1.051860
vertex 0.922928 0.572174 0.966734
vertex 1.042831 0.826350 1.091661
endloop
endfacet
facet normal 0.563037 -0.737721 0.372501
outer loop
vertex 1.042831 0.826350 1.091661
vertex 0.764698 0.691494 1.244985
vertex 0.584415 0.456384 1.051860
endloop
endfacet
facet normal 0.491580 -0.696695 0.522460
outer loop
vertex 0.584415 0.456384 1.051860
vertex 0.682383 0.293922 0.743041
vertex 1.008126 0.451702 0.646948
endloop
endfacet
facet normal 0.386044 -0.824612 0.413503
outer loop
vertex 1.008126 0.451702 0.646948
vertex 0.922928 0.572174 0.966734
vertex 0.584415 0.456384 1.051860
endloop
endfacet
facet normal 0.968558 -0.126794 0.214053
outer loop
vertex 1.549397 1.301081 0.601909
vertex 1.614872 1.156047 0.219734
vertex 1.642191 1.364735 0.219734
endloop
endfacet
facet normal 0.923425 -0.345716 0.166632
outer loop
vertex 1.642191 1.364735 0.219734
vertex 1.631932 1.443168 0.439316
vertex 1.549397 1.301081 0.601909
endloop
endfacet
facet normal 0.252027 0.388512 0.886307
outer loop
vertex 0.198816 1.730590 1.655481
vertex 0.586248 1.714017 1.552577
vertex 0.559552 2.143056 1.372099
endloop
endfacet
facet normal 0.247868 0.391924 0.885978
outer loop
vertex 0.559552 2.143056 1.372099
vertex 0.168872 2.131393 1.486558
vertex 0.198816 1.730590 1.655481
endloop
endfacet
facet normal 0.182662 0.909842 0.372588
outer loop
vertex 0.402630 2.347667 1.275052
vertex 0.559552 2.405416 1.057099
vertex 0.168872 2.484920 1.054487
endloop
endfacet
facet normal 0.147516 0.902279 0.405131
outer loop
vertex 0.168872 2.484920 1.054487
vertex 0.168872 2.372181 1.305570
vertex 0.402630 2.347667 1.275052
endloop
endfacet
facet normal 0.062936 0.997643 0.027327
outer loop
vertex 0.586248 2.530561 0.637110
vertex 0.586248 2.541994 0.219734
vertex 0.110326 2.573675 0.159195
endloop
endfacet
facet normal 0.062697 0.997652 0.027565
outer loop
vertex 0.110326 2.573675 0.159195
vertex 0.168872 2.556791 0.637110
vertex 0.586248 2.530561 0.637110
endloop
endfacet
facet normal 0.685106 0.401938 0.607517
outer loop
vertex 1.152519 1.714017 1.206321
vertex 1.019705 2.155589 1.063949
vertex 0.876912 2.011707 1.320172
endloop
endfacet
facet normal 0.590880 0.254223 0.765658
outer loop
vertex 0.876912 2.011707 1.320172
vertex 0.943831 1.714017 1.367371
vertex 1.152519 1.714017 1.206321
endloop
endfacet
facet normal 0.740722 0.261285 0.618919
outer loop
vertex 1.152519 1.714017 1.206321
vertex 1.326890 1.714017 0.997633
vertex 1.275095 2.021221 0.929931
endloop
endfacet
facet normal 0.582439 0.402826 0.706043
outer loop
vertex 1.275095 2.021221 0.929931
vertex 1.019705 2.155589 1.063949
vertex 1.152519 1.714017 1.206321
endloop
endfacet
facet normal 0.853190 0.480388 0.203212
outer loop
vertex 1.610082 1.832835 0.219734
vertex 1.441979 2.131393 0.219734
vertex 1.333692 2.148765 0.633316
endloop
endfacet
facet normal 0.875942 0.383932 0.292098
outer loop
vertex 1.333692 2.148765 0.633316
vertex 1.542063 1.697258 0.601909
vertex 1.610082 1.832835 0.219734
endloop
endfacet
facet normal 0.571718 0.816839 0.076895
outer loop
vertex 1.233266 2.355025 0.491661
vertex 1.252897 2.366884 0.219734
vertex 1.022455 2.532103 0.177996
endloop
endfacet
facet normal 0.406491 0.885135 0.226499
outer loop
vertex 1.022455 2.532103 0.177996
vertex 1.015472 2.418797 0.633316
vertex 1.233266 2.355025 0.491661
endloop
endfacet
facet normal 0.446786 0.237205 0.862622
outer loop
vertex 0.586248 1.714017 1.552577
vertex 0.943831 1.714017 1.367371
vertex 0.876912 2.011707 1.320172
endloop
endfacet
facet normal 0.302210 0.385532 0.871799
outer loop
vertex 0.876912 2.011707 1.320172
vertex 0.559552 2.143056 1.372099
vertex 0.586248 1.714017 1.552577
endloop
endfacet
facet normal 0.488672 0.615745 0.618108
outer loop
vertex 0.876912 2.011707 1.320172
vertex 1.019705 2.155589 1.063949
vertex 0.680881 2.289958 1.197967
endloop
endfacet
facet normal 0.358432 0.575393 0.735152
outer loop
vertex 0.680881 2.289958 1.197967
vertex 0.559552 2.143056 1.372099
vertex 0.876912 2.011707 1.320172
endloop
endfacet
facet normal 0.045122 0.969254 0.241891
outer loop
vertex 1.015472 2.418797 0.633316
vertex 1.022455 2.532103 0.177996
vertex 0.586248 2.541994 0.219734
endloop
endfacet
facet normal 0.252115 0.967334 0.026495
outer loop
vertex 0.586248 2.541994 0.219734
vertex 0.586248 2.530561 0.637110
vertex 1.015472 2.418797 0.633316
endloop
endfacet
facet normal 0.864885 0.376015 0.332545
outer loop
vertex 1.542063 1.697258 0.601909
vertex 1.333692 2.148765 0.633316
vertex 1.275095 2.021221 0.929931
endloop
endfacet
facet normal 0.856138 0.244656 0.455160
outer loop
vertex 1.275095 2.021221 0.929931
vertex 1.326890 1.714017 0.997633
vertex 1.542063 1.697258 0.601909
endloop
endfacet
facet normal 0.762991 0.525351 0.376630
outer loop
vertex 1.275095 2.021221 0.929931
vertex 1.333692 2.148765 0.633316
vertex 1.162497 2.299472 0.769912
endloop
endfacet
facet normal 0.596444 0.567687 0.567438
outer loop
vertex 1.162497 2.299472 0.769912
vertex 1.019705 2.155589 1.063949
vertex 1.275095 2.021221 0.929931
endloop
endfacet
facet normal 0.060053 0.955579 0.288554
outer loop
vertex 0.559552 2.405416 1.057099
vertex 0.586248 2.530561 0.637110
vertex 0.168872 2.556791 0.637110
endloop
endfacet
facet normal 0.195564 0.966467 0.166423
outer loop
vertex 0.168872 2.556791 0.637110
vertex 0.168872 2.484920 1.054487
vertex 0.559552 2.405416 1.057099
endloop
endfacet
facet normal 0.297427 0.847928 0.438811
outer loop
vertex 0.680881 2.289958 1.197967
vertex 0.559552 2.405416 1.057099
vertex 0.402630 2.347667 1.275052
endloop
endfacet
facet normal 0.326779 0.597811 0.732009
outer loop
vertex 0.402630 2.347667 1.275052
vertex 0.559552 2.143056 1.372099
vertex 0.680881 2.289958 1.197967
endloop
endfacet
facet normal 0.219556 0.550432 0.805494
outer loop
vertex 0.168872 2.131393 1.486558
vertex 0.559552 2.143056 1.372099
vertex 0.402630 2.347667 1.275052
endloop
endfacet
facet normal 0.165077 0.592600 0.788401
outer loop
vertex 0.402630 2.347667 1.275052
vertex 0.168872 2.372181 1.305570
vertex 0.168872 2.131393 1.486558
endloop
endfacet
facet normal 0.777044 0.623910 0.083304
outer loop
vertex 1.441979 2.131393 0.219734
vertex 1.252897 2.366884 0.219734
vertex 1.233266 2.355025 0.491661
endloop
endfacet
facet normal 0.823398 0.533571 0.193178
outer loop
vertex 1.233266 2.355025 0.491661
vertex 1.333692 2.148765 0.633316
vertex 1.441979 2.131393 0.219734
endloop
endfacet
facet normal 0.755113 0.578933 0.307638
outer loop
vertex 1.162497 2.299472 0.769912
vertex 1.333692 2.148765 0.633316
vertex 1.233266 2.355025 0.491661
endloop
endfacet
facet normal 0.433573 0.856120 0.281200
outer loop
vertex 1.233266 2.355025 0.491661
vertex 1.015472 2.418797 0.633316
vertex 1.162497 2.299472 0.769912
endloop
endfacet
facet normal 0.410549 0.858290 0.307878
outer loop
vertex 1.162497 2.299472 0.769912
vertex 1.015472 2.418797 0.633316
vertex 0.884246 2.378832 0.919716
endloop
endfacet
facet normal 0.492578 0.663059 0.563667
outer loop
vertex 0.884246 2.378832 0.919716
vertex 1.019705 2.155589 1.063949
vertex 1.162497 2.299472 0.769912
endloop
endfacet
facet normal 0.487612 0.662925 0.568124
outer loop
vertex 0.680881 2.289958 1.197967
vertex 1.019705 2.155589 1.063949
vertex 0.884246 2.378832 0.919716
endloop
endfacet
facet normal 0.265514 0.845113 0.463991
outer loop
vertex 0.884246 2.378832 0.919716
vertex 0.559552 2.405416 1.057099
vertex 0.680881 2.289958 1.197967
endloop
endfacet
facet normal 0.246399 0.938005 0.243790
outer loop
vertex 0.884246 2.378832 0.919716
vertex 1.015472 2.418797 0.633316
vertex 0.586248 2.530561 0.637110
endloop
endfacet
facet normal 0.199907 0.935465 0.291450
outer loop
vertex 0.586248 2.530561 0.637110
vertex 0.559552 2.405416 1.057099
vertex 0.884246 2.378832 0.919716
endloop
endfacet
facet normal 0.983500 0.151324 0.099145
outer loop
vertex 1.631932 1.546960 0.439316
vertex 1.642191 1.624147 0.219734
vertex 1.610082 1.832835 0.219734
endloop
endfacet
facet normal 0.926363 0.271392 0.261149
outer loop
vertex 1.610082 1.832835 0.219734
vertex 1.542063 1.697258 0.601909
vertex 1.631932 1.546960 0.439316
endloop
endfacet
facet normal 0.165907 -0.960786 -0.222181
outer loop
vertex 0.168872 0.058644 -0.197643
vertex 0.168872 0.155162 -0.615019
vertex 0.555378 0.216661 -0.592348
endloop
endfacet
facet normal 0.199948 -0.961388 -0.189088
outer loop
vertex 0.555378 0.216661 -0.592348
vertex 0.586248 0.145450 -0.197643
vertex 0.168872 0.058644 -0.197643
endloop
endfacet
facet normal 0.199415 -0.762830 -0.615081
outer loop
vertex 0.168872 0.375838 -1.061687
vertex 0.582336 0.457433 -1.028834
vertex 0.395672 0.249493 -0.831463
endloop
endfacet
facet normal 0.090296 -0.832885 -0.546031
outer loop
vertex 0.395672 0.249493 -0.831463
vertex 0.168872 0.239024 -0.852999
vertex 0.168872 0.375838 -1.061687
endloop
endfacet
facet normal 0.150689 -0.766642 -0.624141
outer loop
vertex 0.168872 0.375838 -1.061687
vertex 0.168872 0.584526 -1.318022
vertex 0.490749 0.621114 -1.285251
endloop
endfacet
facet normal 0.202007 -0.791213 -0.577213
outer loop
vertex 0.490749 0.621114 -1.285251
vertex 0.582336 0.457433 -1.028834
vertex 0.168872 0.375838 -1.061687
endloop
endfacet
facet normal 0.236603 -0.328929 -0.914235
outer loop
vertex 0.202049 1.275742 -1.637514
vertex 0.586248 1.296640 -1.545603
vertex 0.612424 0.847402 -1.377199
endloop
endfacet
facet normal 0.234892 -0.330493 -0.914112
outer loop
vertex 0.612424 0.847402 -1.377199
vertex 0.168872 0.879264 -1.502695
vertex 0.202049 1.275742 -1.637514
endloop
endfacet
facet normal 0.601903 -0.766507 -0.224008
outer loop
vertex 0.811069 0.245513 -0.438109
vertex 1.007171 0.453695 -0.623543
vertex 1.049442 0.362420 -0.197643
endloop
endfacet
facet normal 0.527477 -0.841946 -0.113554
outer loop
vertex 1.049442 0.362420 -0.197643
vertex 0.840754 0.231678 -0.197643
vertex 0.811069 0.245513 -0.438109
endloop
endfacet
facet normal 0.576019 -0.785702 -0.225553
outer loop
vertex 1.049442 0.362420 -0.197643
vertex 1.007171 0.453695 -0.623543
vertex 1.261680 0.613637 -0.530725
endloop
endfacet
facet normal 0.630351 -0.757537 -0.169691
outer loop
vertex 1.261680 0.613637 -0.530725
vertex 1.300237 0.571109 -0.197643
vertex 1.049442 0.362420 -0.197643
endloop
endfacet
facet normal 0.914586 -0.326727 -0.238290
outer loop
vertex 1.355809 0.843382 -0.647918
vertex 1.526303 1.296640 -0.615019
vertex 1.613686 1.263200 -0.233782
endloop
endfacet
facet normal 0.915259 -0.317192 -0.248377
outer loop
vertex 1.613686 1.263200 -0.233782
vertex 1.490437 0.879264 -0.197643
vertex 1.355809 0.843382 -0.647918
endloop
endfacet
facet normal 0.576801 -0.237328 -0.781650
outer loop
vertex 0.892919 0.965285 -1.307311
vertex 0.963172 1.296640 -1.356077
vertex 1.171861 1.296640 -1.202080
endloop
endfacet
facet normal 0.665239 -0.350680 -0.659151
outer loop
vertex 1.171861 1.296640 -1.202080
vertex 1.048096 0.822811 -1.074902
vertex 0.892919 0.965285 -1.307311
endloop
endfacet
facet normal 0.765734 -0.238790 -0.597186
outer loop
vertex 1.171861 1.296640 -1.202080
vertex 1.334614 1.296640 -0.993392
vertex 1.283625 0.958586 -0.923598
endloop
endfacet
facet normal 0.640845 -0.350680 -0.682891
outer loop
vertex 1.283625 0.958586 -0.923598
vertex 1.048096 0.822811 -1.074902
vertex 1.171861 1.296640 -1.202080
endloop
endfacet
facet normal 0.483957 -0.790402 -0.375566
outer loop
vertex 0.673923 0.293752 -0.716360
vertex 1.007171 0.453695 -0.623543
vertex 0.811069 0.245513 -0.438109
endloop
endfacet
facet normal 0.282227 -0.912138 -0.297241
outer loop
vertex 0.811069 0.245513 -0.438109
vertex 0.555378 0.216661 -0.592348
vertex 0.673923 0.293752 -0.716360
endloop
endfacet
facet normal 0.222470 -0.956261 -0.189925
outer loop
vertex 0.586248 0.145450 -0.197643
vertex 0.555378 0.216661 -0.592348
vertex 0.811069 0.245513 -0.438109
endloop
endfacet
facet normal 0.319478 -0.942951 -0.093689
outer loop
vertex 0.811069 0.245513 -0.438109
vertex 0.840754 0.231678 -0.197643
vertex 0.586248 0.145450 -0.197643
endloop
endfacet
facet normal 0.438110 -0.221117 -0.871302
outer loop
vertex 0.586248 1.296640 -1.545603
vertex 0.963172 1.296640 -1.356077
vertex 0.892919 0.965285 -1.307311
endloop
endfacet
facet normal 0.350706 -0.310733 -0.883431
outer loop
vertex 0.892919 0.965285 -1.307311
vertex 0.612424 0.847402 -1.377199
vertex 0.586248 1.296640 -1.545603
endloop
endfacet
facet normal 0.379168 -0.410578 -0.829251
outer loop
vertex 0.769000 0.687034 -1.226205
vertex 0.612424 0.847402 -1.377199
vertex 0.892919 0.965285 -1.307311
endloop
endfacet
facet normal 0.585302 -0.456073 -0.670387
outer loop
vertex 0.892919 0.965285 -1.307311
vertex 1.048096 0.822811 -1.074902
vertex 0.769000 0.687034 -1.226205
endloop
endfacet
facet normal 0.337596 -0.789526 -0.512521
outer loop
vertex 0.395672 0.249493 -0.831463
vertex 0.582336 0.457433 -1.028834
vertex 0.673923 0.293752 -0.716360
endloop
endfacet
facet normal 0.272032 -0.912030 -0.306920
outer loop
vertex 0.673923 0.293752 -0.716360
vertex 0.555378 0.216661 -0.592348
vertex 0.395672 0.249493 -0.831463
endloop
endfacet
facet normal 0.074885 -0.940505 -0.331424
outer loop
vertex 0.168872 0.155162 -0.615019
vertex 0.168872 0.239024 -0.852999
vertex 0.395672 0.249493 -0.831463
endloop
endfacet
facet normal 0.166301 -0.955838 -0.242316
outer loop
vertex 0.395672 0.249493 -0.831463
vertex 0.555378 0.216661 -0.592348
vertex 0.168872 0.155162 -0.615019
endloop
endfacet
facet normal 0.869763 -0.222159 -0.440634
outer loop
vertex 1.283625 0.958586 -0.923598
vertex 1.334614 1.296640 -0.993392
vertex 1.526303 1.296640 -0.615019
endloop
endfacet
facet normal 0.881972 -0.305721 -0.358692
outer loop
vertex 1.526303 1.296640 -0.615019
vertex 1.355809 0.843382 -0.647918
vertex 1.283625 0.958586 -0.923598
endloop
endfacet
facet normal 0.651151 -0.442144 -0.616856
outer loop
vertex 1.203273 0.680336 -0.808976
vertex 1.048096 0.822811 -1.074902
vertex 1.283625 0.958586 -0.923598
endloop
endfacet
facet normal 0.832454 -0.398840 -0.384640
outer loop
vertex 1.283625 0.958586 -0.923598
vertex 1.355809 0.843382 -0.647918
vertex 1.203273 0.680336 -0.808976
endloop
endfacet
facet normal 0.290510 -0.490134 -0.821811
outer loop
vertex 0.490749 0.621114 -1.285251
vertex 0.612424 0.847402 -1.377199
vertex 0.769000 0.687034 -1.226205
endloop
endfacet
facet normal 0.302481 -0.750746 -0.587269
outer loop
vertex 0.769000 0.687034 -1.226205
vertex 0.582336 0.457433 -1.028834
vertex 0.490749 0.621114 -1.285251
endloop
endfacet
facet normal 0.210361 -0.462979 -0.861045
outer loop
vertex 0.168872 0.879264 -1.502695
vertex 0.612424 0.847402 -1.377199
vertex 0.490749 0.621114 -1.285251
endloop
endfacet
facet normal 0.145078 -0.525334 -0.838437
outer loop
vertex 0.490749 0.621114 -1.285251
vertex 0.168872 0.584526 -1.318022
vertex 0.168872 0.879264 -1.502695
endloop
endfacet
facet normal 0.858318 -0.463716 -0.219676
outer loop
vertex 1.261680 0.613637 -0.530725
vertex 1.355809 0.843382 -0.647918
vertex 1.490437 0.879264 -0.197643
endloop
endfacet
facet normal 0.839532 -0.518175 -0.163344
outer loop
vertex 1.490437 0.879264 -0.197643
vertex 1.300237 0.571109 -0.197643
vertex 1.261680 0.613637 -0.530725
endloop
endfacet
facet normal 0.824818 -0.485631 -0.289545
outer loop
vertex 1.203273 0.680336 -0.808976
vertex 1.355809 0.843382 -0.647918
vertex 1.261680 0.613637 -0.530725
endloop
endfacet
facet normal 0.583849 -0.753163 -0.303094
outer loop
vertex 1.261680 0.613637 -0.530725
vertex 1.007171 0.453695 -0.623543
vertex 1.203273 0.680336 -0.808976
endloop
endfacet
facet normal 0.533599 -0.575518 -0.619718
outer loop
vertex 0.925022 0.572003 -0.947954
vertex 1.048096 0.822811 -1.074902
vertex 1.203273 0.680336 -0.808976
endloop
endfacet
facet normal 0.500405 -0.764877 -0.405657
outer loop
vertex 1.203273 0.680336 -0.808976
vertex 1.007171 0.453695 -0.623543
vertex 0.925022 0.572003 -0.947954
endloop
endfacet
facet normal 0.588045 -0.575980 -0.567846
outer loop
vertex 0.769000 0.687034 -1.226205
vertex 1.048096 0.822811 -1.074902
vertex 0.925022 0.572003 -0.947954
endloop
endfacet
facet normal 0.378742 -0.760864 -0.526916
outer loop
vertex 0.925022 0.572003 -0.947954
vertex 0.582336 0.457433 -1.028834
vertex 0.769000 0.687034 -1.226205
endloop
endfacet
facet normal 0.378647 -0.769613 -0.514123
outer loop
vertex 0.673923 0.293752 -0.716360
vertex 0.582336 0.457433 -1.028834
vertex 0.925022 0.572003 -0.947954
endloop
endfacet
facet normal 0.484855 -0.774963 -0.405397
outer loop
vertex 0.925022 0.572003 -0.947954
vertex 1.007171 0.453695 -0.623543
vertex 0.673923 0.293752 -0.716360
endloop
endfacet
facet normal -0.035319 0.998672 0.037496
outer loop
vertex 0.586248 2.552111 -0.197643
vertex 0.586248 2.567781 -0.615019
vertex 0.168872 2.553020 -0.615019
endloop
endfacet
facet normal 0.038511 0.998597 -0.036336
outer loop
vertex 0.168872 2.553020 -0.615019
vertex 0.110326 2.572425 -0.143776
vertex 0.586248 2.552111 -0.197643
endloop
endfacet
facet normal 0.208333 0.375979 -0.902905
outer loop
vertex 0.168872 2.131393 -1.463287
vertex 0.585387 2.152263 -1.358492
vertex 0.586248 1.714017 -1.540783
endloop
endfacet
facet normal 0.246479 0.409567 -0.878352
outer loop
vertex 0.586248 1.714017 -1.540783
vertex 0.202049 1.737365 -1.637709
vertex 0.168872 2.131393 -1.463287
endloop
endfacet
facet normal 0.060039 0.922922 -0.380276
outer loop
vertex 0.585387 2.431347 -1.052540
vertex 0.445687 2.354748 -1.260499
vertex 0.168872 2.365392 -1.278372
endloop
endfacet
facet normal 0.078143 0.908923 -0.409577
outer loop
vertex 0.168872 2.365392 -1.278372
vertex 0.168872 2.476233 -1.032395
vertex 0.585387 2.431347 -1.052540
endloop
endfacet
facet normal 0.898082 0.386092 -0.210669
outer loop
vertex 1.519010 1.714017 -0.615019
vertex 1.331215 2.152542 -0.611904
vertex 1.437483 2.131393 -0.197643
endloop
endfacet
facet normal 0.877578 0.413706 -0.242288
outer loop
vertex 1.437483 2.131393 -0.197643
vertex 1.610905 1.742355 -0.233782
vertex 1.519010 1.714017 -0.615019
endloop
endfacet
facet normal 0.388378 0.918827 -0.070143
outer loop
vertex 1.250760 2.365718 -0.197643
vertex 1.230416 2.353472 -0.470701
vertex 1.022791 2.430453 -0.611904
endloop
endfacet
facet normal 0.558939 0.809183 -0.181137
outer loop
vertex 1.022791 2.430453 -0.611904
vertex 1.022455 2.532762 -0.155905
vertex 1.250760 2.365718 -0.197643
endloop
endfacet
facet normal 0.750894 0.268935 -0.603185
outer loop
vertex 0.957960 1.714017 -1.352536
vertex 0.885968 2.027050 -1.302588
vertex 1.030332 2.166408 -1.060739
endloop
endfacet
facet normal 0.551515 0.388052 -0.738408
outer loop
vertex 1.030332 2.166408 -1.060739
vertex 1.166648 1.714017 -1.196667
vertex 0.957960 1.714017 -1.352536
endloop
endfacet
facet normal 0.595732 0.272602 -0.755508
outer loop
vertex 1.030332 2.166408 -1.060739
vertex 1.276962 2.027515 -0.916381
vertex 1.329616 1.714017 -0.987979
endloop
endfacet
facet normal 0.726033 0.389127 -0.566971
outer loop
vertex 1.329616 1.714017 -0.987979
vertex 1.166648 1.714017 -1.196667
vertex 1.030332 2.166408 -1.060739
endloop
endfacet
facet normal 0.294812 0.932423 -0.208981
outer loop
vertex 1.022455 2.532762 -0.155905
vertex 1.022791 2.430453 -0.611904
vertex 0.586248 2.567781 -0.615019
endloop
endfacet
facet normal 0.040703 0.998468 0.037487
outer loop
vertex 0.586248 2.567781 -0.615019
vertex 0.586248 2.552111 -0.197643
vertex 1.022455 2.532762 -0.155905
endloop
endfacet
facet normal 0.262877 0.210689 -0.941544
outer loop
vertex 0.585387 2.152263 -1.358492
vertex 0.885968 2.027050 -1.302588
vertex 0.957960 1.714017 -1.352536
endloop
endfacet
facet normal 0.423453 0.348633 -0.836147
outer loop
vertex 0.957960 1.714017 -1.352536
vertex 0.586248 1.714017 -1.540783
vertex 0.585387 2.152263 -1.358492
endloop
endfacet
facet normal 0.396472 0.672970 -0.624437
outer loop
vertex 1.030332 2.166408 -1.060739
vertex 0.885968 2.027050 -1.302588
vertex 0.585387 2.152263 -1.358492
endloop
endfacet
facet normal 0.519222 0.323022 -0.791243
outer loop
vertex 0.585387 2.152263 -1.358492
vertex 0.723938 2.305301 -1.205095
vertex 1.030332 2.166408 -1.060739
endloop
endfacet
facet normal 0.941809 0.216843 -0.256857
outer loop
vertex 1.329616 1.714017 -0.987979
vertex 1.276962 2.027515 -0.916381
vertex 1.331215 2.152542 -0.611904
endloop
endfacet
facet normal 0.832073 0.359329 -0.422536
outer loop
vertex 1.331215 2.152542 -0.611904
vertex 1.519010 1.714017 -0.615019
vertex 1.329616 1.714017 -0.987979
endloop
endfacet
facet normal 0.614636 0.685163 -0.390863
outer loop
vertex 1.331215 2.152542 -0.611904
vertex 1.276962 2.027515 -0.916381
vertex 1.030332 2.166408 -1.060739
endloop
endfacet
facet normal 0.785707 0.340918 -0.516178
outer loop
vertex 1.030332 2.166408 -1.060739
vertex 1.174695 2.305766 -0.748952
vertex 1.331215 2.152542 -0.611904
endloop
endfacet
facet normal 0.088126 0.950897 -0.296696
outer loop
vertex 0.586248 2.567781 -0.615019
vertex 0.585387 2.431347 -1.052540
vertex 0.168872 2.476233 -1.032395
endloop
endfacet
facet normal -0.034761 0.982900 -0.180829
outer loop
vertex 0.168872 2.476233 -1.032395
vertex 0.168872 2.553020 -0.615019
vertex 0.586248 2.567781 -0.615019
endloop
endfacet
facet normal 0.513310 0.634042 -0.578363
outer loop
vertex 0.585387 2.152263 -1.358492
vertex 0.445687 2.354748 -1.260499
vertex 0.585387 2.431347 -1.052540
endloop
endfacet
facet normal -0.069751 0.737003 -0.672281
outer loop
vertex 0.585387 2.431347 -1.052540
vertex 0.723938 2.305301 -1.205095
vertex 0.585387 2.152263 -1.358492
endloop
endfacet
facet normal 0.074877 0.475778 -0.876373
outer loop
vertex 0.168872 2.365392 -1.278372
vertex 0.445687 2.354748 -1.260499
vertex 0.585387 2.152263 -1.358492
endloop
endfacet
facet normal 0.164083 0.611611 -0.773957
outer loop
vertex 0.585387 2.152263 -1.358492
vertex 0.168872 2.131393 -1.463287
vertex 0.168872 2.365392 -1.278372
endloop
endfacet
facet normal 0.864749 0.494679 -0.086612
outer loop
vertex 1.331215 2.152542 -0.611904
vertex 1.230416 2.353472 -0.470701
vertex 1.250760 2.365718 -0.197643
endloop
endfacet
facet normal 0.771157 0.614501 -0.166449
outer loop
vertex 1.250760 2.365718 -0.197643
vertex 1.437483 2.131393 -0.197643
vertex 1.331215 2.152542 -0.611904
endloop
endfacet
facet normal 0.579236 0.642831 -0.501251
outer loop
vertex 1.022791 2.430453 -0.611904
vertex 1.230416 2.353472 -0.470701
vertex 1.331215 2.152542 -0.611904
endloop
endfacet
facet normal 0.667947 0.741282 0.065930
outer loop
vertex 1.331215 2.152542 -0.611904
vertex 1.174695 2.305766 -0.748952
vertex 1.022791 2.430453 -0.611904
endloop
endfacet
facet normal 0.708357 0.613522 -0.349028
outer loop
vertex 1.030332 2.166408 -1.060739
vertex 0.896444 2.397163 -0.926844
vertex 1.022791 2.430453 -0.611904
endloop
endfacet
facet normal 0.246557 0.837109 -0.488321
outer loop
vertex 1.022791 2.430453 -0.611904
vertex 1.174695 2.305766 -0.748952
vertex 1.030332 2.166408 -1.060739
endloop
endfacet
facet normal 0.352743 0.614251 -0.705880
outer loop
vertex 0.585387 2.431347 -1.052540
vertex 0.896444 2.397163 -0.926844
vertex 1.030332 2.166408 -1.060739
endloop
endfacet
facet normal 0.493031 0.835517 -0.242553
outer loop
vertex 1.030332 2.166408 -1.060739
vertex 0.723938 2.305301 -1.205095
vertex 0.585387 2.431347 -1.052540
endloop
endfacet
facet normal 0.176480 0.968942 -0.173221
outer loop
vertex 1.022791 2.430453 -0.611904
vertex 0.896444 2.397163 -0.926844
vertex 0.585387 2.431347 -1.052540
endloop
endfacet
facet normal 0.289447 0.913633 -0.285473
outer loop
vertex 0.585387 2.431347 -1.052540
vertex 0.586248 2.567781 -0.615019
vertex 1.022791 2.430453 -0.611904
endloop
endfacet
facet normal -0.015454 -0.836691 0.547458
outer loop
vertex -0.248505 0.237315 0.878605
vertex 0.168872 0.234004 0.885327
vertex 0.168872 0.370551 1.094015
endloop
endfacet
facet normal -0.020681 -0.831862 0.554597
outer loop
vertex 0.168872 0.370551 1.094015
vertex -0.248505 0.376446 1.087294
vertex -0.248505 0.237315 0.878605
endloop
endfacet
facet normal -0.021151 -0.768803 0.639135
outer loop
vertex -0.248505 0.585135 1.338321
vertex -0.248505 0.376446 1.087294
vertex 0.168872 0.370551 1.094015
endloop
endfacet
facet normal -0.018486 -0.766651 0.641798
outer loop
vertex 0.168872 0.370551 1.094015
vertex 0.168872 0.579239 1.343300
vertex -0.248505 0.585135 1.338321
endloop
endfacet
facet normal -0.019205 -0.314176 0.949170
outer loop
vertex -0.248505 0.879264 1.519771
vertex 0.168872 0.879264 1.528216
vertex 0.198816 1.271413 1.658623
endloop
endfacet
facet normal -0.011534 -0.322035 0.946657
outer loop
vertex 0.198816 1.271413 1.658623
vertex -0.262892 1.271413 1.652997
vertex -0.248505 0.879264 1.519771
endloop
endfacet
facet normal -0.009945 -0.976044 0.217346
outer loop
vertex -0.248505 0.151929 0.637110
vertex -0.248505 0.058988 0.219734
vertex 0.168872 0.054735 0.219734
endloop
endfacet
facet normal -0.013331 -0.976717 0.214116
outer loop
vertex 0.168872 0.054735 0.219734
vertex 0.168872 0.146232 0.637110
vertex -0.248505 0.151929 0.637110
endloop
endfacet
facet normal -0.017564 -0.524602 0.851166
outer loop
vertex -0.248505 0.585135 1.338321
vertex 0.168872 0.579239 1.343300
vertex 0.168872 0.879264 1.528216
endloop
endfacet
facet normal -0.017218 -0.524958 0.850954
outer loop
vertex 0.168872 0.879264 1.528216
vertex -0.248505 0.879264 1.519771
vertex -0.248505 0.585135 1.338321
endloop
endfacet
facet normal -0.012867 -0.942726 0.333321
outer loop
vertex -0.248505 0.237315 0.878605
vertex -0.248505 0.151929 0.637110
vertex 0.168872 0.146232 0.637110
endloop
endfacet
facet normal -0.012848 -0.942715 0.333351
outer loop
vertex 0.168872 0.146232 0.637110
vertex 0.168872 0.234004 0.885327
vertex -0.248505 0.237315 0.878605
endloop
endfacet
facet normal -0.011668 -0.287774 0.957627
outer loop
vertex -0.133359 1.393720 1.691330
vertex -0.262892 1.271413 1.652997
vertex 0.198816 1.271413 1.658623
endloop
endfacet
facet normal 0.000000 -0.258338 0.966055
outer loop
vertex 0.198816 1.271413 1.658623
vertex 0.079653 1.393720 1.691330
vertex -0.133359 1.393720 1.691330
endloop
endfacet
facet normal -0.012747 0.387536 0.921766
outer loop
vertex -0.262892 1.730590 1.649096
vertex 0.198816 1.730590 1.655481
vertex 0.168872 2.131393 1.486558
endloop
endfacet
facet normal 0.008163 0.368228 0.929700
outer loop
vertex 0.168872 2.131393 1.486558
vertex -0.248505 2.131393 1.490223
vertex -0.262892 1.730590 1.649096
endloop
endfacet
facet normal 0.051307 0.911059 0.409071
outer loop
vertex 0.168872 2.372181 1.305570
vertex 0.168872 2.484920 1.054487
vertex -0.248505 2.508425 1.054487
endloop
endfacet
facet normal 0.028045 0.897398 0.440330
outer loop
vertex -0.248505 2.508425 1.054487
vertex -0.248505 2.381260 1.313650
vertex 0.168872 2.372181 1.305570
endloop
endfacet
facet normal 0.011896 0.446304 0.894803
outer loop
vertex -0.192307 2.581742 0.159195
vertex 0.110326 2.573675 0.159195
vertex -0.017783 2.837932 0.029094
endloop
endfacet
facet normal 0.000000 0.452789 0.891618
outer loop
vertex -0.017783 2.837932 0.029094
vertex -0.066547 2.837932 0.029094
vertex -0.192307 2.581742 0.159195
endloop
endfacet
facet normal 0.026632 0.999132 0.032035
outer loop
vertex 0.168872 2.556791 0.637110
vertex 0.110326 2.573675 0.159195
vertex -0.192307 2.581742 0.159195
endloop
endfacet
facet normal 0.038320 0.998996 0.023195
outer loop
vertex -0.192307 2.581742 0.159195
vertex -0.248505 2.572801 0.637110
vertex 0.168872 2.556791 0.637110
endloop
endfacet
facet normal 0.007019 0.600828 0.799348
outer loop
vertex -0.248505 2.131393 1.490223
vertex 0.168872 2.131393 1.486558
vertex 0.168872 2.372181 1.305570
endloop
endfacet
facet normal 0.028351 0.576879 0.816337
outer loop
vertex 0.168872 2.372181 1.305570
vertex -0.248505 2.381260 1.313650
vertex -0.248505 2.131393 1.490223
endloop
endfacet
facet normal 0.037775 0.984792 0.169579
outer loop
vertex 0.168872 2.484920 1.054487
vertex 0.168872 2.556791 0.637110
vertex -0.248505 2.572801 0.637110
endloop
endfacet
facet normal 0.055571 0.986786 0.152203
outer loop
vertex -0.248505 2.572801 0.637110
vertex -0.248505 2.508425 1.054487
vertex 0.168872 2.484920 1.054487
endloop
endfacet
facet normal -0.013271 0.280947 0.959631
outer loop
vertex 0.079653 1.602513 1.691330
vertex 0.198816 1.730590 1.655481
vertex -0.262892 1.730590 1.649096
endloop
endfacet
facet normal 0.000000 0.313167 0.949698
outer loop
vertex -0.262892 1.730590 1.649096
vertex -0.133359 1.602513 1.691330
vertex 0.079653 1.602513 1.691330
endloop
endfacet
facet normal -0.031157 -0.969372 -0.243614
outer loop
vertex -0.248505 0.063686 -0.197643
vertex -0.284831 0.179533 -0.653965
vertex 0.168872 0.155162 -0.615019
endloop
endfacet
facet normal -0.011768 -0.974221 -0.225288
outer loop
vertex 0.168872 0.155162 -0.615019
vertex 0.168872 0.058644 -0.197643
vertex -0.248505 0.063686 -0.197643
endloop
endfacet
facet normal -0.030421 -0.835914 -0.548017
outer loop
vertex -0.284831 0.358094 -1.009438
vertex 0.168872 0.375838 -1.061687
vertex 0.168872 0.239024 -0.852999
endloop
endfacet
facet normal 0.006022 -0.787219 -0.616644
outer loop
vertex 0.168872 0.239024 -0.852999
vertex -0.169923 0.238005 -0.855007
vertex -0.284831 0.358094 -1.009438
endloop
endfacet
facet normal -0.022372 -0.790061 -0.612619
outer loop
vertex -0.284831 0.358094 -1.009438
vertex -0.248505 0.591428 -1.311681
vertex 0.168872 0.584526 -1.318022
endloop
endfacet
facet normal -0.042342 -0.774802 -0.630784
outer loop
vertex 0.168872 0.584526 -1.318022
vertex 0.168872 0.375838 -1.061687
vertex -0.284831 0.358094 -1.009438
endloop
endfacet
facet normal -0.013997 -0.320857 -0.947024
outer loop
vertex -0.268293 1.275742 -1.630562
vertex 0.202049 1.275742 -1.637514
vertex 0.168872 0.879264 -1.502695
endloop
endfacet
facet normal -0.024795 -0.331506 -0.943127
outer loop
vertex 0.168872 0.879264 -1.502695
vertex -0.248505 0.879264 -1.491722
vertex -0.268293 1.275742 -1.630562
endloop
endfacet
facet normal -0.022273 -0.530820 -0.847192
outer loop
vertex -0.248505 0.879264 -1.491722
vertex 0.168872 0.879264 -1.502695
vertex 0.168872 0.584526 -1.318022
endloop
endfacet
facet normal -0.021645 -0.530177 -0.847611
outer loop
vertex 0.168872 0.584526 -1.318022
vertex -0.248505 0.591428 -1.311681
vertex -0.248505 0.879264 -1.491722
endloop
endfacet
facet normal 0.004530 -0.960892 -0.276885
outer loop
vertex -0.284831 0.179533 -0.653965
vertex -0.169923 0.238005 -0.855007
vertex 0.168872 0.239024 -0.852999
endloop
endfacet
facet normal -0.022125 -0.942923 -0.332276
outer loop
vertex 0.168872 0.239024 -0.852999
vertex 0.168872 0.155162 -0.615019
vertex -0.284831 0.179533 -0.653965
endloop
endfacet
facet normal 0.000000 -0.298060 -0.954547
outer loop
vertex -0.268293 1.275742 -1.630562
vertex -0.142359 1.400936 -1.669654
vertex 0.085042 1.400936 -1.669654
endloop
endfacet
facet normal -0.014266 -0.261123 -0.965200
outer loop
vertex 0.085042 1.400936 -1.669654
vertex 0.202049 1.275742 -1.637514
vertex -0.268293 1.275742 -1.630562
endloop
endfacet
facet normal 0.000000 0.421555 -0.906803
outer loop
vertex -0.066547 2.837932 -0.020347
vertex -0.017783 2.837932 -0.020347
vertex 0.110326 2.572425 -0.143776
endloop
endfacet
facet normal 0.011206 0.427658 -0.903871
outer loop
vertex 0.110326 2.572425 -0.143776
vertex -0.192307 2.580355 -0.143776
vertex -0.066547 2.837932 -0.020347
endloop
endfacet
facet normal 0.003299 0.999165 -0.040734
outer loop
vertex 0.110326 2.572425 -0.143776
vertex 0.168872 2.553020 -0.615019
vertex -0.248505 2.554398 -0.615019
endloop
endfacet
facet normal 0.026151 0.997969 -0.058089
outer loop
vertex -0.248505 2.554398 -0.615019
vertex -0.192307 2.580355 -0.143776
vertex 0.110326 2.572425 -0.143776
endloop
endfacet
facet normal -0.011709 0.403925 -0.914717
outer loop
vertex -0.248505 2.131393 -1.457945
vertex 0.168872 2.131393 -1.463287
vertex 0.202049 1.737365 -1.637709
endloop
endfacet
facet normal -0.011405 0.404215 -0.914593
outer loop
vertex 0.202049 1.737365 -1.637709
vertex -0.268293 1.737365 -1.631844
vertex -0.248505 2.131393 -1.457945
endloop
endfacet
facet normal -0.005568 0.911696 -0.410826
outer loop
vertex 0.168872 2.476233 -1.032395
vertex 0.168872 2.365392 -1.278372
vertex -0.248505 2.363775 -1.276303
endloop
endfacet
facet normal -0.003527 0.910397 -0.413721
outer loop
vertex -0.248505 2.363775 -1.276303
vertex -0.248505 2.474617 -1.032395
vertex 0.168872 2.476233 -1.032395
endloop
endfacet
facet normal -0.006291 0.620002 -0.784575
outer loop
vertex -0.248505 2.363775 -1.276303
vertex 0.168872 2.365392 -1.278372
vertex 0.168872 2.131393 -1.463287
endloop
endfacet
facet normal -0.010084 0.615809 -0.787831
outer loop
vertex 0.168872 2.131393 -1.463287
vertex -0.248505 2.131393 -1.457945
vertex -0.248505 2.363775 -1.276303
endloop
endfacet
facet normal -0.003810 0.983487 -0.180937
outer loop
vertex 0.168872 2.553020 -0.615019
vertex 0.168872 2.476233 -1.032395
vertex -0.248505 2.474617 -1.032395
endloop
endfacet
facet normal 0.003243 0.982212 -0.187749
outer loop
vertex -0.248505 2.474617 -1.032395
vertex -0.248505 2.554398 -0.615019
vertex 0.168872 2.553020 -0.615019
endloop
endfacet
facet normal 0.000000 0.250314 -0.968165
outer loop
vertex 0.202049 1.737365 -1.637709
vertex 0.085042 1.613805 -1.669654
vertex -0.142359 1.613805 -1.669654
endloop
endfacet
facet normal -0.011965 0.281426 -0.959508
outer loop
vertex -0.142359 1.613805 -1.669654
vertex -0.268293 1.737365 -1.631844
vertex 0.202049 1.737365 -1.637709
endloop
endfacet
facet normal -0.551606 -0.833899 -0.018517
outer loop
vertex -0.898606 0.241410 0.219734
vertex -1.107294 0.379452 0.219734
vertex -1.060303 0.358418 -0.232828
endloop
endfacet
facet normal -0.625397 -0.780003 0.021783
outer loop
vertex -1.060303 0.358418 -0.232828
vertex -0.905874 0.237829 -0.117160
vertex -0.898606 0.241410 0.219734
endloop
endfacet
facet normal -0.609010 -0.793092 -0.010576
outer loop
vertex -1.367321 0.588141 0.219734
vertex -1.364402 0.591465 -0.197643
vertex -1.060303 0.358418 -0.232828
endloop
endfacet
facet normal -0.625655 -0.779571 -0.028731
outer loop
vertex -1.060303 0.358418 -0.232828
vertex -1.107294 0.379452 0.219734
vertex -1.367321 0.588141 0.219734
endloop
endfacet
facet normal -0.243469 -0.969603 -0.024358
outer loop
vertex -0.665881 0.158005 0.219734
vertex -0.704328 0.179028 -0.232828
vertex -0.248505 0.063686 -0.197643
endloop
endfacet
facet normal -0.230816 -0.972936 -0.010952
outer loop
vertex -0.248505 0.063686 -0.197643
vertex -0.248505 0.058988 0.219734
vertex -0.665881 0.158005 0.219734
endloop
endfacet
facet normal -0.943289 -0.331875 -0.008028
outer loop
vertex -1.555773 0.879264 0.219734
vertex -1.691796 1.265016 0.255578
vertex -1.687704 1.265016 -0.225222
endloop
endfacet
facet normal -0.941544 -0.336651 -0.012686
outer loop
vertex -1.687704 1.265016 -0.225222
vertex -1.550149 0.879264 -0.197643
vertex -1.555773 0.879264 0.219734
endloop
endfacet
facet normal -0.839413 -0.543376 -0.011310
outer loop
vertex -1.367321 0.588141 0.219734
vertex -1.555773 0.879264 0.219734
vertex -1.550149 0.879264 -0.197643
endloop
endfacet
facet normal -0.840160 -0.542243 -0.010194
outer loop
vertex -1.550149 0.879264 -0.197643
vertex -1.364402 0.591465 -0.197643
vertex -1.367321 0.588141 0.219734
endloop
endfacet
facet normal -0.271520 -0.962298 0.016086
outer loop
vertex -0.898606 0.241410 0.219734
vertex -0.905874 0.237829 -0.117160
vertex -0.704328 0.179028 -0.232828
endloop
endfacet
facet normal -0.337336 -0.941264 -0.015067
outer loop
vertex -0.704328 0.179028 -0.232828
vertex -0.665881 0.158005 0.219734
vertex -0.898606 0.241410 0.219734
endloop
endfacet
facet normal -0.958328 -0.285672 0.000000
outer loop
vertex -1.722892 1.383057 0.140349
vertex -1.722892 1.383057 -0.104483
vertex -1.687704 1.265016 -0.225222
endloop
endfacet
facet normal -0.964973 -0.262221 -0.008213
outer loop
vertex -1.687704 1.265016 -0.225222
vertex -1.691796 1.265016 0.255578
vertex -1.722892 1.383057 0.140349
endloop
endfacet
facet normal 0.203612 -0.979009 -0.009170
outer loop
vertex 0.168872 0.054735 0.219734
vertex 0.168872 0.058644 -0.197643
vertex 0.586248 0.145450 -0.197643
endloop
endfacet
facet normal 0.206349 -0.978458 -0.006313
outer loop
vertex 0.586248 0.145450 -0.197643
vertex 0.586248 0.142757 0.219734
vertex 0.168872 0.054735 0.219734
endloop
endfacet
facet normal 0.530884 -0.847384 -0.010147
outer loop
vertex 0.840754 0.231678 -0.197643
vertex 1.049442 0.362420 -0.197643
vertex 1.052444 0.359304 0.219734
endloop
endfacet
facet normal 0.525464 -0.850792 -0.006356
outer loop
vertex 1.052444 0.359304 0.219734
vertex 0.843757 0.230414 0.219734
vertex 0.840754 0.231678 -0.197643
endloop
endfacet
facet normal 0.639593 -0.768644 -0.010341
outer loop
vertex 1.052444 0.359304 0.219734
vertex 1.049442 0.362420 -0.197643
vertex 1.300237 0.571109 -0.197643
endloop
endfacet
facet normal 0.639564 -0.768668 -0.010371
outer loop
vertex 1.300237 0.571109 -0.197643
vertex 1.303259 0.567992 0.219734
vertex 1.052444 0.359304 0.219734
endloop
endfacet
facet normal 0.947284 -0.311248 -0.076017
outer loop
vertex 1.490437 0.879264 -0.197643
vertex 1.613686 1.263200 -0.233782
vertex 1.614872 1.156047 0.219734
endloop
endfacet
facet normal 0.920100 -0.391405 -0.014756
outer loop
vertex 1.614872 1.156047 0.219734
vertex 1.497130 0.879264 0.219734
vertex 1.490437 0.879264 -0.197643
endloop
endfacet
facet normal 0.850882 -0.525180 -0.013646
outer loop
vertex 1.300237 0.571109 -0.197643
vertex 1.490437 0.879264 -0.197643
vertex 1.497130 0.879264 0.219734
endloop
endfacet
facet normal 0.848780 -0.528650 -0.010094
outer loop
vertex 1.497130 0.879264 0.219734
vertex 1.303259 0.567992 0.219734
vertex 1.300237 0.571109 -0.197643
endloop
endfacet
facet normal 0.320884 -0.947099 -0.006111
outer loop
vertex 0.586248 0.142757 0.219734
vertex 0.586248 0.145450 -0.197643
vertex 0.840754 0.231678 -0.197643
endloop
endfacet
facet normal 0.322244 -0.946642 -0.005184
outer loop
vertex 0.840754 0.231678 -0.197643
vertex 0.843757 0.230414 0.219734
vertex 0.586248 0.142757 0.219734
endloop
endfacet
facet normal 0.977538 -0.204523 -0.050880
outer loop
vertex 1.614872 1.156047 0.219734
vertex 1.613686 1.263200 -0.233782
vertex 1.644117 1.380031 -0.118750
endloop
endfacet
facet normal 0.991540 -0.129803 -0.000226
outer loop
vertex 1.644117 1.380031 -0.118750
vertex 1.642191 1.364735 0.219734
vertex 1.614872 1.156047 0.219734
endloop
endfacet
facet normal -0.910903 0.411023 0.036263
outer loop
vertex -1.683988 1.732223 0.255578
vertex -1.505299 2.131393 0.219734
vertex -1.521915 2.131393 -0.197643
endloop
endfacet
facet normal -0.927873 0.372880 -0.003401
outer loop
vertex -1.521915 2.131393 -0.197643
vertex -1.682226 1.732223 -0.225222
vertex -1.683988 1.732223 0.255578
endloop
endfacet
facet normal -0.445314 0.892381 0.073155
outer loop
vertex -1.083257 2.477501 0.219734
vertex -1.083257 2.511717 -0.197643
vertex -1.343016 2.382093 -0.197643
endloop
endfacet
facet normal -0.412416 0.909692 0.048725
outer loop
vertex -1.343016 2.382093 -0.197643
vertex -1.326607 2.367177 0.219734
vertex -1.083257 2.477501 0.219734
endloop
endfacet
facet normal -0.897676 0.440656 0.000000
outer loop
vertex -0.192307 2.581742 0.159195
vertex -0.066547 2.837932 0.029094
vertex -0.066547 2.837932 -0.020347
endloop
endfacet
facet normal -0.898231 0.439519 -0.002012
outer loop
vertex -0.066547 2.837932 -0.020347
vertex -0.192307 2.580355 -0.143776
vertex -0.192307 2.581742 0.159195
endloop
endfacet
facet normal 0.005597 0.999974 -0.004578
outer loop
vertex -0.192307 2.581742 0.159195
vertex -0.192307 2.580355 -0.143776
vertex -0.665881 2.582759 -0.197643
endloop
endfacet
facet normal -0.046844 0.996784 0.065011
outer loop
vertex -0.665881 2.582759 -0.197643
vertex -0.665881 2.555538 0.219734
vertex -0.192307 2.581742 0.159195
endloop
endfacet
facet normal -0.795868 0.603160 0.052845
outer loop
vertex -1.505299 2.131393 0.219734
vertex -1.326607 2.367177 0.219734
vertex -1.343016 2.382093 -0.197643
endloop
endfacet
facet normal -0.813571 0.580563 0.032388
outer loop
vertex -1.343016 2.382093 -0.197643
vertex -1.521915 2.131393 -0.197643
vertex -1.505299 2.131393 0.219734
endloop
endfacet
facet normal -0.167453 0.983790 0.064163
outer loop
vertex -0.665881 2.555538 0.219734
vertex -0.665881 2.582759 -0.197643
vertex -1.083257 2.511717 -0.197643
endloop
endfacet
facet normal -0.183191 0.979791 0.080321
outer loop
vertex -1.083257 2.511717 -0.197643
vertex -1.083257 2.477501 0.219734
vertex -0.665881 2.555538 0.219734
endloop
endfacet
facet normal -0.953314 0.301962 -0.003494
outer loop
vertex -1.683988 1.732223 0.255578
vertex -1.682226 1.732223 -0.225222
vertex -1.722892 1.605235 -0.104483
endloop
endfacet
facet normal -0.956138 0.292917 0.000000
outer loop
vertex -1.722892 1.605235 -0.104483
vertex -1.722892 1.605235 0.140349
vertex -1.683988 1.732223 0.255578
endloop
endfacet
facet normal 0.912977 0.407892 -0.009835
outer loop
vertex 1.610905 1.742355 -0.233782
vertex 1.437483 2.131393 -0.197643
vertex 1.441979 2.131393 0.219734
endloop
endfacet
facet normal 0.867358 0.488365 -0.095859
outer loop
vertex 1.441979 2.131393 0.219734
vertex 1.610082 1.832835 0.219734
vertex 1.610905 1.742355 -0.233782
endloop
endfacet
facet normal 0.900642 0.434563 0.000000
outer loop
vertex 0.110326 2.572425 -0.143776
vertex -0.017783 2.837932 -0.020347
vertex -0.017783 2.837932 0.029094
endloop
endfacet
facet normal 0.900181 0.435511 -0.001797
outer loop
vertex -0.017783 2.837932 0.029094
vertex 0.110326 2.573675 0.159195
vertex 0.110326 2.572425 -0.143776
endloop
endfacet
facet normal 0.045367 0.998677 0.024207
outer loop
vertex 0.586248 2.541994 0.219734
vertex 0.586248 2.552111 -0.197643
vertex 0.110326 2.572425 -0.143776
endloop
endfacet
facet normal 0.066943 0.997748 -0.004118
outer loop
vertex 0.110326 2.572425 -0.143776
vertex 0.110326 2.573675 0.159195
vertex 0.586248 2.541994 0.219734
endloop
endfacet
facet normal 0.589853 0.807494 -0.005275
outer loop
vertex 1.252897 2.366884 0.219734
vertex 1.250760 2.365718 -0.197643
vertex 1.022455 2.532762 -0.155905
endloop
endfacet
facet normal 0.582487 0.812839 0.001603
outer loop
vertex 1.022455 2.532762 -0.155905
vertex 1.022455 2.532103 0.177996
vertex 1.252897 2.366884 0.219734
endloop
endfacet
facet normal 0.782054 0.623184 -0.005745
outer loop
vertex 1.437483 2.131393 -0.197643
vertex 1.250760 2.365718 -0.197643
vertex 1.252897 2.366884 0.219734
endloop
endfacet
facet normal 0.779726 0.626064 -0.008399
outer loop
vertex 1.252897 2.366884 0.219734
vertex 1.441979 2.131393 0.219734
vertex 1.437483 2.131393 -0.197643
endloop
endfacet
facet normal 0.044126 0.999024 0.001971
outer loop
vertex 1.022455 2.532103 0.177996
vertex 1.022455 2.532762 -0.155905
vertex 0.586248 2.552111 -0.197643
endloop
endfacet
facet normal 0.024978 0.999394 0.024225
outer loop
vertex 0.586248 2.552111 -0.197643
vertex 0.586248 2.541994 0.219734
vertex 1.022455 2.532103 0.177996
endloop
endfacet
facet normal 0.962940 0.269686 0.003864
outer loop
vertex 1.642191 1.624147 0.219734
vertex 1.644117 1.622121 -0.118750
vertex 1.610905 1.742355 -0.233782
endloop
endfacet
facet normal 0.987967 0.152010 -0.028535
outer loop
vertex 1.610905 1.742355 -0.233782
vertex 1.610082 1.832835 0.219734
vertex 1.642191 1.624147 0.219734
endloop
endfacet
facet normal -0.635358 0.021859 0.771908
outer loop
vertex -1.013053 1.296640 1.361173
vertex -1.004936 1.714017 1.356035
vertex -1.213624 1.714017 1.184264
endloop
endfacet
facet normal -0.627731 0.028073 0.777924
outer loop
vertex -1.213624 1.714017 1.184264
vertex -1.221741 1.296640 1.192776
vertex -1.013053 1.296640 1.361173
endloop
endfacet
facet normal -0.771113 0.027969 0.636084
outer loop
vertex -1.393887 1.296640 0.984087
vertex -1.221741 1.296640 1.192776
vertex -1.213624 1.714017 1.184264
endloop
endfacet
facet normal -0.767407 0.024153 0.640705
outer loop
vertex -1.213624 1.714017 1.184264
vertex -1.387857 1.714017 0.975576
vertex -1.393887 1.296640 0.984087
endloop
endfacet
facet normal -0.959493 0.026876 0.280449
outer loop
vertex -1.584671 1.296640 0.637110
vertex -1.572980 1.714017 0.637110
vertex -1.683988 1.732223 0.255578
endloop
endfacet
facet normal -0.962992 0.016094 0.269051
outer loop
vertex -1.683988 1.732223 0.255578
vertex -1.691796 1.265016 0.255578
vertex -1.584671 1.296640 0.637110
endloop
endfacet
facet normal -0.266962 0.008187 0.963672
outer loop
vertex -0.665881 1.296640 1.541145
vertex -0.262892 1.271413 1.652997
vertex -0.262892 1.730590 1.649096
endloop
endfacet
facet normal -0.276901 0.018150 0.960727
outer loop
vertex -0.262892 1.730590 1.649096
vertex -0.665881 1.714017 1.533260
vertex -0.665881 1.296640 1.541145
endloop
endfacet
facet normal -0.877123 0.022455 0.479741
outer loop
vertex -1.393887 1.296640 0.984087
vertex -1.387857 1.714017 0.975576
vertex -1.572980 1.714017 0.637110
endloop
endfacet
facet normal -0.876008 0.024538 0.481671
outer loop
vertex -1.572980 1.714017 0.637110
vertex -1.584671 1.296640 0.637110
vertex -1.393887 1.296640 0.984087
endloop
endfacet
facet normal -0.460165 0.016770 0.887675
outer loop
vertex -1.013053 1.296640 1.361173
vertex -0.665881 1.296640 1.541145
vertex -0.665881 1.714017 1.533260
endloop
endfacet
facet normal -0.463145 0.019915 0.886059
outer loop
vertex -0.665881 1.714017 1.533260
vertex -1.004936 1.714017 1.356035
vertex -1.013053 1.296640 1.361173
endloop
endfacet
facet normal -0.309985 0.000000 0.950742
outer loop
vertex -0.133359 1.393720 1.691330
vertex -0.133359 1.602513 1.691330
vertex -0.262892 1.730590 1.649096
endloop
endfacet
facet normal -0.290803 0.008129 0.956749
outer loop
vertex -0.262892 1.730590 1.649096
vertex -0.262892 1.271413 1.652997
vertex -0.133359 1.393720 1.691330
endloop
endfacet
facet normal -0.961078 0.016061 0.275809
outer loop
vertex -1.722892 1.383057 0.140349
vertex -1.691796 1.265016 0.255578
vertex -1.683988 1.732223 0.255578
endloop
endfacet
facet normal -0.947458 0.000000 0.319880
outer loop
vertex -1.683988 1.732223 0.255578
vertex -1.722892 1.605235 0.140349
vertex -1.722892 1.383057 0.140349
endloop
endfacet
facet normal -0.959925 0.011256 -0.280032
outer loop
vertex -1.687704 1.265016 -0.225222
vertex -1.682226 1.732223 -0.225222
vertex -1.568727 1.714017 -0.615019
endloop
endfacet
facet normal -0.960190 0.012150 -0.279083
outer loop
vertex -1.568727 1.714017 -0.615019
vertex -1.574008 1.296640 -0.615019
vertex -1.687704 1.265016 -0.225222
endloop
endfacet
facet normal -0.646595 0.009651 -0.762773
outer loop
vertex -1.210528 1.296640 -1.159461
vertex -1.207775 1.714017 -1.156513
vertex -0.999087 1.714017 -1.333416
endloop
endfacet
facet normal -0.644693 0.008010 -0.764399
outer loop
vertex -0.999087 1.714017 -1.333416
vertex -1.001840 1.296640 -1.335468
vertex -1.210528 1.296640 -1.159461
endloop
endfacet
facet normal -0.760740 0.009600 -0.648985
outer loop
vertex -1.385806 1.714017 -0.947825
vertex -1.207775 1.714017 -1.156513
vertex -1.210528 1.296640 -1.159461
endloop
endfacet
facet normal -0.761141 0.009198 -0.648522
outer loop
vertex -1.210528 1.296640 -1.159461
vertex -1.388339 1.296640 -0.950772
vertex -1.385806 1.714017 -0.947825
endloop
endfacet
facet normal -0.283294 -0.002662 -0.959029
outer loop
vertex -0.665881 1.714017 -1.514332
vertex -0.268293 1.737365 -1.631844
vertex -0.268293 1.275742 -1.630562
endloop
endfacet
facet normal -0.275978 0.004539 -0.961153
outer loop
vertex -0.268293 1.275742 -1.630562
vertex -0.665881 1.296640 -1.516304
vertex -0.665881 1.714017 -1.514332
endloop
endfacet
facet normal -0.876298 0.011088 -0.481641
outer loop
vertex -1.574008 1.296640 -0.615019
vertex -1.568727 1.714017 -0.615019
vertex -1.385806 1.714017 -0.947825
endloop
endfacet
facet normal -0.875074 0.008727 -0.483910
outer loop
vertex -1.385806 1.714017 -0.947825
vertex -1.388339 1.296640 -0.950772
vertex -1.574008 1.296640 -0.615019
endloop
endfacet
facet normal -0.477155 0.004151 -0.878810
outer loop
vertex -0.999087 1.714017 -1.333416
vertex -0.665881 1.714017 -1.514332
vertex -0.665881 1.296640 -1.516304
endloop
endfacet
facet normal -0.473954 0.007455 -0.880518
outer loop
vertex -0.665881 1.296640 -1.516304
vertex -1.001840 1.296640 -1.335468
vertex -0.999087 1.714017 -1.333416
endloop
endfacet
facet normal -0.289952 -0.002656 -0.957038
outer loop
vertex -0.268293 1.275742 -1.630562
vertex -0.268293 1.737365 -1.631844
vertex -0.142359 1.613805 -1.669654
endloop
endfacet
facet normal -0.296462 0.000000 -0.955045
outer loop
vertex -0.142359 1.613805 -1.669654
vertex -0.142359 1.400936 -1.669654
vertex -0.268293 1.275742 -1.630562
endloop
endfacet
facet normal -0.951122 0.011152 -0.308615
outer loop
vertex -1.722892 1.605235 -0.104483
vertex -1.682226 1.732223 -0.225222
vertex -1.687704 1.265016 -0.225222
endloop
endfacet
facet normal -0.960059 0.000000 -0.279796
outer loop
vertex -1.687704 1.265016 -0.225222
vertex -1.722892 1.383057 -0.104483
vertex -1.722892 1.605235 -0.104483
endloop
endfacet
facet normal 0.251892 0.011361 0.967689
outer loop
vertex 0.198816 1.271413 1.658623
vertex 0.586248 1.296640 1.557477
vertex 0.586248 1.714017 1.552577
endloop
endfacet
facet normal 0.256963 0.006612 0.966399
outer loop
vertex 0.586248 1.714017 1.552577
vertex 0.198816 1.730590 1.655481
vertex 0.198816 1.271413 1.658623
endloop
endfacet
facet normal 0.610827 0.020269 0.791505
outer loop
vertex 1.158199 1.296640 1.212626
vertex 1.152519 1.714017 1.206321
vertex 0.943831 1.714017 1.367371
endloop
endfacet
facet normal 0.603191 0.014135 0.797472
outer loop
vertex 0.943831 1.714017 1.367371
vertex 0.949511 1.296640 1.370473
vertex 1.158199 1.296640 1.212626
endloop
endfacet
facet normal 0.767449 0.019899 0.640801
outer loop
vertex 1.158199 1.296640 1.212626
vertex 1.332448 1.296640 1.003938
vertex 1.326890 1.714017 0.997633
endloop
endfacet
facet normal 0.767224 0.020125 0.641063
outer loop
vertex 1.326890 1.714017 0.997633
vertex 1.152519 1.714017 1.206321
vertex 1.158199 1.296640 1.212626
endloop
endfacet
facet normal 0.878699 0.016266 0.477100
outer loop
vertex 1.549397 1.301081 0.601909
vertex 1.542063 1.697258 0.601909
vertex 1.326890 1.714017 0.997633
endloop
endfacet
facet normal 0.879795 0.018890 0.474978
outer loop
vertex 1.326890 1.714017 0.997633
vertex 1.332448 1.296640 1.003938
vertex 1.549397 1.301081 0.601909
endloop
endfacet
facet normal 0.457665 0.012836 0.889032
outer loop
vertex 0.586248 1.296640 1.557477
vertex 0.949511 1.296640 1.370473
vertex 0.943831 1.714017 1.367371
endloop
endfacet
facet normal 0.459887 0.010424 0.887916
outer loop
vertex 0.943831 1.714017 1.367371
vertex 0.586248 1.714017 1.552577
vertex 0.586248 1.296640 1.557477
endloop
endfacet
facet normal 0.998910 0.000000 0.046672
outer loop
vertex 1.642191 1.364735 0.219734
vertex 1.642191 1.624147 0.219734
vertex 1.631932 1.546960 0.439316
endloop
endfacet
facet normal 0.998910 0.000000 0.046672
outer loop
vertex 1.631932 1.546960 0.439316
vertex 1.631932 1.443168 0.439316
vertex 1.642191 1.364735 0.219734
endloop
endfacet
facet normal 0.281598 0.006565 0.959510
outer loop
vertex 0.198816 1.271413 1.658623
vertex 0.198816 1.730590 1.655481
vertex 0.079653 1.602513 1.691330
endloop
endfacet
facet normal 0.264680 0.000000 0.964336
outer loop
vertex 0.079653 1.602513 1.691330
vertex 0.079653 1.393720 1.691330
vertex 0.198816 1.271413 1.658623
endloop
endfacet
facet normal 0.891694 0.000000 0.452638
outer loop
vertex 1.549397 1.301081 0.601909
vertex 1.631932 1.443168 0.439316
vertex 1.631932 1.546960 0.439316
endloop
endfacet
facet normal 0.881401 0.016316 0.472087
outer loop
vertex 1.631932 1.546960 0.439316
vertex 1.542063 1.697258 0.601909
vertex 1.549397 1.301081 0.601909
endloop
endfacet
facet normal 0.245239 0.011194 -0.969398
outer loop
vertex 0.202049 1.737365 -1.637709
vertex 0.586248 1.714017 -1.540783
vertex 0.586248 1.296640 -1.545603
endloop
endfacet
facet normal 0.232685 -0.000410 -0.972552
outer loop
vertex 0.586248 1.296640 -1.545603
vertex 0.202049 1.275742 -1.637514
vertex 0.202049 1.737365 -1.637709
endloop
endfacet
facet normal 0.971728 0.016980 -0.235493
outer loop
vertex 1.526303 1.296640 -0.615019
vertex 1.519010 1.714017 -0.615019
vertex 1.610905 1.742355 -0.233782
endloop
endfacet
facet normal 0.974816 0.005657 -0.222940
outer loop
vertex 1.610905 1.742355 -0.233782
vertex 1.613686 1.263200 -0.233782
vertex 1.526303 1.296640 -0.615019
endloop
endfacet
facet normal 0.598347 0.014269 -0.801110
outer loop
vertex 0.963172 1.296640 -1.356077
vertex 0.957960 1.714017 -1.352536
vertex 1.166648 1.714017 -1.196667
endloop
endfacet
facet normal 0.593670 0.017847 -0.804510
outer loop
vertex 1.166648 1.714017 -1.196667
vertex 1.171861 1.296640 -1.202080
vertex 0.963172 1.296640 -1.356077
endloop
endfacet
facet normal 0.788032 0.017417 -0.615387
outer loop
vertex 1.166648 1.714017 -1.196667
vertex 1.329616 1.714017 -0.987979
vertex 1.334614 1.296640 -0.993392
endloop
endfacet
facet normal 0.788420 0.017820 -0.614879
outer loop
vertex 1.334614 1.296640 -0.993392
vertex 1.171861 1.296640 -1.202080
vertex 1.166648 1.714017 -1.196667
endloop
endfacet
facet normal 0.891502 0.016546 -0.452715
outer loop
vertex 1.334614 1.296640 -0.993392
vertex 1.329616 1.714017 -0.987979
vertex 1.519010 1.714017 -0.615019
endloop
endfacet
facet normal 0.891946 0.015586 -0.451872
outer loop
vertex 1.519010 1.714017 -0.615019
vertex 1.526303 1.296640 -0.615019
vertex 1.334614 1.296640 -0.993392
endloop
endfacet
facet normal 0.451760 0.013210 -0.892042
outer loop
vertex 0.586248 1.714017 -1.540783
vertex 0.957960 1.714017 -1.352536
vertex 0.963172 1.296640 -1.356077
endloop
endfacet
facet normal 0.449206 0.010316 -0.893369
outer loop
vertex 0.963172 1.296640 -1.356077
vertex 0.586248 1.296640 -1.545603
vertex 0.586248 1.714017 -1.540783
endloop
endfacet
facet normal 0.263385 0.000000 -0.964691
outer loop
vertex 0.085042 1.400936 -1.669654
vertex 0.085042 1.613805 -1.669654
vertex 0.202049 1.737365 -1.637709
endloop
endfacet
facet normal 0.264470 -0.000406 -0.964394
outer loop
vertex 0.202049 1.737365 -1.637709
vertex 0.202049 1.275742 -1.637514
vertex 0.085042 1.400936 -1.669654
endloop
endfacet
facet normal 0.960758 0.000000 -0.277387
outer loop
vertex 1.610905 1.742355 -0.233782
vertex 1.644117 1.622121 -0.118750
vertex 1.644117 1.380031 -0.118750
endloop
endfacet
facet normal 0.965307 0.005601 -0.261057
outer loop
vertex 1.644117 1.380031 -0.118750
vertex 1.613686 1.263200 -0.233782
vertex 1.610905 1.742355 -0.233782
endloop
endfacet
facet normal -1.000000 0.000000 0.000000
outer loop
vertex -1.722892 1.383057 0.140349
vertex -1.722892 1.605235 0.140349
vertex -1.722892 1.605235 -0.104483
endloop
endfacet
facet normal -1.000000 0.000000 0.000000
outer loop
vertex -1.722892 1.605235 -0.104483
vertex -1.722892 1.383057 -0.104483
vertex -1.722892 1.383057 0.140349
endloop
endfacet
facet normal 0.999984 0.000000 0.005688
outer loop
vertex 1.644117 1.380031 -0.118750
vertex 1.644117 1.622121 -0.118750
vertex 1.642191 1.624147 0.219734
endloop
endfacet
facet normal 0.999984 0.000000 0.005688
outer loop
vertex 1.642191 1.624147 0.219734
vertex 1.642191 1.364735 0.219734
vertex 1.644117 1.380031 -0.118750
endloop
endfacet
facet normal 0.000000 0.000000 1.000000
outer loop
vertex -0.133359 1.393720 1.691330
vertex 0.079653 1.393720 1.691330
vertex 0.079653 1.602513 1.691330
endloop
endfacet
facet normal 0.000000 0.000000 1.000000
outer loop
vertex 0.079653 1.602513 1.691330
vertex -0.133359 1.602513 1.691330
vertex -0.133359 1.393720 1.691330
endloop
endfacet
facet normal 0.000000 0.000000 -1.000000
outer loop
vertex -0.142359 1.613805 -1.669654
vertex 0.085042 1.613805 -1.669654
vertex 0.085042 1.400936 -1.669654
endloop
endfacet
facet normal 0.000000 0.000000 -1.000000
outer loop
vertex 0.085042 1.400936 -1.669654
vertex -0.142359 1.400936 -1.669654
vertex -0.142359 1.613805 -1.669654
endloop
endfacet
facet normal -0.012078 -0.999864 -0.011255
outer loop
vertex -0.248505 0.058988 0.219734
vertex -0.248505 0.063686 -0.197643
vertex 0.168872 0.058644 -0.197643
endloop
endfacet
facet normal -0.010188 -0.999904 -0.009366
outer loop
vertex 0.168872 0.058644 -0.197643
vertex 0.168872 0.054735 0.219734
vertex -0.248505 0.058988 0.219734
endloop
endfacet
facet normal 0.000000 1.000000 0.000000
outer loop
vertex -0.017783 2.837932 0.029094
vertex -0.017783 2.837932 -0.020347
vertex -0.066547 2.837932 -0.020347
endloop
endfacet
facet normal 0.000000 1.000000 0.000000
outer loop
vertex -0.066547 2.837932 -0.020347
vertex -0.066547 2.837932 0.029094
vertex -0.017783 2.837932 0.029094
endloop
endfacet
endsolid Exported from Blender-2.79 (sub 0)
