ply
format ascii 1.0
comment VCGLIB generated
element vertex 172
property float x
property float y
property float z
element face 100
property list uchar int vertex_indices
end_header
21.07829 11.5 20.30727 
35.07733 14.5 10.30727 
21.07829 14.5 20.30727 
21.07829 11.5 20.30727 
-20.92171 14.5 20.30727 
-20.92171 11.5 20.30727 
-20.92171 11.5 20.30727 
-34.92075 14.5 10.30727 
-34.92075 11.5 10.30727 
-34.92075 11.5 -9.692726 
-34.92075 14.5 10.30727 
-34.92075 14.5 -9.692726 
-20.92171 11.5 -19.69273 
-34.92075 14.5 -9.692726 
-20.92171 14.5 -19.69273 
-20.92171 11.5 -19.69273 
21.07829 14.5 -19.69273 
21.07829 11.5 -19.69273 
21.07829 11.5 -19.69273 
35.07733 14.5 -9.692726 
35.07733 11.5 -9.692726 
35.07733 11.5 -9.692726 
30.67733 11.5 10.30727 
30.67733 11.5 -9.692726 
35.07733 11.5 10.30727 
35.07733 14.5 -9.692726 
35.07733 14.5 10.30727 
27.60743 -11.5 -9.692726 
21.07829 -11.5 -19.69273 
-27.52074 -11.5 -9.692726 
-34.92075 11.5 -9.692726 
-30.72075 11.5 10.30727 
-34.92075 11.5 10.30727 
-30.72075 -11.5 10.30727 
30.67733 11.5 10.30727 
-30.72075 11.5 10.30727 
-27.52074 3.833331 -19.69273 
-30.72075 11.5 -9.692726 
-27.52074 11.5 -9.692726 
27.60743 11.5 -9.692726 
21.07829 11.5 -19.69273 
30.67733 11.5 -9.692726 
30.67733 -11.5 -9.692726 
27.60743 -3.833336 -19.69273 
30.67733 -3.833336 -19.69273 
30.67733 -3.833336 -19.69273 
27.60743 3.833331 -19.69273 
30.67733 3.833331 -19.69273 
-27.52074 -11.5 -9.692726 
-30.72075 -3.833336 -19.69273 
-27.52074 -3.833336 -19.69273 
-27.52074 -3.833336 -19.69273 
-30.72075 3.833331 -19.69273 
-27.52074 3.833331 -19.69273 
21.07829 11.5 20.30727 
-30.72075 11.5 -9.692726 
-30.72075 -3.833336 -19.69273 
-30.72075 -11.5 10.30727 
30.67733 -11.5 10.30727 
30.67733 -3.833336 -19.69273 
30.67733 11.5 -9.692726 
-27.52074 11.5 -9.692726 
27.60743 -11.5 -9.692726 
-27.52074 -11.5 -9.692726 
27.60743 -3.833336 -19.69273 
27.60743 11.5 -9.692726 
27.60743 3.833331 -19.69273 
-27.52074 -3.833336 -19.69273 
-27.52074 11.5 -9.692726 
-27.52074 -11.5 -9.692726 
21.07829 -14.5 20.30727 
-20.92171 -11.5 20.30727 
-20.92171 -14.5 20.30727 
21.07829 -14.5 20.30727 
35.07733 -11.5 10.30727 
21.07829 -11.5 20.30727 
35.07733 -14.5 10.30727 
35.07733 -11.5 -9.692726 
35.07733 -11.5 10.30727 
21.07829 -14.5 -19.69273 
35.07733 -11.5 -9.692726 
35.07733 -14.5 -9.692726 
-20.92171 -14.5 -19.69273 
21.07829 -11.5 -19.69273 
21.07829 -14.5 -19.69273 
-20.92171 -14.5 -19.69273 
-34.92075 -11.5 -9.692726 
-20.92171 -11.5 -19.69273 
-34.92075 -14.5 -9.692726 
-34.92075 -11.5 10.30727 
-34.92075 -11.5 -9.692726 
-20.92171 -14.5 20.30727 
-34.92075 -11.5 10.30727 
-34.92075 -14.5 10.30727 
-34.92075 -14.5 -9.692726 
21.07829 -14.5 -19.69273 
35.07733 -14.5 10.30727 
-34.92075 -11.5 10.30727 
21.07829 -11.5 20.30727 
30.67733 -11.5 10.30727 
-30.72075 -11.5 10.30727 
-34.92075 -11.5 -9.692726 
-30.72075 -11.5 -9.692726 
30.67733 -11.5 -9.692726 
35.07733 -11.5 10.30727 
35.07733 -11.5 -9.692726 
21.07829 14.5 -19.69273 
-34.92075 14.5 -9.692726 
-20.92171 14.5 20.30727 
35.07733 11.5 10.30727 
21.07829 14.5 20.30727 
-20.92171 14.5 20.30727 
-34.92075 11.5 10.30727 
-34.92075 11.5 -9.692726 
-20.92171 14.5 -19.69273 
21.07829 14.5 -19.69273 
35.07733 11.5 -9.692726 
35.07733 11.5 10.30727 
30.67733 11.5 10.30727 
35.07733 11.5 -9.692726 
-30.72075 11.5 -9.692726 
-34.92075 11.5 -9.692726 
-20.92171 11.5 -19.69273 
27.60743 11.5 -9.692726 
-27.52074 11.5 -9.692726 
-20.92171 11.5 -19.69273 
-30.72075 11.5 -9.692726 
-34.92075 11.5 -9.692726 
-30.72075 11.5 -9.692726 
-30.72075 11.5 10.30727 
30.67733 -11.5 10.30727 
-30.72075 3.833331 -19.69273 
30.67733 3.833331 -19.69273 
27.60743 3.833331 -19.69273 
27.60743 11.5 -9.692726 
27.60743 -11.5 -9.692726 
27.60743 -3.833336 -19.69273 
-30.72075 -11.5 -9.692726 
-30.72075 -3.833336 -19.69273 
-20.92171 11.5 20.30727 
-30.72075 11.5 10.30727 
-30.72075 3.833331 -19.69273 
-30.72075 -11.5 -9.692726 
30.67733 11.5 10.30727 
30.67733 -11.5 -9.692726 
30.67733 3.833331 -19.69273 
35.07733 11.5 -9.692726 
30.67733 11.5 -9.692726 
21.07829 11.5 -19.69273 
27.60743 -11.5 -9.692726 
-27.52074 3.833331 -19.69273 
21.07829 -11.5 20.30727 
35.07733 -14.5 10.30727 
35.07733 -14.5 -9.692726 
21.07829 -11.5 -19.69273 
-20.92171 -11.5 -19.69273 
-34.92075 -14.5 -9.692726 
-34.92075 -14.5 10.30727 
-20.92171 -11.5 20.30727 
21.07829 -14.5 20.30727 
-20.92171 -14.5 20.30727 
-34.92075 -14.5 10.30727 
-20.92171 -14.5 -19.69273 
35.07733 -14.5 -9.692726 
-20.92171 -11.5 20.30727 
30.67733 11.5 -9.692726 
-20.92171 -11.5 -19.69273 
21.07829 14.5 20.30727 
35.07733 14.5 10.30727 
35.07733 14.5 -9.692726 
-20.92171 14.5 -19.69273 
-34.92075 14.5 10.30727 
3 0 1 2 
3 3 4 5 
3 6 7 8 
3 9 10 11 
3 12 13 14 
3 15 16 17 
3 18 19 20 
3 21 22 23 
3 24 25 26 
3 27 28 29 
3 30 31 32 
3 33 34 35 
3 36 37 38 
3 39 40 41 
3 42 43 44 
3 45 46 47 
3 48 49 50 
3 51 52 53 
3 54 32 31 
3 55 56 57 
3 58 59 60 
3 61 62 63 
3 64 65 66 
3 67 68 69 
3 70 71 72 
3 73 74 75 
3 76 77 78 
3 79 80 81 
3 82 83 84 
3 85 86 87 
3 88 89 90 
3 91 92 93 
3 94 95 96 
3 97 98 99 
3 97 99 100 
3 100 101 97 
3 101 102 28 
3 103 104 105 
3 106 107 108 
3 0 109 1 
3 3 110 4 
3 6 111 7 
3 9 112 10 
3 12 113 13 
3 15 114 16 
3 18 115 19 
3 116 117 118 
3 24 119 25 
3 120 121 122 
3 62 61 123 
3 40 124 125 
3 100 102 101 
3 124 126 125 
3 127 128 129 
3 33 130 34 
3 36 131 37 
3 132 133 134 
3 42 135 43 
3 45 136 46 
3 48 137 49 
3 51 138 52 
3 118 117 54 
3 54 139 32 
3 31 118 54 
3 57 140 55 
3 55 141 56 
3 56 142 57 
3 60 143 58 
3 58 144 59 
3 59 145 60 
3 146 147 148 
3 64 149 65 
3 67 150 68 
3 70 151 71 
3 73 152 74 
3 76 153 77 
3 79 154 80 
3 82 155 83 
3 85 156 86 
3 88 157 89 
3 91 158 92 
3 96 159 160 
3 160 161 94 
3 94 162 95 
3 95 163 96 
3 96 160 94 
3 97 164 98 
3 98 104 99 
3 132 134 165 
3 102 29 28 
3 103 105 28 
3 124 40 39 
3 27 103 28 
3 28 166 101 
3 103 99 104 
3 108 167 168 
3 168 169 106 
3 106 170 107 
3 107 171 108 
3 108 168 106 
