# File produced by Open Asset Import Library (http://www.assimp.sf.net)
# (assimp v3.3.0)

mtllib l_talus.obj.mtl

# 28 vertex positions
v  0.01062200963497162 -0.0001004338264465332 -0.01674700528383255
v  0.01062200963497162 -0.0001004338264465332 0.01590382307767868
v  0.006589709781110287 -0.008473575115203857 0.01590382307767868
v  0.006589709781110287 -0.008473575115203857 -0.01674700528383255
v  -0.002470889827236533 -0.01054167747497559 0.01590382307767868
v  -0.002470889827236533 -0.01054167747497559 -0.01674700528383255
v  -0.009736989624798298 -0.004747331142425537 0.01590382307767868
v  -0.009736989624798298 -0.004747331142425537 -0.01674700528383255
v  -0.009736989624798298 0.004546463489532471 0.01590382307767868
v  -0.009736989624798298 0.004546463489532471 -0.01674700528383255
v  -0.002470889827236533 0.01034086942672729 0.01590382307767868
v  -0.002470889827236533 0.01034086942672729 -0.01674700528383255
v  0.006589709781110287 0.008272886276245117 0.01590382307767868
v  0.006589709781110287 0.008272886276245117 -0.01674700528383255
v  0.01623770967125893 -0.0001004338264465332 0.01125428080558777
v  -0.01641318947076797 -0.0001004338264465332 0.01125428080558777
v  -0.01641318947076797 -0.009228885173797607 0.006858073174953461
v  0.01623770967125893 -0.009228885173797607 0.006858073174953461
v  -0.01641318947076797 -0.01148355007171631 -0.003019720315933228
v  0.01623770967125893 -0.01148355007171631 -0.003019720315933228
v  -0.01641318947076797 -0.005166232585906982 -0.01094112545251846
v  0.01623770967125893 -0.005166232585906982 -0.01094112545251846
v  -0.01641318947076797 0.004965543746948242 -0.01094112545251846
v  0.01623770967125893 0.004965543746948242 -0.01094112545251846
v  -0.01641318947076797 0.01128268241882324 -0.003019735217094421
v  0.01623770967125893 0.01128268241882324 -0.003019735217094421
v  -0.01641318947076797 0.009028077125549316 0.006858073174953461
v  0.01623770967125893 0.009028077125549316 0.006858073174953461

# 60 UV coordinates
vt 0.4618659913539886 0.2990339994430542 0
vt 0.4616389870643616 0.2829430103302002 0
vt 0.4662179946899414 0.2828780114650726 0
vt 0.4664460122585297 0.2989700138568878 0
vt 0.4387350082397461 0.283270001411438 0
vt 0.4343839883804321 0.2994259893894196 0
vt 0.4341549873352051 0.2833350002765656 0
vt 0.438962996006012 0.299360990524292 0
vt 0.4433149993419647 0.2832050025463104 0
vt 0.4435440003871918 0.2992970049381256 0
vt 0.4478949904441833 0.2831389904022217 0
vt 0.4481239914894104 0.2992300093173981 0
vt 0.4524759948253632 0.2830739915370941 0
vt 0.4527060091495514 0.2991650104522705 0
vt 0.457056999206543 0.2830089926719666 0
vt 0.45728600025177 0.2991000115871429 0
vt 0.5576130151748657 0.815867006778717 0
vt 0.5475800037384033 0.8135690093040466 0
vt 0.5511630177497864 0.8107159733772278 0
vt 0.5556280016899109 0.8117380142211914 0
vt 0.5511549711227417 0.8210089802742004 0
vt 0.5475770235061646 0.8181489706039429 0
vt 0.5556229948997498 0.8199920058250427 0
vt 0.6680290102958679 0.7455459833145142 0
vt 0.6647369861602783 0.7531160116195679 0
vt 0.6602349877357483 0.752269983291626 0
vt 0.6682059764862061 0.7501239776611328 0
vt 0.6599169969558716 0.744022011756897 0
vt 0.6643400192260742 0.7428299784660339 0
vt 0.6580899953842163 0.7482219934463501 0
vt 0.5040689706802368 0.2991229891777039 0
vt 0.5037279725074768 0.283033013343811 0
vt 0.5087199807167053 0.282929003238678 0
vt 0.5090609788894653 0.299017995595932 0
vt 0.4787639975547791 0.2835609912872314 0
vt 0.4741100072860718 0.2997539937496185 0
vt 0.4737710058689117 0.2836650013923645 0
vt 0.4791019856929779 0.2996500134468079 0
vt 0.4837569892406464 0.2834570109844208 0
vt 0.4840950071811676 0.2995449900627136 0
vt 0.4887489974498749 0.2833510041236877 0
vt 0.4890879988670349 0.299439013004303 0
vt 0.4937419891357422 0.2832460105419159 0
vt 0.4940820038318634 0.2993339896202087 0
vt 0.4987339973449707 0.2831400036811829 0
vt 0.4990760087966919 0.2992280125617981 0
vt 0.6417800188064575 0.668088972568512 0
vt 0.6505550146102905 0.6660950183868408 0
vt 0.6527190208435059 0.6705960035324097 0
vt 0.6456869840621948 0.6649789810180664 0
vt 0.6456779837608337 0.6761990189552307 0
vt 0.641776978969574 0.6730830073356628 0
vt 0.6505470275878906 0.6750929951667786 0
vt 0.6045939922332764 0.6554520130157471 0
vt 0.6133769750595093 0.6484670042991638 0
vt 0.6133700013160706 0.6534600257873535 0
vt 0.6094620227813721 0.6565700173377991 0
vt 0.6046069860458374 0.6464539766311646 0
vt 0.6094769835472107 0.6453490257263184 0
vt 0.602433979511261 0.650950014591217 0

# 28 vertex normals
vn 0.7836140394210815 -3.999999989900971e-06 -0.6212480664253235
vn 0.7836140394210815 -3.999999989900971e-06 0.6212480664253235
vn 0.4885769188404083 -0.6126528978347778 0.6212479472160339
vn 0.4885769188404083 -0.6126528978347778 -0.6212479472160339
vn -0.1743600815534592 -0.7639693021774292 0.6212482452392578
vn -0.1743600815534592 -0.7639693021774292 -0.6212482452392578
vn -0.7060099244117737 -0.3400049805641174 0.6212459206581116
vn -0.7060099244117737 -0.3400049805641174 -0.6212459206581116
vn -0.706011176109314 0.3400020897388458 0.6212461590766907
vn -0.706011176109314 0.3400020897388458 -0.6212461590766907
vn -0.1743689775466919 0.7639667987823486 0.6212488412857056
vn -0.1743689775466919 0.7639667987823486 -0.6212488412857056
vn 0.488576203584671 0.6126552224159241 0.6212462186813354
vn 0.488576203584671 0.6126552224159241 -0.6212462186813354
vn 0.6212452054023743 -1.000000224848918e-06 0.7836161851882935
vn -0.6212452054023743 -1.000000224848918e-06 0.7836161851882935
vn -0.6212500333786011 -0.6126530766487122 0.4885740280151367
vn 0.6212500333786011 -0.6126530766487122 0.4885740280151367
vn -0.6212438941001892 -0.763969898223877 -0.1743729710578918
vn 0.6212445497512817 -0.7639694213867188 -0.1743728667497635
vn -0.6212487816810608 -0.3399898707866669 -0.7060147523880005
vn 0.6212487816810608 -0.3399898707866669 -0.7060147523880005
vn -0.6212477684020996 0.3399958610534668 -0.7060127854347229
vn 0.6212477684020996 0.3399958610534668 -0.7060127854347229
vn -0.6212460398674011 0.7639691233634949 -0.1743690222501755
vn 0.6212460398674011 0.7639691233634949 -0.1743690222501755
vn -0.6212490200996399 0.612654983997345 0.4885729849338531
vn 0.6212490200996399 0.612654983997345 0.4885729849338531

# Mesh '<dummy_root>' with 48 faces
g <dummy_root>
usemtl drc_extremities_diffuse
f  1/1/1 2/2/2 3/3/3
f  1/1/1 3/3/3 4/4/4
f  5/5/5 4/6/4 3/7/3
f  4/6/4 5/5/5 6/8/6
f  7/9/7 6/8/6 5/5/5
f  6/8/6 7/9/7 8/10/8
f  9/11/9 10/12/10 8/10/8
f  9/11/9 8/10/8 7/9/7
f  11/13/11 12/14/12 10/12/10
f  10/12/10 9/11/9 11/13/11
f  13/15/13 14/16/14 12/14/12
f  12/14/12 11/13/11 13/15/13
f  14/16/14 13/15/13 2/2/2
f  14/16/14 2/2/2 1/1/1
f  2/17/2 7/18/7 5/19/5
f  2/17/2 5/19/5 3/20/3
f  7/18/7 11/21/11 9/22/9
f  11/21/11 7/18/7 2/17/2
f  11/21/11 2/17/2 13/23/13
f  8/24/8 12/25/12 14/26/14
f  12/25/12 8/24/8 10/27/10
f  14/26/14 4/28/4 6/29/6
f  14/26/14 6/29/6 8/24/8
f  4/28/4 14/26/14 1/30/1
f  15/31/15 16/32/16 17/33/17
f  15/31/15 17/33/17 18/34/18
f  19/35/19 18/36/18 17/37/17
f  18/36/18 19/35/19 20/38/20
f  21/39/21 20/38/20 19/35/19
f  20/38/20 21/39/21 22/40/22
f  23/41/23 24/42/24 22/40/22
f  23/41/23 22/40/22 21/39/21
f  24/42/24 23/41/23 25/43/25
f  24/42/24 25/43/25 26/44/26
f  26/44/26 25/43/25 27/45/27
f  26/44/26 27/45/27 28/46/28
f  28/46/28 27/45/27 16/32/16
f  28/46/28 16/32/16 15/31/15
f  21/47/21 17/48/17 16/49/16
f  17/48/17 21/47/21 19/50/19
f  21/47/21 25/51/25 23/52/23
f  25/51/25 21/47/21 16/49/16
f  25/51/25 16/49/16 27/53/27
f  28/54/28 22/55/22 24/56/24
f  28/54/28 24/56/24 26/57/26
f  18/58/18 22/55/22 28/54/28
f  22/55/22 18/58/18 20/59/20
f  18/58/18 28/54/28 15/60/15

