# File produced by Open Asset Import Library (http://www.assimp.sf.net)
# (assimp v3.3.0)

mtllib mtorso.obj.mtl

# 44 vertex positions
v  0.01632170006632805 0.0611908882856369 0.01348569989204407
v  0.01632170006632805 0.03432989120483398 0.01294280029833317
v  0.01632170006632805 0.03432989120483398 -0.01297559961676598
v  0.01632170006632805 0.04628430306911469 -0.01685380004346371
v  0.01632170006632805 0.04628430306911469 0.01682069897651672
v  0.01632170006632805 0.0611908882856369 -0.01352050062268972
v  0.01632170006632805 0.06782490015029907 -1.669999983278103e-05
v  0.01632170006632805 -0.005050510168075562 0.01294280029833317
v  0.01632170006632805 -0.005050510168075562 -0.01297600008547306
v  0.007386500481516123 -0.01560929417610168 0.01294280029833317
v  0.007386500481516123 -0.01560908555984497 -0.01297600008547306
v  -0.03491449728608131 -0.02031800150871277 0.01294280029833317
v  -0.03491449728608131 -0.02031789720058441 -0.01297600008547306
v  -0.04379170015454292 -0.01426179707050323 0.01294280029833317
v  -0.04379170015454292 -0.01426179707050323 -0.01297600008547306
v  -0.06484129279851913 0.03833520412445068 0.01294280029833317
v  -0.06484129279851913 0.03833529353141785 -0.01297600008547306
v  -0.06741969287395477 0.05000540614128113 0.0156800989061594
v  -0.06741969287395477 0.05000540614128113 -0.01571330055594444
v  -0.06708350777626038 0.07651220262050629 0.008740599267184734
v  -0.06708350777626038 0.07651239633560181 -0.00877430010586977
v  -0.06707429140806198 0.08088450133800507 0.003689599921926856
v  -0.06707429140806198 0.08088450133800507 -0.003723500063642859
v  -0.02441349998116493 0.02195820212364197 -0.01297600008547306
v  -0.03395929932594299 0.02988901734352112 -0.01297600008547306
v  -0.03395929932594299 0.02988870441913605 0.01294280029833317
v  -0.02441349998116493 0.02195799350738525 0.01294280029833317
v  -0.03400119766592979 0.05000540614128113 -0.01571330055594444
v  -0.03400119766592979 0.04584009945392609 0.01567980088293552
v  -0.0336649976670742 0.07651239633560181 -0.00877430010586977
v  -0.0336649976670742 0.07651220262050629 0.008740599267184734
v  -0.03365569934248924 0.08088450133800507 -0.003723500063642859
v  -0.03365569934248924 0.08088450133800507 0.003689599921926856
v  0.005997100379317999 0.04628430306911469 -0.01685380004346371
v  0.005997100379317999 0.0343300849199295 0.01294280029833317
v  0.005997100379317999 0.04628430306911469 0.01682069897651672
v  0.005997100379317999 0.0611908882856369 0.01348569989204407
v  0.005997100379317999 0.0343300849199295 -0.01297569926828146
v  0.005997100379317999 0.06119099259376526 -0.01352069899439812
v  0.005997100379317999 0.06782490015029907 -1.669999983278103e-05
v  0.005997100379317999 0.03153999149799347 -0.01297600008547306
v  0.005997100379317999 0.03153990209102631 0.01294280029833317
v  -0.002938099205493927 0.0218065083026886 -0.01297600008547306
v  -0.002938099205493927 0.0218065083026886 0.01294280029833317

# 90 UV coordinates
vt 0.08144699782133102 0.9878069758415222 0
vt 0.08184300363063812 0.9751579761505127 0
vt 0.09404899924993515 0.975292980670929 0
vt 0.09581500291824341 0.9809420108795166 0
vt 0.07995399832725525 0.9807689785957336 0
vt 0.09416799992322922 0.9879469871520996 0
vt 0.08777400106191635 0.9910020232200623 0
vt 0.08205299824476242 0.9566059708595276 0
vt 0.09425900131464005 0.9567509889602661 0
vt 0.08213099837303162 0.9500859975814819 0
vt 0.0943399965763092 0.9502410292625427 0
vt 0.08240000158548355 0.9300339818000793 0
vt 0.09460499882698059 0.9302020072937012 0
vt 0.08247199654579163 0.9249669909477234 0
vt 0.09467899799346924 0.9251490235328674 0
vt 0.08288899809122086 0.8982830047607422 0
vt 0.09509400278329849 0.8984739780426025 0
vt 0.08168800175189972 0.892632007598877 0
vt 0.09647300094366074 0.8928670287132263 0
vt 0.08515600115060806 0.880200982093811 0
vt 0.09340500086545944 0.8803309798240662 0
vt 0.087567999958992 0.8781780004501343 0
vt 0.09105800092220306 0.8782349824905396 0
vt 0.07881999760866165 0.8396880030632019 0
vt 0.07860299944877625 0.8336809873580933 0
vt 0.09116200357675552 0.8332200050354004 0
vt 0.09138000011444092 0.8392390012741089 0
vt 0.07691100239753723 0.8239889740943909 0
vt 0.09219899773597717 0.8254349827766418 0
vt 0.07978600263595581 0.8110209703445435 0
vt 0.08827000111341476 0.8106970191001892 0
vt 0.08214999735355377 0.8088070154190063 0
vt 0.08574400097131729 0.8086709976196289 0
vt 0.07774499803781509 0.8636699914932251 0
vt 0.09200499951839447 0.8574219942092896 0
vt 0.09406500309705734 0.863161027431488 0
vt 0.09267199784517288 0.8704360127449036 0
vt 0.07944300025701523 0.8578230142593384 0
vt 0.07958299666643143 0.8708429932594299 0
vt 0.08622899651527405 0.8738549947738647 0
vt 0.07940000295639038 0.8564800024032593 0
vt 0.09196200221776962 0.8560640215873718 0
vt 0.07918400317430496 0.8500840067863464 0
vt 0.09174499660730362 0.8496549725532532 0
vt 0.3836910128593445 0.19166100025177 0
vt 0.3948319852352142 0.1798940002918243 0
vt 0.3974289894104004 0.1823350042104721 0
vt 0.3863570094108582 0.1941680014133453 0
vt 0.3777860105037689 0.2197310030460358 0
vt 0.3811140060424805 0.2159889936447144 0
vt 0.3866469860076904 0.2209150046110153 0
vt 0.3833149969577789 0.2246499955654144 0
vt 0.391196995973587 0.2249779999256134 0
vt 0.3878549933433533 0.2287019938230515 0
vt 0.3922080099582672 0.2258850038051605 0
vt 0.3986220061779022 0.2258280068635941 0
vt 0.4020119905471802 0.2414969950914383 0
vt 0.4055869877338409 0.2180420011281967 0
vt 0.4241639971733093 0.2280980050563812 0
vt 0.4086970090866089 0.2417259961366653 0
vt 0.405894011259079 0.2119899988174438 0
vt 0.4248760044574738 0.2229579985141754 0
vt 0.4001590013504028 0.2066629976034164 0
vt 0.4130649864673615 0.1981929987668991 0
vt 0.3887790143489838 0.1964160054922104 0
vt 0.3997820019721985 0.1845200061798096 0
vt 0.4096469879150391 0.1933699995279312 0
vt 0.3723349869251251 0.2148839980363846 0
vt 0.3756619989871979 0.2111420035362244 0
vt 0.3583729863166809 0.2015050053596497 0
vt 0.3619369864463806 0.1979849934577942 0
vt 0.3670639991760254 0.2031749933958054 0
vt 0.3635019958019257 0.2066940069198608 0
vt 0.3531720042228699 0.1962379962205887 0
vt 0.3567309975624084 0.1927160024642944 0
vt 0.3488889932632446 0.1919140070676804 0
vt 0.3524399995803833 0.1883859932422638 0
vt 0.3353970050811768 0.1784230023622513 0
vt 0.3512159883975983 0.1810159981250763 0
vt 0.3514809906482697 0.1874240040779114 0
vt 0.3476629853248596 0.1556199938058853 0
vt 0.3586460053920746 0.1736710071563721 0
vt 0.3348309993743896 0.1717569977045059 0
vt 0.3646860122680664 0.1730940043926239 0
vt 0.3527530133724213 0.1546449959278107 0
vt 0.3780730068683624 0.1652369946241379 0
vt 0.3812980055809021 0.1893800050020218 0
vt 0.3717930018901825 0.1799979954957962 0
vt 0.3830730020999908 0.1683669984340668 0
vt 0.3925080001354218 0.1776780039072037 0

# 44 vertex normals
vn 0.6215278506278992 0.4846978783607483 0.6154438257217407
vn 0.7440116405487061 -0.1043649464845657 0.6599656939506531
vn 0.7440222501754761 -0.1043610423803329 -0.6599542498588562
vn 0.6522924304008484 -0.0355050228536129 -0.7571354508399963
vn 0.6522829532623291 -0.03545299917459488 0.7571459412574768
vn 0.6215227842330933 0.4846828281879425 -0.6154607534408569
vn 0.6200239658355713 0.7845828533172607 1.599999632162508e-05
vn 0.7236226201057434 -0.2650878727436066 0.6372587084770203
vn 0.7236222624778748 -0.2650900781154633 -0.6372581720352173
vn 0.3642789721488953 -0.683489978313446 0.6325680017471313
vn 0.3642759919166565 -0.6834869384765625 -0.6325729489326477
vn -0.1862409114837646 -0.7483376860618591 0.6366357207298279
vn -0.1862379461526871 -0.7483357787132263 -0.6366388201713562
vn -0.5926660895347595 -0.4826570749282837 0.6448171138763428
vn -0.5946028828620911 -0.4772998988628387 -0.6470178961753845
vn -0.7231660485267639 -0.2951090335845947 0.624453067779541
vn -0.7175477743148804 -0.3139899075031281 -0.6217198371887207
vn -0.6782440543174744 -0.03625000268220901 0.7339420318603516
vn -0.6863300204277039 -0.03833900019526482 -0.7262790203094482
vn -0.6402929425239563 0.4041959345340729 0.6531850099563599
vn -0.643170177936554 0.4082050919532776 -0.6478431820869446
vn -0.6355170607566833 0.7235930562019348 0.2693160176277161
vn -0.6355168223381042 0.7235937714576721 -0.2693149149417877
vn 0.209784984588623 0.5744279623031616 -0.7912160158157349
vn 0.5461879968643188 0.2041209936141968 -0.8124120235443115
vn 0.7907537817955017 0.1470399498939514 0.5942118167877197
vn 0.2097790539264679 0.5744242072105408 0.7912202477455139
vn 0.6641297340393066 0.04215698689222336 -0.7464277744293213
vn 0.6673309803009033 0.04320399835705757 0.7435070276260376
vn 0.6490492224693298 0.3982721567153931 -0.6481622457504272
vn 0.645885705947876 0.3890878558158875 0.6568427085876465
vn 0.6370899081230164 0.7221378087997437 -0.2695059478282928
vn 0.6370899081230164 0.7221378087997437 0.2695059478282928
vn -0.6522923111915588 -0.03550701960921288 -0.7571353316307068
vn -0.744013786315918 -0.1043679565191269 0.6599627733230591
vn -0.6522829532623291 -0.03545399755239487 0.7571459412574768
vn -0.6215282082557678 0.4846981465816498 0.6154431700706482
vn -0.7440260052680969 -0.1043360009789467 -0.6599540114402771
vn -0.621506929397583 0.484688937664032 -0.6154719591140747
vn -0.6200239658355713 0.7845828533172607 1.799999881768599e-05
vn -0.5608277916908264 0.2184309363365173 -0.7985987663269043
vn -0.560854971408844 0.2183970063924789 0.7985889911651611
vn -0.2336440682411194 0.5367791652679443 -0.8107272386550903
vn -0.2336450666189194 0.5367801785469055 0.8107262849807739

# Mesh '<dummy_root>' with 84 faces
g <dummy_root>
usemtl torso_diffuse
f  1/1/1 2/2/2 3/3/3
f  3/3/3 4/4/4 1/1/1
f  1/1/1 5/5/5 2/2/2
f  6/6/6 7/7/7 1/1/1
f  1/1/1 4/4/4 6/6/6
f  8/8/8 9/9/9 3/3/3
f  3/3/3 2/2/2 8/8/8
f  10/10/10 11/11/11 9/9/9
f  9/9/9 8/8/8 10/10/10
f  12/12/12 13/13/13 11/11/11
f  11/11/11 10/10/10 12/12/12
f  14/14/14 15/15/15 13/13/13
f  13/13/13 12/12/12 14/14/14
f  16/16/16 17/17/17 15/15/15
f  15/15/15 14/14/14 16/16/16
f  18/18/18 19/19/19 17/17/17
f  17/17/17 16/16/16 18/18/18
f  20/20/20 21/21/21 19/19/19
f  19/19/19 18/18/18 20/20/20
f  22/22/22 23/23/23 21/21/21
f  21/21/21 20/20/20 22/22/22
f  24/24/24 25/25/25 26/26/26
f  26/26/26 27/27/27 24/24/24
f  25/25/25 28/28/28 29/29/29
f  29/29/29 26/26/26 25/25/25
f  28/28/28 30/30/30 31/31/31
f  31/31/31 29/29/29 28/28/28
f  30/30/30 32/32/32 33/33/33
f  33/33/33 31/31/31 30/30/30
f  34/34/34 35/35/35 36/36/36
f  36/36/36 37/37/37 34/34/34
f  34/34/34 38/38/38 35/35/35
f  39/39/39 34/34/34 37/37/37
f  37/37/37 40/40/40 39/39/39
f  38/38/38 41/41/41 42/42/42
f  42/42/42 35/35/35 38/38/38
f  41/41/41 43/43/43 44/44/44
f  44/44/44 42/42/42 41/41/41
f  32/45/32 23/46/23 22/47/22
f  22/47/22 33/48/33 32/45/32
f  43/43/43 24/24/24 27/27/27
f  27/27/27 44/44/44 43/43/43
f  1/49/1 37/50/37 36/51/36
f  36/51/36 5/52/5 1/49/1
f  5/52/5 36/51/36 35/53/35
f  35/53/35 2/54/2 5/52/5
f  42/55/42 44/56/44 8/57/8
f  8/57/8 2/54/2 42/55/42
f  44/56/44 27/58/27 12/59/12
f  12/59/12 10/60/10 44/56/44
f  12/59/12 27/58/27 26/61/26
f  26/61/26 14/62/14 12/59/12
f  14/62/14 26/61/26 29/63/29
f  29/63/29 16/64/16 14/62/14
f  29/63/29 31/65/31 20/66/20
f  20/66/20 18/67/18 29/63/29
f  7/68/7 40/69/40 37/50/37
f  37/50/37 1/49/1 7/68/7
f  6/70/6 39/71/39 40/72/40
f  40/72/40 7/73/7 6/70/6
f  4/74/4 34/75/34 39/71/39
f  39/71/39 6/70/6 4/74/4
f  3/76/3 38/77/38 34/75/34
f  34/75/34 4/74/4 3/76/3
f  9/78/9 43/79/43 41/80/41
f  41/80/41 3/76/3 9/78/9
f  13/81/13 24/82/24 43/79/43
f  43/79/43 11/83/11 13/81/13
f  25/84/25 24/82/24 15/85/15
f  15/85/15 17/86/17 25/84/25
f  30/87/30 28/88/28 19/89/19
f  19/89/19 21/90/21 30/87/30
f  23/46/23 32/45/32 30/87/30
f  30/87/30 21/90/21 23/46/23
f  11/83/11 43/79/43 9/78/9
f  8/57/8 44/56/44 10/60/10
f  15/85/15 24/82/24 13/81/13
f  19/89/19 28/88/28 25/84/25
f  25/84/25 17/86/17 19/89/19
f  16/64/16 29/63/29 18/67/18
f  22/47/22 20/66/20 31/65/31
f  31/65/31 33/48/33 22/47/22
f  42/55/42 2/54/2 35/53/35
f  38/77/38 3/76/3 41/80/41

