# File produced by Open Asset Import Library (http://www.assimp.sf.net)
# (assimp v3.1.187496374)

mtllib 110_caster_plate_collision.obj.mtl

# 104 vertex positions
v  -0.0535187 0.0235501 0.0427226
v  -0.0518977 0.0422469 0.0427226
v  -0.0535187 -0.0235501 0.0427226
v  -0.0518977 -0.0422469 0.0427226
v  -0.0477072 -0.0702905 0.0427226
v  -0.0497022 -0.058674 0.0427226
v  0.0497023 -0.058674 0.0427226
v  0.0902635 -0.189952 0.0427226
v  0.0739552 -0.20181 0.0427226
v  -0.036173 -0.115957 0.0427226
v  0.134345 -0.13824 0.0427226
v  0.109009 -0.182526 0.0427226
v  0.135495 -0.139311 0.0427226
v  0.13385 -0.136749 0.0427226
v  0.129014 -0.179997 0.0427226
v  0.137017 -0.1397 0.0427226
v  0.325864 -0.179997 0.0427226
v  0.325864 -0.1397 0.0427226
v  0.0497023 0.058674 0.0427226
v  0.129551 0.0456169 0.0427226
v  0.129551 -0.0456169 0.0427226
v  0.13385 0.136749 0.0427226
v  0.134345 0.13824 0.0427226
v  -0.0497022 0.058674 0.0427226
v  -0.0477072 0.0702905 0.0427226
v  0.0902635 0.189952 0.0427226
v  0.135495 0.139311 0.0427226
v  0.109009 0.182526 0.0427226
v  0.0739552 0.20181 0.0427226
v  -0.036173 0.115957 0.0427226
v  0.0611103 0.217353 0.0427226
v  -0.0190923 0.159851 0.0427226
v  0.052537 0.235603 0.0427226
v  0.00327378 0.201302 0.0427226
v  0.0400581 0.244381 0.0427226
v  0.0498086 0.240279 0.0427226
v  0.0348076 0.243062 0.0427226
v  0.0305835 0.239676 0.0427226
v  0.0453808 0.243393 0.0427226
v  0.137017 0.1397 0.0427226
v  0.129014 0.179997 0.0427226
v  0.325864 0.1397 0.0427226
v  0.325864 0.179997 0.0427226
v  -0.0190923 -0.159851 0.0427226
v  0.0611103 -0.217353 0.0427226
v  0.00327378 -0.201302 0.0427226
v  0.052537 -0.235603 0.0427226
v  0.0305835 -0.239676 0.0427226
v  0.0498086 -0.240279 0.0427226
v  0.0453808 -0.243393 0.0427226
v  0.0400581 -0.244381 0.0427226
v  0.0348076 -0.243062 0.0427226
v  -0.0535187 0.0235501 0.0554226
v  -0.0477072 0.0702905 0.0554226
v  -0.036173 0.115957 0.0554226
v  -0.0190923 0.159851 0.0554226
v  0.00327378 0.201302 0.0554226
v  0.0305835 0.239676 0.0554226
v  -0.0535187 -0.0235501 0.0554226
v  -0.0477072 -0.0702905 0.0554226
v  -0.036173 -0.115957 0.0554226
v  -0.0190923 -0.159851 0.0554226
v  0.00327378 -0.201302 0.0554226
v  0.0305835 -0.239676 0.0554226
v  0.13385 0.136749 0.0554226
v  0.134345 0.13824 0.0554226
v  0.129551 0.0456169 0.0554226
v  0.135495 0.139311 0.0554226
v  0.109009 0.182526 0.0554226
v  0.0902635 0.189952 0.0554226
v  0.137017 0.1397 0.0554226
v  0.129014 0.179997 0.0554226
v  0.325864 0.1397 0.0554226
v  0.325864 0.179997 0.0554226
v  0.0739552 0.20181 0.0554226
v  0.0611103 0.217353 0.0554226
v  0.052537 0.235603 0.0554226
v  0.0498086 0.240279 0.0554226
v  0.0453808 0.243393 0.0554226
v  0.0400581 0.244381 0.0554226
v  0.0348076 0.243062 0.0554226
v  0.129551 -0.0456169 0.0554226
v  0.13385 -0.136749 0.0554226
v  0.134345 -0.13824 0.0554226
v  0.0902635 -0.189952 0.0554226
v  0.135495 -0.139311 0.0554226
v  0.0611103 -0.217353 0.0554226
v  0.0739552 -0.20181 0.0554226
v  0.052537 -0.235603 0.0554226
v  0.109009 -0.182526 0.0554226
v  0.137017 -0.1397 0.0554226
v  0.129014 -0.179997 0.0554226
v  0.325864 -0.1397 0.0554226
v  0.325864 -0.179997 0.0554226
v  0.0348076 -0.243062 0.0554226
v  0.0400581 -0.244381 0.0554226
v  0.0498086 -0.240279 0.0554226
v  0.0453808 -0.243393 0.0554226
v  -0.0518977 -0.058674 0.0427226
v  -0.0518977 0.058674 0.0427226
v  -0.0518977 0.058674 -0.019781
v  -0.0518977 -0.058674 -0.019781
v  0.0497023 -0.058674 -0.019781
v  0.0497023 0.058674 -0.019781

# 0 UV coordinates

# 94 vertex normals
vn 0 0 -1
vn -0.994044 0.108977 0
vn -0.991033 0.133618 0
vn -0.984685 0.174345 0
vn -0.974399 0.224824 0
vn -0.964291 0.264845 0
vn -0.939213 0.343334 0
vn -0.924244 0.381802 0
vn -0.889674 0.456597 0
vn -0.870073 0.492923 0
vn -0.826538 0.562881 0
vn -0.802604 0.596512 0
vn -0.996938 0.07819 0
vn -0.999787 0.0206389 0
vn -0.999787 -0.0206389 0
vn -0.996938 -0.07819 0
vn -0.992868 -0.119216 0
vn -0.988707 -0.149861 0
vn -0.984685 -0.174345 0
vn -0.974399 -0.224824 0
vn -0.964291 -0.264845 0
vn -0.939213 -0.343334 0
vn -0.924244 -0.381802 0
vn -0.889674 -0.456597 0
vn -0.870073 -0.492923 0
vn -0.826538 -0.562881 0
vn -0.802604 -0.596512 0
vn 0 0 1
vn 1.44709e-16 -1 0
vn 1 0 0
vn -2.81997e-16 1 0
vn 0 -1 0
vn -1.44709e-16 1 0
vn 0.998488 -0.0549652 0
vn 0.999229 -0.0392684 0
vn 0.999969 -0.00785716 0
vn 0.999969 0.00785716 0
vn 0.999229 0.0392684 0
vn 0.998488 0.0549652 0
vn 0.922201 0.386712 0
vn 0.886402 0.462916 0
vn 0.796969 0.60402 0
vn 0.743335 0.668919 0
vn 0.621604 0.783331 0
vn 0.553508 0.832844 0
vn 0.407137 0.913367 0
vn 0.328862 0.944378 0
vn 0.167058 0.985947 0
vn 0.0835292 0.996505 0
vn 0.0835292 -0.996505 0
vn 0.167058 -0.985947 0
vn 0.328862 -0.944378 0
vn 0.407137 -0.913367 0
vn 0.553508 -0.832844 0
vn 0.621604 -0.783331 0
vn 0.743335 -0.668919 0
vn 0.796969 -0.60402 0
vn 0.886402 -0.462916 0
vn 0.922201 -0.386712 0
vn -0.680354 -0.732884 0
vn -0.567174 -0.823598 0
vn -0.313319 -0.949648 0
vn -0.172642 -0.984985 0
vn 0.110647 -0.99386 0
vn 0.253259 -0.967398 0
vn 0.514508 -0.857486 0
vn 0.633143 -0.774035 0
vn 0.824882 -0.565306 0
vn 0.897984 -0.440028 0
vn 0.897984 0.440028 0
vn 0.824882 0.565305 0
vn 0.633143 0.774035 0
vn 0.514508 0.857486 0
vn 0.253259 0.967398 0
vn 0.110647 0.99386 0
vn -0.172642 0.984985 0
vn -0.313319 0.949648 0
vn -0.567174 0.823598 0
vn -0.680354 0.732884 0
vn 0.972327 0.233625 0
vn 0.918853 0.394601 0
vn 0.74127 0.671206 0
vn 0.617163 0.786836 0
vn 0.328703 0.944433 0
vn 0.164352 0.986402 0
vn 0.164352 -0.986402 0
vn 0.328703 -0.944433 0
vn 0.617163 -0.786836 0
vn 0.74127 -0.671206 0
vn 0.918853 -0.394601 0
vn 0.972327 -0.233625 0
vn -1 0 0
vn 0 1 0
vn -1.00163e-15 -2.65831e-16 -1

# Mesh '<STL_BINARY>' with 204 faces
g <STL_BINARY>
usemtl DefaultMaterial
f  1//1 2//1 3//1
f  3//1 2//1 4//1
f  5//1 6//1 7//1
f  7//1 8//1 5//1
f  5//1 8//1 9//1
f  5//1 9//1 10//1
f  11//1 12//1 8//1
f  7//1 11//1 8//1
f  13//1 12//1 11//1
f  14//1 11//1 7//1
f  13//1 15//1 12//1
f  16//1 15//1 13//1
f  16//1 17//1 15//1
f  18//1 17//1 16//1
f  19//1 20//1 7//1
f  7//1 20//1 21//1
f  7//1 21//1 14//1
f  19//1 22//1 20//1
f  23//1 22//1 19//1
f  19//1 24//1 25//1
f  23//1 19//1 26//1
f  26//1 19//1 25//1
f  26//1 27//1 23//1
f  28//1 27//1 26//1
f  26//1 25//1 29//1
f  29//1 25//1 30//1
f  29//1 30//1 31//1
f  31//1 30//1 32//1
f  31//1 32//1 33//1
f  33//1 32//1 34//1
f  35//1 36//1 33//1
f  35//1 33//1 37//1
f  37//1 33//1 38//1
f  33//1 34//1 38//1
f  39//1 36//1 35//1
f  28//1 40//1 27//1
f  41//1 42//1 40//1
f  41//1 40//1 28//1
f  43//1 42//1 41//1
f  10//1 9//1 44//1
f  44//1 9//1 45//1
f  44//1 45//1 46//1
f  46//1 45//1 47//1
f  46//1 47//1 48//1
f  49//1 50//1 47//1
f  47//1 50//1 51//1
f  48//1 47//1 51//1
f  48//1 51//1 52//1
f  2//2 53//2 24//2
f  24//3 53//3 54//3
f  24//4 54//4 25//4
f  25//5 54//5 55//5
f  25//6 55//6 30//6
f  30//7 55//7 56//7
f  30//8 56//8 32//8
f  32//9 56//9 57//9
f  32//10 57//10 34//10
f  34//11 57//11 58//11
f  34//12 58//12 38//12
f  2//13 1//13 53//13
f  53//14 1//14 3//14
f  53//15 3//15 59//15
f  59//16 3//16 4//16
f  59//17 4//17 60//17
f  60//18 4//18 6//18
f  6//19 5//19 60//19
f  60//20 5//20 10//20
f  60//21 10//21 61//21
f  61//22 10//22 44//22
f  61//23 44//23 62//23
f  62//24 44//24 46//24
f  62//25 46//25 63//25
f  63//26 46//26 48//26
f  63//27 48//27 64//27
f  65//28 66//28 57//28
f  55//28 67//28 65//28
f  55//28 65//28 56//28
f  56//28 65//28 57//28
f  68//28 69//28 66//28
f  66//28 69//28 70//28
f  66//28 70//28 57//28
f  71//28 72//28 68//28
f  68//28 72//28 69//28
f  73//28 74//28 71//28
f  71//28 74//28 72//28
f  57//28 70//28 75//28
f  75//28 76//28 57//28
f  57//28 76//28 77//28
f  57//28 77//28 58//28
f  78//28 79//28 77//28
f  77//28 79//28 80//28
f  58//28 77//28 80//28
f  58//28 80//28 81//28
f  54//28 67//28 55//28
f  54//28 53//28 67//28
f  67//28 53//28 59//28
f  67//28 59//28 82//28
f  82//28 59//28 60//28
f  61//28 83//28 82//28
f  82//28 60//28 61//28
f  62//28 83//28 61//28
f  62//28 84//28 83//28
f  63//28 84//28 62//28
f  85//28 86//28 84//28
f  63//28 85//28 84//28
f  63//28 87//28 88//28
f  88//28 85//28 63//28
f  87//28 63//28 89//28
f  89//28 63//28 64//28
f  90//28 86//28 85//28
f  90//28 91//28 86//28
f  92//28 91//28 90//28
f  92//28 93//28 91//28
f  94//28 93//28 92//28
f  64//28 95//28 96//28
f  89//28 64//28 97//28
f  97//28 64//28 96//28
f  97//28 96//28 98//28
f  40//29 42//29 71//29
f  71//29 42//29 73//29
f  42//30 43//30 73//30
f  73//30 43//30 74//30
f  43//31 41//31 74//31
f  74//31 41//31 72//31
f  15//32 17//32 92//32
f  92//32 17//32 94//32
f  17//30 18//30 94//30
f  94//30 18//30 93//30
f  91//33 93//33 16//33
f  16//33 93//33 18//33
f  22//34 65//34 67//34
f  22//35 67//35 20//35
f  20//36 67//36 82//36
f  20//37 82//37 21//37
f  21//38 82//38 83//38
f  21//39 83//39 14//39
f  33//40 77//40 76//40
f  33//41 76//41 31//41
f  31//42 76//42 75//42
f  31//43 75//43 29//43
f  29//44 75//44 70//44
f  29//45 70//45 26//45
f  26//46 70//46 69//46
f  26//47 69//47 28//47
f  28//48 69//48 72//48
f  28//49 72//49 41//49
f  15//50 92//50 90//50
f  15//51 90//51 12//51
f  12//52 90//52 85//52
f  12//53 85//53 8//53
f  8//54 85//54 88//54
f  8//55 88//55 9//55
f  9//56 88//56 87//56
f  9//57 87//57 45//57
f  45//58 87//58 89//58
f  45//59 89//59 47//59
f  64//60 48//60 52//60
f  64//61 52//61 95//61
f  95//62 52//62 51//62
f  95//63 51//63 96//63
f  96//64 51//64 50//64
f  96//65 50//65 98//65
f  98//66 50//66 49//66
f  98//67 49//67 97//67
f  97//68 49//68 47//68
f  97//69 47//69 89//69
f  77//70 33//70 36//70
f  77//71 36//71 78//71
f  78//72 36//72 39//72
f  78//73 39//73 79//73
f  79//74 39//74 35//74
f  79//75 35//75 80//75
f  80//76 35//76 37//76
f  80//77 37//77 81//77
f  81//78 37//78 38//78
f  81//79 38//79 58//79
f  14//80 83//80 84//80
f  14//81 84//81 11//81
f  11//82 84//82 86//82
f  11//83 86//83 13//83
f  13//84 86//84 91//84
f  13//85 91//85 16//85
f  40//86 71//86 68//86
f  40//87 68//87 27//87
f  27//88 68//88 66//88
f  27//89 66//89 23//89
f  23//90 66//90 65//90
f  23//91 65//91 22//91
f  6//28 4//28 99//28
f  2//28 24//28 100//28
f  100//92 101//92 2//92
f  2//92 101//92 102//92
f  2//92 102//92 4//92
f  4//92 102//92 99//92
f  99//32 102//32 6//32
f  6//32 102//32 103//32
f  6//32 103//32 7//32
f  103//30 104//30 7//30
f  7//30 104//30 19//30
f  19//93 104//93 24//93
f  24//93 104//93 101//93
f  24//93 101//93 100//93
f  102//94 101//94 103//94
f  103//94 101//94 104//94

