# File produced by Open Asset Import Library (http://www.assimp.sf.net)
# (assimp v3.1.187496374)

mtllib 440ECI_extented_chassis_collision.obj.mtl

# 199 vertex positions
v  -0.361496 -0.404429 -0.143634
v  -0.350076 -0.392589 -0.157178
v  -0.335352 -0.384652 -0.166257
v  -0.209153 -0.403796 -0.144358
v  -0.370168 -0.41342 -0.13335
v  -0.323545 -0.378287 -0.173537
v  -0.302981 -0.373985 -0.178458
v  -0.293233 -0.371946 -0.18079
v  -0.268334 -0.373753 -0.178723
v  -0.201332 -0.41342 -0.13335
v  -0.235644 -0.384019 -0.16698
v  -0.209999 -0.402755 -0.14555
v  -0.262171 -0.3742 -0.178212
v  -0.233469 -0.384824 -0.166059
v  -0.370168 -0.42331 -0.13335
v  -0.201332 -0.42331 -0.13335
v  -0.376824 -0.42331 -0.0449659
v  -0.384216 -0.42331 -0.0791393
v  -0.194676 -0.42331 -0.0449659
v  -0.379207 -0.42331 -0.113742
v  -0.187284 -0.42331 -0.0791393
v  -0.192293 -0.42331 -0.113742
v  -0.194676 -0.41119 -0.0449659
v  -0.376824 -0.41119 -0.0449659
v  -0.194676 0.42331 -0.0449659
v  -0.376824 0.42331 -0.0449659
v  -0.194676 0.41119 -0.0449659
v  -0.376824 0.41119 -0.0449659
v  -0.384216 0.42331 -0.0791393
v  -0.379207 0.42331 -0.113742
v  -0.192293 0.42331 -0.113742
v  -0.370168 0.42331 -0.13335
v  -0.187284 0.42331 -0.0791393
v  -0.201332 0.42331 -0.13335
v  -0.201332 0.41342 -0.13335
v  -0.370168 0.41342 -0.13335
v  -0.362347 0.403796 -0.144358
v  -0.210004 0.404429 -0.143634
v  -0.221424 0.392589 -0.157178
v  -0.236148 0.384652 -0.166257
v  -0.268519 0.373985 -0.178458
v  -0.278267 0.371946 -0.18079
v  -0.303166 0.373753 -0.178723
v  -0.309329 0.3742 -0.178212
v  -0.335856 0.384019 -0.16698
v  -0.361501 0.402755 -0.14555
v  -0.247955 0.378287 -0.173537
v  -0.338031 0.384824 -0.166059
v  -0.498335 -0.183425 -0.0441502
v  -0.498335 -0.183425 -0.0641501
v  0.498361 -0.183425 -0.0441502
v  0.498361 -0.183425 -0.0641501
v  0.498361 -0.3382 -0.0441502
v  -0.498335 -0.3382 -0.0441502
v  0.498361 -0.3382 -0.0450487
v  0.37685 -0.3382 -0.0450285
v  1.27e-05 -0.3382 -0.0449659
v  -0.194676 -0.3382 -0.0449659
v  0.194701 -0.3382 -0.0449982
v  0.384057 -0.3382 -0.0757663
v  0.381171 -0.3382 -0.107205
v  0.36849 -0.3382 -0.136118
v  0.347314 -0.3382 -0.159535
v  0.319819 -0.3382 -0.175051
v  0.288828 -0.3382 -0.181075
v  0.282711 -0.3382 -0.181075
v  0.251714 -0.3382 -0.17505
v  0.187484 -0.3382 -0.075739
v  0.224216 -0.3382 -0.159528
v  0.190362 -0.3382 -0.107184
v  0.20304 -0.3382 -0.136104
v  -0.376824 -0.3382 -0.0449659
v  -0.498335 -0.3382 -0.0449659
v  -0.384216 -0.3382 -0.0791393
v  -0.209072 -0.3382 -0.144417
v  -0.187284 -0.3382 -0.0791393
v  -0.379207 -0.3382 -0.113742
v  -0.362428 -0.3382 -0.144417
v  -0.192293 -0.3382 -0.113742
v  -0.235506 -0.3382 -0.167301
v  -0.268268 -0.3382 -0.179511
v  -0.335994 -0.3382 -0.167301
v  -0.303232 -0.3382 -0.179511
v  0.282711 -0.371697 -0.181075
v  0.288828 -0.371697 -0.181075
v  0.319436 -0.37684 -0.175192
v  0.319789 -0.377012 -0.174996
v  0.203396 -0.411268 -0.135812
v  0.201322 -0.41342 -0.13335
v  0.346675 -0.390085 -0.160042
v  0.221401 -0.392579 -0.157189
v  0.224487 -0.390913 -0.159094
v  0.251846 -0.377441 -0.174504
v  0.278231 -0.371908 -0.180833
v  0.247923 -0.378264 -0.173563
v  0.347223 -0.390604 -0.159448
v  0.367818 -0.410106 -0.137141
v  0.368473 -0.41101 -0.136107
v  0.370216 -0.41342 -0.13335
v  0.201322 -0.42331 -0.13335
v  0.370216 -0.42331 -0.13335
v  0.381171 -0.42331 -0.107205
v  0.384057 -0.42331 -0.0757663
v  0.37685 -0.42331 -0.0450285
v  0.194701 -0.42331 -0.0449982
v  0.190362 -0.42331 -0.107184
v  0.187484 -0.42331 -0.075739
v  0.498361 -0.42331 -0.0450487
v  0.498361 -0.42331 -0.0449659
v  1.27e-05 -0.42331 -0.0449659
v  1.27e-05 -0.41119 -0.0449659
v  0.498361 -0.41119 -0.0449659
v  -0.498335 -0.41119 0.0407938
v  -0.498335 -0.41119 -0.0449659
v  0.498361 -0.41119 0.0407938
v  0.498361 -0.3382 0.0407938
v  -0.498335 -0.3382 0.0407938
v  0.498361 -0.3382 0.0574499
v  -0.498335 -0.3382 0.0574499
v  0.498361 -0.183425 0.0574499
v  -0.498335 -0.183425 0.0574499
v  0.498361 -0.183425 0.271724
v  -0.498335 -0.183425 0.271724
v  0.498361 0.183425 0.271724
v  -0.498335 0.183425 0.271724
v  0.498361 0.183425 0.0574499
v  -0.498335 0.183425 0.0574499
v  0.498361 0.3382 0.0574499
v  -0.498335 0.3382 0.0574499
v  0.498361 0.3382 0.0407938
v  -0.498335 0.3382 0.0407938
v  0.498361 0.41119 0.0407938
v  -0.498335 0.41119 0.0407938
v  -0.498335 0.41119 -0.0449659
v  1.27e-05 0.41119 -0.0449659
v  0.498361 0.41119 -0.0449659
v  1.36002e-05 0.41119 -0.0449659
v  1.36268e-05 0.42331 -0.0449659
v  0.498361 0.42331 -0.0449659
v  0.194701 0.42331 -0.0449982
v  0.37685 0.42331 -0.0450285
v  0.384057 0.42331 -0.0757663
v  0.381171 0.42331 -0.107205
v  0.187484 0.42331 -0.075739
v  0.190362 0.42331 -0.107184
v  0.498361 0.42331 -0.0450487
v  0.201322 0.42331 -0.13335
v  0.370216 0.42331 -0.13335
v  0.370216 0.41342 -0.13335
v  0.201322 0.41342 -0.13335
v  0.20372 0.410106 -0.137141
v  0.203057 0.411022 -0.136093
v  0.319687 0.37744 -0.174506
v  0.224308 0.390611 -0.15944
v  0.323616 0.378264 -0.173563
v  0.347042 0.390908 -0.1591
v  0.293307 0.371908 -0.180833
v  0.251745 0.377014 -0.174993
v  0.224864 0.390085 -0.160042
v  0.288828 0.371697 -0.181075
v  0.282711 0.371697 -0.181075
v  0.252102 0.37684 -0.175192
v  0.368132 0.411257 -0.135824
v  0.350137 0.392579 -0.157189
v  0.288828 0.3382 -0.181075
v  0.282711 0.3382 -0.181075
v  0.498361 0.3382 -0.0450487
v  0.498361 0.3382 -0.0441502
v  0.37685 0.3382 -0.0450285
v  -0.498335 0.3382 -0.0441502
v  0.384057 0.3382 -0.0757663
v  0.194701 0.3382 -0.0449982
v  -0.498335 0.3382 -0.0449659
v  -0.376824 0.3382 -0.0449659
v  -0.194676 0.3382 -0.0449659
v  1.27e-05 0.3382 -0.0449659
v  -0.384216 0.3382 -0.0791393
v  -0.187284 0.3382 -0.0791393
v  -0.192293 0.3382 -0.113742
v  -0.209072 0.3382 -0.144417
v  -0.235506 0.3382 -0.167301
v  -0.268268 0.3382 -0.179511
v  -0.303232 0.3382 -0.179511
v  -0.335994 0.3382 -0.167301
v  -0.379207 0.3382 -0.113742
v  -0.362428 0.3382 -0.144417
v  0.187484 0.3382 -0.075739
v  0.190362 0.3382 -0.107184
v  0.20304 0.3382 -0.136104
v  0.224216 0.3382 -0.159528
v  0.251714 0.3382 -0.17505
v  0.319819 0.3382 -0.175051
v  0.347314 0.3382 -0.159535
v  0.36849 0.3382 -0.136118
v  0.381171 0.3382 -0.107205
v  0.498361 0.183425 -0.0441502
v  -0.498335 0.183425 -0.0441502
v  -0.498335 0.183425 -0.0641501
v  0.498361 0.183425 -0.0641501

# 0 UV coordinates

# 146 vertex normals
vn 0 -0.752857 -0.658185
vn 0 3.63784e-10 -1
vn 0 -1 -3.63782e-10
vn 0 -3.63781e-10 1
vn 0 0 1
vn 0 1 0
vn 0 0 -1
vn 0 0.752857 -0.658185
vn 0 -1 -3.63787e-10
vn 0 3.63782e-10 -1
vn 0 1 3.63784e-10
vn 0 3.63783e-10 -1
vn 0 -1 -3.63782e-10
vn 0 -3.63783e-10 1
vn 0 -1 -3.63783e-10
vn 0 -3.63782e-10 1
vn 0 -1 -3.63782e-10
vn 0 -1.79329e-16 1
vn 0 1 -3.33278e-15
vn 0 9.50664e-17 1
vn 0 -1 8.10828e-16
vn 0 -8.96643e-17 -1
vn 0 1 -5.55112e-15
vn 0 3.63782e-10 -1
vn -1 3.00409e-17 -2.94044e-16
vn 1 1.61387e-16 3.3216e-16
vn -0.000166166 3.63782e-10 -1
vn 0.13612 3.60396e-10 -0.990692
vn 0.242194 3.52952e-10 -0.970228
vn 0.535471 3.07233e-10 -0.844553
vn 0.441236 3.26455e-10 -0.897391
vn 0.344273 3.41544e-10 -0.93887
vn 0.774235 2.30237e-10 -0.632899
vn 0.701437 2.59279e-10 -0.712731
vn 0.622463 2.84714e-10 -0.782649
vn 0.897691 1.60292e-10 -0.440626
vn 0.845536 1.9423e-10 -0.533919
vn 0.837335 1.98876e-10 -0.54669
vn 0.959841 -1.02056e-10 0.280543
vn 0.984508 -6.37864e-11 0.175342
vn 0.999298 1.36272e-11 -0.0374598
vn 0.989423 5.27707e-11 -0.145061
vn 0.939928 1.24185e-10 -0.341372
vn 0.902519 1.56663e-10 -0.430651
vn 0.549445 3.03951e-10 -0.83553
vn 0.892822 1.63851e-10 -0.45041
vn 0.897769 1.60234e-10 -0.440466
vn 0.704534 2.58166e-10 -0.709671
vn 0.713347 2.54943e-10 -0.700811
vn 0.784654 2.25521e-10 -0.619934
vn 0.456312 3.23701e-10 -0.88982
vn 0.443912 3.25974e-10 -0.896071
vn 0.2583 3.51437e-10 -0.966065
vn 0.152588 3.59522e-10 -0.98829
vn 0.0462084 3.63394e-10 -0.998932
vn 0.984508 -6.37864e-11 0.175342
vn 0.999298 1.36272e-11 -0.0374598
vn 0.989423 5.27707e-11 -0.145061
vn 0.902519 1.56663e-10 -0.430651
vn -0.90255 1.56639e-10 -0.430585
vn -0.897748 1.6025e-10 -0.44051
vn -0.13612 3.60396e-10 -0.990692
vn -0.242212 3.5295e-10 -0.970223
vn -0.535518 3.07223e-10 -0.844524
vn -0.441269 3.26449e-10 -0.897375
vn -0.344307 3.41539e-10 -0.938857
vn -0.845595 1.94196e-10 -0.533825
vn -0.837396 1.98842e-10 -0.546597
vn -0.774293 2.30211e-10 -0.632827
vn -0.70149 2.5926e-10 -0.71268
vn -0.62252 2.84697e-10 -0.782604
vn -0.939979 1.24134e-10 -0.341232
vn -0.989457 5.26843e-11 -0.144824
vn -0.999308 1.35332e-11 -0.0372013
vn -0.984456 -6.38921e-11 0.175633
vn -0.959753 -1.02166e-10 0.280844
vn 7.1282e-17 3.63782e-10 -1
vn 0 3.63782e-10 -1
vn 0.962957 -9.80951e-11 0.269653
vn 0.962957 -9.80951e-11 0.269653
vn -0.892177 1.64315e-10 -0.451685
vn 0.60791 2.88845e-10 -0.794006
vn 0.870631 1.78958e-10 -0.491937
vn 0.847011 1.93378e-10 -0.531576
vn 0.739203 2.45001e-10 -0.673483
vn 0.653906 2.75229e-10 -0.756576
vn -0.0602489 3.63121e-10 -0.998183
vn 0.0253485 3.63665e-10 -0.999679
vn 0.143569 3.60013e-10 -0.98964
vn 0.2922 3.47906e-10 -0.956357
vn 0.360685 3.39295e-10 -0.932688
vn 0.468827 3.21325e-10 -0.88329
vn -0.775135 2.29836e-10 -0.631795
vn -0.700804 2.59505e-10 -0.713354
vn -0.614401 2.87022e-10 -0.788994
vn -0.517019 3.11388e-10 -0.855974
vn -0.404966 3.32618e-10 -0.914332
vn -0.312816 3.45525e-10 -0.949814
vn -0.198404 3.5655e-10 -0.98012
vn 0.988321 -5.54345e-11 0.152384
vn 0.996497 3.04229e-11 -0.0836296
vn 0.979308 7.36198e-11 -0.202373
vn 0.922921 1.40053e-10 -0.38499
vn 0.892177 1.64315e-10 -0.451685
vn -0.962957 -9.80951e-11 0.269653
vn -0.806127 2.15265e-10 -0.591743
vn -0.870591 1.78984e-10 -0.492008
vn -0.922921 1.40052e-10 -0.38499
vn -0.979308 7.36198e-11 -0.202373
vn -0.996497 3.04229e-11 -0.0836296
vn -0.988321 -5.54345e-11 0.152384
vn 0.198404 3.5655e-10 -0.98012
vn -0.60791 2.88846e-10 -0.794006
vn -0.870631 1.78958e-10 -0.491937
vn -0.847011 1.93378e-10 -0.531576
vn -0.739203 2.45001e-10 -0.673483
vn -0.653906 2.75229e-10 -0.756576
vn 0.0602489 3.63121e-10 -0.998183
vn -0.0253485 3.63665e-10 -0.999679
vn -0.143569 3.60013e-10 -0.98964
vn -0.2922 3.47906e-10 -0.956357
vn -0.360685 3.39295e-10 -0.932688
vn -0.468827 3.21325e-10 -0.88329
vn 0.312816 3.45525e-10 -0.949814
vn 0.404966 3.32618e-10 -0.914332
vn 0.517019 3.11388e-10 -0.855974
vn 0.614401 2.87022e-10 -0.788994
vn 0.700804 2.59506e-10 -0.713354
vn 0.892177 1.64315e-10 -0.451685
vn 0.922921 1.40052e-10 -0.38499
vn 0.870591 1.78984e-10 -0.492008
vn 0.806127 2.15266e-10 -0.591743
vn 0.775135 2.29836e-10 -0.631795
vn -0.549507 3.03936e-10 -0.835489
vn -0.892904 1.63792e-10 -0.450246
vn -0.897825 1.60192e-10 -0.440351
vn -0.704625 2.58133e-10 -0.70958
vn -0.713411 2.54919e-10 -0.700746
vn -0.784723 2.25489e-10 -0.619847
vn -0.456361 3.23691e-10 -0.889795
vn -0.443977 3.25963e-10 -0.896038
vn -0.258336 3.51433e-10 -0.966055
vn -0.152606 3.59521e-10 -0.988287
vn -0.0462085 3.63393e-10 -0.998932
vn -0.999308 1.35331e-11 -0.0372012
vn -0.984456 -6.38921e-11 0.175633

# Mesh '<STL_BINARY>' with 394 faces
g <STL_BINARY>
usemtl DefaultMaterial
f  1//1 2//1 3//1
f  4//1 5//1 1//1
f  1//1 3//1 4//1
f  4//1 3//1 6//1
f  4//1 6//1 7//1
f  8//1 4//1 7//1
f  9//1 4//1 8//1
f  10//1 5//1 4//1
f  4//1 11//1 12//1
f  9//1 11//1 4//1
f  13//1 11//1 9//1
f  12//1 11//1 14//1
f  5//2 10//2 15//2
f  15//2 10//2 16//2
f  17//3 18//3 19//3
f  19//3 18//3 20//3
f  21//3 19//3 22//3
f  22//3 19//3 20//3
f  22//3 20//3 16//3
f  16//3 20//3 15//3
f  23//4 24//4 19//4
f  19//4 24//4 17//4
f  25//5 26//5 27//5
f  27//5 26//5 28//5
f  29//6 26//6 30//6
f  30//6 26//6 25//6
f  31//6 32//6 30//6
f  31//6 30//6 33//6
f  33//6 30//6 25//6
f  34//6 32//6 31//6
f  35//7 36//7 34//7
f  34//7 36//7 32//7
f  37//8 36//8 35//8
f  35//8 38//8 37//8
f  37//8 38//8 39//8
f  37//8 39//8 40//8
f  40//8 41//8 37//8
f  37//8 41//8 42//8
f  37//8 42//8 43//8
f  43//8 44//8 37//8
f  37//8 44//8 45//8
f  37//8 45//8 46//8
f  40//8 47//8 41//8
f  46//8 45//8 48//8
f  49//9 50//9 51//9
f  51//9 50//9 52//9
f  51//10 53//10 49//10
f  49//10 53//10 54//10
f  53//11 55//11 56//11
f  57//11 58//11 53//11
f  57//11 53//11 59//11
f  59//11 53//11 56//11
f  58//11 54//11 53//11
f  59//11 56//11 60//11
f  60//11 61//11 59//11
f  59//11 61//11 62//11
f  59//11 62//11 63//11
f  64//11 59//11 63//11
f  64//11 65//11 59//11
f  66//11 59//11 65//11
f  67//11 59//11 66//11
f  67//11 68//11 59//11
f  69//11 68//11 67//11
f  69//11 70//11 68//11
f  71//11 70//11 69//11
f  72//11 73//11 54//11
f  58//11 72//11 54//11
f  74//11 72//11 75//11
f  76//11 75//11 72//11
f  76//11 72//11 58//11
f  74//11 75//11 77//11
f  75//11 78//11 77//11
f  79//11 75//11 76//11
f  75//11 80//11 81//11
f  81//11 82//11 75//11
f  75//11 82//11 78//11
f  81//11 83//11 82//11
f  66//12 65//12 84//12
f  84//12 65//12 85//12
f  85//1 86//1 87//1
f  84//1 85//1 88//1
f  88//1 85//1 87//1
f  88//1 87//1 89//1
f  89//1 87//1 90//1
f  88//1 91//1 92//1
f  92//1 93//1 88//1
f  88//1 93//1 94//1
f  88//1 94//1 84//1
f  92//1 95//1 93//1
f  89//1 90//1 96//1
f  96//1 97//1 89//1
f  89//1 97//1 98//1
f  89//1 98//1 99//1
f  89//2 99//2 100//2
f  100//2 99//2 101//2
f  102//3 103//3 104//3
f  102//3 104//3 105//3
f  106//3 101//3 102//3
f  106//3 102//3 107//3
f  107//3 102//3 105//3
f  104//3 108//3 109//3
f  105//3 104//3 109//3
f  105//3 109//3 110//3
f  100//3 101//3 106//3
f  110//4 109//4 111//4
f  111//4 109//4 112//4
f  113//13 114//13 24//13
f  111//13 115//13 113//13
f  111//13 113//13 23//13
f  23//13 113//13 24//13
f  112//13 115//13 111//13
f  115//14 116//14 113//14
f  113//14 116//14 117//14
f  116//15 118//15 117//15
f  117//15 118//15 119//15
f  118//16 120//16 119//16
f  119//16 120//16 121//16
f  120//17 122//17 121//17
f  121//17 122//17 123//17
f  122//5 124//5 123//5
f  123//5 124//5 125//5
f  124//6 126//6 125//6
f  125//6 126//6 127//6
f  126//18 128//18 127//18
f  127//18 128//18 129//18
f  128//19 130//19 129//19
f  129//19 130//19 131//19
f  130//20 132//20 131//20
f  131//20 132//20 133//20
f  28//6 134//6 133//6
f  133//6 27//6 28//6
f  132//6 135//6 133//6
f  133//6 135//6 27//6
f  136//6 137//6 132//6
f  132//6 137//6 135//6
f  137//5 136//5 138//5
f  138//5 136//5 139//5
f  140//6 138//6 139//6
f  139//6 141//6 140//6
f  140//6 141//6 142//6
f  140//6 142//6 143//6
f  144//6 140//6 145//6
f  145//6 140//6 143//6
f  139//6 146//6 141//6
f  145//6 143//6 147//6
f  147//6 143//6 148//6
f  149//7 150//7 148//7
f  148//7 150//7 147//7
f  151//8 152//8 153//8
f  153//8 154//8 151//8
f  155//8 153//8 156//8
f  156//8 153//8 152//8
f  157//8 158//8 153//8
f  153//8 158//8 154//8
f  158//8 159//8 154//8
f  157//8 160//8 158//8
f  158//8 160//8 161//8
f  158//8 161//8 162//8
f  150//8 149//8 152//8
f  152//8 149//8 163//8
f  156//8 152//8 164//8
f  164//8 152//8 163//8
f  165//7 166//7 160//7
f  160//7 166//7 161//7
f  167//21 168//21 169//21
f  169//21 168//21 170//21
f  171//21 169//21 172//21
f  172//21 169//21 170//21
f  170//21 173//21 174//21
f  174//21 175//21 170//21
f  172//21 170//21 176//21
f  176//21 170//21 175//21
f  177//21 178//21 174//21
f  174//21 178//21 175//21
f  177//21 179//21 178//21
f  180//21 179//21 177//21
f  177//21 181//21 180//21
f  182//21 181//21 183//21
f  183//21 181//21 177//21
f  183//21 177//21 184//21
f  177//21 185//21 186//21
f  184//21 177//21 186//21
f  187//21 188//21 172//21
f  172//21 188//21 189//21
f  189//21 190//21 172//21
f  172//21 190//21 191//21
f  172//21 191//21 166//21
f  166//21 165//21 172//21
f  172//21 165//21 192//21
f  172//21 192//21 193//21
f  193//21 194//21 172//21
f  172//21 194//21 195//21
f  172//21 195//21 171//21
f  168//22 196//22 170//22
f  170//22 196//22 197//22
f  197//23 196//23 198//23
f  198//23 196//23 199//23
f  50//24 198//24 52//24
f  52//24 198//24 199//24
f  73//25 114//25 54//25
f  54//25 114//25 113//25
f  54//25 113//25 49//25
f  113//25 117//25 49//25
f  131//25 50//25 49//25
f  49//25 117//25 121//25
f  49//25 121//25 131//25
f  117//25 119//25 121//25
f  123//25 125//25 121//25
f  121//25 125//25 127//25
f  131//25 121//25 127//25
f  131//25 127//25 129//25
f  133//25 170//25 131//25
f  131//25 170//25 197//25
f  131//25 197//25 50//25
f  50//25 197//25 198//25
f  133//25 173//25 170//25
f  134//25 173//25 133//25
f  146//26 139//26 136//26
f  136//26 167//26 146//26
f  132//26 168//26 136//26
f  136//26 168//26 167//26
f  196//26 168//26 132//26
f  132//26 130//26 196//26
f  116//26 199//26 196//26
f  196//26 130//26 126//26
f  196//26 126//26 116//26
f  130//26 128//26 126//26
f  124//26 122//26 126//26
f  126//26 122//26 120//26
f  116//26 126//26 120//26
f  116//26 120//26 118//26
f  115//26 53//26 116//26
f  116//26 53//26 51//26
f  116//26 51//26 199//26
f  199//26 51//26 52//26
f  115//26 55//26 53//26
f  112//26 55//26 115//26
f  112//26 108//26 55//26
f  109//26 108//26 112//26
f  104//27 56//27 108//27
f  108//27 56//27 55//27
f  85//28 65//28 86//28
f  86//29 65//29 64//29
f  63//30 90//30 64//30
f  64//31 90//31 87//31
f  64//32 87//32 86//32
f  62//33 97//33 63//33
f  63//34 97//34 96//34
f  63//35 96//35 90//35
f  61//36 99//36 62//36
f  62//37 99//37 98//37
f  62//38 98//38 97//38
f  56//39 104//39 103//39
f  56//40 103//40 60//40
f  60//41 103//41 102//41
f  60//42 102//42 61//42
f  61//43 102//43 101//43
f  61//44 101//44 99//44
f  146//27 167//27 141//27
f  141//27 167//27 169//27
f  155//45 156//45 193//45
f  194//46 163//46 195//46
f  195//47 163//47 149//47
f  193//48 156//48 194//48
f  194//49 156//49 164//49
f  194//50 164//50 163//50
f  155//51 193//51 153//51
f  153//52 193//52 192//52
f  153//53 192//53 157//53
f  157//54 192//54 165//54
f  157//55 165//55 160//55
f  141//39 169//39 171//39
f  141//56 171//56 142//56
f  142//57 171//57 195//57
f  142//58 195//58 143//58
f  143//43 195//43 149//43
f  143//59 149//59 148//59
f  147//60 150//60 188//60
f  188//61 150//61 189//61
f  161//62 166//62 162//62
f  162//63 166//63 191//63
f  190//64 159//64 191//64
f  191//65 159//65 158//65
f  191//66 158//66 162//66
f  150//67 152//67 189//67
f  189//68 152//68 151//68
f  189//69 151//69 190//69
f  190//70 151//70 154//70
f  190//71 154//71 159//71
f  147//72 188//72 145//72
f  145//73 188//73 187//73
f  145//74 187//74 144//74
f  144//75 187//75 172//75
f  144//76 172//76 140//76
f  138//27 140//27 137//27
f  137//27 140//27 172//27
f  137//27 172//27 135//27
f  135//27 172//27 176//27
f  175//77 27//77 176//77
f  176//77 27//77 135//77
f  173//78 134//78 174//78
f  174//78 134//78 28//78
f  27//79 175//79 178//79
f  33//80 25//80 27//79
f  30//81 32//81 36//81
f  180//82 181//82 40//82
f  35//83 179//83 38//83
f  38//84 179//84 180//84
f  38//85 180//85 39//85
f  39//86 180//86 40//86
f  182//87 183//87 43//87
f  43//88 42//88 182//88
f  182//89 42//89 41//89
f  182//90 41//90 181//90
f  181//91 41//91 47//91
f  181//92 47//92 40//92
f  37//93 46//93 186//93
f  186//94 46//94 48//94
f  186//95 48//95 184//95
f  184//96 48//96 45//96
f  184//97 45//97 183//97
f  183//98 45//98 44//98
f  183//99 44//99 43//99
f  27//100 178//100 33//100
f  33//101 178//101 179//101
f  33//102 179//102 31//102
f  31//103 179//103 35//103
f  31//104 35//104 34//104
f  177//105 174//105 28//105
f  29//105 28//105 26//105
f  37//106 186//106 36//106
f  36//107 186//107 185//107
f  36//108 185//108 30//108
f  30//109 185//109 177//109
f  30//110 177//110 29//110
f  29//111 177//111 28//111
f  72//78 24//78 73//78
f  73//78 24//78 114//78
f  23//77 58//77 111//77
f  111//77 58//77 57//77
f  57//27 59//27 111//27
f  111//27 59//27 105//27
f  111//27 105//27 110//27
f  23//79 19//79 21//79
f  76//80 58//80 23//79
f  13//112 9//112 81//112
f  5//81 15//81 20//81
f  78//113 82//113 3//113
f  5//114 77//114 1//114
f  1//115 77//115 78//115
f  1//116 78//116 2//116
f  2//117 78//117 3//117
f  81//118 9//118 83//118
f  9//119 8//119 83//119
f  83//120 8//120 7//120
f  83//121 7//121 82//121
f  82//122 7//122 6//122
f  82//123 6//123 3//123
f  13//124 81//124 11//124
f  11//125 81//125 80//125
f  11//126 80//126 14//126
f  14//127 80//127 75//127
f  14//128 75//128 12//128
f  22//129 16//129 10//129
f  23//100 21//100 76//100
f  76//101 21//101 22//101
f  76//102 22//102 79//102
f  79//130 22//130 10//130
f  79//131 10//131 75//131
f  75//132 10//132 4//132
f  75//133 4//133 12//133
f  18//105 17//105 24//105
f  74//105 24//105 72//105
f  5//108 20//108 77//108
f  77//109 20//109 18//109
f  77//110 18//110 74//110
f  74//111 18//111 24//111
f  95//134 92//134 69//134
f  89//60 100//60 106//60
f  71//135 88//135 70//135
f  70//136 88//136 89//136
f  69//137 92//137 71//137
f  71//138 92//138 91//138
f  71//139 91//139 88//139
f  95//140 69//140 93//140
f  93//141 69//141 67//141
f  93//142 67//142 94//142
f  94//143 67//143 66//143
f  94//144 66//144 84//144
f  89//72 106//72 70//72
f  70//73 106//73 107//73
f  70//145 107//145 68//145
f  68//146 107//146 105//146
f  68//76 105//76 59//76

