# File produced by Open Asset Import Library (http://www.assimp.sf.net)
# (assimp v3.1.187496374)

mtllib 440LE_hcg_collision.obj.mtl

# 176 vertex positions
v  -0.170156 -0.218777 -0.172154
v  -0.177425 -0.245651 -0.180818
v  -0.40137 -0.218777 -0.172154
v  -0.394101 -0.245651 -0.180818
v  -0.457347 0.17027 -0.0623402
v  -0.113532 0.17027 -0.0623402
v  -0.457347 -0.17027 -0.0623402
v  -0.113532 -0.17027 -0.0623402
v  -0.177425 0.245651 -0.180818
v  -0.170156 0.218777 -0.172154
v  -0.394101 0.245651 -0.180818
v  -0.40137 0.218777 -0.172154
v  -0.457347 0.245651 -0.04415
v  -0.4953 0.245651 -0.04415
v  -0.4953 0.245651 0.0406442
v  -0.140896 0.245651 -0.0623402
v  -0.43063 0.245651 -0.0623402
v  -0.457347 0.245651 -0.0623402
v  0.4953 0.245651 0.0406442
v  -0.113532 0.245651 -0.04415
v  0.457803 0.245651 -0.04415
v  0.14087 0.245651 -0.0623402
v  0.4953 0.245651 -0.04415
v  0.11444 0.245651 -0.04415
v  -0.113532 0.245651 -0.0623402
v  -0.412565 0.245651 -0.155457
v  -0.13998 0.245651 -0.0944616
v  -0.425426 0.245651 -0.126008
v  -0.431546 0.245651 -0.0944616
v  -0.158961 0.245651 -0.155457
v  -0.1461 0.245651 -0.126008
v  0.11444 0.245651 -0.0623402
v  0.430604 0.245651 -0.0623402
v  0.139954 0.245651 -0.0944616
v  0.457803 0.245651 -0.0623402
v  0.146074 0.245651 -0.126008
v  0.158935 0.245651 -0.155457
v  0.43152 0.245651 -0.0944616
v  0.412539 0.245651 -0.155457
v  0.177399 0.245651 -0.180818
v  0.4254 0.245651 -0.126008
v  0.394075 0.245651 -0.180818
v  -0.4953 0.21164 0.0406442
v  0.4953 0.21164 0.0406442
v  -0.4953 0.21164 0.05745
v  0.4953 0.21164 0.05745
v  -0.4953 -0.21164 0.05745
v  -0.486811 -0.183425 0.05745
v  -0.486811 0.183425 0.05745
v  0.48678 -0.183425 0.05745
v  0.4953 -0.21164 0.05745
v  0.48678 0.183425 0.05745
v  0.445903 0.183425 0.263724
v  -0.445934 0.183425 0.263724
v  0.445903 -0.183425 0.263724
v  -0.445934 -0.183425 0.263724
v  -0.4953 -0.21164 0.0406442
v  0.4953 -0.21164 0.0406442
v  -0.4953 -0.245651 0.0406442
v  0.4953 -0.245651 0.0406442
v  0.430604 -0.245651 -0.0623402
v  0.457803 -0.245651 -0.0623402
v  0.457803 -0.245651 -0.04415
v  0.14087 -0.245651 -0.0623402
v  0.43152 -0.245651 -0.0944616
v  0.4953 -0.245651 -0.04415
v  -0.457347 -0.245651 -0.04415
v  -0.43063 -0.245651 -0.0623402
v  0.11444 -0.245651 -0.04415
v  -0.113532 -0.245651 -0.04415
v  -0.4953 -0.245651 -0.04415
v  -0.457347 -0.245651 -0.0623402
v  -0.140896 -0.245651 -0.0623402
v  -0.431546 -0.245651 -0.0944616
v  -0.113532 -0.245651 -0.0623402
v  -0.425426 -0.245651 -0.126008
v  -0.412565 -0.245651 -0.155457
v  -0.13998 -0.245651 -0.0944616
v  -0.158961 -0.245651 -0.155457
v  -0.1461 -0.245651 -0.126008
v  0.11444 -0.245651 -0.0623402
v  0.412539 -0.245651 -0.155457
v  0.139954 -0.245651 -0.0944616
v  0.4254 -0.245651 -0.126008
v  0.158935 -0.245651 -0.155457
v  0.394075 -0.245651 -0.180818
v  0.146074 -0.245651 -0.126008
v  0.177399 -0.245651 -0.180818
v  0.401344 -0.218777 -0.172154
v  0.17013 -0.218777 -0.172154
v  -0.43063 -0.218777 -0.0623402
v  -0.457347 -0.218777 -0.0623402
v  -0.457347 -0.218777 -0.04415
v  -0.431546 -0.218777 -0.0944616
v  -0.140896 -0.218777 -0.0623402
v  -0.113532 -0.218777 -0.04415
v  -0.4953 -0.218777 -0.0437092
v  -0.4953 -0.218777 -0.04415
v  -0.425426 -0.218777 -0.126008
v  -0.113532 -0.218777 -0.0623402
v  -0.412565 -0.218777 -0.155457
v  -0.13998 -0.218777 -0.0944616
v  0.4953 -0.218777 -0.0437092
v  0.11444 -0.218777 -0.04415
v  0.4953 -0.218777 -0.04415
v  0.457803 -0.218777 -0.04415
v  0.11444 -0.218777 -0.0623402
v  0.14087 -0.218777 -0.0623402
v  0.430604 -0.218777 -0.0623402
v  0.457803 -0.218777 -0.0623402
v  0.43152 -0.218777 -0.0944616
v  0.4254 -0.218777 -0.126008
v  0.412539 -0.218777 -0.155457
v  0.139954 -0.218777 -0.0944616
v  0.158935 -0.218777 -0.155457
v  0.146074 -0.218777 -0.126008
v  -0.1461 -0.218777 -0.126008
v  -0.158961 -0.218777 -0.155457
v  -0.4953 -0.17027 -0.0437092
v  0.4953 -0.17027 -0.0437092
v  0.4953 -0.17027 -0.04415
v  0.457803 -0.17027 -0.04415
v  0.457803 -0.17027 -0.0623402
v  0.11444 -0.17027 -0.04415
v  -0.4953 -0.17027 -0.04415
v  -0.457347 -0.17027 -0.04415
v  -0.113532 -0.17027 -0.04415
v  0.11444 -0.17027 -0.0623402
v  -0.113532 -0.17027 -0.0623402
v  -0.457347 -0.17027 -0.0623402
v  0.11444 0.17027 -0.0623402
v  0.457803 0.17027 -0.0623402
v  0.11444 -0.17027 -0.0623402
v  0.457803 -0.17027 -0.0623402
v  0.4953 0.17027 -0.0437092
v  0.4953 0.17027 -0.04415
v  0.457803 0.17027 -0.04415
v  0.11444 0.17027 -0.04415
v  -0.113532 0.17027 -0.04415
v  -0.4953 0.17027 -0.0437092
v  0.457803 0.17027 -0.0623402
v  0.11444 0.17027 -0.0623402
v  -0.457347 0.17027 -0.04415
v  -0.4953 0.17027 -0.04415
v  -0.113532 0.17027 -0.0623402
v  -0.457347 0.17027 -0.0623402
v  -0.4953 0.218777 -0.0437092
v  0.4953 0.218777 -0.0437092
v  -0.457347 0.218777 -0.04415
v  -0.457347 0.218777 -0.0623402
v  -0.43063 0.218777 -0.0623402
v  -0.140896 0.218777 -0.0623402
v  -0.113532 0.218777 -0.04415
v  -0.4953 0.218777 -0.04415
v  -0.113532 0.218777 -0.0623402
v  -0.13998 0.218777 -0.0944616
v  0.11444 0.218777 -0.04415
v  0.457803 0.218777 -0.04415
v  0.4953 0.218777 -0.04415
v  0.14087 0.218777 -0.0623402
v  0.430604 0.218777 -0.0623402
v  0.11444 0.218777 -0.0623402
v  0.457803 0.218777 -0.0623402
v  0.139954 0.218777 -0.0944616
v  0.146074 0.218777 -0.126008
v  0.158935 0.218777 -0.155457
v  0.43152 0.218777 -0.0944616
v  0.17013 0.218777 -0.172154
v  0.401344 0.218777 -0.172154
v  0.412539 0.218777 -0.155457
v  0.4254 0.218777 -0.126008
v  -0.1461 0.218777 -0.126008
v  -0.158961 0.218777 -0.155457
v  -0.431546 0.218777 -0.0944616
v  -0.412565 0.218777 -0.155457
v  -0.425426 0.218777 -0.126008

# 0 UV coordinates

# 34 vertex normals
vn 0 0.306854 -0.951756
vn 0 0 -1
vn -0 -0.306854 -0.951756
vn -6.99483e-18 -0.306854 -0.951756
vn 0 1 0
vn 0 0 1
vn 0 -1 0
vn -1 0 0
vn 1 0 0
vn 0.980925 0 0.194388
vn 0.980925 -1.59961e-17 0.194388
vn -0.980925 0 0.194388
vn 0.829759 0.0450843 -0.556299
vn 0.808454 0 -0.58856
vn 0.916417 0 -0.400226
vn 0.981696 0 -0.190454
vn 0.999594 0 0.028509
vn 0.999594 5.40822e-18 0.028509
vn 0.808116 -0.0289083 -0.588314
vn 0.830603 0 -0.556865
vn 0.981696 0 -0.190455
vn 0.999593 0 0.02851
vn -0.808116 0.0289078 -0.588313
vn -0.830603 0 -0.556865
vn -0.916416 -0 -0.400226
vn -0.981696 -0 -0.190454
vn -0.999593 0 0.02851
vn -0.829759 -0.0450834 -0.556299
vn -0.808454 -8.53273e-17 -0.588559
vn -0.808116 0.0289083 -0.588314
vn -0.916417 -0 -0.400226
vn -0.999593 0 0.0285095
vn -0.829759 -0.0450843 -0.556299
vn -0.808454 0 -0.58856

# Mesh '<STL_BINARY>' with 332 faces
g <STL_BINARY>
usemtl DefaultMaterial
f  1//1 2//1 3//1
f  3//1 2//1 4//1
f  5//2 6//2 7//2
f  7//2 6//2 8//2
f  9//3 10//3 11//3
f  11//3 10//3 12//4
f  13//5 14//5 15//5
f  15//5 16//5 13//5
f  13//5 16//5 17//5
f  13//5 17//5 18//5
f  19//5 20//5 15//5
f  15//5 20//5 16//5
f  21//5 22//5 19//5
f  21//5 19//5 23//5
f  22//5 24//5 19//5
f  19//5 24//5 20//5
f  20//5 25//5 16//5
f  26//5 16//5 27//5
f  26//5 28//5 16//5
f  16//5 28//5 29//5
f  16//5 29//5 17//5
f  30//5 11//5 26//5
f  30//5 26//5 31//5
f  31//5 26//5 27//5
f  9//5 11//5 30//5
f  22//5 32//5 24//5
f  33//5 34//5 22//5
f  33//5 22//5 21//5
f  21//5 35//5 33//5
f  36//5 34//5 33//5
f  36//5 33//5 37//5
f  37//5 33//5 38//5
f  39//5 40//5 37//5
f  39//5 37//5 41//5
f  37//5 38//5 41//5
f  42//5 40//5 39//5
f  15//6 43//6 19//6
f  19//6 43//6 44//6
f  43//5 45//5 44//5
f  44//5 45//5 46//5
f  47//6 48//6 49//6
f  48//6 47//6 50//6
f  50//6 47//6 51//6
f  49//6 45//6 47//6
f  52//6 46//6 49//6
f  49//6 46//6 45//6
f  50//6 51//6 52//6
f  52//6 51//6 46//6
f  53//5 52//5 54//5
f  54//5 52//5 49//5
f  55//6 53//6 56//6
f  56//6 53//6 54//6
f  50//7 55//7 48//7
f  48//7 55//7 56//7
f  47//7 57//7 51//7
f  51//7 57//7 58//7
f  57//6 59//6 58//6
f  58//6 59//6 60//6
f  61//7 62//7 63//7
f  63//7 64//7 61//7
f  64//7 65//7 61//7
f  66//7 60//7 63//7
f  63//7 60//7 64//7
f  67//7 68//7 60//7
f  67//7 60//7 59//7
f  69//7 64//7 60//7
f  69//7 60//7 70//7
f  70//7 60//7 68//7
f  59//7 71//7 67//7
f  72//7 68//7 67//7
f  70//7 68//7 73//7
f  73//7 68//7 74//7
f  73//7 75//7 70//7
f  76//7 77//7 73//7
f  73//7 74//7 76//7
f  77//7 78//7 73//7
f  4//7 2//7 77//7
f  77//7 2//7 79//7
f  79//7 80//7 77//7
f  77//7 80//7 78//7
f  81//7 64//7 69//7
f  82//7 64//7 83//7
f  82//7 84//7 64//7
f  64//7 84//7 65//7
f  85//7 86//7 82//7
f  85//7 82//7 87//7
f  87//7 82//7 83//7
f  88//7 86//7 85//7
f  89//1 86//1 90//1
f  90//1 86//1 88//1
f  91//5 92//5 93//5
f  94//5 91//5 95//5
f  91//5 93//5 95//5
f  95//5 93//5 96//5
f  97//5 96//5 93//5
f  97//5 93//5 98//5
f  94//5 95//5 99//5
f  95//5 96//5 100//5
f  99//5 95//5 101//5
f  101//5 95//5 102//5
f  103//5 104//5 96//5
f  103//5 96//5 97//5
f  103//5 105//5 106//5
f  106//5 104//5 103//5
f  107//5 104//5 108//5
f  108//5 104//5 109//5
f  106//5 109//5 104//5
f  110//5 109//5 106//5
f  109//5 111//5 108//5
f  108//5 111//5 112//5
f  108//5 112//5 113//5
f  113//5 114//5 108//5
f  89//5 90//5 113//5
f  113//5 90//5 115//5
f  115//5 116//5 113//5
f  113//5 116//5 114//5
f  101//5 102//5 117//5
f  118//5 3//5 101//5
f  118//5 101//5 117//5
f  1//5 3//5 118//5
f  97//2 119//2 103//2
f  103//2 119//2 120//2
f  121//7 120//7 122//7
f  122//7 120//7 119//7
f  123//7 122//7 124//7
f  124//7 122//7 119//7
f  119//7 125//7 126//7
f  124//7 119//7 127//7
f  127//7 119//7 126//7
f  124//7 128//7 123//7
f  127//7 126//7 129//7
f  129//7 126//7 130//7
f  131//2 132//2 133//2
f  133//2 132//2 134//2
f  135//5 136//5 137//5
f  137//5 138//5 135//5
f  135//5 138//5 139//5
f  135//5 139//5 140//5
f  141//5 142//5 137//5
f  137//5 142//5 138//5
f  140//5 139//5 143//5
f  140//5 143//5 144//5
f  145//5 146//5 139//5
f  139//5 146//5 143//5
f  140//2 147//2 135//2
f  135//2 147//2 148//2
f  149//7 150//7 151//7
f  151//7 152//7 149//7
f  149//7 152//7 153//7
f  154//7 149//7 147//7
f  147//7 149//7 153//7
f  152//7 155//7 153//7
f  151//7 156//7 152//7
f  147//7 153//7 148//7
f  148//7 153//7 157//7
f  158//7 159//7 148//7
f  148//7 157//7 158//7
f  160//7 161//7 157//7
f  160//7 157//7 162//7
f  158//7 157//7 161//7
f  158//7 161//7 163//7
f  164//7 161//7 160//7
f  164//7 165//7 161//7
f  161//7 165//7 166//7
f  161//7 166//7 167//7
f  168//7 169//7 166//7
f  166//7 169//7 170//7
f  166//7 170//7 171//7
f  167//7 166//7 171//7
f  172//7 156//7 151//7
f  151//7 173//7 172//7
f  174//7 173//7 151//7
f  175//7 10//7 173//7
f  175//7 173//7 176//7
f  176//7 173//7 174//7
f  12//7 10//7 175//7
f  42//3 169//3 40//3
f  40//3 169//3 168//3
f  14//8 154//8 147//8
f  147//8 15//8 14//8
f  140//8 43//8 147//8
f  147//8 43//8 15//8
f  144//8 125//8 140//8
f  140//8 125//8 119//8
f  119//8 47//8 140//8
f  140//8 47//8 45//8
f  140//8 45//8 43//8
f  97//8 59//8 119//8
f  59//8 57//8 119//8
f  119//8 57//8 47//8
f  98//8 71//8 97//8
f  97//8 71//8 59//8
f  66//9 105//9 103//9
f  103//9 60//9 66//9
f  120//9 58//9 103//9
f  103//9 58//9 60//9
f  120//9 121//9 136//9
f  136//9 135//9 120//9
f  120//9 135//9 58//9
f  135//9 51//9 58//9
f  148//9 19//9 135//9
f  135//9 19//9 44//9
f  135//9 44//9 51//9
f  51//9 44//9 46//9
f  148//9 23//9 19//9
f  159//9 23//9 148//9
f  55//10 50//10 53//10
f  53//10 50//10 52//11
f  48//12 56//12 49//12
f  49//12 56//12 54//12
f  170//13 169//13 42//13
f  42//14 39//14 170//14
f  170//15 39//15 41//15
f  170//15 41//15 171//15
f  171//16 41//16 38//16
f  171//16 38//16 167//16
f  167//17 38//17 33//17
f  167//17 33//17 161//18
f  21//2 23//2 158//2
f  158//2 23//2 159//2
f  35//9 21//9 163//9
f  163//9 21//9 158//9
f  33//2 35//2 161//2
f  161//2 35//2 163//2
f  137//2 136//2 122//2
f  122//2 136//2 121//2
f  141//9 137//9 123//9
f  123//9 137//9 122//9
f  66//2 63//2 105//2
f  105//2 63//2 106//2
f  63//9 62//9 106//9
f  106//9 62//9 110//9
f  62//2 61//2 110//2
f  110//2 61//2 109//2
f  82//19 86//19 89//19
f  89//20 113//20 82//20
f  82//15 113//15 112//15
f  82//15 112//15 84//15
f  84//21 112//21 111//21
f  84//21 111//21 65//21
f  65//22 111//22 109//22
f  65//22 109//22 61//22
f  14//2 13//2 154//2
f  154//2 13//2 149//2
f  13//8 18//8 149//8
f  149//8 18//8 150//8
f  26//23 11//23 12//23
f  12//24 175//24 26//24
f  26//25 175//25 176//25
f  26//25 176//25 28//25
f  28//26 176//26 174//26
f  28//26 174//26 29//26
f  29//27 174//27 151//27
f  29//27 151//27 17//27
f  18//2 17//2 150//2
f  150//2 17//2 151//2
f  144//2 143//2 125//2
f  125//2 143//2 126//2
f  143//8 146//8 126//8
f  126//8 146//8 130//8
f  101//28 3//28 4//28
f  4//29 77//29 101//29
f  101//25 77//25 76//25
f  101//25 76//25 99//25
f  99//26 76//26 74//26
f  99//26 74//26 94//26
f  94//27 74//27 68//27
f  94//27 68//27 91//27
f  67//2 71//2 93//2
f  93//2 71//2 98//2
f  72//8 67//8 92//8
f  92//8 67//8 93//8
f  68//2 72//2 91//2
f  91//2 72//2 92//2
f  173//13 10//13 9//13
f  9//14 30//14 173//14
f  173//15 30//15 31//15
f  173//15 31//15 172//15
f  172//16 31//16 27//16
f  172//16 27//16 156//16
f  156//22 27//22 16//22
f  156//22 16//22 152//22
f  37//30 40//30 168//30
f  168//24 166//24 37//24
f  37//31 166//31 165//31
f  37//31 165//31 36//31
f  36//26 165//26 164//26
f  36//26 164//26 34//26
f  34//32 164//32 160//32
f  34//32 160//32 22//32
f  32//2 22//2 162//2
f  162//2 22//2 160//2
f  24//8 32//8 157//8
f  157//8 32//8 162//8
f  20//2 24//2 153//2
f  153//2 24//2 157//2
f  25//9 20//9 155//9
f  155//9 20//9 153//9
f  16//2 25//2 152//2
f  152//2 25//2 155//2
f  138//8 142//8 124//8
f  124//8 142//8 128//8
f  139//2 138//2 127//2
f  127//2 138//2 124//2
f  145//9 139//9 129//9
f  129//9 139//9 127//9
f  75//2 73//2 100//2
f  100//2 73//2 95//2
f  70//9 75//9 96//9
f  96//9 75//9 100//9
f  69//2 70//2 104//2
f  104//2 70//2 96//2
f  81//8 69//8 107//8
f  107//8 69//8 104//8
f  64//2 81//2 108//2
f  108//2 81//2 107//2
f  79//19 2//19 1//19
f  1//20 118//20 79//20
f  79//15 118//15 117//15
f  79//15 117//15 80//15
f  80//16 117//16 102//16
f  80//16 102//16 78//16
f  78//22 102//22 95//22
f  78//22 95//22 73//22
f  115//33 90//33 88//33
f  88//34 85//34 115//34
f  115//31 85//31 87//31
f  115//31 87//31 116//31
f  116//26 87//26 83//26
f  116//26 83//26 114//26
f  114//32 83//32 64//32
f  114//32 64//32 108//32

