# File produced by Open Asset Import Library (http://www.assimp.sf.net)
# (assimp v3.1.187496374)

mtllib caster_plate_collision.obj.mtl

# 34 vertex positions
v  0.0464958 0.275884 0.0342978
v  0.0464958 0.275884 -0.0557022
v  0.0168028 0.243519 -0.0557022
v  0.0168028 0.243519 0.0342978
v  -0.00900831 0.207981 -0.0557022
v  -0.00900831 0.207981 0.0342978
v  -0.0306013 0.169733 -0.0557022
v  -0.0306013 0.169733 0.0342978
v  -0.0476948 0.129274 -0.0557022
v  -0.0476948 0.129274 0.0342978
v  -0.060066 0.0871299 -0.0557022
v  -0.060066 0.0871299 0.0342978
v  -0.0675539 0.0438506 -0.0557022
v  -0.0675539 0.0438506 0.0342978
v  -0.0700607 6.13213e-09 -0.0557022
v  -0.0700607 6.13213e-09 0.0342978
v  -0.0675539 -0.0438506 -0.0557022
v  -0.0675539 -0.0438506 0.0342978
v  -0.060066 -0.0871299 -0.0557022
v  -0.060066 -0.0871299 0.0342978
v  -0.0476948 -0.129274 -0.0557022
v  -0.0476948 -0.129274 0.0342978
v  -0.0306013 -0.169733 -0.0557022
v  -0.0306013 -0.169733 0.0342978
v  -0.00900831 -0.207981 -0.0557022
v  -0.00900831 -0.207981 0.0342978
v  0.0168028 -0.243519 -0.0557022
v  0.0168028 -0.243519 0.0342978
v  0.0464958 -0.275884 -0.0557022
v  0.0464958 -0.275884 0.0342978
v  0.105171 -0.275884 0.0342978
v  0.105171 -0.275884 -0.0557022
v  0.105171 0.275884 0.0342978
v  0.105171 0.275884 -0.0557022

# 0 UV coordinates

# 33 vertex normals
vn -0.723855 0.689952 3.60373e-16
vn -0.749615 0.661874 3.58234e-16
vn -0.797768 0.602964 3.52411e-16
vn -0.820161 0.572133 3.48726e-16
vn -0.861286 0.508121 3.39857e-16
vn -0.880019 0.474939 3.34674e-16
vn -0.913581 0.406656 3.22875e-16
vn -0.928411 0.371555 3.16261e-16
vn -0.953973 0.299893 3.01686e-16
vn -0.964706 0.263331 2.93727e-16
vn -0.981934 0.189222 2.76566e-16
vn -0.98843 0.151675 2.67366e-16
vn -0.997101 0.0760852 2.47843e-16
vn -0.999276 0.0380426 2.37521e-16
vn -0.999276 -0.0380426 2.1589e-16
vn -0.997101 -0.0760852 2.04581e-16
vn -0.98843 -0.151675 1.81124e-16
vn -0.981934 -0.189222 1.68976e-16
vn -0.964706 -0.263331 1.43998e-16
vn -0.953973 -0.299893 1.31169e-16
vn -0.928411 -0.371555 1.04996e-16
vn -0.913581 -0.406656 9.16526e-17
vn -0.880019 -0.474939 6.46257e-17
vn -0.861286 -0.508121 5.09422e-17
vn -0.820161 -0.572133 2.34134e-17
vn -0.797768 -0.602964 9.56804e-18
vn -0.749615 -0.661874 -1.81041e-17
vn -0.723855 -0.689952 -3.19308e-17
vn 4.16128e-16 -1 -2.84298e-16
vn 1 -5.69127e-17 -2.2687e-16
vn 5.69127e-17 1 2.84298e-16
vn 2.2687e-16 -2.84298e-16 1
vn -2.2687e-16 2.84298e-16 -1

# Mesh '<STL_BINARY>' with 64 faces
g <STL_BINARY>
usemtl DefaultMaterial
f  1//1 2//1 3//1
f  1//2 3//2 4//2
f  4//3 3//3 5//3
f  4//4 5//4 6//4
f  6//5 5//5 7//5
f  6//6 7//6 8//6
f  8//7 7//7 9//7
f  8//8 9//8 10//8
f  10//9 9//9 11//9
f  10//10 11//10 12//10
f  12//11 11//11 13//11
f  12//12 13//12 14//12
f  14//13 13//13 15//13
f  14//14 15//14 16//14
f  16//15 15//15 17//15
f  16//16 17//16 18//16
f  18//17 17//17 19//17
f  18//18 19//18 20//18
f  20//19 19//19 21//19
f  20//20 21//20 22//20
f  22//21 21//21 23//21
f  22//22 23//22 24//22
f  24//23 23//23 25//23
f  24//24 25//24 26//24
f  26//25 25//25 27//25
f  26//26 27//26 28//26
f  28//27 27//27 29//27
f  28//28 29//28 30//28
f  31//29 30//29 32//29
f  32//29 30//29 29//29
f  33//30 31//30 34//30
f  34//30 31//30 32//30
f  1//31 33//31 2//31
f  2//31 33//31 34//31
f  28//32 30//32 31//32
f  31//32 26//32 28//32
f  31//32 24//32 26//32
f  22//32 24//32 31//32
f  31//32 20//32 22//32
f  31//32 18//32 20//32
f  16//32 18//32 31//32
f  31//32 14//32 16//32
f  31//32 12//32 14//32
f  10//32 12//32 31//32
f  31//32 8//32 10//32
f  31//32 6//32 8//32
f  4//32 6//32 31//32
f  31//32 1//32 4//32
f  33//32 1//32 31//32
f  7//33 32//33 29//33
f  5//33 32//33 7//33
f  29//33 27//33 7//33
f  7//33 27//33 25//33
f  7//33 25//33 23//33
f  23//33 21//33 7//33
f  7//33 21//33 19//33
f  7//33 19//33 9//33
f  3//33 32//33 5//33
f  3//33 34//33 32//33
f  2//33 34//33 3//33
f  9//33 19//33 11//33
f  17//33 15//33 19//33
f  19//33 15//33 13//33
f  19//33 13//33 11//33

