# File produced by Open Asset Import Library (http://www.assimp.sf.net)
# (assimp v3.1.187496374)

mtllib RMP220_chassis_collision.obj.mtl

# 228 vertex positions
v  -0.029942 0.21175 0.177962
v  -0.0571366 0.21175 0.164619
v  -2.22154e-17 0.21175 0.18255
v  -0.0790886 0.21175 0.143746
v  -0.0937835 0.21175 0.117258
v  -0.0998732 0.21175 0.0875849
v  -0.0967987 0.21175 0.0574499
v  0.029942 0.21175 0.177962
v  0.0967987 0.21175 0.0574499
v  0.0998732 0.21175 0.0875849
v  0.0937835 0.21175 0.117258
v  0.0790886 0.21175 0.143746
v  0.0571366 0.21175 0.164619
v  0.0967987 0.29675 0.0574499
v  0.0998732 0.29675 0.0875849
v  0.0937835 0.29675 0.117258
v  0.0790886 0.29675 0.143746
v  0.0571366 0.29675 0.164619
v  0.029942 0.29675 0.177962
v  -2.22154e-17 0.29675 0.18255
v  -0.029942 0.29675 0.177962
v  -0.0571366 0.29675 0.164619
v  -0.0790886 0.29675 0.143746
v  -0.0937835 0.29675 0.117258
v  -0.0998732 0.29675 0.0875849
v  -0.0967987 0.29675 0.0574499
v  -0.0461877 0.29675 0.0138307
v  -0.0705245 0.29675 0.0138307
v  0.0735468 0.29675 -0.0375191
v  0.0627639 0.29675 -0.0420918
v  -0.0461877 0.29675 -0.0270918
v  0.0686201 0.29675 -0.0409014
v  0.122194 0.29675 0.0356367
v  0.123203 0.29675 0.0138307
v  0.125902 0.29675 0.0308322
v  0.127404 0.29675 0.0249515
v  0.126452 0.29675 0.0189572
v  -0.0311877 0.29675 -0.0420918
v  -0.0441781 0.29675 -0.0345918
v  -0.0386877 0.29675 -0.0400822
v  -0.0764784 0.29675 0.015063
v  -0.084634 0.29675 0.0237392
v  -0.081454 0.29675 0.0185571
v  -0.0967987 0.21164 0.0574499
v  0.0967987 0.21164 0.0574499
v  -0.084634 0.21164 0.0237392
v  -0.0705245 0.21164 0.0138307
v  -0.0764784 0.21164 0.015063
v  -0.081454 0.21164 0.0185571
v  -0.0461877 0.21164 0.0138307
v  -0.0461877 0.21164 -0.0270918
v  -0.0311877 0.21164 -0.0420918
v  -0.0386877 0.21164 -0.0400822
v  -0.0441781 0.21164 -0.0345918
v  0.0627639 0.21164 -0.0420918
v  0.0735468 0.21164 -0.0375191
v  0.0686201 0.21164 -0.0409014
v  0.123203 0.21164 0.0138307
v  0.122194 0.21164 0.0356367
v  0.125902 0.21164 0.0308322
v  0.127404 0.21164 0.0249515
v  0.126452 0.21164 0.0189572
v  -0.18865 0.21164 -0.0441502
v  0.18865 0.21164 -0.0441502
v  0.20955 0.21164 -0.0232503
v  0.182409 0.21164 0.0574499
v  0.20955 0.21164 0.0574499
v  0.182409 0.21164 0.59372
v  -0.182409 0.21164 0.59372
v  -0.182409 0.21164 0.0574499
v  -0.20955 0.21164 -0.0232503
v  -0.20955 0.21164 0.0574499
v  0.0967987 -0.21164 0.0574499
v  -0.0967987 -0.21164 0.0574499
v  0.0967987 -0.21175 0.0574499
v  -0.0967987 -0.21175 0.0574499
v  0.0461886 -0.21164 -0.0270918
v  0.044179 -0.21164 -0.0345918
v  0.18865 -0.21164 -0.0441502
v  0.0764794 -0.21164 0.015063
v  0.0705254 -0.21164 0.0138307
v  0.0461886 -0.21164 0.0138307
v  0.0386886 -0.21164 -0.0400822
v  0.0311886 -0.21164 -0.0420918
v  -0.0627629 -0.21164 -0.0420918
v  -0.18865 -0.21164 -0.0441502
v  -0.0686192 -0.21164 -0.0409014
v  -0.0735459 -0.21164 -0.0375191
v  -0.20955 -0.21164 -0.0232503
v  -0.123202 -0.21164 0.0138307
v  -0.182409 -0.21164 0.0574499
v  -0.20955 -0.21164 0.0574499
v  -0.126451 -0.21164 0.0189571
v  -0.127403 -0.21164 0.0249513
v  -0.122193 -0.21164 0.0356365
v  -0.182409 -0.21164 0.59372
v  -0.125902 -0.21164 0.0308321
v  0.182409 -0.21164 0.59372
v  0.182409 -0.21164 0.0574499
v  0.084635 -0.21164 0.0237396
v  0.20955 -0.21164 -0.0232503
v  0.20955 -0.21164 0.0574499
v  0.0814551 -0.21164 0.0185573
v  0.188231 -0.206479 0.0574499
v  0.20955 -0.184806 0.0574499
v  -0.188231 0.206479 0.0574499
v  -0.20955 0.184806 0.0574499
v  -0.20955 -0.184806 0.0574499
v  -0.188231 -0.206479 0.0574499
v  0.20955 0.184806 0.0574499
v  0.20955 -0.184806 0.59372
v  0.20955 0.184806 0.59372
v  -0.20955 0.184806 0.59372
v  -0.20955 -0.184806 0.59372
v  0.16955 -0.18 -0.0632503
v  -0.16955 -0.18 -0.0632503
v  0.16955 0.18 -0.0632503
v  -0.16955 0.18 -0.0632503
v  0.188231 0.206479 0.0574499
v  6.58903e-17 -0.2794 0.59372
v  -0.0513396 -0.274643 0.59372
v  -0.100931 -0.260533 0.59372
v  0.0513396 -0.274643 0.59372
v  -0.147085 -0.237551 0.59372
v  0.147085 -0.237551 0.59372
v  0.100931 -0.260533 0.59372
v  0.222966 -0.168376 0.59372
v  0.222966 0.168376 0.59372
v  0.250109 0.124539 0.59372
v  0.268734 0.0764614 0.59372
v  0.278208 0.0257798 0.59372
v  0.278208 -0.0257798 0.59372
v  0.268734 -0.0764614 0.59372
v  0.250109 -0.124539 0.59372
v  0.147085 0.237551 0.59372
v  -0.147085 0.237551 0.59372
v  -0.100931 0.260533 0.59372
v  -0.0513396 0.274643 0.59372
v  0.100931 0.260533 0.59372
v  0.0513396 0.274643 0.59372
v  3.16736e-17 0.2794 0.59372
v  -0.222966 0.168376 0.59372
v  -0.222966 -0.168376 0.59372
v  -0.250109 -0.124539 0.59372
v  -0.250109 0.124539 0.59372
v  -0.268734 0.0764614 0.59372
v  -0.278208 0.0257798 0.59372
v  -0.268734 -0.0764614 0.59372
v  -0.278208 -0.0257798 0.59372
v  -0.188231 -0.206479 0.60642
v  -0.147085 -0.237551 0.60642
v  -0.222966 -0.168376 0.60642
v  -0.250109 -0.124539 0.60642
v  -0.268734 -0.0764614 0.60642
v  -0.278208 -0.0257798 0.60642
v  -0.278208 0.0257798 0.60642
v  -0.268734 0.0764614 0.60642
v  -0.250109 0.124539 0.60642
v  -0.222966 0.168376 0.60642
v  -0.188231 0.206479 0.60642
v  -0.147085 0.237551 0.60642
v  -0.100931 0.260533 0.60642
v  -0.0513396 0.274643 0.60642
v  3.09303e-17 0.2794 0.60642
v  0.0513396 0.274643 0.60642
v  0.100931 0.260533 0.60642
v  0.147085 0.237551 0.60642
v  0.188231 0.206479 0.60642
v  0.222966 0.168376 0.60642
v  0.250109 0.124539 0.60642
v  0.268734 0.0764614 0.60642
v  0.278208 0.0257798 0.60642
v  0.278208 -0.0257798 0.60642
v  0.268734 -0.0764614 0.60642
v  0.250109 -0.124539 0.60642
v  0.222966 -0.168376 0.60642
v  0.188231 -0.206479 0.60642
v  -0.100931 -0.260533 0.60642
v  -0.0513396 -0.274643 0.60642
v  6.51469e-17 -0.2794 0.60642
v  0.0513396 -0.274643 0.60642
v  0.100931 -0.260533 0.60642
v  0.147085 -0.237551 0.60642
v  -0.122193 -0.29675 0.0356365
v  -0.0967987 -0.29675 0.0574499
v  -0.125902 -0.29675 0.0308321
v  -0.127403 -0.29675 0.0249513
v  -0.126451 -0.29675 0.0189571
v  -0.123202 -0.29675 0.0138307
v  -0.0735459 -0.29675 -0.0375191
v  -0.0686192 -0.29675 -0.0409014
v  -0.0627629 -0.29675 -0.0420918
v  0.0311886 -0.29675 -0.0420918
v  0.0386886 -0.29675 -0.0400822
v  0.044179 -0.29675 -0.0345918
v  0.0461886 -0.29675 -0.0270918
v  0.0461886 -0.29675 0.0138307
v  0.0705254 -0.29675 0.0138307
v  0.0764794 -0.29675 0.015063
v  0.0814551 -0.29675 0.0185573
v  0.084635 -0.29675 0.0237396
v  0.0967987 -0.29675 0.0574499
v  -0.0790886 -0.29675 0.143746
v  -0.0937835 -0.29675 0.117258
v  -0.0998732 -0.29675 0.0875849
v  0.0571366 -0.29675 0.164619
v  0.029942 -0.29675 0.177962
v  6.84325e-17 -0.29675 0.18255
v  -0.029942 -0.29675 0.177962
v  -0.0571366 -0.29675 0.164619
v  0.0998732 -0.29675 0.0875849
v  0.0937835 -0.29675 0.117258
v  0.0790886 -0.29675 0.143746
v  -0.0998732 -0.21175 0.0875849
v  -0.0937835 -0.21175 0.117258
v  -0.0790886 -0.21175 0.143746
v  -0.0571366 -0.21175 0.164619
v  0.0998732 -0.21175 0.0875849
v  -0.029942 -0.21175 0.177962
v  0.0571366 -0.21175 0.164619
v  0.0790886 -0.21175 0.143746
v  0.0937835 -0.21175 0.117258
v  6.84325e-17 -0.21175 0.18255
v  0.029942 -0.21175 0.177962
v  0.18865 0.18 -0.0441502
v  -0.18865 0.18 -0.0441502
v  0.18865 -0.18 -0.0441502
v  -0.18865 -0.18 -0.0441502

# 0 UV coordinates

# 188 vertex normals
vn 0 -1 0
vn 0.988364 0 -0.152109
vn 0.998718 0 -0.0506184
vn 0.988563 0 0.150806
vn 0.968054 0 0.25074
vn 0.898055 0 0.439883
vn 0.848565 0 0.529092
vn 0.725144 0 0.688598
vn 0.651213 0 0.758895
vn 0.485695 0 0.874128
vn 0.394108 0 0.919064
vn 0.20168 0 0.979451
vn 0.10084 0 0.994903
vn -0.10084 0 0.994903
vn -0.20168 0 0.979451
vn -0.394108 0 0.919064
vn -0.485695 0 0.874128
vn -0.651213 0 0.758895
vn -0.725144 0 0.688598
vn -0.848565 0 0.529092
vn -0.898055 0 0.439883
vn -0.968054 0 0.25074
vn -0.988563 0 0.150806
vn -0.998718 -0 -0.0506184
vn -0.988364 -0 -0.152109
vn 0 1 0
vn 0 -1.97215e-31 1
vn -0.94063 6.69415e-32 -0.339433
vn -0.134791 1.95415e-31 -0.990874
vn -0.269581 1.89914e-31 -0.962978
vn -0.517017 1.68811e-31 -0.855975
vn -0.629663 1.5321e-31 -0.776869
vn -0.814301 1.14472e-31 -0.580443
vn -0.886293 9.13351e-32 -0.463124
vn 7.12797e-17 1.97215e-31 -1
vn -1 0 0
vn -0.171862 1.94281e-31 -0.985121
vn -0.343724 1.85199e-31 -0.939071
vn -0.641397 1.51305e-31 -0.767209
vn -0.767209 1.26493e-31 -0.641397
vn -0.939071 6.77876e-32 -0.343724
vn -0.985121 3.38938e-32 -0.171862
vn -7.38561e-17 1.97215e-31 -1
vn 0.620421 1.5467e-31 -0.784269
vn 0.508955 1.69762e-31 -0.860793
vn 0.264992 1.90165e-31 -0.964251
vn 0.132496 1.95476e-31 -0.991184
vn 0.718863 1.37094e-31 -0.695152
vn 0.747731 -1.30951e-31 0.664002
vn 0.83169 -1.09502e-31 0.555241
vn 0.949637 -6.17976e-32 0.313351
vn 0.983626 -3.55428e-32 0.180223
vn 0.996067 1.74738e-32 -0.0886027
vn 0.97452 4.42355e-32 -0.224301
vn 0.879418 9.38844e-32 -0.47605
vn 0.805863 1.16771e-31 -0.592102
vn 0.651585 -1.49603e-31 0.758576
vn -1.32453e-16 1 0
vn 0 0 1
vn 1.32453e-16 -1 0
vn 1 0 0
vn 0 0 -1
vn 5.8534e-17 4.20842e-16 -1
vn -0.659861 -0.751388 -3.5484e-16
vn -0.619711 -0.78483 -3.66564e-16
vn -0.742705 -0.669618 -3.57715e-16
vn -0.666807 -0.74523 -3.52655e-16
vn -0.700052 -0.714092 -3.41497e-16
vn -0.72552 -0.688201 -3.32092e-16
vn -0.759456 -0.650559 -3.50705e-16
vn -0.833559 -0.55243 -3.13746e-16
vn -0.866064 -0.499932 -2.13256e-16
vn -0.920875 -0.389858 -1.37672e-16
vn -0.94318 -0.332281 -5.73737e-17
vn -0.976832 -0.214009 -8.98684e-17
vn -0.988177 -0.153314 -3.24948e-17
vn -0.999523 -0.0308732 -3.90041e-17
vn -0.999523 0.0308732 -6.5093e-18
vn -0.988177 0.153314 1.31885e-17
vn -0.976832 0.214009 1.96978e-17
vn -0.94318 0.332281 6.4932e-17
vn -0.920875 0.389858 4.52342e-17
vn -0.866064 0.499932 1.14464e-16
vn -0.833559 0.55243 1.3846e-16
vn -0.782513 0.622635 2.16227e-16
vn -0.742705 0.669618 2.3833e-16
vn -0.72552 0.688201 2.47156e-16
vn -0.619711 0.78483 3.17549e-16
vn -0.700052 0.714092 2.59543e-16
vn -0.666807 0.74523 2.74594e-16
vn -0.659861 0.751388 2.77592e-16
vn -0.57771 0.816242 3.33238e-16
vn -0.473162 0.880975 3.666e-16
vn -0.417889 0.908498 3.90145e-16
vn -0.303227 0.952918 3.92006e-16
vn -0.243838 0.969816 4.00733e-16
vn -0.122966 0.992411 4.0859e-16
vn -0.0614829 0.998108 4.06729e-16
vn 0.0614829 0.998108 4.15788e-16
vn 0.122966 0.992411 4.0793e-16
vn 0.243838 0.969816 4.13354e-16
vn 0.303227 0.952918 4.04295e-16
vn 0.417889 0.908498 4.01372e-16
vn 0.473162 0.880975 3.93024e-16
vn 0.570134 0.821552 3.79116e-16
vn 0.619711 0.78483 3.66564e-16
vn 0.659861 0.751388 3.5484e-16
vn 0.742705 0.669618 3.57715e-16
vn 0.666807 0.74523 3.52655e-16
vn 0.700052 0.714092 3.41497e-16
vn 0.72552 0.688201 3.32092e-16
vn 0.759456 0.650559 3.50705e-16
vn 0.833559 0.55243 3.13746e-16
vn 0.866064 0.499932 2.13256e-16
vn 0.920875 0.389858 1.37672e-16
vn 0.94318 0.332281 5.73737e-17
vn 0.976832 0.214009 8.98684e-17
vn 0.988177 0.153314 3.24948e-17
vn 0.999523 0.0308732 3.90041e-17
vn 0.999523 -0.0308732 6.5093e-18
vn 0.988177 -0.153314 -1.31885e-17
vn 0.976832 -0.214009 -1.96978e-17
vn 0.94318 -0.332281 -6.4932e-17
vn 0.920875 -0.389858 -4.52342e-17
vn 0.866064 -0.499932 -1.14464e-16
vn 0.833559 -0.55243 -1.3846e-16
vn 0.782513 -0.622635 -2.16227e-16
vn 0.742705 -0.669618 -2.3833e-16
vn 0.72552 -0.688201 -2.47156e-16
vn 0.619711 -0.78483 -3.17549e-16
vn 0.700052 -0.714092 -2.59543e-16
vn 0.666807 -0.74523 -2.74594e-16
vn 0.659861 -0.751388 -2.77592e-16
vn -0.570134 -0.821552 -3.79116e-16
vn -0.473162 -0.880975 -3.93024e-16
vn -0.417889 -0.908498 -4.01372e-16
vn -0.303227 -0.952918 -4.04295e-16
vn -0.243838 -0.969816 -4.13354e-16
vn -0.122966 -0.992411 -4.0793e-16
vn -0.0614829 -0.998108 -4.15788e-16
vn 0.0614829 -0.998108 -4.06729e-16
vn 0.122966 -0.992411 -4.0859e-16
vn 0.243838 -0.969816 -4.00733e-16
vn 0.303227 -0.952918 -3.92006e-16
vn 0.417889 -0.908498 -3.90145e-16
vn 0.473162 -0.880975 -3.666e-16
vn 0.57771 -0.816242 -3.33238e-16
vn 6.29106e-17 2.09136e-16 1
vn -0.651598 0 0.758564
vn -0.747741 0 0.66399
vn -0.831698 0 0.555228
vn -0.949641 0 0.31334
vn -0.983628 0 0.180213
vn -0.996066 -0 -0.0886102
vn -0.974519 -0 -0.224307
vn -0.879417 -0 -0.476053
vn -0.805862 -0 -0.592103
vn -0.718863 -0 -0.695152
vn -0.620421 -0 -0.784269
vn -0.508955 -0 -0.860793
vn -0.264992 -0 -0.964251
vn -0.132496 -0 -0.991184
vn 7.38561e-17 0 -1
vn 0.171862 0 -0.985121
vn 0.343724 0 -0.939071
vn 0.641397 0 -0.767209
vn 0.767209 0 -0.641397
vn 0.939071 0 -0.343724
vn 0.985121 0 -0.171862
vn -7.12797e-17 -0 -1
vn 0.134793 0 -0.990874
vn 0.269587 0 -0.962976
vn 0.517027 0 -0.855969
vn 0.629673 0 -0.77686
vn 0.814312 0 -0.580428
vn 0.886303 0 -0.463105
vn 0.940638 0 -0.339411
vn -0.998718 -0 -0.0506184
vn -0.988563 0 0.150806
vn -0.394108 0 0.919064
vn 0.394108 0 0.919064
vn 0.988563 0 0.150806
vn 0.998718 0 -0.0506184
vn 0 1 -1.45316e-15
vn 0 -1.58595e-14 -1
vn 0 -1 -1.45316e-15
vn 0.707107 0 -0.707107
vn -0.707107 -0 -0.707107

# Mesh '<STL_BINARY>' with 452 faces
g <STL_BINARY>
usemtl DefaultMaterial
f  1//1 2//1 3//1
f  3//1 2//1 4//1
f  3//1 4//1 5//1
f  5//1 6//1 3//1
f  3//1 6//1 7//1
f  3//1 7//1 8//1
f  9//1 10//1 7//1
f  7//1 10//1 11//1
f  11//1 12//1 7//1
f  7//1 12//1 13//1
f  7//1 13//1 8//1
f  9//2 14//2 15//2
f  9//3 15//3 10//3
f  10//4 15//4 16//4
f  10//5 16//5 11//5
f  11//6 16//6 17//6
f  11//7 17//7 12//7
f  12//8 17//8 18//8
f  12//9 18//9 13//9
f  13//10 18//10 19//10
f  13//11 19//11 8//11
f  8//12 19//12 20//12
f  8//13 20//13 3//13
f  3//14 20//14 21//14
f  3//15 21//15 1//15
f  1//16 21//16 22//16
f  1//17 22//17 2//17
f  2//18 22//18 23//18
f  2//19 23//19 4//19
f  4//20 23//20 24//20
f  4//21 24//21 5//21
f  5//22 24//22 25//22
f  5//23 25//23 6//23
f  6//24 25//24 26//24
f  6//25 26//25 7//25
f  27//26 20//26 19//26
f  28//26 22//26 27//26
f  27//26 22//26 21//26
f  27//26 21//26 20//26
f  19//26 18//26 27//26
f  27//26 18//26 17//26
f  27//26 17//26 16//26
f  16//26 15//26 27//26
f  27//26 15//26 14//26
f  27//26 14//26 29//26
f  30//26 31//26 27//26
f  30//26 27//26 32//26
f  32//26 27//26 29//26
f  29//26 14//26 33//26
f  29//26 33//26 34//26
f  34//26 33//26 35//26
f  36//26 37//26 34//26
f  34//26 35//26 36//26
f  38//26 31//26 30//26
f  38//26 39//26 31//26
f  40//26 39//26 38//26
f  22//26 28//26 41//26
f  26//26 23//26 22//26
f  26//26 22//26 42//26
f  42//26 22//26 41//26
f  42//26 41//26 43//26
f  26//26 25//26 24//26
f  24//26 23//26 26//26
f  7//27 44//27 9//27
f  9//27 44//27 45//27
f  46//28 44//28 42//28
f  42//28 44//28 7//28
f  42//28 7//28 26//28
f  28//29 47//29 48//29
f  28//30 48//30 41//30
f  41//31 48//31 49//31
f  41//32 49//32 43//32
f  43//33 49//33 46//33
f  43//34 46//34 42//34
f  27//35 50//35 28//35
f  28//35 50//35 47//35
f  31//36 51//36 27//36
f  27//36 51//36 50//36
f  38//37 52//37 53//37
f  38//38 53//38 40//38
f  40//39 53//39 54//39
f  40//40 54//40 39//40
f  39//41 54//41 51//41
f  39//42 51//42 31//42
f  30//43 55//43 38//43
f  38//43 55//43 52//43
f  29//44 56//44 57//44
f  29//45 57//45 32//45
f  32//46 57//46 55//46
f  32//47 55//47 30//47
f  34//48 58//48 29//48
f  29//48 58//48 56//48
f  33//49 59//49 60//49
f  33//50 60//50 35//50
f  35//51 60//51 61//51
f  35//52 61//52 36//52
f  36//53 61//53 62//53
f  36//54 62//54 37//54
f  37//55 62//55 58//55
f  37//56 58//56 34//56
f  45//57 59//57 9//57
f  9//57 59//57 33//57
f  9//57 33//57 14//57
f  51//58 54//58 63//58
f  63//58 48//58 51//58
f  51//58 48//58 47//58
f  51//58 47//58 50//58
f  53//58 63//58 54//58
f  52//58 63//58 53//58
f  55//58 64//58 52//58
f  52//58 64//58 63//58
f  55//58 57//58 64//58
f  64//58 57//58 56//58
f  64//58 56//58 65//58
f  56//58 58//58 66//58
f  65//58 56//58 66//58
f  65//58 66//58 67//58
f  66//58 58//58 62//58
f  66//58 62//58 61//58
f  59//58 68//58 66//58
f  59//58 66//58 60//58
f  60//58 66//58 61//58
f  45//58 68//58 59//58
f  45//58 69//58 68//58
f  44//58 69//58 45//58
f  44//58 70//58 69//58
f  46//58 70//58 44//58
f  71//58 72//58 70//58
f  46//58 71//58 70//58
f  46//58 49//58 63//58
f  63//58 71//58 46//58
f  63//58 49//58 48//58
f  73//59 74//59 75//59
f  75//59 74//59 76//59
f  77//60 78//60 79//60
f  79//60 80//60 77//60
f  77//60 80//60 81//60
f  77//60 81//60 82//60
f  83//60 79//60 78//60
f  84//60 79//60 83//60
f  85//60 86//60 84//60
f  84//60 86//60 79//60
f  85//60 87//60 86//60
f  86//60 87//60 88//60
f  86//60 88//60 89//60
f  88//60 90//60 91//60
f  89//60 88//60 91//60
f  89//60 91//60 92//60
f  91//60 90//60 93//60
f  91//60 93//60 94//60
f  95//60 96//60 91//60
f  95//60 91//60 97//60
f  97//60 91//60 94//60
f  74//60 96//60 95//60
f  74//60 98//60 96//60
f  73//60 98//60 74//60
f  73//60 99//60 98//60
f  100//60 99//60 73//60
f  101//60 102//60 99//60
f  100//60 101//60 99//60
f  100//60 103//60 79//60
f  79//60 101//60 100//60
f  79//60 103//60 80//60
f  99//59 102//59 104//59
f  104//59 102//59 105//59
f  70//59 72//59 106//59
f  106//59 72//59 107//59
f  108//59 92//59 109//59
f  109//59 92//59 91//59
f  105//61 102//61 101//61
f  110//61 111//61 105//61
f  110//61 105//61 65//61
f  65//61 105//61 101//61
f  65//61 67//61 110//61
f  112//61 111//61 110//61
f  71//36 89//36 108//36
f  72//36 71//36 107//36
f  107//36 71//36 108//36
f  108//36 89//36 92//36
f  107//36 108//36 113//36
f  113//36 108//36 114//36
f  115//62 116//62 117//62
f  117//62 116//62 118//62
f  110//59 67//59 119//59
f  119//59 67//59 66//59
f  120//63 121//63 122//63
f  120//63 122//63 123//63
f  124//63 125//63 122//63
f  122//63 125//63 126//63
f  122//63 126//63 123//63
f  96//63 98//63 124//63
f  124//63 98//63 125//63
f  111//63 112//63 127//63
f  127//63 112//63 128//63
f  128//63 129//63 127//63
f  127//63 129//63 130//63
f  127//63 130//63 131//63
f  131//63 132//63 127//63
f  127//63 132//63 133//63
f  127//63 133//63 134//63
f  135//63 68//63 136//63
f  136//63 137//63 135//63
f  135//63 137//63 138//63
f  135//63 138//63 139//63
f  136//63 68//63 69//63
f  139//63 138//63 140//63
f  138//63 141//63 140//63
f  142//63 113//63 114//63
f  114//63 143//63 142//63
f  142//63 143//63 144//63
f  142//63 144//63 145//63
f  146//63 144//63 147//63
f  147//63 144//63 148//63
f  145//63 144//63 146//63
f  147//63 148//63 149//63
f  91//64 96//64 150//64
f  150//65 96//65 151//65
f  143//66 114//66 150//66
f  91//67 150//67 109//67
f  109//68 150//68 114//68
f  109//69 114//69 108//69
f  150//70 152//70 143//70
f  143//71 152//71 153//71
f  143//72 153//72 144//72
f  144//73 153//73 154//73
f  144//74 154//74 148//74
f  148//75 154//75 155//75
f  148//76 155//76 149//76
f  149//77 155//77 156//77
f  149//78 156//78 147//78
f  147//79 156//79 157//79
f  147//80 157//80 146//80
f  146//81 157//81 158//81
f  146//82 158//82 145//82
f  145//83 158//83 159//83
f  145//84 159//84 142//84
f  142//85 159//85 113//85
f  113//86 159//86 160//86
f  113//87 160//87 107//87
f  136//88 69//88 160//88
f  107//89 160//89 106//89
f  106//90 160//90 69//90
f  106//91 69//91 70//91
f  160//92 161//92 136//92
f  136//93 161//93 162//93
f  136//94 162//94 137//94
f  137//95 162//95 163//95
f  137//96 163//96 138//96
f  138//97 163//97 164//97
f  138//98 164//98 141//98
f  141//99 164//99 165//99
f  141//100 165//100 140//100
f  140//101 165//101 166//101
f  140//102 166//102 139//102
f  139//103 166//103 167//103
f  139//104 167//104 135//104
f  135//105 167//105 68//105
f  68//106 167//106 168//106
f  68//107 168//107 66//107
f  128//108 112//108 168//108
f  66//109 168//109 119//109
f  119//110 168//110 112//110
f  119//111 112//111 110//111
f  168//112 169//112 128//112
f  128//113 169//113 170//113
f  128//114 170//114 129//114
f  129//115 170//115 171//115
f  129//116 171//116 130//116
f  130//117 171//117 172//117
f  130//118 172//118 131//118
f  131//119 172//119 173//119
f  131//120 173//120 132//120
f  132//121 173//121 174//121
f  132//122 174//122 133//122
f  133//123 174//123 175//123
f  133//124 175//124 134//124
f  134//125 175//125 176//125
f  134//126 176//126 127//126
f  127//127 176//127 111//127
f  111//128 176//128 177//128
f  111//129 177//129 105//129
f  125//130 98//130 177//130
f  105//131 177//131 104//131
f  104//132 177//132 98//132
f  104//133 98//133 99//133
f  96//134 124//134 151//134
f  151//135 124//135 122//135
f  151//136 122//136 178//136
f  178//137 122//137 121//137
f  178//138 121//138 179//138
f  179//139 121//139 120//139
f  179//140 120//140 180//140
f  180//141 120//141 123//141
f  180//142 123//142 181//142
f  181//143 123//143 126//143
f  181//144 126//144 182//144
f  182//145 126//145 125//145
f  182//146 125//146 183//146
f  183//147 125//147 177//147
f  170//148 169//148 161//148
f  170//148 161//148 171//148
f  169//148 168//148 161//148
f  161//148 168//148 167//148
f  161//148 167//148 162//148
f  171//148 161//148 160//148
f  167//148 166//148 165//148
f  165//148 164//148 167//148
f  167//148 164//148 163//148
f  167//148 163//148 162//148
f  171//148 160//148 159//148
f  158//148 171//148 159//148
f  158//148 157//148 171//148
f  157//148 156//148 171//148
f  171//148 156//148 155//148
f  171//148 155//148 154//148
f  154//148 153//148 171//148
f  171//148 153//148 152//148
f  171//148 152//148 150//148
f  150//148 151//148 171//148
f  171//148 151//148 178//148
f  171//148 178//148 172//148
f  174//148 173//148 178//148
f  172//148 178//148 173//148
f  179//148 176//148 178//148
f  178//148 176//148 175//148
f  178//148 175//148 174//148
f  179//148 180//148 176//148
f  176//148 180//148 181//148
f  181//148 182//148 176//148
f  176//148 182//148 183//148
f  176//148 183//148 177//148
f  74//149 95//149 76//149
f  76//149 95//149 184//149
f  76//149 184//149 185//149
f  184//150 95//150 97//150
f  184//151 97//151 186//151
f  186//152 97//152 94//152
f  186//153 94//153 187//153
f  187//154 94//154 93//154
f  187//155 93//155 188//155
f  188//156 93//156 90//156
f  188//157 90//157 189//157
f  90//158 88//158 189//158
f  189//158 88//158 190//158
f  190//159 88//159 87//159
f  190//160 87//160 191//160
f  191//161 87//161 85//161
f  191//162 85//162 192//162
f  85//163 84//163 192//163
f  192//163 84//163 193//163
f  193//164 84//164 83//164
f  193//165 83//165 194//165
f  194//166 83//166 78//166
f  194//167 78//167 195//167
f  195//168 78//168 77//168
f  195//169 77//169 196//169
f  77//61 82//61 196//61
f  196//61 82//61 197//61
f  82//170 81//170 197//170
f  197//170 81//170 198//170
f  198//171 81//171 80//171
f  198//172 80//172 199//172
f  199//173 80//173 103//173
f  199//174 103//174 200//174
f  200//175 103//175 100//175
f  200//176 100//176 201//176
f  100//177 73//177 201//177
f  201//177 73//177 75//177
f  201//177 75//177 202//177
f  197//1 203//1 204//1
f  189//1 190//1 197//1
f  185//1 189//1 197//1
f  185//1 197//1 205//1
f  205//1 197//1 204//1
f  206//1 207//1 197//1
f  197//1 207//1 208//1
f  198//1 206//1 197//1
f  208//1 209//1 197//1
f  197//1 209//1 210//1
f  197//1 210//1 203//1
f  192//1 196//1 197//1
f  192//1 197//1 191//1
f  191//1 197//1 190//1
f  199//1 206//1 198//1
f  200//1 201//1 199//1
f  199//1 201//1 206//1
f  206//1 201//1 202//1
f  202//1 211//1 206//1
f  206//1 211//1 212//1
f  206//1 212//1 213//1
f  193//1 196//1 192//1
f  194//1 195//1 193//1
f  193//1 195//1 196//1
f  184//1 189//1 185//1
f  184//1 186//1 189//1
f  189//1 186//1 187//1
f  189//1 187//1 188//1
f  76//26 214//26 75//26
f  75//26 214//26 215//26
f  215//26 216//26 75//26
f  75//26 216//26 217//26
f  75//26 217//26 218//26
f  219//26 220//26 217//26
f  217//26 220//26 221//26
f  217//26 221//26 222//26
f  218//26 217//26 222//26
f  223//26 220//26 219//26
f  224//26 220//26 223//26
f  76//25 185//25 205//25
f  76//178 205//178 214//178
f  214//179 205//179 204//179
f  214//22 204//22 215//22
f  215//21 204//21 203//21
f  215//20 203//20 216//20
f  216//19 203//19 210//19
f  216//18 210//18 217//18
f  217//17 210//17 209//17
f  217//180 209//180 219//180
f  219//15 209//15 208//15
f  219//14 208//14 223//14
f  223//13 208//13 207//13
f  223//12 207//12 224//12
f  224//181 207//181 206//181
f  224//10 206//10 220//10
f  220//9 206//9 213//9
f  220//8 213//8 221//8
f  221//7 213//7 212//7
f  221//6 212//6 222//6
f  222//5 212//5 211//5
f  222//182 211//182 218//182
f  218//183 211//183 202//183
f  218//2 202//2 75//2
f  225//62 226//62 64//62
f  64//62 226//62 63//62
f  117//184 118//184 225//184
f  225//184 118//184 226//184
f  79//185 86//185 227//185
f  227//185 86//185 228//185
f  227//186 228//186 115//186
f  115//186 228//186 116//186
f  225//187 64//187 65//187
f  227//187 117//187 225//187
f  227//187 225//187 101//187
f  101//187 225//187 65//187
f  101//187 79//187 227//187
f  115//187 117//187 227//187
f  89//188 71//188 226//188
f  86//188 89//188 228//188
f  228//188 89//188 226//188
f  226//188 71//188 63//188
f  228//188 226//188 116//188
f  116//188 226//188 118//188

