# File produced by Open Asset Import Library (http://www.assimp.sf.net)
# (assimp v3.1.187496374)

mtllib RMP210_chassis_collision.obj.mtl

# 104 vertex positions
v  -0.20955 -0.21175 0.0574499
v  -0.20955 -0.29675 0.0574499
v  -0.0967978 -0.21175 0.0574499
v  -0.0967978 -0.29675 0.0574499
v  0.17055 0.0900035 0.0574499
v  0.15785 0.0866005 0.0574499
v  0.20955 -0.29675 0.0574499
v  0.179847 0.0993005 0.0574499
v  0.0967996 -0.21175 0.0574499
v  0.0336374 -0.21175 0.0574499
v  0.14515 0.0900035 0.0574499
v  0.0967996 -0.29675 0.0574499
v  0.20955 0.29675 0.0574499
v  0.18325 0.112001 0.0574499
v  0.0967978 0.29675 0.0574499
v  0.0967978 0.21175 0.0574499
v  0.179847 0.124701 0.0574499
v  0.15785 0.137401 0.0574499
v  0.17055 0.133998 0.0574499
v  0.0336374 0.21175 0.0574499
v  0.135853 0.124701 0.0574499
v  0.14515 0.133998 0.0574499
v  0.135853 0.0993005 0.0574499
v  0.13245 0.112001 0.0574499
v  -0.0967996 0.21175 0.0574499
v  -0.0967996 0.29675 0.0574499
v  -0.20955 0.21175 0.0574499
v  -0.20955 0.29675 0.0574499
v  0.0336374 -0.21175 0.176723
v  0.0498007 -0.21175 0.169268
v  0.0704661 -0.21175 0.153505
v  0.0863715 -0.21175 0.132949
v  0.0964424 -0.21175 0.108989
v  0.0999985 -0.21175 0.0832429
v  0.0999967 0.21175 0.0832429
v  0.0964406 0.21175 0.108989
v  0.0863697 0.21175 0.132949
v  0.0704643 0.21175 0.153505
v  0.0497989 0.21175 0.169268
v  0.0336374 0.21175 0.176722
v  0.20955 0.29675 -0.0632503
v  -0.0999985 0.29675 0.0832429
v  -0.0964424 0.29675 0.108989
v  -9.18124e-07 0.29675 0.18255
v  -0.0257712 0.29675 0.179172
v  -0.0498007 0.29675 0.169268
v  0.0257694 0.29675 0.179172
v  0.0497989 0.29675 0.169268
v  0.0704643 0.29675 0.153505
v  0.0863697 0.29675 0.132949
v  0.0964406 0.29675 0.108989
v  0.0999967 0.29675 0.0832429
v  -0.0863715 0.29675 0.132949
v  -0.0704661 0.29675 0.153505
v  -0.20955 0.29675 -0.0632503
v  0.20955 -0.29675 -0.0632503
v  -0.20955 -0.29675 -0.0632503
v  -0.0999967 -0.29675 0.0832429
v  -0.0964406 -0.29675 0.108989
v  -0.0863697 -0.29675 0.132949
v  -0.0704643 -0.29675 0.153505
v  -0.0497989 -0.29675 0.169268
v  -0.0257694 -0.29675 0.179172
v  0.0999985 -0.29675 0.0832429
v  0.0964424 -0.29675 0.108989
v  0.0863715 -0.29675 0.132949
v  0.0704661 -0.29675 0.153505
v  0.0498007 -0.29675 0.169268
v  9.18124e-07 -0.29675 0.18255
v  0.0257712 -0.29675 0.179172
v  0.17055 0.133998 0.15905
v  0.15785 0.137401 0.15905
v  0.14515 0.133998 0.15905
v  0.135853 0.124701 0.15905
v  0.13245 0.112001 0.15905
v  0.135853 0.0993005 0.15905
v  0.14515 0.0900035 0.15905
v  0.15785 0.0866005 0.15905
v  0.17055 0.0900035 0.15905
v  0.179847 0.0993005 0.15905
v  0.18325 0.112001 0.15905
v  0.179847 0.124701 0.15905
v  -0.0999967 -0.21175 0.0832429
v  -0.0964406 -0.21175 0.108989
v  -0.0863697 -0.21175 0.132949
v  -0.0704643 -0.21175 0.153505
v  -0.0497989 -0.21175 0.169268
v  -0.0257694 -0.21175 0.179172
v  9.18124e-07 -0.21175 0.18255
v  0.0257712 -0.21175 0.179172
v  0.0257694 0.21175 0.179172
v  -9.18124e-07 0.21175 0.18255
v  -0.0257712 0.21175 0.179172
v  -0.0498007 0.21175 0.169268
v  -0.0704661 0.21175 0.153505
v  -0.0863715 0.21175 0.132949
v  -0.0964424 0.21175 0.108989
v  -0.0999985 0.21175 0.0832429
v  -0.235922 -0.21175 0.25745
v  -0.235922 0.21175 0.25745
v  -0.235922 -0.21175 0.0574499
v  -0.235922 0.21175 0.0574499
v  0.0336374 -0.21175 0.25745
v  0.0336374 0.21175 0.25745

# 0 UV coordinates

# 70 vertex normals
vn 0 0 1
vn 0 1 0
vn 0 -1 0
vn 1 0 0
vn -1 0 0
vn 0 0 -1
vn 0.171862 0.985121 0
vn -0.171862 0.985121 0
vn -0.343724 0.939071 0
vn -0.641397 0.767209 0
vn -0.767209 0.641397 0
vn -0.939071 0.343724 0
vn -0.985121 0.171862 0
vn -0.985121 -0.171862 0
vn -0.939071 -0.343724 0
vn -0.767209 -0.641397 0
vn -0.641397 -0.767209 0
vn -0.343724 -0.939071 0
vn -0.171862 -0.985121 0
vn 0.171862 -0.985121 0
vn 0.343724 -0.939071 0
vn 0.641397 -0.767209 0
vn 0.767209 -0.641397 0
vn 0.939071 -0.343724 0
vn 0.985121 -0.171862 0
vn 0.985121 0.171862 0
vn 0.939071 0.343724 0
vn 0.767209 0.641397 0
vn 0.641397 0.767209 0
vn 0.343724 0.939071 0
vn -0.986079 -0 -0.166276
vn -0.996823 -0 -0.0796461
vn -0.995623 0 0.093456
vn -0.98368 0 0.179928
vn -0.937912 0 0.346875
vn -0.904087 0 0.427348
vn -0.816842 0 0.576861
vn -0.763422 0 0.6459
vn -0.640594 0 0.76788
vn -0.571186 0 0.820821
vn -0.421072 0 0.907027
vn -0.340366 0 0.940293
vn -0.173106 0 0.984903
vn -0.0865531 0 0.996247
vn 0.0865531 0 0.996247
vn 0.173106 0 0.984903
vn 0.284138 0 0.958783
vn 0.366185 0 0.930542
vn 0.445692 0 0.895186
vn 0.571186 0 0.820821
vn 0.640594 0 0.76788
vn 0.763422 0 0.6459
vn 0.816842 0 0.576861
vn 0.904087 0 0.427348
vn 0.937912 0 0.346875
vn 0.98368 0 0.179928
vn 0.995623 0 0.093456
vn 0.996823 0 -0.0796461
vn 0.986079 0 -0.166276
vn 0.995623 0 0.093456
vn 0.816842 0 0.576861
vn 0.571186 0 0.820821
vn 0.445698 0 0.895184
vn 0.366191 0 0.93054
vn 0.284144 0 0.958782
vn -0.571186 0 0.820821
vn -0.816842 0 0.576861
vn -0.995623 0 0.093456
vn -1 -1.31077e-16 0
vn 1 1.14692e-16 0

# Mesh '<STL_BINARY>' with 204 faces
g <STL_BINARY>
usemtl DefaultMaterial
f  1//1 2//1 3//1
f  3//1 2//1 4//1
f  5//1 6//1 7//1
f  7//1 8//1 5//1
f  9//1 7//1 6//1
f  9//1 6//1 10//1
f  6//1 11//1 10//1
f  12//1 7//1 9//1
f  13//1 14//1 7//1
f  7//1 14//1 8//1
f  13//1 15//1 16//1
f  16//1 17//1 13//1
f  13//1 17//1 14//1
f  18//1 19//1 16//1
f  16//1 19//1 17//1
f  20//1 21//1 16//1
f  16//1 21//1 22//1
f  16//1 22//1 18//1
f  10//1 23//1 20//1
f  23//1 24//1 20//1
f  20//1 24//1 21//1
f  10//1 11//1 23//1
f  25//1 26//1 27//1
f  27//1 26//1 28//1
f  29//2 30//2 10//2
f  10//2 30//2 31//2
f  10//2 31//2 32//2
f  32//2 33//2 10//2
f  10//2 33//2 34//2
f  10//2 34//2 9//2
f  16//3 35//3 20//3
f  20//3 35//3 36//3
f  20//3 36//3 37//3
f  37//3 38//3 20//3
f  20//3 38//3 39//3
f  20//3 39//3 40//3
f  15//2 13//2 41//2
f  41//2 26//2 15//2
f  15//2 26//2 42//2
f  15//2 42//2 43//2
f  44//2 15//2 45//2
f  45//2 15//2 46//2
f  44//2 47//2 15//2
f  15//2 47//2 48//2
f  15//2 48//2 49//2
f  49//2 50//2 15//2
f  15//2 50//2 51//2
f  15//2 51//2 52//2
f  43//2 53//2 15//2
f  15//2 53//2 54//2
f  15//2 54//2 46//2
f  55//2 28//2 41//2
f  41//2 28//2 26//2
f  7//4 56//4 13//4
f  13//4 56//4 41//4
f  57//5 2//5 1//5
f  57//5 1//5 55//5
f  55//5 1//5 27//5
f  55//5 27//5 28//5
f  56//3 7//3 57//3
f  57//3 7//3 12//3
f  2//3 57//3 4//3
f  4//3 57//3 12//3
f  4//3 12//3 58//3
f  58//3 12//3 59//3
f  12//3 60//3 59//3
f  12//3 61//3 60//3
f  62//3 61//3 12//3
f  12//3 63//3 62//3
f  12//3 64//3 63//3
f  63//3 64//3 65//3
f  63//3 65//3 66//3
f  66//3 67//3 63//3
f  63//3 67//3 68//3
f  63//3 68//3 69//3
f  69//3 68//3 70//3
f  41//6 56//6 55//6
f  55//6 56//6 57//6
f  71//7 18//7 72//7
f  72//8 18//8 22//8
f  72//9 22//9 73//9
f  73//10 22//10 21//10
f  73//11 21//11 74//11
f  74//12 21//12 24//12
f  74//13 24//13 75//13
f  75//14 24//14 23//14
f  75//15 23//15 76//15
f  76//16 23//16 11//16
f  76//17 11//17 77//17
f  77//18 11//18 6//18
f  77//19 6//19 78//19
f  78//20 6//20 5//20
f  78//21 5//21 79//21
f  79//22 5//22 8//22
f  79//23 8//23 80//23
f  80//24 8//24 14//24
f  80//25 14//25 81//25
f  81//26 14//26 17//26
f  81//27 17//27 82//27
f  82//28 17//28 19//28
f  82//29 19//29 71//29
f  71//30 19//30 18//30
f  75//1 76//1 77//1
f  77//1 71//1 75//1
f  75//1 71//1 73//1
f  75//1 73//1 74//1
f  71//1 77//1 78//1
f  71//1 72//1 73//1
f  82//1 71//1 81//1
f  81//1 71//1 78//1
f  81//1 78//1 80//1
f  80//1 78//1 79//1
f  3//31 4//31 58//31
f  3//32 58//32 83//32
f  83//33 58//33 59//33
f  83//34 59//34 84//34
f  84//35 59//35 60//35
f  84//36 60//36 85//36
f  85//37 60//37 61//37
f  85//38 61//38 86//38
f  86//39 61//39 62//39
f  86//40 62//40 87//40
f  87//41 62//41 63//41
f  87//42 63//42 88//42
f  88//43 63//43 69//43
f  88//44 69//44 89//44
f  89//45 69//45 70//45
f  89//46 70//46 90//46
f  90//47 70//47 29//47
f  29//48 70//48 68//48
f  29//49 68//49 30//49
f  30//50 68//50 67//50
f  30//51 67//51 31//51
f  31//52 67//52 66//52
f  31//53 66//53 32//53
f  32//54 66//54 65//54
f  32//55 65//55 33//55
f  33//56 65//56 64//56
f  33//57 64//57 34//57
f  34//58 64//58 12//58
f  34//59 12//59 9//59
f  16//59 15//59 52//59
f  16//58 52//58 35//58
f  35//60 52//60 51//60
f  35//56 51//56 36//56
f  36//55 51//55 50//55
f  36//54 50//54 37//54
f  37//61 50//61 49//61
f  37//52 49//52 38//52
f  38//51 49//51 48//51
f  38//62 48//62 39//62
f  39//63 48//63 40//63
f  40//64 48//64 47//64
f  40//65 47//65 91//65
f  91//46 47//46 44//46
f  91//45 44//45 92//45
f  92//44 44//44 45//44
f  92//43 45//43 93//43
f  93//42 45//42 46//42
f  93//41 46//41 94//41
f  94//66 46//66 54//66
f  94//39 54//39 95//39
f  95//38 54//38 53//38
f  95//67 53//67 96//67
f  96//36 53//36 43//36
f  96//35 43//35 97//35
f  97//34 43//34 42//34
f  97//68 42//68 98//68
f  98//32 42//32 26//32
f  98//31 26//31 25//31
f  99//69 100//69 101//69
f  101//69 100//69 102//69
f  3//3 83//3 1//3
f  1//3 83//3 101//3
f  101//3 83//3 99//3
f  99//3 83//3 84//3
f  85//3 86//3 99//3
f  99//3 86//3 87//3
f  99//3 87//3 103//3
f  99//3 84//3 85//3
f  103//3 87//3 88//3
f  29//3 103//3 90//3
f  90//3 103//3 89//3
f  103//3 88//3 89//3
f  104//70 103//70 40//70
f  40//70 103//70 29//70
f  40//70 29//70 20//70
f  20//70 29//70 10//70
f  104//2 40//2 91//2
f  91//2 92//2 104//2
f  104//2 92//2 93//2
f  104//2 93//2 100//2
f  100//2 93//2 94//2
f  100//2 94//2 95//2
f  95//2 96//2 100//2
f  100//2 96//2 97//2
f  100//2 97//2 102//2
f  102//2 97//2 98//2
f  102//2 98//2 27//2
f  27//2 98//2 25//2
f  103//1 104//1 99//1
f  99//1 104//1 100//1
f  101//6 102//6 1//6
f  1//6 102//6 27//6

